<svg width="44" height="38" viewBox="0 0 44 38" fill="none" xmlns="http://www.w3.org/2000/svg">
<g clip-path="url(#clip0_2810_4223)">
<path d="M8.68536 6.05342C7.50682 4.03164 5.90546 3.91193 5.45269 4.33424C4.99991 4.75655 6.29831 6.05342 6.29831 6.05342C6.29831 6.05342 5.45269 5.78074 5.29954 6.20305C5.1464 6.62537 6.73111 7.27047 6.16514 8.47755C5.59917 9.68463 8.68536 6.05342 8.68536 6.05342Z" fill="#167CBF"/>
<path d="M21.9984 37.5999C21.9984 37.5999 5.92162 30.7065 0.398438 20.8238L7.69277 5.2182C7.02692 3.25961 3.92076 2.90713 3.50793 5.26476C3.25824 6.68133 5.20251 8.56345 6.36773 9.29833C6.36773 9.29833 5.5321 11.626 5.1559 12.2213C4.44011 11.7058 2.41928 10.2826 1.18746 8.15443C1.11422 8.02142 1.05097 7.88509 0.991039 7.74542C0.49492 6.53628 0.46166 5.18706 0.897599 3.955C1.33354 2.72293 2.20818 1.69419 3.35479 1.06492C5.92162 -0.315075 9.38734 0.502946 10.436 3.02019H10.4727C14.2247 0.616006 16.948 0.306754 20.9864 2.18887L21.9984 2.66106" fill="#167CBF"/>
<path d="M21.9984 37.5999C21.9984 37.5999 38.0753 30.7065 43.5984 20.8238L36.3041 5.2182C36.97 3.25961 40.0761 2.90713 40.4889 5.26476C40.7386 6.68133 38.7944 8.56345 37.6291 9.29833C37.6291 9.29833 38.4648 11.626 38.841 12.2213C39.5568 11.7191 41.5776 10.2826 42.8094 8.15443C42.8827 8.02142 42.9459 7.88509 43.0058 7.74542C43.502 6.53628 43.5352 5.18706 43.0993 3.955C42.6633 2.72293 41.7887 1.69419 40.6421 1.06492C38.0753 -0.318401 34.6029 0.49962 33.5608 3.01686H33.5275C29.7722 0.616005 27.0489 0.306754 23.0105 2.18887L21.9984 2.66106" fill="#167CBF"/>
<path d="M21.9994 11.7061C18.3772 11.7061 17.0455 16.0622 17.2653 18.9785C17.448 20.6397 17.7971 22.2784 18.3073 23.87C18.4087 24.3593 18.6105 24.8224 18.8999 25.23C19.048 25.4345 19.2539 25.59 19.4913 25.6766C19.7286 25.7631 19.9865 25.7766 20.2316 25.7155C20.4577 25.6169 20.6491 25.4531 20.7814 25.2452C20.9136 25.0373 20.9807 24.7946 20.974 24.5483C20.974 23.9664 20.6711 23.3412 20.4713 22.7992C20.155 21.928 19.7622 21.0867 19.4725 20.2088C19.2495 19.5438 19.1396 18.6858 19.952 18.4231C20.6644 18.1937 20.8508 18.8488 22.0127 18.8488C23.1746 18.8488 23.3644 18.1837 24.0769 18.4231C24.8925 18.6858 24.776 19.5537 24.5529 20.2088C24.26 21.0867 23.8671 21.928 23.5542 22.7992C23.3378 23.3446 23.0381 23.9664 23.0381 24.5483C23.0323 24.7944 23.0998 25.0367 23.232 25.2445C23.3641 25.4522 23.5551 25.6162 23.7806 25.7155C24.0257 25.7766 24.2835 25.7631 24.5209 25.6766C24.7582 25.59 24.9642 25.4345 25.1123 25.23C25.399 24.8213 25.5995 24.3586 25.7015 23.87C26.2086 22.2775 26.5576 20.6391 26.7436 18.9785C26.9633 16.0622 25.6083 11.7061 21.9994 11.7061Z" fill="#F5F5EB"/>
<path d="M27.9626 12.2455C27.9626 13.2431 28.7649 12.6512 29.7537 12.6512C30.7425 12.6512 31.5482 13.2331 31.5482 12.2455C31.5586 12.0038 31.52 11.7626 31.4346 11.5363C31.3492 11.3099 31.2188 11.1032 31.0513 10.9285C30.8838 10.7539 30.6826 10.6149 30.4599 10.5199C30.2372 10.4249 29.9975 10.376 29.7554 10.376C29.5132 10.376 29.2736 10.4249 29.0509 10.5199C28.8282 10.6149 28.627 10.7539 28.4595 10.9285C28.292 11.1032 28.1616 11.3099 28.0762 11.5363C27.9908 11.7626 27.9522 12.0038 27.9626 12.2455V12.2455Z" fill="#F5F5EB"/>
<path d="M16.042 12.2445C16.042 13.2421 15.2364 12.6502 14.2476 12.6502C13.2588 12.6502 12.4531 13.2321 12.4531 12.2445C12.4531 11.7691 12.6422 11.3132 12.9787 10.9771C13.3152 10.641 13.7717 10.4521 14.2476 10.4521C14.7235 10.4521 15.1799 10.641 15.5164 10.9771C15.853 11.3132 16.042 11.7691 16.042 12.2445V12.2445Z" fill="#F5F5EB"/>
<path d="M19.6189 25.0336C19.5469 25.0233 19.4803 24.9898 19.4292 24.9382C19.3781 24.8865 19.3454 24.8196 19.336 24.7476C19.3265 24.6756 19.3409 24.6025 19.377 24.5395C19.413 24.4765 19.4688 24.4269 19.5356 24.3985C19.6189 24.3915 19.7017 24.416 19.7677 24.4671C19.8336 24.5182 19.878 24.5923 19.8919 24.6745C19.8999 24.7577 19.8762 24.8408 19.8256 24.9073C19.775 24.9739 19.7012 25.019 19.6189 25.0336V25.0336ZM19.4491 23.7534C19.4454 23.7239 19.4359 23.6955 19.4212 23.6696C19.4065 23.6438 19.3868 23.6211 19.3633 23.6029C19.3398 23.5847 19.3129 23.5713 19.2842 23.5634C19.2555 23.5556 19.2256 23.5535 19.1961 23.5572C19.1359 23.5655 19.0814 23.5969 19.0441 23.6447C19.0068 23.6925 18.9897 23.753 18.9963 23.8133C19.0098 23.8682 19.0431 23.9162 19.0898 23.9481C19.1366 23.98 19.1935 23.9935 19.2496 23.9861C19.3057 23.9787 19.3571 23.9508 19.3939 23.9079C19.4307 23.8649 19.4504 23.8099 19.4491 23.7534V23.7534ZM20.2215 23.6536C20.2132 23.5938 20.1816 23.5397 20.1336 23.503C20.0856 23.4662 20.0251 23.4499 19.9651 23.4574C19.9105 23.4709 19.8626 23.5039 19.8307 23.5502C19.7988 23.5965 19.7851 23.6529 19.7921 23.7087C19.799 23.7645 19.8263 23.8158 19.8686 23.8528C19.911 23.8899 19.9654 23.9101 20.0217 23.9097C20.0517 23.906 20.0806 23.8964 20.1068 23.8816C20.1331 23.8667 20.1562 23.8468 20.1747 23.823C20.1933 23.7992 20.2069 23.772 20.215 23.743C20.223 23.7139 20.2252 23.6836 20.2215 23.6536V23.6536ZM18.973 23.0584C18.968 23.0201 18.9481 22.9853 18.9175 22.9617C18.887 22.938 18.8483 22.9273 18.8099 22.9321C18.7821 22.9361 18.7561 22.9483 18.7352 22.9669C18.7143 22.9856 18.6993 23.0101 18.6922 23.0372C18.6851 23.0643 18.6861 23.0929 18.6951 23.1195C18.7041 23.146 18.7207 23.1693 18.7429 23.1865C18.7651 23.2037 18.7919 23.214 18.8199 23.2161C18.8478 23.2182 18.8758 23.2121 18.9004 23.1984C18.9249 23.1848 18.9448 23.1642 18.9578 23.1393C18.9707 23.1144 18.976 23.0863 18.973 23.0584V23.0584ZM19.6688 22.9653C19.6638 22.9279 19.6442 22.8939 19.6143 22.8709C19.5844 22.8478 19.5465 22.8375 19.509 22.8423C19.4884 22.8428 19.4681 22.8478 19.4497 22.8571C19.4313 22.8663 19.4151 22.8795 19.4024 22.8957C19.3897 22.9119 19.3807 22.9307 19.3761 22.9508C19.3715 22.9709 19.3714 22.9917 19.3758 23.0119C19.3774 23.0313 19.3829 23.0502 19.3921 23.0675C19.4012 23.0847 19.4138 23.0999 19.429 23.1121C19.4443 23.1243 19.4619 23.1332 19.4807 23.1384C19.4995 23.1435 19.5192 23.1448 19.5386 23.142C19.5579 23.1393 19.5765 23.1327 19.5931 23.1225C19.6098 23.1123 19.6242 23.0989 19.6355 23.0829C19.6467 23.067 19.6546 23.049 19.6586 23.0299C19.6627 23.0108 19.6627 22.9911 19.6588 22.972L19.6688 22.9653ZM19.0429 22.3468C19.0409 22.3278 19.035 22.3093 19.0256 22.2927C19.0162 22.276 19.0034 22.2614 18.9881 22.2499C18.9728 22.2383 18.9553 22.2301 18.9367 22.2256C18.918 22.2211 18.8987 22.2205 18.8798 22.2238C18.8519 22.2279 18.8259 22.2402 18.805 22.2591C18.784 22.278 18.7692 22.3026 18.7622 22.3299C18.7553 22.3572 18.7565 22.3859 18.7659 22.4125C18.7752 22.4391 18.7922 22.4623 18.8147 22.4793C18.8372 22.4963 18.8642 22.5062 18.8924 22.5079C18.9205 22.5096 18.9485 22.503 18.9729 22.4888C18.9973 22.4747 19.0169 22.4536 19.0294 22.4284C19.0418 22.4031 19.0465 22.3747 19.0429 22.3468V22.3468Z" fill="#167CBF"/>
<path d="M24.1078 24.6749C24.1217 24.5926 24.1661 24.5186 24.2321 24.4675C24.298 24.4164 24.3809 24.3919 24.4641 24.3989C24.5309 24.4045 24.5944 24.4301 24.6464 24.4724C24.6983 24.5147 24.7363 24.5716 24.7553 24.6358C24.7744 24.7 24.7736 24.7685 24.753 24.8322C24.7325 24.8959 24.6931 24.9519 24.6402 24.993C24.5872 25.034 24.5231 25.0581 24.4562 25.0622C24.3893 25.0662 24.3227 25.05 24.2652 25.0156C24.2077 24.9812 24.1619 24.9303 24.1338 24.8695C24.1057 24.8087 24.0967 24.7409 24.1078 24.6749ZM24.7471 24.0098C24.807 24.0174 24.8676 24.001 24.9156 23.9643C24.9636 23.9276 24.9951 23.8734 25.0034 23.8136C25.01 23.7534 24.9929 23.6929 24.9556 23.6451C24.9183 23.5973 24.8638 23.5659 24.8036 23.5576C24.7474 23.5572 24.6929 23.5774 24.6505 23.6144C24.6082 23.6515 24.581 23.7028 24.574 23.7586C24.567 23.8143 24.5808 23.8707 24.6127 23.9171C24.6446 23.9634 24.6924 23.9964 24.7471 24.0098V24.0098ZM23.978 23.9101C24.0076 23.9142 24.0377 23.9125 24.0666 23.9048C24.0955 23.8971 24.1225 23.8838 24.1461 23.8655C24.1697 23.8472 24.1894 23.8243 24.204 23.7983C24.2185 23.7722 24.2278 23.7435 24.231 23.7139C24.2352 23.6841 24.2335 23.6539 24.2258 23.6248C24.2182 23.5958 24.2048 23.5685 24.1866 23.5447C24.1683 23.5209 24.1454 23.5009 24.1193 23.486C24.0932 23.4711 24.0644 23.4615 24.0346 23.4578C24.0031 23.4501 23.9703 23.4491 23.9384 23.4549C23.9065 23.4607 23.8762 23.4732 23.8495 23.4916C23.8228 23.5099 23.8003 23.5337 23.7834 23.5614C23.7666 23.5891 23.7558 23.62 23.7518 23.6522C23.7478 23.6843 23.7506 23.7169 23.7601 23.7479C23.7696 23.7789 23.7856 23.8075 23.8069 23.8318C23.8283 23.8562 23.8546 23.8757 23.8841 23.8892C23.9136 23.9027 23.9456 23.9098 23.978 23.9101V23.9101ZM25.1532 23.2184C25.1912 23.2232 25.2295 23.2128 25.2598 23.1894C25.2901 23.1661 25.3098 23.1316 25.3147 23.0937C25.3195 23.0558 25.3091 23.0175 25.2857 22.9872C25.2623 22.957 25.2278 22.9373 25.1898 22.9324C25.1515 22.9277 25.1128 22.9383 25.0822 22.962C25.0516 22.9857 25.0317 23.0205 25.0267 23.0588C25.0244 23.0776 25.0258 23.0967 25.031 23.1149C25.0361 23.1331 25.0448 23.1502 25.0565 23.165C25.0683 23.1799 25.0829 23.1922 25.0995 23.2014C25.1161 23.2106 25.1344 23.2163 25.1532 23.2184ZM24.4541 23.1286C24.4916 23.1333 24.5294 23.123 24.5594 23.1C24.5893 23.0769 24.6089 23.043 24.6139 23.0056C24.6172 22.9867 24.6166 22.9674 24.6121 22.9488C24.6076 22.9302 24.5993 22.9127 24.5877 22.8974C24.5762 22.8821 24.5616 22.8694 24.5449 22.8599C24.5282 22.8505 24.5098 22.8446 24.4907 22.8426C24.4527 22.8378 24.4144 22.8482 24.3841 22.8716C24.3538 22.895 24.3341 22.9294 24.3292 22.9673C24.3244 23.0053 24.3348 23.0436 24.3582 23.0738C24.3816 23.104 24.4161 23.1238 24.4541 23.1286V23.1286ZM25.0966 22.5201C25.1158 22.524 25.1355 22.5239 25.1546 22.5199C25.1737 22.5159 25.1918 22.508 25.2077 22.4968C25.2237 22.4855 25.2372 22.4711 25.2473 22.4545C25.2575 22.4378 25.2642 22.4193 25.2669 22.4C25.2696 22.3806 25.2684 22.361 25.2632 22.3422C25.2581 22.3234 25.2491 22.3058 25.2369 22.2906C25.2247 22.2753 25.2095 22.2628 25.1922 22.2536C25.175 22.2445 25.156 22.239 25.1366 22.2374C25.1177 22.2341 25.0983 22.2348 25.0797 22.2393C25.0611 22.2437 25.0435 22.252 25.0282 22.2636C25.0129 22.2751 25.0002 22.2897 24.9908 22.3063C24.9813 22.323 24.9754 22.3414 24.9734 22.3605C24.9687 22.3979 24.979 22.4357 25.0021 22.4656C25.0252 22.4955 25.0592 22.5151 25.0966 22.5201Z" fill="#167CBF"/>
<path d="M35.3125 6.05342C36.491 4.03164 38.0924 3.91193 38.5452 4.33424C38.998 4.75655 37.6996 6.05342 37.6996 6.05342C37.6996 6.05342 38.5452 5.78074 38.6983 6.20305C38.8515 6.62537 37.2668 7.27047 37.8327 8.47755C38.3987 9.68463 35.3125 6.05342 35.3125 6.05342Z" fill="#167CBF"/>
</g>
<defs>
<clipPath id="clip0_2810_4223">
<rect width="43.2" height="37.2" fill="white" transform="translate(0.398438 0.400391)"/>
</clipPath>
</defs>
</svg>
