<svg width="45" height="34" viewBox="0 0 45 34" fill="none" xmlns="http://www.w3.org/2000/svg">
<path d="M0.570312 14.5846C1.40773 15.359 2.41368 15.9292 3.50918 16.2504C5.67087 16.8862 7.99829 16.3614 9.75235 14.9512C12.087 13.0728 16.924 10.4908 16.924 10.4908L13.4571 11.3566C19.9288 5.24468 22.356 14.6431 22.356 14.6431C22.356 14.6431 24.7833 5.24571 31.255 11.3566L27.788 10.4908C27.788 10.4908 32.6261 13.0728 34.9597 14.9512C36.7096 16.3614 39.0422 16.8862 41.2029 16.2504C42.2984 15.9292 43.3043 15.359 44.1417 14.5846C41.3716 14.1546 41.2846 13.8576 39.3171 12.74C40.5703 11.0004 40.5703 10.6433 41.3099 9.10738C41.3099 9.10738 43.4778 3.48639 42.6975 0.286133C42.6975 0.286133 41.0793 2.59286 36.1672 3.22655C36.1672 3.22655 33.0471 4.20634 32.1227 6.39805C32.1227 6.39805 29.117 4.3224 25.823 3.86126C24.3049 3.62912 21.1896 3.53978 18.8932 3.86126C15.5992 4.3224 12.5945 6.39805 12.5945 6.39805C11.668 4.20634 8.54901 3.22655 8.54901 3.22655C3.63271 2.59286 2.01144 0.286133 2.01144 0.286133C1.23529 3.48639 3.40213 9.10738 3.40213 9.10738C4.14174 10.4908 4.14174 11.0004 5.40117 12.74C4.26886 13.5004 3.33935 14.1547 0.570312 14.5846ZM35.7914 5.21592C38.1322 4.8123 39.1719 4.17759 39.1719 4.17759C39.8657 6.88795 38.3628 11.5004 38.3628 11.5004C37.7062 9.96065 34.7323 7.87648 33.2468 7.14368C33.2468 7.14368 33.4517 5.61955 35.7914 5.21592ZM6.35129 11.5004C6.35129 11.5004 4.8484 6.88795 5.5422 4.17759C5.5422 4.17759 6.58187 4.8123 8.92267 5.21592C11.2635 5.61955 11.4652 7.14676 11.4652 7.14676C9.39977 8.16074 7.31289 9.24068 6.34923 11.5004H6.35129Z" fill="#167CBF"/>
<path d="M29.89 14.3827C28.4489 13.9555 24.9614 13.3382 24.2779 17.0191L23.7138 20.6949C30.5097 21.4558 30.2761 30.958 22.3571 30.2957C14.4395 30.9581 14.2016 21.4562 20.9993 20.6959L20.4373 17.0201C19.7538 13.3392 16.2693 13.9565 14.8251 14.3837C9.14696 16.0554 8.47283 22.0714 0.570312 18.4909C1.20647 21.2577 8.47283 24.9345 8.47283 24.9345C6.60863 25.5394 3.2714 23.5511 3.2714 23.5511C5.93275 35.3981 16.4329 33.4445 22.356 33.9242C28.2798 33.4444 38.7778 35.3976 41.4407 23.5511C41.4407 23.5511 38.1034 25.5394 36.2392 24.9345C36.2392 24.9345 43.5066 21.2587 44.1417 18.4919C38.2381 21.9492 35.1858 15.9473 29.89 14.3827ZM11.4632 20.2101C11.4632 20.2101 13.9687 19.3885 15.7001 18.2885C16.2449 17.9339 16.7126 17.4736 17.0753 16.9349C17.2095 16.7402 17.3973 16.5885 17.6161 16.498C17.8349 16.4075 18.0753 16.3822 18.3081 16.4251C18.541 16.4681 18.7565 16.5773 18.9284 16.7398C19.1004 16.9022 19.2215 17.1109 19.2772 17.3406C19.195 17.2514 19.0918 17.1842 18.977 17.1448C18.8622 17.1055 18.7394 17.0954 18.6196 17.1154C18.4999 17.1353 18.3871 17.1848 18.2913 17.2593C18.1956 17.3337 18.12 17.4308 18.0714 17.5418C18.0227 17.6528 18.0026 17.7741 18.0128 17.8947C18.023 18.0154 18.0632 18.1317 18.1298 18.2329C18.1963 18.3342 18.2872 18.4173 18.3941 18.4747C18.501 18.5321 18.6205 18.562 18.7419 18.5617C18.7963 18.5614 18.8505 18.5552 18.9035 18.5432C18.6789 18.745 18.3874 18.8567 18.0851 18.8565H17.9997C17.7162 18.8327 17.4329 18.9051 17.1958 19.0619C16.2467 19.7089 13.9059 21.0225 11.4632 20.2101ZM27.5214 19.0578C27.2843 18.9009 27.001 18.8286 26.7175 18.8524H26.6321C26.3298 18.8525 26.0383 18.7409 25.8137 18.5391C25.8668 18.551 25.9209 18.5572 25.9753 18.5576C26.0967 18.5579 26.2163 18.528 26.3231 18.4706C26.43 18.4132 26.5209 18.3301 26.5874 18.2288C26.654 18.1276 26.6942 18.0113 26.7044 17.8906C26.7146 17.77 26.6945 17.6486 26.6459 17.5377C26.5972 17.4267 26.5216 17.3296 26.4259 17.2552C26.3301 17.1807 26.2173 17.1312 26.0976 17.1113C25.9778 17.0913 25.855 17.1014 25.7402 17.1407C25.6254 17.1801 25.5222 17.2473 25.44 17.3365C25.4959 17.1068 25.6172 16.8983 25.7893 16.7359C25.9613 16.5735 26.1768 16.4643 26.4097 16.4214C26.6426 16.3785 26.883 16.4038 27.1018 16.4942C27.3206 16.5845 27.5086 16.7362 27.6429 16.9308C28.0055 17.4697 28.4732 17.9301 29.0182 18.2844C30.7434 19.3885 33.2489 20.2101 33.2489 20.2101C30.8072 21.0225 28.4664 19.7089 27.5163 19.0588L27.5214 19.0578Z" fill="#167CBF"/>
<path d="M18.6875 24.1553C18.6875 25.1433 20.3345 25.9444 22.3572 25.9444C24.3799 25.9444 26.027 25.1433 26.027 24.1553C26.027 23.1673 24.383 22.3672 22.3562 22.3672C20.3294 22.3672 18.6875 23.1673 18.6875 24.1553ZM22.3572 24.8629C23.1591 24.8629 23.8097 25.0858 23.8097 25.36C23.8097 25.6342 23.1581 25.8591 22.3562 25.8591C21.5543 25.8591 20.9048 25.6363 20.9048 25.361C20.9048 25.0858 21.5543 24.8629 22.3562 24.8629H22.3572Z" fill="#167CBF"/>
</svg>
