<svg width="41" height="43" viewBox="0 0 41 43" fill="none" xmlns="http://www.w3.org/2000/svg">
<g clip-path="url(#clip0_2810_2274)">
<path d="M9.17217 20.3326C7.28303 18.2456 5.43665 17.3218 2.2063 16.0642C2.59853 13.9247 3.27053 14.6266 2.40009 12.111C1.94465 10.7915 1.56682 9.86536 1.22478 8.34922C0.647583 5.79121 0.172162 2.1199 1.37675 0.0294986C3.45039 0.0218798 5.2331 3.32986 6.44745 4.49221C9.04391 6.97498 9.78655 6.26643 14.2703 6.27929C18.3599 6.29167 19.875 6.74356 22.1707 4.56506C23.3679 3.42748 25.4113 0.115686 27.221 -0.000976562C28.5362 2.00658 28.0069 5.78693 27.4255 8.36112C27.0737 9.91107 26.7089 10.8177 26.2372 12.1815C25.4545 14.4433 26.1238 13.9524 26.3217 16.2856C21.4509 17.3756 16.6237 22.1173 16.1064 27.6886C19.0979 25.7786 17.0183 25.0139 22.8088 25.0034C31.0341 24.9882 40.1094 30.9404 40.4315 38.3815C37.9981 37.1949 38.4289 35.8535 34.4954 35.1345C34.5387 35.2397 34.6135 35.3593 34.6525 35.4364C34.6916 35.5135 34.7613 35.6426 34.8078 35.7378L35.6945 38.1235C29.4666 37.8254 28.7955 40.9515 24.0478 42.2062C19.8466 43.3161 14.5217 42.9823 10.9326 41.3762C6.95075 39.5925 4.44677 37.3387 2.69612 33.815C1.53058 31.4689 -0.589535 23.6897 0.998456 21.0155C1.64397 20.1998 3.48896 21.2664 4.23253 21.6088C8.13628 23.4106 9.80979 24.8706 12.5248 27.8867C12.8747 25.5001 10.3298 21.6112 9.17217 20.3326Z" fill="#167CBF"/>
<g clip-path="url(#clip1_2810_2274)">
<path fill-rule="evenodd" clip-rule="evenodd" d="M20.1135 16.0302C19.0625 16.732 17.9993 16.8762 17.7381 16.3516C17.4769 15.827 18.1157 14.8322 19.1666 14.1304C20.2175 13.4287 21.2807 13.2845 21.5419 13.8079C21.8031 14.3313 21.1644 15.3273 20.1135 16.0302Z" fill="white"/>
</g>
<g clip-path="url(#clip2_2810_2274)">
<path fill-rule="evenodd" clip-rule="evenodd" d="M8.19122 16.0302C9.24216 16.732 10.3053 16.8762 10.5666 16.3516C10.8278 15.827 10.189 14.8322 9.13809 14.1304C8.08715 13.4287 7.02397 13.2845 6.76276 13.8079C6.50156 14.3313 7.14028 15.3273 8.19122 16.0302Z" fill="white"/>
</g>
</g>
<defs>
<clipPath id="clip0_2810_2274">
<rect width="40" height="42.8571" fill="white" transform="translate(0.429688)"/>
</clipPath>
<clipPath id="clip1_2810_2274">
<rect width="3.92157" height="3.1746" fill="white" transform="translate(17.6797 13.4922)"/>
</clipPath>
<clipPath id="clip2_2810_2274">
<rect width="3.92157" height="3.1746" fill="white" transform="matrix(-1 0 0 1 10.625 13.4922)"/>
</clipPath>
</defs>
</svg>
