<svg width="58" height="45" viewBox="0 0 58 45" fill="none" xmlns="http://www.w3.org/2000/svg">
<path d="M17.2341 22.8109C17.2341 22.8109 17.1701 22.6599 17.0804 22.4291C17.0291 22.3048 16.9736 22.1628 16.9138 21.9852C16.6309 21.2729 16.4316 20.5277 16.3202 19.7657L16.2818 19.3218L15.9615 19.6326C14.8128 20.7423 13.7879 21.3549 13.0832 21.3549C12.3786 21.3549 11.3751 20.7423 10.205 19.6281L9.88468 19.3174L9.84625 19.7613C9.70997 20.553 9.46399 21.3201 9.116 22.0385L8.88113 22.5401C8.79572 22.7221 8.7402 22.8286 8.73593 22.8331L8.67188 22.9618L8.76155 23.0772C8.83842 23.1793 10.7174 25.563 13.0832 25.563C15.4491 25.563 17.1402 23.1172 17.2128 23.0151L17.2854 22.9085L17.2341 22.8109ZM13.0832 25.1369C11.1957 25.1369 9.57294 23.3613 9.18433 22.9174C9.25693 22.7709 9.37223 22.5223 9.50461 22.2205C9.80276 21.5822 10.0388 20.9145 10.2092 20.2274C11.0633 20.9998 12.1608 21.7988 13.0832 21.7988C14.0057 21.7988 15.1074 21.0042 15.953 20.2363C16.0948 20.9042 16.2891 21.5589 16.5338 22.1938C16.6405 22.4868 16.7388 22.7265 16.7943 22.8641C16.4484 23.3169 14.9494 25.1369 13.0832 25.1369V25.1369Z" fill="#167CBF"/>
<path d="M25.7449 32.6979C25.7449 34.216 25.7449 35.3613 25.7449 35.3613H3.9101C3.43751 34.6865 2.98911 33.997 2.56491 33.2927C1.75251 31.9369 1.03878 30.5199 0.429688 29.0535C0.429688 27.9171 0.468122 26.834 0.506556 26.0749C0.64321 23.3227 5.49444 22.7812 8.48802 22.2707C8.63395 22.2461 8.77705 22.2059 8.91507 22.1508L8.98766 22.1242L9.11578 22.0621C9.19291 22.0252 9.26716 21.9822 9.33784 21.9333H9.36346C9.36346 21.9333 9.41044 22.0532 9.50439 22.2485C9.88446 23.0253 11.046 24.974 13.083 24.974C15.0474 24.974 16.1535 23.0298 16.5335 22.2174C16.5892 22.1018 16.6391 21.9833 16.683 21.8623L16.7855 21.9333L16.8794 21.9999H16.9136L17.0204 22.0576L17.1143 22.1064L17.2851 22.1686L17.3705 22.1997C17.4624 22.2307 17.5567 22.253 17.6524 22.2663C18.4809 22.4083 19.4545 22.5503 20.4325 22.7457C22.8026 23.2118 25.1983 23.9708 25.6253 25.6621C25.6587 25.7957 25.6787 25.9326 25.6851 26.0705C25.7449 27.6774 25.7534 30.5672 25.7449 32.6979Z" fill="#167CBF"/>
<path d="M7.28759 10.0363C7.28759 9.88535 7.28759 9.73887 7.30894 9.59238L7.03563 9.50804L7.14666 9.13072L7.33883 9.18843C7.73598 5.69051 10.5587 4.02588 13.0826 4.02145C15.6064 4.01701 18.4292 5.69051 18.8263 9.18843L19.0185 9.13072L19.1338 9.50804L18.8562 9.59238C18.8562 9.73887 18.8776 9.88535 18.8776 10.0363C18.8776 10.1872 18.8776 10.8175 18.8776 11.1593C19.0089 11.0007 19.1784 10.8812 19.3687 10.8131C19.582 10.0686 19.6857 9.29487 19.6762 8.51814C19.6728 6.70353 18.9763 4.96457 17.7399 3.68352C16.5035 2.40247 14.8283 1.68418 13.0826 1.68654V1.68654C12.2178 1.68479 11.3612 1.8601 10.5616 2.20248C9.76205 2.54485 9.03518 3.04757 8.42251 3.68195C7.80984 4.31632 7.32338 5.06992 6.9909 5.89972C6.65842 6.72951 6.48642 7.61925 6.48474 8.51814C6.47737 9.29473 6.58099 10.0682 6.79221 10.8131C6.98254 10.8812 7.15202 11.0007 7.28332 11.1593C7.26196 10.8175 7.26196 10.1739 7.28759 10.0363Z" fill="#167CBF"/>
<path d="M19.8227 10.6091C19.7009 10.5643 19.5702 10.5521 19.4426 10.5736C19.3992 10.5782 19.3563 10.5871 19.3145 10.6003C19.2405 10.6237 19.1689 10.6549 19.101 10.6935C19.101 10.4094 19.101 10.1253 19.101 10.0365C19.101 9.94772 19.101 9.79679 19.101 9.67694V9.52602V9.34846V9.32182L17.6448 9.76572V9.92996C17.6448 10.0054 17.5978 11.7411 16.0818 12.0518C15.2277 12.2294 14.5359 12.1051 14.1046 11.6834C13.7845 11.3131 13.5856 10.8468 13.5366 10.3517V10.1297H12.6825V10.3517C12.6341 10.847 12.4351 11.3134 12.1146 11.6834C11.6875 12.1006 11.0042 12.2249 10.1373 12.0474C8.6256 11.7366 8.57435 10.001 8.57435 9.92553V9.76128L7.11813 9.31738V9.36621V9.54377V9.6947C7.11813 9.81455 7.11813 9.92996 7.11813 10.0365C7.11813 10.143 7.11813 10.4227 7.11813 10.7112C7.05056 10.6719 6.97893 10.6406 6.90461 10.618C6.86282 10.6049 6.81992 10.596 6.77649 10.5914C6.64895 10.5698 6.51823 10.582 6.39642 10.6269C6.14447 10.7201 6.01208 11.0708 6.00781 11.6789C6.00781 12.7754 6.43486 14.693 7.66475 15.1724H7.69464C7.87582 15.899 8.15169 16.5965 8.51457 17.2454C8.83592 17.7462 9.20195 18.2143 9.6078 18.6437C9.95505 19.0152 10.3245 19.3636 10.7138 19.6869L10.8889 19.8334L11.9181 20.6856L11.0213 19.385C10.7879 19.0494 10.6638 18.645 10.6669 18.2309V17.6538C10.6669 16.4286 11.948 15.4787 13.0839 15.4787C14.2199 15.4787 15.501 16.4286 15.501 17.6538V18.2309C15.5053 18.6521 15.378 19.0633 15.138 19.4028L14.1943 20.7345L15.2576 19.8467L15.4412 19.6957C15.8362 19.3695 16.2113 19.0182 16.5644 18.6437C16.9875 18.2098 17.3707 17.7357 17.7088 17.2277C18.0702 16.5785 18.3446 15.881 18.5245 15.1547H18.5544C19.7843 14.6752 20.2241 12.7576 20.2113 11.6612C20.2071 11.053 20.0747 10.7023 19.8227 10.6091ZM19.7117 12.5046C19.5622 13.3924 19.1394 14.4533 18.4049 14.7241H18.3494L18.1786 14.7685L18.1487 14.8928C17.9734 15.6221 17.7018 16.3227 17.3416 16.9746C17.0226 17.4542 16.6593 17.9002 16.2569 18.3063C16.1373 18.4395 16.0092 18.5638 15.8854 18.6881C15.915 18.5272 15.9293 18.3636 15.9281 18.1998V17.6227C15.9281 16.1224 14.4291 15.0037 13.0839 15.0037C11.7388 15.0037 10.2526 16.1579 10.2526 17.6582V18.2353C10.2516 18.3962 10.2659 18.5568 10.2953 18.7147C10.1715 18.5949 10.0477 18.4706 9.92381 18.3374C9.52235 17.9304 9.15914 17.4844 8.83912 17.0057C8.47867 16.3544 8.20839 15.6536 8.03627 14.9238L8.00211 14.7995L7.83129 14.7551H7.77578C7.04553 14.4711 6.61849 13.4234 6.46902 12.5357C6.33974 12.0505 6.35013 11.5366 6.49891 11.0575C6.57966 11.032 6.66585 11.032 6.7466 11.0575C6.90155 11.1147 7.03875 11.2144 7.14375 11.346L7.53236 11.7899V11.1995C7.53236 10.8488 7.53236 10.2229 7.53236 10.0809C7.53236 10.0276 7.53236 9.97879 7.53236 9.92553L8.18574 10.1208C8.24126 10.6402 8.53165 12.1894 10.0818 12.5046C11.0896 12.7132 11.901 12.549 12.4348 12.0252C12.7862 11.634 13.0206 11.1451 13.1096 10.618C13.1983 11.1289 13.4249 11.6031 13.7629 11.9852C14.2968 12.509 15.1081 12.6733 16.116 12.4646C17.6619 12.1495 17.9565 10.6003 18.0078 10.0809L18.6611 9.88557C18.6611 9.93884 18.6611 9.99655 18.6611 10.0587C18.6611 10.1208 18.6611 10.8044 18.6611 11.1596L18.6398 11.7499L19.0284 11.3061C19.133 11.174 19.2703 11.0742 19.4256 11.0175C19.5023 10.9947 19.5837 10.9947 19.6604 11.0175C19.7458 11.0974 19.8654 11.6123 19.7117 12.5046V12.5046Z" fill="#167CBF"/>
<path d="M19.0474 9.23305V9.1709C18.6203 5.49098 15.6652 3.81304 13.0901 3.8086C10.515 3.80416 7.5385 5.49098 7.13281 9.1709V9.23749V9.3529L8.38405 9.73022L8.59331 9.78792H8.64455V9.76573L12.6545 10.2096H13.5641L17.5612 9.76573V9.82343H17.6125L19.073 9.37954L19.0474 9.23305ZM12.6417 9.73466L8.42676 9.29076H8.39259L7.55986 9.03773C8.03815 5.77064 10.7328 4.24806 13.0815 4.24362C15.4303 4.23918 18.1249 5.77064 18.5904 9.02886L17.7662 9.27744L13.5214 9.72134L12.6417 9.73466Z" fill="#167CBF"/>
<path d="M13.0838 15.2607C11.8026 15.2607 10.4532 16.335 10.4532 17.6578V18.2349C10.4499 18.7755 10.5855 19.3073 10.8461 19.7752L10.8888 19.8373C11.2219 20.2812 12.1058 21.1202 13.0838 21.1246C14.0617 21.1291 14.5357 20.8006 15.2574 19.8595L15.3087 19.793C15.5846 19.3247 15.7255 18.7839 15.7144 18.2349V17.6578C15.7144 16.335 14.3564 15.2607 13.0838 15.2607ZM11.145 17.9241V17.6356C11.145 16.5259 11.9991 15.9443 13.0838 15.9443C14.1685 15.9443 15.0226 16.5259 15.0226 17.6356V17.9241C15.0226 18.6566 14.1685 18.7498 13.0838 18.7498C11.9991 18.7498 11.145 18.6788 11.145 17.9463V17.9241Z" fill="#167CBF"/>
<path d="M19.0476 9.23287L19.0177 9.13965L18.8255 9.19735L17.7493 9.5214L13.5344 9.9653H12.6376L8.42269 9.5214L7.34226 9.19735L7.15009 9.13965L7.1202 9.23731L7.03906 9.51252H7.10312L7.31237 9.57911L8.3629 9.89428C8.3629 9.89428 8.39279 11.8785 10.0967 12.2292C11.049 12.4245 11.8049 12.2736 12.2661 11.8075C12.628 11.3937 12.8499 10.8685 12.8981 10.3115H13.2739C13.3239 10.8688 13.5473 11.394 13.9102 11.8075C14.3885 12.2736 15.1273 12.4245 16.0753 12.2292C17.7835 11.8785 17.8091 9.89428 17.8091 9.89428L18.8597 9.57911L19.0732 9.51252H19.1372L19.0476 9.23287ZM14.0938 11.4435C13.8494 11.1271 13.7008 10.7424 13.6668 10.3382L17.3949 9.99637C17.4246 10.4263 17.3066 10.8532 17.0618 11.2011C16.817 11.5491 16.4614 11.7954 16.0583 11.8963C15.0675 12.1226 14.4654 11.9096 14.0938 11.4435ZM10.0967 11.8874C9.69276 11.7874 9.33615 11.5415 9.09052 11.1935C8.8449 10.8454 8.72626 10.418 8.75578 9.9875L12.4839 10.3293C12.4484 10.7332 12.2999 11.1174 12.0568 11.4346C11.7024 11.9096 11.1045 12.1226 10.1095 11.8963L10.0967 11.8874Z" fill="#167CBF"/>
<path d="M51.697 10.4938C51.6104 10.4626 51.5196 10.4461 51.4279 10.4449C51.4852 10.1173 51.5265 9.78696 51.5518 9.45505C51.6756 8.62496 51.7824 7.67945 51.8422 6.88487C51.9532 5.48215 51.1247 3.2449 49.771 2.41481L51.1461 1.7756C49.9461 0.941066 48.0287 1.56252 47.623 1.53589L49.0835 0.559313C47.1618 0.0310729 46.2735 1.14082 44.9966 1.18521L46.2778 0C44.0016 0 42.7547 1.41604 42.5411 1.46931C39.9789 2.11296 38.1511 3.86192 38.1511 6.88487C38.1701 8.05614 38.3046 9.2223 38.5525 10.365V10.4494C38.4596 10.4467 38.367 10.4617 38.2792 10.4938C38.0273 10.5826 37.8949 10.9377 37.8906 11.5414C37.8906 12.6334 38.3177 14.5421 39.539 15.0215H39.5646C39.7471 15.7442 40.0214 16.4384 40.3803 17.0857C40.7156 17.5894 41.0959 18.0591 41.5162 18.4884C42.2935 19.3096 43.7753 20.6857 44.9753 20.6857C46.1753 20.6857 47.6657 19.314 48.4344 18.4973C48.8551 18.0639 49.2368 17.5914 49.5746 17.0857C49.9302 16.4372 50.203 15.7433 50.386 15.0215H50.4158C51.6714 14.5421 52.0984 12.6334 52.0984 11.5414C52.0984 10.9377 51.9447 10.5826 51.697 10.4938ZM51.5859 12.3937C51.5091 12.8376 51.1973 14.2492 50.3048 14.6132C50.2879 14.6171 50.2704 14.6171 50.2536 14.6132L50.0827 14.6575L50.0486 14.7863C49.8711 15.517 49.5951 16.2179 49.2287 16.8682C48.9097 17.3452 48.5495 17.7909 48.1525 18.1999C46.9183 19.5049 45.7696 20.2551 44.9966 20.2551C44.2237 20.2551 43.0835 19.5005 41.8493 18.1999C41.4505 17.7915 41.0888 17.3457 40.7689 16.8682C40.4142 16.2176 40.1456 15.5203 39.9703 14.7952L39.9362 14.6487L39.7654 14.6043H39.7098C38.796 14.2492 38.4842 12.8287 38.4287 12.3848C38.275 11.497 38.3945 10.9643 38.4586 10.9022C38.5805 11.5016 38.7316 12.0942 38.9113 12.6778L38.9412 12.7399C39.0208 12.8199 39.1272 12.8646 39.238 12.8646C39.3487 12.8646 39.4551 12.8199 39.5347 12.7399C39.567 12.7005 39.5906 12.6543 39.6039 12.6045C39.6171 12.5546 39.6198 12.5024 39.6116 12.4514C39.1547 9.49056 40.2821 6.94702 41.1063 6.03703C41.5953 5.51055 42.2074 5.12509 42.8828 4.9184C43.1073 4.85062 43.3409 4.82064 43.5746 4.82962C43.8095 4.82962 44.0614 4.82962 44.3134 4.86513C44.5653 4.90064 44.86 4.90508 45.1675 4.90508C45.4749 4.90508 45.6415 4.90508 45.8806 4.86957C46.1198 4.83406 46.3546 4.8385 46.5895 4.8385C46.9041 4.82755 47.218 4.87567 47.5162 4.98055C48.0663 5.20887 48.5637 5.55548 48.9758 5.99766C49.388 6.43983 49.7055 6.96758 49.9077 7.54628C50.4379 9.12348 50.6132 10.8061 50.4201 12.4647C50.411 12.5157 50.4132 12.5682 50.4265 12.6182C50.4399 12.6682 50.4639 12.7143 50.497 12.7532C50.5768 12.8346 50.6841 12.8801 50.7959 12.8801C50.9077 12.8801 51.015 12.8346 51.0948 12.7532L51.1247 12.6866C51.1247 12.6511 51.3724 11.8654 51.5518 10.911C51.6957 11.3923 51.7075 11.9058 51.5859 12.3937V12.3937Z" fill="#167CBF"/>
<path d="M57.5022 26.3186C57.4253 24.7782 56.1741 23.9304 54.5684 23.3977C53.2509 23.0031 51.908 22.7064 50.5499 22.5099C50.4472 22.4926 50.3459 22.4674 50.2467 22.4344C50.2159 22.4253 50.1859 22.4134 50.157 22.3989C50.0914 22.3784 50.0272 22.3532 49.9649 22.3235L49.8709 22.2702C49.8165 22.2425 49.7637 22.2114 49.7129 22.177L49.6275 22.1148C49.5779 22.0799 49.5308 22.0414 49.4866 21.9994L49.4097 21.9284L49.2773 21.7908L49.2175 21.7198C49.1706 21.6621 49.1279 21.5999 49.0852 21.5378C49.0723 21.5211 49.0609 21.5033 49.051 21.4845C48.9398 21.3135 48.8441 21.1322 48.7649 20.9429C48.7649 20.9651 48.7008 21.0317 48.6197 21.1249C48.4417 20.6117 48.3325 20.0755 48.2951 19.5313L48.2567 19.1318L47.9578 19.4204C46.7749 20.5612 45.72 21.196 44.9898 21.196C44.2596 21.196 43.2176 20.5656 42.0261 19.4204L41.7272 19.1318L41.693 19.5757C41.6596 20.1215 41.5518 20.6596 41.3727 21.1738C41.2916 21.0806 41.2403 21.014 41.2233 20.9918C41.1472 21.1818 41.0528 21.3632 40.9414 21.5333L40.903 21.591C40.8603 21.6532 40.8176 21.7109 40.7749 21.7642L40.7108 21.8396L40.5827 21.9772L40.5058 22.0483L40.3649 22.1637L40.2752 22.2258C40.2259 22.2602 40.1745 22.2913 40.1215 22.319L40.0233 22.3723C39.9624 22.402 39.8996 22.4272 39.8354 22.4478L39.7457 22.4833C39.645 22.5157 39.5422 22.5409 39.4382 22.5587C38.8617 22.6386 38.2211 22.7363 37.5806 22.8606C36.8586 22.9926 36.1455 23.172 35.4454 23.3977C34.0361 23.8416 32.8831 24.5696 32.5927 25.7726C32.5474 25.9496 32.5202 26.1311 32.5116 26.3141C32.439 27.6946 32.4219 30.4024 32.4219 32.7507C32.4219 35.0989 32.4219 37.0298 32.4219 37.0298H52.8261C54.7677 34.6263 56.3657 31.9441 57.5705 29.0663C57.5577 27.9654 57.5364 26.9888 57.5022 26.3186ZM47.5179 22.0438C46.7395 22.4767 45.8704 22.7032 44.9877 22.7032C44.1049 22.7032 43.2358 22.4767 42.4574 22.0438C42.1871 21.8577 41.9428 21.6336 41.7315 21.378C41.8936 20.9349 42.0026 20.4727 42.056 20.0019C42.9101 20.792 44.0546 21.6177 44.9983 21.6177C45.9421 21.6177 47.078 20.7965 47.9449 20.0063C47.9984 20.4757 48.1074 20.9364 48.2695 21.378C48.0486 21.6337 47.7959 21.8577 47.5179 22.0438V22.0438Z" fill="#167CBF"/>
<path d="M41.9553 42.6133C41.9553 43.6388 41.9553 44.6686 41.9553 45.6629C41.8058 45.7384 41.6563 45.805 41.5026 45.876C37.5271 47.6812 33.2331 48.6049 28.8949 48.5881C24.5566 48.5713 20.2694 47.6143 16.307 45.7783L16.2344 45.7206C16.2344 42.3026 16.2344 38.4451 16.26 35.7551C16.26 35.4843 16.26 35.1958 16.26 34.9073C16.26 33.4069 16.2386 31.7023 16.9604 30.4683C17.6821 29.2342 18.9034 28.7681 19.9497 28.4041L20.5433 28.1866V28.2177C21.5297 27.8715 22.5803 27.6362 23.5326 27.4009C23.6604 27.3663 23.7837 27.3156 23.8998 27.25H34.2258C34.3619 27.3208 34.5051 27.3759 34.6528 27.4142C35.5838 27.6406 36.6001 27.8581 37.561 28.1999L37.7745 28.2843L38.2016 28.4263C39.2734 28.8081 40.4905 29.2298 41.2336 30.486C41.9766 31.7423 41.9339 33.3447 41.9297 34.8007C41.9297 35.0715 41.9297 35.3334 41.9297 35.5953V35.6752C41.9297 35.7773 41.9297 35.8661 41.9297 35.9415V36.3988C41.951 38.1744 41.9553 40.3939 41.9553 42.6133Z" fill="white"/>
<path d="M35.8115 16.2154C35.7223 16.1823 35.6285 16.1643 35.5339 16.1621H35.4784H35.3161L35.2862 16.3263C35.1709 16.9212 35.0257 17.476 34.9275 17.84C34.8506 14.7771 34.1374 12.7796 32.7922 11.8918L32.694 11.8252L32.5873 11.8785C30.452 12.9349 23.8072 16.3441 23.2307 17.9554C23.1368 17.6003 22.9788 16.9877 22.8592 16.3308L22.8293 16.1621H22.6072C22.5158 16.1609 22.4248 16.1759 22.3382 16.2065C22.0862 16.2997 21.9539 16.6504 21.9453 17.2585C21.9453 18.3505 22.3724 20.2682 23.6022 20.7431H23.6321C23.8132 21.467 24.0891 22.1615 24.4521 22.8073C24.7955 23.3243 25.1875 23.8045 25.6222 24.2411C25.6649 24.2884 25.7118 24.3372 25.7631 24.3875C26.5702 25.2176 27.9496 26.4384 29.0983 26.4384C30.2471 26.4384 31.6008 25.2132 32.4122 24.3831L32.5531 24.2366C32.9784 23.8064 33.3618 23.3336 33.6976 22.825C33.9607 22.3619 34.1755 21.8708 34.3382 21.3601V21.3202C34.3382 21.2536 34.3851 21.1826 34.4065 21.1071C34.4406 21.0006 34.4705 20.8896 34.5004 20.7786H34.526C35.7559 20.3037 36.1958 18.386 36.183 17.294C36.1915 16.6593 36.0634 16.3041 35.8115 16.2154ZM29.077 25.9811C28.2997 25.9811 27.1467 25.2265 25.9083 23.917C25.5067 23.5101 25.1434 23.0642 24.8236 22.5853C24.4624 21.936 24.192 21.2365 24.0208 20.5079L23.9866 20.3836L23.8158 20.3392H23.7603C23.03 20.0551 22.6072 19.0075 22.4535 18.1197C22.3252 17.6356 22.3371 17.123 22.4877 16.6459C22.6713 17.5959 22.9147 18.3905 22.9147 18.4215L22.9446 18.4881C23.0246 18.5708 23.1328 18.6172 23.2457 18.6172C23.3585 18.6172 23.4667 18.5708 23.5467 18.4881C23.5788 18.4478 23.6023 18.4008 23.6156 18.3502C23.6288 18.2997 23.6316 18.2469 23.6236 18.1951C23.504 17.4272 28.1076 14.644 32.6641 12.3668C33.8599 13.2546 34.4748 15.2121 34.5004 18.2351C34.5045 18.3145 34.5309 18.3909 34.5761 18.4549C34.6214 18.519 34.6837 18.5679 34.7553 18.5957C34.8269 18.6235 34.9048 18.629 34.9794 18.6114C35.054 18.5939 35.122 18.5541 35.1752 18.497L35.2051 18.4349C35.2051 18.3993 35.4655 17.6048 35.662 16.6593C35.8128 17.1363 35.8247 17.649 35.6962 18.133C35.5467 19.0208 35.1239 20.0773 34.3894 20.3525H34.3339L34.1631 20.3969L34.1332 20.5212C33.96 21.2492 33.6897 21.9484 33.3303 22.5986C33.0103 23.0774 32.6471 23.5233 32.2456 23.9303C31.0029 25.2398 29.8456 25.9945 29.077 25.9945V25.9811Z" fill="#167CBF"/>
<path d="M23.6517 21.6714C23.5766 21.7382 23.4815 21.7759 23.3827 21.778C23.2812 21.7791 23.1833 21.7393 23.1094 21.667C23.1875 21.7278 23.2823 21.7611 23.3798 21.7619C23.4774 21.7627 23.5727 21.731 23.6517 21.6714V21.6714Z" fill="white"/>
<path d="M23.1094 21.0358C23.1833 20.9635 23.2812 20.9237 23.3827 20.9248C23.4815 20.9269 23.5766 20.9646 23.6517 21.0314C23.5727 20.9718 23.4774 20.9401 23.3798 20.9409C23.2823 20.9417 23.1875 20.975 23.1094 21.0358V21.0358Z" fill="white"/>
<path d="M34.4206 21.1162C34.3835 21.1778 34.3615 21.2479 34.3566 21.3204C34.3512 21.4316 34.3829 21.5414 34.4463 21.6311C34.382 21.5531 34.3458 21.4542 34.3438 21.3515C34.3427 21.246 34.381 21.1442 34.4505 21.0674C34.4396 21.083 34.4296 21.0993 34.4206 21.1162V21.1162Z" fill="white"/>
<path d="M35.0974 21.5779C35.137 21.4972 35.1539 21.4065 35.1464 21.3163C35.1388 21.226 35.1071 21.1398 35.0547 21.0674C35.1242 21.1442 35.1625 21.246 35.1615 21.3515C35.1625 21.4319 35.1402 21.5108 35.0974 21.5779V21.5779Z" fill="white"/>
<path d="M37.5843 22.8607C37.4177 15.8471 35.3893 7.32422 29.069 7.32422C22.8342 7.32422 20.6392 15.8071 20.4214 22.7586C20.3433 24.7785 20.4649 26.8015 20.7843 28.7956C21.7708 28.5692 22.8342 28.5204 23.795 28.2141H23.842C23.9269 28.1866 24.0097 28.1525 24.0897 28.112C24.634 27.817 25.0583 27.3287 25.2854 26.7359C25.4382 26.3925 25.5528 26.0321 25.627 25.6617C25.7058 25.2415 25.7529 24.8155 25.768 24.3877C25.768 24.2856 25.768 24.1879 25.768 24.0858C24.8268 23.1196 24.1552 21.9061 23.8249 20.5746C22.8897 20.3216 22.4584 19.1763 22.2833 18.2841C22.2021 17.8668 21.9117 16.3309 22.6719 16.3886C22.7947 17.049 22.95 17.7024 23.1374 18.3462C23.2014 18.4439 23.4576 18.3817 23.4278 18.2131C23.21 16.8059 32.6989 12.0961 32.6989 12.0961C34.0057 12.9839 34.706 14.9637 34.7316 18.2131C34.7316 18.3862 34.9537 18.4439 35.0177 18.3462C35.2145 17.7031 35.3784 17.0497 35.5088 16.3886C36.269 16.3265 35.9829 17.8668 35.8975 18.2841C35.7224 19.1719 35.2953 20.3216 34.3558 20.5746C34.1868 21.2755 33.9329 21.9512 33.6 22.5855C33.2668 23.1344 32.8679 23.637 32.4128 24.0814C32.4128 24.1835 32.4128 24.2812 32.4128 24.3833C32.4277 24.8507 32.4835 25.3157 32.5793 25.7727V25.7727C32.6528 26.0929 32.7558 26.4051 32.8868 26.7049C33.1233 27.2744 33.5288 27.7503 34.0441 28.0632C34.1219 28.1032 34.2017 28.1388 34.2832 28.1697C34.7599 28.3085 35.2471 28.405 35.7395 28.4583C36.2562 28.547 36.7729 28.6447 37.2896 28.7601C37.5549 26.8065 37.6535 24.8323 37.5843 22.8607V22.8607ZM22.9794 21.2671C22.9871 21.2215 23.003 21.1778 23.0263 21.1384V21.1384C23.0431 21.1068 23.0665 21.0795 23.0947 21.0585C23.1732 20.9983 23.2682 20.9658 23.3658 20.9658C23.4634 20.9658 23.5585 20.9983 23.637 21.0585V21.0585C23.6628 21.0808 23.6845 21.1079 23.7011 21.1384C23.7244 21.1778 23.7403 21.2215 23.748 21.2671C23.7595 21.3227 23.7595 21.3802 23.748 21.4358C23.7403 21.4814 23.7244 21.525 23.7011 21.5645V21.5867C23.6845 21.6171 23.6628 21.6442 23.637 21.6666V21.6666C23.5585 21.7268 23.4634 21.7593 23.3658 21.7593C23.2682 21.7593 23.1732 21.7268 23.0947 21.6666C23.0665 21.6455 23.0431 21.6182 23.0263 21.5867V21.5645C23.003 21.525 22.9871 21.4814 22.9794 21.4358C22.9679 21.3802 22.9679 21.3227 22.9794 21.2671V21.2671ZM35.0647 21.6266C35.0432 21.6535 35.0171 21.6761 34.9879 21.6932H34.9665C34.9285 21.7175 34.8865 21.734 34.8427 21.7421H34.7615H34.6804C34.6365 21.734 34.5945 21.7175 34.5565 21.6932V21.6932C34.5272 21.6761 34.5012 21.6535 34.4797 21.6266C34.4797 21.6266 34.4797 21.6266 34.4797 21.6266C34.4163 21.5369 34.3846 21.4271 34.39 21.3159C34.3949 21.2434 34.4169 21.1733 34.454 21.1117C34.463 21.0948 34.473 21.0785 34.4839 21.0629C34.5042 21.0336 34.5305 21.0094 34.5608 20.9919V20.9919C34.5988 20.9676 34.6408 20.9511 34.6847 20.943H34.7658H34.8469C34.8908 20.9511 34.9328 20.9676 34.9708 20.9919H34.9921C35.0225 21.0094 35.0487 21.0336 35.069 21.0629C35.1214 21.1353 35.1531 21.2215 35.1607 21.3118C35.1682 21.402 35.1513 21.4927 35.1117 21.5734C35.0979 21.5928 35.0822 21.6107 35.0647 21.6266V21.6266Z" fill="#167CBF"/>
<path d="M41.9282 33.7104V33.3686C41.9282 33.3153 41.9282 33.2532 41.9282 33.1822V33.1245C41.9282 32.9425 41.9282 32.756 41.9282 32.5651C41.9282 31.5397 41.9282 30.3812 41.2321 29.5244C40.536 28.6677 39.272 28.3392 38.2001 28.0729L37.773 27.9708L37.5595 27.9131L33.2891 48.257L33.5282 48.2215H33.6563L37.8841 28.4546L38.0933 28.5035C39.1054 28.7521 40.2285 29.0361 40.899 29.8352C41.5695 30.6342 41.4969 31.6108 41.4926 32.5829C41.4926 32.725 41.4926 32.8626 41.4926 33.0002V33.2044C41.4926 33.2443 41.4926 33.2931 41.4926 33.3464C41.5268 35.6902 41.5268 42.6683 41.4926 45.8688C41.6378 45.8022 41.7787 45.7401 41.9196 45.669C41.9196 43.4984 41.9196 39.4545 41.9196 38.0873C41.9495 36.5114 41.9453 34.9666 41.9282 33.7104Z" fill="#167CBF"/>
<path d="M20.5956 27.9209L20.382 27.9786H20.3094L19.9635 28.0629C18.8917 28.3293 17.6746 28.6267 16.9315 29.5145C16.1885 30.4023 16.2269 31.5387 16.2269 32.5641C16.2269 32.755 16.2269 32.9414 16.2269 33.1234V33.1811C16.2269 33.2521 16.2269 33.3143 16.2269 33.3675V33.7093C16.2269 34.9656 16.2269 36.5103 16.2269 38.0684C16.2269 39.4534 16.2269 43.5772 16.2269 45.7257L16.308 45.7612L16.6539 45.9166C16.6539 42.7471 16.6539 35.7069 16.6539 33.3276C16.6539 33.2743 16.6539 33.2255 16.6539 33.1855V32.9813C16.6539 32.8437 16.6539 32.7061 16.6539 32.5641C16.6539 31.5697 16.6539 30.5443 17.2475 29.8163C17.8411 29.0884 19.0411 28.751 20.0532 28.4846L20.2625 28.4358L24.5073 48.216L24.6995 48.247H24.8703L20.5956 27.9209Z" fill="#167CBF"/>
<path d="M37.8654 27.9963V28.0363L34.6626 42.9424L33.5309 48.2292L33.2917 48.2647C31.8768 48.4698 30.4499 48.5722 29.0213 48.571C27.6431 48.5709 26.2665 48.476 24.9003 48.2869H24.7295L23.5466 42.9601L20.3438 28.0496V28.0052H20.4163L20.5615 27.9697H20.6299C21.595 27.73 22.6199 27.5657 23.5594 27.4059C23.6847 27.3821 23.8076 27.3464 23.9267 27.2994C24.5715 27.0508 25.3487 26.456 25.4384 25.9055C25.4462 25.8788 25.4577 25.8534 25.4726 25.8301L26.0491 27.2506L29.1067 34.7968L32.2412 27.2506L32.822 25.8567C32.9498 26.1794 33.1418 26.4705 33.3854 26.7107C33.629 26.9509 33.9187 27.1349 34.2355 27.2506C34.3745 27.3013 34.5174 27.3399 34.6626 27.366C35.5935 27.5258 36.6099 27.6856 37.5707 27.9208L37.8654 27.9963Z" fill="#167CBF"/>
<path d="M55.5191 33.1865C55.3611 33.4484 55.2031 33.7059 55.0409 33.9633C51.7321 39.2063 47.0311 43.3389 41.5078 45.8598V33.1865H55.5191Z" fill="#167CBF"/>
<path d="M16.3014 33.1865V45.7622C11.3753 43.4643 7.10791 39.8758 3.91706 35.3483C3.44162 34.6825 2.9918 33.9974 2.5676 33.2931L2.50781 33.191L16.3014 33.1865Z" fill="#167CBF"/>
</svg>
