<svg width="36" height="50" viewBox="0 0 36 50" fill="none" xmlns="http://www.w3.org/2000/svg">
<path d="M10.1003 20.7039H10.141C10.3901 21.6663 10.7692 22.5906 11.2681 23.4515C11.7218 24.126 12.2403 24.755 12.8162 25.3298C13.8935 26.4243 15.953 28.2531 17.6233 28.2531C19.2936 28.2531 21.3622 26.4513 22.4305 25.3388C23.018 24.766 23.5471 24.1369 24.0102 23.4605C24.5126 22.6008 24.8934 21.6762 25.1418 20.7129H25.1826C26.8845 20.0733 27.4911 17.5329 27.473 16.078C27.473 15.2762 27.2829 14.8078 26.9343 14.6862C26.8133 14.6452 26.6864 14.6239 26.5586 14.6231V14.6231C26.639 14.188 26.6964 13.7489 26.7306 13.3078C26.9026 12.1998 27.0475 10.9431 27.138 9.88459C27.301 8.01081 26.1422 5.03348 24.2637 3.92542L26.1874 3.07411C24.5172 1.97056 21.8692 2.79034 21.2898 2.75431L23.3222 1.45707C20.6515 0.754406 19.4158 2.23181 17.6414 2.29037L19.452 0.713867C16.2835 0.713867 14.5589 2.59666 14.2601 2.66873C10.6933 3.52454 8.16295 5.85776 8.16295 9.87558C8.18937 11.4336 8.3744 12.985 8.71518 14.506C8.72054 14.5439 8.7281 14.5815 8.73781 14.6186C8.60711 14.6156 8.47688 14.6354 8.35306 14.6771C8.00452 14.7988 7.82346 15.2672 7.81441 16.069C7.77367 17.5239 8.38022 20.0823 10.1003 20.7039ZM8.52959 15.2357C8.80118 16.5014 9.1452 17.5599 9.1633 17.6094L9.20404 17.6905C9.25694 17.7464 9.32077 17.7909 9.39161 17.8214C9.46245 17.8518 9.53879 17.8675 9.61595 17.8675C9.69311 17.8675 9.76946 17.8518 9.8403 17.8214C9.91113 17.7909 9.97496 17.7464 10.0279 17.6905C10.0742 17.6392 10.1081 17.578 10.127 17.5117C10.1458 17.4453 10.1491 17.3755 10.1365 17.3076C9.49826 13.3664 11.069 9.97918 12.2096 8.77203C12.8923 8.07357 13.743 7.56036 14.6811 7.28111C14.9944 7.19221 15.3197 7.15269 15.6452 7.164C15.9712 7.164 16.3197 7.18652 16.6728 7.20904C17.0258 7.23157 17.4332 7.2631 17.8406 7.2631C18.1665 7.2631 18.4969 7.24057 18.8274 7.21805C19.1578 7.19553 19.4882 7.17751 19.8096 7.17751C20.2486 7.16384 20.6867 7.22633 21.1042 7.36219C21.8724 7.66289 22.5685 8.12107 23.1471 8.70696C23.7258 9.29286 24.1741 9.99335 24.4629 10.7629C25.1418 12.2854 25.4904 15.4068 25.178 17.2896C25.1655 17.3575 25.1687 17.4273 25.1876 17.4936C25.2064 17.56 25.2403 17.6212 25.2867 17.6725C25.34 17.7285 25.4042 17.7731 25.4754 17.8036C25.5466 17.8341 25.6233 17.8499 25.7008 17.8499C25.7784 17.8499 25.8551 17.8341 25.9263 17.8036C25.9975 17.7731 26.0617 17.7285 26.115 17.6725L26.1603 17.5869C26.1603 17.5374 26.4998 16.4879 26.7533 15.2357C26.8619 15.3888 26.9977 16.0735 26.7985 17.1905C26.6944 17.7626 26.2599 19.6634 24.9879 20.1363H24.911L24.6756 20.1949L24.6303 20.3616C24.3903 21.3291 24.0155 22.2584 23.5168 23.1227C23.0752 23.7576 22.5751 24.3502 22.0231 24.8929C20.3075 26.636 18.7097 27.6315 17.6369 27.6315C16.5641 27.6315 14.9753 26.6315 13.2507 24.8839C12.6979 24.3452 12.1978 23.7555 11.757 23.1227C11.2583 22.2584 10.8835 21.3291 10.6435 20.3616L10.5982 20.1949L10.3628 20.1363H10.2859C9.01846 19.6859 8.58391 17.7626 8.47528 17.1905C8.28969 16.0284 8.43906 15.3168 8.52959 15.2357Z" fill="#167CBF"/>
<path d="M35.0178 35.7339C34.9092 33.6845 33.1756 32.5809 30.944 31.8467C29.1135 31.332 27.2484 30.9481 25.3628 30.6981C25.2192 30.673 25.0772 30.64 24.9373 30.599L24.8106 30.554L24.5435 30.4414L24.4123 30.3738C24.3398 30.3333 24.2629 30.2928 24.195 30.2477L24.0728 30.1621L23.8781 30.009L23.7695 29.9144C23.7061 29.8558 23.6473 29.7928 23.5884 29.7297C23.5296 29.6667 23.5296 29.6667 23.507 29.6351C23.4843 29.6036 23.3802 29.4775 23.3214 29.3964C23.3022 29.3742 23.2855 29.3501 23.2716 29.3243C23.1165 29.0962 22.9846 28.8533 22.8778 28.5991V28.5991C22.8778 28.5991 22.8054 28.6982 22.6696 28.8469C22.4221 28.1636 22.2698 27.4498 22.2169 26.7254L22.1671 26.1623L21.7507 26.5452C20.1076 28.0676 18.6455 28.9054 17.6316 28.9054C16.6176 28.9054 15.1646 28.0631 13.5125 26.5362L13.096 26.1533L13.0462 26.7164C12.9938 27.4438 12.8415 28.1606 12.5936 28.8469C12.4578 28.6982 12.3854 28.5991 12.3854 28.5991C12.2783 28.8523 12.148 29.0951 11.9961 29.3243L11.9372 29.4009C11.8784 29.482 11.8241 29.5586 11.7607 29.6351L11.6747 29.7297C11.6159 29.7928 11.557 29.8558 11.4936 29.9144L11.385 30.009L11.1904 30.1621L11.0682 30.2477C10.9983 30.2926 10.9257 30.3332 10.8509 30.3693L10.7196 30.4414L10.4571 30.545L10.3303 30.59C10.1905 30.631 10.0484 30.664 9.90485 30.6891C8.02378 30.9433 6.16324 31.3302 4.33726 31.8467C2.1057 32.5584 0.367525 33.6845 0.263416 35.7339C0.0687769 39.3824 0.163833 49.999 0.163833 49.999H35.1174C35.1174 49.999 35.2125 39.3824 35.0178 35.7339ZM13.5487 27.3109C14.7572 28.3649 16.3279 29.464 17.6225 29.464C18.9171 29.464 20.5149 28.3694 21.6964 27.3199C21.7732 27.9366 21.9252 28.5416 22.149 29.1216C21.8451 29.4697 21.4931 29.773 21.1034 30.0225C20.0294 30.6097 18.8206 30.9093 17.5954 30.8918C16.3611 30.9034 15.1453 30.5928 14.0692 29.991C13.693 29.7379 13.3534 29.4348 13.0598 29.0901C13.2934 28.5185 13.4575 27.9212 13.5487 27.3109V27.3109Z" fill="#167CBF"/>
</svg>
