<svg width="36" height="50" viewBox="0 0 36 50" fill="none" xmlns="http://www.w3.org/2000/svg">
<path d="M17.9982 26.4874C16.2787 26.4874 14.1872 24.6361 13.0938 23.5281C12.4964 22.9459 11.957 22.3079 11.4832 21.6228C10.9746 20.7506 10.587 19.8143 10.3308 18.8391H10.29C8.55238 18.1905 7.93536 15.6141 7.95351 14.1367C7.95351 13.3214 8.1486 12.8484 8.50247 12.7223C8.62533 12.6813 8.75397 12.6601 8.88357 12.6593H9.19662L9.21476 12.8755C9.38717 13.7763 9.60494 14.5871 9.74104 15.0645C10.5577 12.8935 19.9399 8.30814 22.9433 6.87578L23.0931 6.80371L23.2337 6.8938C25.1165 8.08743 26.1237 10.781 26.2326 14.9069C26.3732 14.4204 26.5774 13.6682 26.7407 12.871L26.7815 12.6503H27.0084C27.162 12.6406 27.316 12.6605 27.4621 12.7088C27.816 12.8349 28.002 13.3079 28.011 14.1231C28.011 15.6005 27.4122 18.177 25.6745 18.8256H25.6337C25.3762 19.801 24.987 20.7374 24.4768 21.6092C24.0054 22.2934 23.4658 22.9287 22.8662 23.5055C21.8001 24.6316 19.704 26.4874 17.9982 26.4874ZM8.69756 13.2763C8.60682 13.3664 8.43896 14.0691 8.65219 15.2582C8.86542 16.4474 9.46429 17.8797 10.4987 18.2626L10.5758 18.2806L10.8163 18.3391L10.8616 18.5058C11.1046 19.4882 11.4865 20.4314 11.9959 21.3075C12.448 21.9539 12.9598 22.5571 13.5248 23.1092C15.2715 24.8748 16.9002 25.8883 17.9982 25.8883C19.0961 25.8883 20.7203 24.8748 22.4715 23.1002C23.0387 22.5501 23.5507 21.9467 24.0004 21.2984C24.5079 20.4215 24.8897 19.4785 25.1347 18.4968L25.18 18.3301L25.4205 18.2716H25.4976C26.532 17.8887 27.1309 16.4699 27.3441 15.2672C27.5573 14.0646 27.3986 13.4205 27.2897 13.2854C27.0129 14.5691 26.6636 15.6411 26.65 15.6906L26.6046 15.7717C26.5297 15.8478 26.4341 15.9006 26.3295 15.9238C26.2249 15.947 26.1158 15.9395 26.0154 15.9023C25.915 15.8651 25.8276 15.7998 25.7639 15.7142C25.7002 15.6287 25.6628 15.5266 25.6564 15.4204C25.6201 11.3665 24.749 8.691 23.0658 7.51539C16.6326 10.5648 10.1221 14.3213 10.3082 15.3618C10.3192 15.4304 10.3151 15.5005 10.2964 15.5673C10.2776 15.6342 10.2444 15.6962 10.1993 15.7492C10.1446 15.8063 10.0788 15.8518 10.0059 15.8828C9.93295 15.9139 9.85442 15.9299 9.77507 15.9299C9.69571 15.9299 9.61719 15.9139 9.54426 15.8828C9.47134 15.8518 9.40554 15.8063 9.35087 15.7492L9.31004 15.6636C9.29189 15.6276 8.95616 14.5556 8.69756 13.2763Z" fill="#167CBF"/>
<path d="M10.5286 19.6312C10.5286 19.5172 10.4946 19.4057 10.4308 19.3109C10.3669 19.2161 10.2763 19.1422 10.1701 19.0986C10.064 19.0549 9.94726 19.0435 9.83461 19.0658C9.72197 19.088 9.61849 19.1429 9.53728 19.2236C9.45606 19.3042 9.40075 19.4069 9.37835 19.5188C9.35594 19.6306 9.36744 19.7465 9.41139 19.8519C9.45535 19.9572 9.52978 20.0473 9.62528 20.1106C9.72078 20.174 9.83305 20.2078 9.94791 20.2078C10.0243 20.2084 10.1001 20.1939 10.1709 20.1651C10.2416 20.1364 10.3058 20.0939 10.3599 20.0403C10.4139 19.9866 10.4567 19.9228 10.4857 19.8526C10.5146 19.7824 10.5292 19.7071 10.5286 19.6312V19.6312Z" fill="white"/>
<path d="M25.9993 19.0596C25.8841 19.0587 25.7712 19.0919 25.675 19.1549C25.5788 19.2179 25.5037 19.3079 25.4591 19.4134C25.4146 19.5189 25.4027 19.6352 25.425 19.7475C25.4473 19.8598 25.5027 19.9629 25.5842 20.0438C25.6656 20.1247 25.7695 20.1797 25.8826 20.2018C25.9957 20.2239 26.1128 20.2121 26.2191 20.1679C26.3254 20.1237 26.416 20.0491 26.4795 19.9536C26.543 19.8581 26.5764 19.746 26.5755 19.6316C26.5743 19.4803 26.5132 19.3355 26.4054 19.2284C26.2976 19.1214 26.1517 19.0608 25.9993 19.0596V19.0596Z" fill="white"/>
<path d="M17.9992 0.713867C6.28949 0.713867 4.6789 20.9561 6.30764 29.6448C7.69592 29.343 9.19763 29.2754 10.5587 28.8656C11.0362 28.7007 11.4715 28.4337 11.8337 28.0834C12.1959 27.7332 12.4762 27.3082 12.6547 26.8386V26.8386C13.0955 25.7181 13.3142 24.5236 13.299 23.3208C11.9759 22.0171 11.0349 20.3807 10.5768 18.5868C9.25207 18.2445 8.64413 16.704 8.39914 15.5014C8.28118 14.9384 7.87286 12.8709 8.94356 12.9475C9.21578 14.3393 9.59687 15.578 9.59687 15.578C9.69215 15.7041 10.0506 15.6275 10.0097 15.3978C9.70122 13.5015 23.0895 7.15497 23.0895 7.15497C24.9361 8.32158 25.9206 11.0151 25.9568 15.3978C25.9568 15.6275 26.2699 15.7041 26.3606 15.578C26.6393 14.7111 26.871 13.83 27.0548 12.9385C27.0911 12.7448 27.1228 12.5511 27.1546 12.3574C27.1274 12.5511 27.0911 12.7448 27.0548 12.9385C28.13 12.8529 27.7217 14.9293 27.6037 15.4924C27.3587 16.6905 26.7508 18.2355 25.426 18.5778C25.1879 19.52 24.8296 20.4282 24.3599 21.2804C23.8915 22.019 23.3305 22.6955 22.6903 23.2938C22.6758 24.5057 22.8961 25.7092 23.3391 26.8386V26.8386C23.5134 27.2847 23.7787 27.6902 24.1183 28.0297C24.4579 28.3692 24.8645 28.6354 25.3126 28.8115C25.9854 28.9991 26.6729 29.1302 27.3678 29.2034C28.0983 29.325 28.8287 29.4511 29.5501 29.6088C30.9928 20.6903 29.7497 0.713867 17.9992 0.713867ZM10.5315 19.6318C10.5187 19.7753 10.4522 19.9089 10.3451 20.0062C10.238 20.1035 10.0982 20.1574 9.95302 20.1574C9.80788 20.1574 9.668 20.1035 9.56094 20.0062C9.45387 19.9089 9.38738 19.7753 9.37457 19.6318C9.38738 19.4883 9.45387 19.3547 9.56094 19.2574C9.668 19.1601 9.80788 19.1062 9.95302 19.1062C10.0982 19.1062 10.238 19.1601 10.3451 19.2574C10.4522 19.3547 10.5187 19.4883 10.5315 19.6318V19.6318ZM26.0022 20.2083C25.8576 20.1956 25.7231 20.1296 25.6251 20.0233C25.5271 19.917 25.4728 19.7781 25.4728 19.6341C25.4728 19.49 25.5271 19.3511 25.6251 19.2448C25.7231 19.1385 25.8576 19.0725 26.0022 19.0598C26.1468 19.0725 26.2813 19.1385 26.3793 19.2448C26.4773 19.3511 26.5317 19.49 26.5317 19.6341C26.5317 19.7781 26.4773 19.917 26.3793 20.0233C26.2813 20.1296 26.1468 20.1956 26.0022 20.2083Z" fill="#167CBF"/>
<path d="M35.8549 42.2079C35.8549 39.9828 35.8549 37.7532 35.7687 35.528C35.8194 34.7072 35.6635 33.8868 35.315 33.1408C34.9088 32.4877 34.34 31.9495 33.6636 31.5778C31.9759 30.5914 29.9434 30.2265 28.0379 29.8797C27.0307 29.6995 25.842 29.686 24.9256 29.2041C24.2136 28.7953 23.6607 28.1607 23.3558 27.4023L23.6734 33.7083L17.9978 41.289L12.3902 33.7263L12.6397 27.4204C12.4615 27.8819 12.1847 28.2997 11.8283 28.6449C11.472 28.9901 11.0446 29.2546 10.5754 29.4203C9.1554 29.8707 7.59018 29.9157 6.13837 30.2445C4.17844 30.6769 1.63326 31.3436 0.635144 33.2579C0.113404 34.2533 0.222289 35.483 0.181457 36.5685C0.163309 37.9468 0.140625 39.3251 0.140625 40.7035C0.140625 43.1673 0.140625 47.5319 0.140625 50.0003H35.8005C35.8458 48.0319 35.8549 44.1717 35.8549 42.2079Z" fill="#167CBF"/>
</svg>
