<svg width="100" height="130" viewBox="0 0 100 130" fill="none" xmlns="http://www.w3.org/2000/svg">
<g clip-path="url(#clip0_575_12586)">
<g filter="url(#filter0_d_575_12586)">
<path d="M84 112.496C84 114.101 83.029 115 81.4828 115H13.5173C11.971 115 11 114.101 11 112.496V22.3391C10.9951 20.7395 11.971 19 13.5173 19H63.8621C67.537 22.9741 82.455 37.8937 84 39.8696V112.496Z" fill="#D9E7F0"/>
</g>
<path d="M72 66H23V67H72V66Z" fill="#88C4EB"/>
<path d="M72 72H23V73H72V72Z" fill="#88C4EB"/>
<path d="M72 78H23V79H72V78Z" fill="#88C4EB"/>
<path d="M72 84H23V85H72V84Z" fill="#88C4EB"/>
<path d="M72 90H23V91H72V90Z" fill="#88C4EB"/>
<path d="M72 96H23V97H72V96Z" fill="#88C4EB"/>
<path d="M72 102H23V103H72V102Z" fill="#88C4EB"/>
<g filter="url(#filter1_d_575_12586)">
<path d="M58 32H0V56H58V32Z" fill="#167CBF"/>
</g>
<path d="M64 19V40H84C82.4941 38.0173 67.5932 22.9965 64 19Z" fill="#88C4EB"/>
<path d="M13.1699 51H8.68129V36.4545H13.3688C14.7798 36.4545 15.9872 36.7457 16.9909 37.3281C17.9947 37.9058 18.7641 38.7367 19.2992 39.821C19.8342 40.9006 20.1017 42.1932 20.1017 43.6989C20.1017 45.214 19.8319 46.5185 19.2921 47.6122C18.7523 48.7012 17.9663 49.5393 16.9341 50.1264C15.9019 50.7088 14.6472 51 13.1699 51ZM10.4426 49.4375H13.0563C14.2589 49.4375 15.2556 49.2055 16.0463 48.7415C16.8371 48.2775 17.4266 47.617 17.8148 46.7599C18.2031 45.9029 18.3972 44.8826 18.3972 43.6989C18.3972 42.5246 18.2054 41.5137 17.8219 40.6662C17.4384 39.8139 16.8655 39.1605 16.1032 38.706C15.3409 38.2467 14.3915 38.017 13.2551 38.017H10.4426V49.4375ZM35.329 43.7273C35.329 45.2614 35.052 46.5871 34.498 47.7045C33.9441 48.822 33.1841 49.6837 32.2182 50.2898C31.2523 50.8958 30.1491 51.1989 28.9086 51.1989C27.668 51.1989 26.5648 50.8958 25.5989 50.2898C24.633 49.6837 23.873 48.822 23.3191 47.7045C22.7651 46.5871 22.4881 45.2614 22.4881 43.7273C22.4881 42.1932 22.7651 40.8674 23.3191 39.75C23.873 38.6326 24.633 37.7708 25.5989 37.1648C26.5648 36.5587 27.668 36.2557 28.9086 36.2557C30.1491 36.2557 31.2523 36.5587 32.2182 37.1648C33.1841 37.7708 33.9441 38.6326 34.498 39.75C35.052 40.8674 35.329 42.1932 35.329 43.7273ZM33.6245 43.7273C33.6245 42.4678 33.4138 41.4048 32.9924 40.5384C32.5757 39.6719 32.0099 39.0161 31.2949 38.571C30.5847 38.1259 29.7892 37.9034 28.9086 37.9034C28.0279 37.9034 27.2301 38.1259 26.5151 38.571C25.8049 39.0161 25.2391 39.6719 24.8176 40.5384C24.401 41.4048 24.1926 42.4678 24.1926 43.7273C24.1926 44.9867 24.401 46.0497 24.8176 46.9162C25.2391 47.7827 25.8049 48.4384 26.5151 48.8835C27.2301 49.3286 28.0279 49.5511 28.9086 49.5511C29.7892 49.5511 30.5847 49.3286 31.2949 48.8835C32.0099 48.4384 32.5757 47.7827 32.9924 46.9162C33.4138 46.0497 33.6245 44.9867 33.6245 43.7273ZM49.9952 41H48.2338C48.1297 40.4934 47.9474 40.0483 47.687 39.6648C47.4313 39.2812 47.1188 38.9593 46.7495 38.6989C46.3849 38.4337 45.9801 38.2348 45.535 38.1023C45.0899 37.9697 44.6259 37.9034 44.1429 37.9034C43.2623 37.9034 42.4644 38.1259 41.7495 38.571C41.0392 39.0161 40.4734 39.6719 40.052 40.5384C39.6354 41.4048 39.427 42.4678 39.427 43.7273C39.427 44.9867 39.6354 46.0497 40.052 46.9162C40.4734 47.7827 41.0392 48.4384 41.7495 48.8835C42.4644 49.3286 43.2623 49.5511 44.1429 49.5511C44.6259 49.5511 45.0899 49.4848 45.535 49.3523C45.9801 49.2197 46.3849 49.0232 46.7495 48.7628C47.1188 48.4976 47.4313 48.1733 47.687 47.7898C47.9474 47.4015 48.1297 46.9564 48.2338 46.4545H49.9952C49.8626 47.1979 49.6212 47.8632 49.2708 48.4503C48.9204 49.0374 48.4848 49.5369 47.964 49.9489C47.4431 50.3561 46.8584 50.6662 46.2097 50.8793C45.5658 51.0923 44.8768 51.1989 44.1429 51.1989C42.9024 51.1989 41.7992 50.8958 40.8333 50.2898C39.8674 49.6837 39.1074 48.822 38.5534 47.7045C37.9995 46.5871 37.7225 45.2614 37.7225 43.7273C37.7225 42.1932 37.9995 40.8674 38.5534 39.75C39.1074 38.6326 39.8674 37.7708 40.8333 37.1648C41.7992 36.5587 42.9024 36.2557 44.1429 36.2557C44.8768 36.2557 45.5658 36.3622 46.2097 36.5753C46.8584 36.7884 47.4431 37.1009 47.964 37.5128C48.4848 37.92 48.9204 38.4171 49.2708 39.0043C49.6212 39.5866 49.8626 40.2519 49.9952 41Z" fill="#D9E7F0"/>
<g clip-path="url(#clip1_575_12586)">
<path d="M87.875 8C88.975 8 89.875 7.1 89.875 6C89.875 4.9 88.975 4 87.875 4C86.775 4 85.875 4.9 85.875 6C85.875 7.1 86.775 8 87.875 8ZM87.875 10C86.775 10 85.875 10.9 85.875 12C85.875 13.1 86.775 14 87.875 14C88.975 14 89.875 13.1 89.875 12C89.875 10.9 88.975 10 87.875 10ZM87.875 16C86.775 16 85.875 16.9 85.875 18C85.875 19.1 86.775 20 87.875 20C88.975 20 89.875 19.1 89.875 18C89.875 16.9 88.975 16 87.875 16Z" fill="#8E9DA7"/>
</g>
</g>
<defs>
<filter id="filter0_d_575_12586" x="9" y="19" width="77" height="100" filterUnits="userSpaceOnUse" color-interpolation-filters="sRGB">
<feFlood flood-opacity="0" result="BackgroundImageFix"/>
<feColorMatrix in="SourceAlpha" type="matrix" values="0 0 0 0 0 0 0 0 0 0 0 0 0 0 0 0 0 0 127 0" result="hardAlpha"/>
<feOffset dy="2"/>
<feGaussianBlur stdDeviation="1"/>
<feComposite in2="hardAlpha" operator="out"/>
<feColorMatrix type="matrix" values="0 0 0 0 0.430625 0 0 0 0 0.565885 0 0 0 0 0.6625 0 0 0 0.29 0"/>
<feBlend mode="normal" in2="BackgroundImageFix" result="effect1_dropShadow_575_12586"/>
<feBlend mode="normal" in="SourceGraphic" in2="effect1_dropShadow_575_12586" result="shape"/>
</filter>
<filter id="filter1_d_575_12586" x="-2" y="32" width="62" height="28" filterUnits="userSpaceOnUse" color-interpolation-filters="sRGB">
<feFlood flood-opacity="0" result="BackgroundImageFix"/>
<feColorMatrix in="SourceAlpha" type="matrix" values="0 0 0 0 0 0 0 0 0 0 0 0 0 0 0 0 0 0 127 0" result="hardAlpha"/>
<feOffset dy="2"/>
<feGaussianBlur stdDeviation="1"/>
<feComposite in2="hardAlpha" operator="out"/>
<feColorMatrix type="matrix" values="0 0 0 0 0.430625 0 0 0 0 0.565885 0 0 0 0 0.6625 0 0 0 0.29 0"/>
<feBlend mode="normal" in2="BackgroundImageFix" result="effect1_dropShadow_575_12586"/>
<feBlend mode="normal" in="SourceGraphic" in2="effect1_dropShadow_575_12586" result="shape"/>
</filter>
<clipPath id="clip0_575_12586">
<rect width="100" height="130" fill="white"/>
</clipPath>
<clipPath id="clip1_575_12586">
<rect width="24" height="24" fill="white" transform="translate(75.875)"/>
</clipPath>
</defs>
</svg>
