<svg width="100" height="130" viewBox="0 0 100 130" fill="none" xmlns="http://www.w3.org/2000/svg">
<g clip-path="url(#clip0_575_12538)">
<g filter="url(#filter0_d_575_12538)">
<path d="M84 112.496C84 114.101 83.029 115 81.4828 115H13.5173C11.971 115 11 114.101 11 112.496V22.3391C10.9951 20.7395 11.971 19 13.5173 19H63.8621C67.537 22.9741 82.455 37.8937 84 39.8696V112.496Z" fill="#D9E7F0"/>
</g>
<g clip-path="url(#clip1_575_12538)">
<path d="M69 100H26V69H69V100ZM28 98H67V71H28V98Z" fill="#88C4EB"/>
<path d="M27.9999 89L34.9999 77L38.9999 86L40.9999 82L45.9999 91C45.9999 91 49.127 91.867 51.9999 91C54.8728 90.133 59.0177 86.6584 66.9999 91V98H27.9999V89Z" fill="#88C4EB"/>
<path d="M61 78C61 78.5934 60.824 79.1735 60.4943 79.6668C60.1646 80.1602 59.696 80.5447 59.1478 80.7717C58.5995 80.9988 57.9963 81.0581 57.4143 80.9423C56.8323 80.8264 56.2978 80.5406 55.8783 80.1209C55.4588 79.7012 55.1731 79.1666 55.0575 78.5846C54.9419 78.0025 55.0015 77.3993 55.2287 76.8512C55.4559 76.303 55.8406 75.8345 56.3341 75.505C56.8276 75.1755 57.4078 74.9998 58.0011 75C58.3951 75 58.7851 75.0776 59.149 75.2284C59.5129 75.3792 59.8436 75.6002 60.1221 75.8787C60.4005 76.1573 60.6214 76.4881 60.7721 76.852C60.9227 77.216 61.0002 77.6061 61 78Z" fill="#88C4EB"/>
</g>
<g filter="url(#filter1_d_575_12538)">
<path d="M58 32H0V56H58V32Z" fill="#167CBF"/>
</g>
<path d="M64 19V40H84C82.4941 38.0173 67.5932 22.9965 64 19Z" fill="#88C4EB"/>
<path d="M13.5481 36.4545V51H11.7868V36.4545H13.5481ZM17.0797 36.4545H19.182L24.1252 48.5284H24.2956L29.2388 36.4545H31.3411V51H29.6934V39.9489H29.5513L25.0059 51H23.415L18.8695 39.9489H18.7275V51H17.0797V36.4545ZM44.8159 41C44.6596 40.5218 44.4537 40.0933 44.198 39.7145C43.947 39.331 43.6464 39.0043 43.296 38.7344C42.9503 38.4645 42.5574 38.2585 42.117 38.1165C41.6767 37.9744 41.1937 37.9034 40.6681 37.9034C39.8064 37.9034 39.0228 38.1259 38.3173 38.571C37.6118 39.0161 37.0507 39.6719 36.6341 40.5384C36.2174 41.4048 36.0091 42.4678 36.0091 43.7273C36.0091 44.9867 36.2198 46.0497 36.6412 46.9162C37.0626 47.7827 37.6331 48.4384 38.3528 48.8835C39.0725 49.3286 39.8822 49.5511 40.7818 49.5511C41.6151 49.5511 42.349 49.3736 42.9835 49.0185C43.6227 48.6586 44.1199 48.152 44.475 47.4986C44.8348 46.8404 45.0147 46.0663 45.0147 45.1761L45.5545 45.2898H41.1795V43.7273H46.7193V45.2898C46.7193 46.4877 46.4636 47.5294 45.9522 48.4148C45.4456 49.3002 44.7449 49.9867 43.85 50.4744C42.9598 50.9574 41.9371 51.1989 40.7818 51.1989C39.4939 51.1989 38.3623 50.8958 37.3869 50.2898C36.4163 49.6837 35.6587 48.822 35.1142 47.7045C34.5744 46.5871 34.3045 45.2614 34.3045 43.7273C34.3045 42.5767 34.4584 41.5421 34.7662 40.6236C35.0787 39.7003 35.519 38.9143 36.0872 38.2656C36.6554 37.617 37.3277 37.1198 38.1042 36.7741C38.8807 36.4285 39.7354 36.2557 40.6681 36.2557C41.4352 36.2557 42.1502 36.3717 42.813 36.6037C43.4806 36.831 44.0749 37.1553 44.5957 37.5767C45.1213 37.9934 45.5592 38.4929 45.9096 39.0753C46.26 39.6529 46.5015 40.2945 46.6341 41H44.8159Z" fill="#D9E7F0"/>
<g clip-path="url(#clip2_575_12538)">
<path d="M87.875 8C88.975 8 89.875 7.1 89.875 6C89.875 4.9 88.975 4 87.875 4C86.775 4 85.875 4.9 85.875 6C85.875 7.1 86.775 8 87.875 8ZM87.875 10C86.775 10 85.875 10.9 85.875 12C85.875 13.1 86.775 14 87.875 14C88.975 14 89.875 13.1 89.875 12C89.875 10.9 88.975 10 87.875 10ZM87.875 16C86.775 16 85.875 16.9 85.875 18C85.875 19.1 86.775 20 87.875 20C88.975 20 89.875 19.1 89.875 18C89.875 16.9 88.975 16 87.875 16Z" fill="#8E9DA7"/>
</g>
</g>
<defs>
<filter id="filter0_d_575_12538" x="9" y="19" width="77" height="100" filterUnits="userSpaceOnUse" color-interpolation-filters="sRGB">
<feFlood flood-opacity="0" result="BackgroundImageFix"/>
<feColorMatrix in="SourceAlpha" type="matrix" values="0 0 0 0 0 0 0 0 0 0 0 0 0 0 0 0 0 0 127 0" result="hardAlpha"/>
<feOffset dy="2"/>
<feGaussianBlur stdDeviation="1"/>
<feComposite in2="hardAlpha" operator="out"/>
<feColorMatrix type="matrix" values="0 0 0 0 0.430625 0 0 0 0 0.565885 0 0 0 0 0.6625 0 0 0 0.29 0"/>
<feBlend mode="normal" in2="BackgroundImageFix" result="effect1_dropShadow_575_12538"/>
<feBlend mode="normal" in="SourceGraphic" in2="effect1_dropShadow_575_12538" result="shape"/>
</filter>
<filter id="filter1_d_575_12538" x="-2" y="32" width="62" height="28" filterUnits="userSpaceOnUse" color-interpolation-filters="sRGB">
<feFlood flood-opacity="0" result="BackgroundImageFix"/>
<feColorMatrix in="SourceAlpha" type="matrix" values="0 0 0 0 0 0 0 0 0 0 0 0 0 0 0 0 0 0 127 0" result="hardAlpha"/>
<feOffset dy="2"/>
<feGaussianBlur stdDeviation="1"/>
<feComposite in2="hardAlpha" operator="out"/>
<feColorMatrix type="matrix" values="0 0 0 0 0.430625 0 0 0 0 0.565885 0 0 0 0 0.6625 0 0 0 0.29 0"/>
<feBlend mode="normal" in2="BackgroundImageFix" result="effect1_dropShadow_575_12538"/>
<feBlend mode="normal" in="SourceGraphic" in2="effect1_dropShadow_575_12538" result="shape"/>
</filter>
<clipPath id="clip0_575_12538">
<rect width="100" height="130" fill="white"/>
</clipPath>
<clipPath id="clip1_575_12538">
<rect width="43" height="31" fill="white" transform="translate(26 69)"/>
</clipPath>
<clipPath id="clip2_575_12538">
<rect width="24" height="24" fill="white" transform="translate(75.875)"/>
</clipPath>
</defs>
</svg>
