<svg width="100" height="130" viewBox="0 0 100 130" fill="none" xmlns="http://www.w3.org/2000/svg">
<g clip-path="url(#clip0_378_5569)">
<g filter="url(#filter0_d_378_5569)">
<path d="M84 112.496C84 114.101 83.029 115 81.4828 115H13.5173C11.971 115 11 114.101 11 112.496V22.3391C10.9951 20.7395 11.971 19 13.5173 19H63.8621C67.537 22.9741 82.455 37.8937 84 39.8696V112.496Z" fill="#D9E7F0"/>
</g>
<g filter="url(#filter1_d_378_5569)">
<path d="M58 32H0V56H58V32Z" fill="#167CBF"/>
</g>
<path d="M64 19V40H84C82.4941 38.0173 67.5932 22.9965 64 19Z" fill="#88C4EB"/>
<path d="M11.3571 51V36.4545H16.2718C17.4129 36.4545 18.3457 36.6605 19.0701 37.0724C19.7993 37.4796 20.3391 38.0312 20.6895 38.7273C21.0398 39.4233 21.215 40.1998 21.215 41.0568C21.215 41.9138 21.0398 42.6927 20.6895 43.3935C20.3438 44.0942 19.8088 44.6529 19.0843 45.0696C18.3599 45.4815 17.4319 45.6875 16.3002 45.6875H12.7775V44.125H16.2434C17.0247 44.125 17.652 43.9901 18.1255 43.7202C18.599 43.4503 18.9423 43.0857 19.1554 42.6264C19.3732 42.1624 19.4821 41.6392 19.4821 41.0568C19.4821 40.4744 19.3732 39.9536 19.1554 39.4943C18.9423 39.035 18.5967 38.6752 18.1184 38.4148C17.6402 38.1496 17.0057 38.017 16.215 38.017H13.1184V51H11.3571ZM28.541 51H24.0524V36.4545H28.7399C30.1509 36.4545 31.3583 36.7457 32.362 37.3281C33.3658 37.9058 34.1352 38.7367 34.6703 39.821C35.2053 40.9006 35.4728 42.1932 35.4728 43.6989C35.4728 45.214 35.2029 46.5185 34.6632 47.6122C34.1234 48.7012 33.3374 49.5393 32.3052 50.1264C31.273 50.7088 30.0183 51 28.541 51ZM25.8137 49.4375H28.4274C29.63 49.4375 30.6267 49.2055 31.4174 48.7415C32.2082 48.2775 32.7976 47.617 33.1859 46.7599C33.5742 45.9029 33.7683 44.8826 33.7683 43.6989C33.7683 42.5246 33.5765 41.5137 33.193 40.6662C32.8095 39.8139 32.2366 39.1605 31.4743 38.706C30.7119 38.2467 29.7626 38.017 28.6262 38.017H25.8137V49.4375ZM38.4274 51V36.4545H47.149V38.017H40.1887V42.9318H46.4956V44.4943H40.1887V51H38.4274Z" fill="#D9E7F0"/>
<path fill-rule="evenodd" clip-rule="evenodd" d="M49.147 70.7166C49.097 73.1193 48.5747 75.4511 47.9252 77.7601C47.6488 78.7391 47.3246 79.7055 47.0319 80.6762C46.9953 80.7874 47.0015 80.9075 47.0493 81.0147C48.8739 84.0797 51.0184 86.9125 53.6786 89.3715C53.7406 89.4357 53.8193 89.4829 53.9067 89.5084C53.9941 89.5338 54.0869 89.5365 54.1758 89.5162C56.9382 89.083 59.7148 88.8257 62.5175 88.9955C64.0647 89.0934 65.5955 89.2986 67.0001 89.9787C67.4177 90.1774 67.804 90.4312 68.148 90.7327C68.4696 91.0133 68.7128 91.3664 68.8555 91.76C68.9983 92.1535 69.036 92.5749 68.9653 92.9859C68.8946 93.397 68.7177 93.7846 68.4507 94.1135C68.1837 94.4424 67.835 94.7023 67.4364 94.8694C66.4659 95.2923 65.4301 95.3266 64.39 95.2568C61.1358 95.0413 58.2971 93.7988 55.699 91.9877C55.0462 91.5294 54.4336 91.0055 53.7917 90.5296C53.6827 90.4501 53.5463 90.4129 53.4098 90.4254C49.3959 91.1235 45.4439 92.1155 41.5886 93.3926C41.4517 93.445 41.3368 93.5395 41.2622 93.6613C39.937 95.9036 38.5117 98.0761 36.8275 100.082C35.6905 101.436 34.4644 102.704 32.9716 103.71C32.024 104.348 31.0132 104.849 29.8393 104.971C28.8731 105.075 27.9592 104.907 27.1443 104.377C26.0214 103.645 25.6918 102.387 26.3032 101.167C26.7656 100.247 27.5 99.5352 28.2975 98.8843C30.0101 97.4918 31.9467 96.4295 33.9606 95.5005C35.2434 94.909 36.5631 94.3924 37.8611 93.8342C38.0024 93.7727 38.1214 93.6723 38.2028 93.5457C40.1764 90.1901 41.7464 86.6605 43.1532 83.0612C43.6645 81.7541 44.1324 80.4335 44.6307 79.1213C44.6615 79.047 44.6756 78.9673 44.6721 78.8874C44.6685 78.8076 44.6474 78.7293 44.61 78.6578C43.6613 76.6363 42.928 74.5482 42.5254 72.3611C42.2491 70.8582 42.0967 69.3408 42.4014 67.8306C42.4916 67.3604 42.6448 66.9032 42.8572 66.4705C43.6112 64.9905 45.3869 64.5698 46.9917 65.4738C47.7228 65.8904 48.1787 66.5298 48.5051 67.262C49.0001 68.3628 49.1492 69.5251 49.147 70.7166ZM46.6566 81.8697C45.3227 85.4836 43.9257 89.0299 41.9868 92.4344C45.5947 91.3044 49.1753 90.3682 52.8908 89.7266C50.3982 87.377 48.4126 84.7234 46.6566 81.8697ZM37.4031 94.8882C37.316 94.9121 37.2845 94.9173 37.2551 94.9288C35.2782 95.7318 33.3437 96.6128 31.5039 97.6762C30.2668 98.3875 29.0766 99.1655 28.0669 100.162C27.5718 100.648 27.1279 101.17 26.9071 101.829C26.5208 102.98 27.3684 104.022 28.6229 103.924C28.8985 103.899 29.1691 103.837 29.4269 103.741C30.1504 103.476 30.7586 103.032 31.3353 102.55C32.5614 101.521 33.5885 100.324 34.5525 99.0718C35.578 97.7256 36.5295 96.3292 37.4031 94.8882ZM54.6752 90.2203C54.9428 90.4338 55.1604 90.6119 55.3835 90.7816C57.4061 92.3303 59.6158 93.5322 62.1476 94.1425C63.0311 94.3508 63.908 94.3924 64.774 94.0758C65.6825 93.7436 66.2048 93.0625 66.2374 92.1803C66.2701 91.2982 65.8251 90.6317 64.9166 90.2307C64.7785 90.1688 64.636 90.1166 64.4901 90.0745C63.438 89.7745 62.3511 89.7329 61.2652 89.7027C59.5677 89.6671 57.8699 89.7632 56.1886 89.9901C55.7022 90.0474 55.2213 90.1328 54.6752 90.2161V90.2203ZM45.1116 77.7799C45.1573 77.6518 45.1845 77.5851 45.2041 77.5174C45.5522 76.3301 45.932 75.1512 46.2409 73.9556C46.6761 72.2684 47.0189 70.5614 47.0482 68.8138C47.0613 68.0535 47.0069 67.2995 46.6065 66.6163C46.019 65.6113 44.672 65.4832 43.9278 66.383C43.6743 66.7063 43.4865 67.0723 43.3741 67.462C43.0107 68.643 43.0542 69.8574 43.1836 71.0634C43.3762 72.8495 43.856 74.5721 44.4947 76.2551C44.6818 76.7478 44.8907 77.2341 45.1116 77.7757V77.7799Z" fill="#88C4EB"/>
<g clip-path="url(#clip1_378_5569)">
<path d="M87.875 8C88.975 8 89.875 7.1 89.875 6C89.875 4.9 88.975 4 87.875 4C86.775 4 85.875 4.9 85.875 6C85.875 7.1 86.775 8 87.875 8ZM87.875 10C86.775 10 85.875 10.9 85.875 12C85.875 13.1 86.775 14 87.875 14C88.975 14 89.875 13.1 89.875 12C89.875 10.9 88.975 10 87.875 10ZM87.875 16C86.775 16 85.875 16.9 85.875 18C85.875 19.1 86.775 20 87.875 20C88.975 20 89.875 19.1 89.875 18C89.875 16.9 88.975 16 87.875 16Z" fill="#8E9DA7"/>
</g>
</g>
<defs>
<filter id="filter0_d_378_5569" x="9" y="19" width="77" height="100" filterUnits="userSpaceOnUse" color-interpolation-filters="sRGB">
<feFlood flood-opacity="0" result="BackgroundImageFix"/>
<feColorMatrix in="SourceAlpha" type="matrix" values="0 0 0 0 0 0 0 0 0 0 0 0 0 0 0 0 0 0 127 0" result="hardAlpha"/>
<feOffset dy="2"/>
<feGaussianBlur stdDeviation="1"/>
<feComposite in2="hardAlpha" operator="out"/>
<feColorMatrix type="matrix" values="0 0 0 0 0.430625 0 0 0 0 0.565885 0 0 0 0 0.6625 0 0 0 0.29 0"/>
<feBlend mode="normal" in2="BackgroundImageFix" result="effect1_dropShadow_378_5569"/>
<feBlend mode="normal" in="SourceGraphic" in2="effect1_dropShadow_378_5569" result="shape"/>
</filter>
<filter id="filter1_d_378_5569" x="-2" y="32" width="62" height="28" filterUnits="userSpaceOnUse" color-interpolation-filters="sRGB">
<feFlood flood-opacity="0" result="BackgroundImageFix"/>
<feColorMatrix in="SourceAlpha" type="matrix" values="0 0 0 0 0 0 0 0 0 0 0 0 0 0 0 0 0 0 127 0" result="hardAlpha"/>
<feOffset dy="2"/>
<feGaussianBlur stdDeviation="1"/>
<feComposite in2="hardAlpha" operator="out"/>
<feColorMatrix type="matrix" values="0 0 0 0 0.430625 0 0 0 0 0.565885 0 0 0 0 0.6625 0 0 0 0.29 0"/>
<feBlend mode="normal" in2="BackgroundImageFix" result="effect1_dropShadow_378_5569"/>
<feBlend mode="normal" in="SourceGraphic" in2="effect1_dropShadow_378_5569" result="shape"/>
</filter>
<clipPath id="clip0_378_5569">
<rect width="100" height="130" fill="white"/>
</clipPath>
<clipPath id="clip1_378_5569">
<rect width="24" height="24" fill="white" transform="translate(75.875)"/>
</clipPath>
</defs>
</svg>
