<svg width="100" height="130" viewBox="0 0 100 130" fill="none" xmlns="http://www.w3.org/2000/svg">
<g filter="url(#filter0_d_575_12682)">
<path d="M84 112.496C84 114.101 83.029 115 81.4828 115H13.5173C11.971 115 11 114.101 11 112.496V22.3391C10.9951 20.7395 11.971 19 13.5173 19H63.8621C67.537 22.9741 82.455 37.8937 84 39.8696V112.496Z" fill="#D9E7F0"/>
</g>
<g clip-path="url(#clip0_575_12682)">
<path d="M52.9 79.5H52.13C51.8404 79.5005 51.5813 79.3198 51.4818 79.0478C51.3964 78.8238 51.3047 78.6047 51.206 78.3877C51.0833 78.1238 51.1393 77.8113 51.346 77.6065L51.8948 77.057C52.7095 76.2351 52.708 74.9097 51.8913 74.0897L49.9131 72.1115C49.0921 71.2953 47.7661 71.2953 46.9451 72.1115L46.3963 72.6596C46.191 72.8655 45.8791 72.9214 45.6151 72.7996C45.3981 72.7009 45.179 72.6092 44.9543 72.5196C44.6809 72.4208 44.499 72.1608 44.5 71.87V71.1C44.5 69.9402 43.5598 69 42.4 69H39.6C38.4402 69 37.5 69.9402 37.5 71.1V71.87C37.5005 72.1596 37.3198 72.4187 37.0478 72.5182C36.8238 72.6036 36.6047 72.6953 36.3877 72.794C36.1237 72.9161 35.8117 72.8601 35.6065 72.654L35.057 72.1052C34.2361 71.2895 32.9106 71.2895 32.0897 72.1052L30.1115 74.0897C29.2953 74.9107 29.2953 76.2367 30.1115 77.0577L30.6596 77.6065C30.8663 77.8113 30.9223 78.1238 30.7996 78.3877C30.7009 78.6047 30.6092 78.8238 30.5231 79.0485C30.4229 79.3221 30.1614 79.503 29.87 79.5H29.1C27.9402 79.5 27 80.4402 27 81.6V84.4C27 85.5598 27.9402 86.5 29.1 86.5H29.87C30.1596 86.4995 30.4187 86.6802 30.5182 86.9522C30.6036 87.1762 30.6953 87.3953 30.794 87.6123C30.9167 87.8762 30.8607 88.1887 30.654 88.3935L30.1052 88.943C29.2895 89.7639 29.2895 91.0894 30.1052 91.9103L32.0834 93.8885C32.9044 94.7047 34.2304 94.7047 35.0514 93.8885L35.6002 93.3404C35.8055 93.1345 36.1174 93.0786 36.3814 93.2004C36.5984 93.2991 36.8175 93.3908 37.0422 93.4804C37.317 93.5781 37.5005 93.8384 37.5 94.13V94.9C37.5 96.0598 38.4402 97 39.6 97H42.4C43.5598 97 44.5 96.0598 44.5 94.9V94.13C44.4995 93.8404 44.6802 93.5813 44.9522 93.4818C45.1762 93.3964 45.3953 93.3047 45.6123 93.206C45.8763 93.0839 46.1883 93.1399 46.3935 93.346L46.943 93.8948C47.7651 94.7092 49.0902 94.7076 49.9103 93.8913L51.8885 91.9131C52.7047 91.0921 52.7047 89.7661 51.8885 88.9451L51.3404 88.3963C51.1337 88.1915 51.0777 87.879 51.2004 87.6151C51.2991 87.3981 51.3908 87.179 51.4804 86.9543C51.5792 86.6809 51.8392 86.499 52.13 86.5H52.9C54.0598 86.5 55 85.5598 55 84.4V81.6C55 80.4402 54.0598 79.5 52.9 79.5ZM53.6 84.4C53.6 84.7866 53.2866 85.1 52.9 85.1H52.13C51.2598 85.1032 50.4811 85.6411 50.17 86.4538C50.0958 86.6498 50.0156 86.8427 49.9292 87.0327C49.5693 87.8272 49.7363 88.7614 50.3492 89.3819L50.8966 89.93C51.1701 90.2032 51.1704 90.6465 50.8971 90.92C50.8969 90.9202 50.8968 90.9203 50.8966 90.9205L48.9184 92.8987C48.6451 93.172 48.202 93.172 47.9286 92.8987L47.3798 92.3506C46.7595 91.7371 45.825 91.5701 45.0306 91.9306C44.8409 92.0167 44.6477 92.0972 44.4531 92.1714C43.641 92.4824 43.1035 93.2604 43.1 94.13V94.9C43.1 95.2866 42.7866 95.6 42.4 95.6H39.6C39.2134 95.6 38.9 95.2866 38.9 94.9V94.13C38.8968 93.2598 38.3589 92.4811 37.5462 92.17C37.3502 92.0958 37.1573 92.0156 36.9673 91.9292C36.1728 91.5695 35.2387 91.7365 34.6181 92.3492L34.07 92.8966C33.7968 93.1701 33.3536 93.1704 33.08 92.8971C33.0799 92.8969 33.0797 92.8968 33.0795 92.8966L31.1013 90.9205C30.828 90.6472 30.828 90.2041 31.1013 89.9307L31.6494 89.3819C32.2623 88.7614 32.4293 87.8272 32.0694 87.0327C31.9833 86.843 31.9028 86.6498 31.8286 86.4552C31.5183 85.6422 30.7401 85.1039 29.87 85.1H29.1C28.7134 85.1 28.4 84.7866 28.4 84.4V81.6C28.4 81.2134 28.7134 80.9 29.1 80.9H29.87C30.7402 80.8968 31.5189 80.3589 31.83 79.5462C31.9042 79.3502 31.9844 79.1573 32.0708 78.9673C32.4307 78.1728 32.2637 77.2387 31.6508 76.6181L31.1006 76.07C30.8271 75.7968 30.8268 75.3535 31.1001 75.08C31.1003 75.0798 31.1004 75.0797 31.1006 75.0795L33.0788 73.1013C33.3522 72.828 33.7952 72.828 34.0686 73.1013L34.6174 73.6494C35.2377 74.2629 36.1722 74.4299 36.9666 74.0694C37.1563 73.9833 37.3495 73.9028 37.5441 73.8286C38.3573 73.5186 38.8961 72.7403 38.9 71.87V71.1C38.9 70.7134 39.2134 70.4 39.6 70.4H42.4C42.7866 70.4 43.1 70.7134 43.1 71.1V71.87C43.1032 72.7402 43.6411 73.5189 44.4538 73.83C44.6498 73.9042 44.8427 73.9844 45.0327 74.0708C45.8271 74.4313 46.7616 74.2643 47.3819 73.6508L47.93 73.1034C48.2044 72.832 48.6461 72.832 48.9205 73.1034L50.8987 75.0816C51.172 75.355 51.172 75.798 50.8987 76.0714L50.3506 76.6202C49.7378 77.2408 49.5707 78.1749 49.9306 78.9694C50.0167 79.1591 50.0972 79.3523 50.1714 79.5469C50.4824 80.359 51.2604 80.8965 52.13 80.9H52.9C53.2866 80.9 53.6 81.2134 53.6 81.6V84.4Z" fill="#88C4EB"/>
<path d="M47.286 82.72C47.279 82.552 47.2671 82.3847 47.2468 82.2181C47.2244 82.0389 47.1978 81.8611 47.1607 81.6868C47.1362 81.5727 47.104 81.46 47.0732 81.3466C47.034 81.2024 46.9899 81.0603 46.9409 80.9203C46.9066 80.823 46.8709 80.7264 46.8345 80.6305C46.7444 80.4063 46.6413 80.1874 46.5258 79.9753C46.5167 79.9592 46.5111 79.9417 46.502 79.9256C46.32 79.6015 46.1091 79.2942 45.872 79.0079C45.8517 78.9827 45.8286 78.9589 45.8076 78.9344C45.711 78.8203 45.6116 78.7097 45.5073 78.604C45.4527 78.5473 45.3953 78.4941 45.3379 78.4395C45.2679 78.3744 45.1979 78.31 45.1279 78.2484C45.043 78.1746 44.9564 78.1032 44.8682 78.0342L44.7534 77.9488C43.6703 77.1375 42.3533 76.6993 41 76.7C40.93 76.7 40.86 76.7105 40.79 76.7133C40.6409 76.7175 40.4911 76.7259 40.3406 76.7413C40.2615 76.7497 40.1817 76.7588 40.1026 76.77C39.8744 76.8 39.648 76.8423 39.4243 76.8967C36.0538 77.7676 34.0274 81.2062 34.8984 84.5768C35.4724 86.7979 37.2077 88.5318 39.4292 89.104C39.4404 89.104 39.4523 89.1075 39.4642 89.1103C39.706 89.1705 39.9509 89.2174 40.1978 89.2503C40.3609 89.2706 40.524 89.2748 40.6878 89.2825C40.797 89.2881 40.8978 89.3042 41.0119 89.3042C41.2114 89.3042 41.4186 89.2909 41.63 89.2699C41.6524 89.2699 41.6748 89.2636 41.7 89.2608C41.8701 89.2419 42.0423 89.2167 42.218 89.1817C42.288 89.1684 42.3531 89.1509 42.4203 89.1355C42.5435 89.1068 42.666 89.0767 42.792 89.0396C42.89 89.0102 42.9852 88.9759 43.0811 88.9423C43.177 88.9087 43.2764 88.8723 43.3758 88.8345C43.4752 88.7967 43.5585 88.7533 43.6488 88.7113C43.7664 88.6574 43.8833 88.6042 43.9988 88.5412H44.003C44.6563 88.1914 45.2597 87.7557 45.7971 87.2455C45.9423 87.11 46.0686 86.9555 46.1723 86.7863C46.7187 85.9104 47.0776 84.9308 47.2265 83.9093C47.2461 83.7742 47.2636 83.6391 47.2741 83.5012C47.2839 83.3745 47.2909 83.2485 47.2937 83.1225C47.2937 83.0826 47.2993 83.0448 47.2993 83.0049C47.3 82.9062 47.2902 82.8152 47.286 82.72ZM45.8909 83.1785C45.8909 83.2366 45.886 83.2947 45.8825 83.3521C45.8699 83.5215 45.8482 83.6909 45.8195 83.861C45.5579 85.3163 44.6543 86.5763 43.3597 87.291C43.2729 87.3365 43.1875 87.3792 43.1021 87.4184L43.044 87.4464C42.6373 87.631 42.2081 87.7609 41.7672 87.8328C41.7364 87.8377 41.7049 87.8433 41.6734 87.8475C41.5859 87.8601 41.4998 87.8706 41.4144 87.8783C41.3017 87.8881 41.1883 87.8937 41.0728 87.8958C41.0238 87.8958 40.9755 87.8958 40.9265 87.8958C40.7609 87.8938 40.5955 87.8836 40.4309 87.865L40.3469 87.8552C40.1544 87.83 39.9635 87.794 39.775 87.7474C37.1534 87.0763 35.5721 84.407 36.243 81.7854C36.6864 80.053 38.0383 78.6998 39.7701 78.2547V78.254C40.1723 78.1525 40.5853 78.1007 41 78.1C41.2002 78.1011 41.4001 78.1147 41.5985 78.1406C41.6517 78.1469 41.7042 78.1567 41.7567 78.1644C41.9079 78.1882 42.0577 78.2183 42.2054 78.2561C42.2537 78.2687 42.302 78.2799 42.3496 78.2932C42.7219 78.4006 43.0802 78.5515 43.4171 78.7426C43.471 78.7741 43.5235 78.807 43.5767 78.8399C43.6873 78.9099 43.7944 78.9799 43.9001 79.0597C43.9568 79.101 44.0142 79.1416 44.0688 79.1857C44.2062 79.2954 44.3377 79.4122 44.4629 79.5357C44.5126 79.5861 44.5581 79.6414 44.6064 79.6939C44.6869 79.7814 44.7653 79.871 44.8402 79.9655C44.892 80.0306 44.9417 80.0978 44.9907 80.1657C45.0607 80.2665 45.1307 80.3715 45.1937 80.4779C45.2287 80.536 45.2637 80.5927 45.2994 80.6522C45.3897 80.8183 45.4702 80.9896 45.5402 81.1653C45.5682 81.2353 45.592 81.3053 45.6172 81.3753C45.6627 81.5041 45.7019 81.6343 45.7362 81.7659C45.7537 81.8359 45.7733 81.8982 45.788 81.9661C45.8289 82.1552 45.8586 82.3467 45.8769 82.5394C45.8811 82.5905 45.8811 82.6423 45.8846 82.6934C45.8944 82.8544 45.8972 83.0161 45.8909 83.1785Z" fill="#88C4EB"/>
<path d="M66.9 69.7H64.6985C64.405 69.703 64.1424 69.5181 64.0461 69.2408C63.829 68.5906 63.5664 67.9564 63.26 67.3431C63.13 67.0782 63.1842 66.7598 63.3944 66.5528L64.9554 64.9897C65.7748 64.1697 65.7748 62.841 64.9554 62.021L61.979 59.0495C61.1591 58.2301 59.8303 58.2301 59.0103 59.0495L57.45 60.6091C57.2433 60.8193 56.9253 60.8737 56.6604 60.7442C56.047 60.4363 55.4127 60.1722 54.762 59.9539C54.4836 59.8586 54.2974 59.5958 54.3 59.3015V57.1C54.3 55.9402 53.3598 55 52.2 55H48C46.8402 55 45.9 55.9402 45.9 57.1V59.3015C45.903 59.5951 45.7182 59.8577 45.4408 59.9539C44.7905 60.1721 44.1563 60.436 43.5431 60.7435C43.2783 60.874 42.9597 60.8198 42.7528 60.6091L41.1897 59.0481C40.3688 58.2311 39.0419 58.2311 38.221 59.0481L35.2502 62.0189C34.4304 62.839 34.4304 64.1683 35.2502 64.9883L37.5455 67.2878C37.8232 67.5568 38.2663 67.5498 38.5353 67.2721C38.7977 67.0012 38.7983 66.571 38.5367 66.2994L36.24 64.0006C35.9668 63.7273 35.9668 63.2842 36.24 63.0108L39.2108 60.04C39.4842 59.7667 39.9273 59.7667 40.2006 60.04L41.7644 61.601C42.3971 62.2375 43.3666 62.3966 44.1696 61.9958C44.7241 61.7182 45.2974 61.4798 45.8853 61.2825C46.7339 60.9952 47.3037 60.1974 47.3 59.3015V57.1C47.3 56.7134 47.6134 56.4 48 56.4H52.2C52.5866 56.4 52.9 56.7134 52.9 57.1V59.3015C52.8964 60.1972 53.4662 60.9948 54.3147 61.2818C54.9029 61.4792 55.4765 61.7177 56.0311 61.9958C56.8343 62.3945 57.8025 62.2352 58.4356 61.6003L59.9994 60.04C60.2728 59.7667 60.7159 59.7667 60.9892 60.04L63.96 63.0115C64.2328 63.2848 64.2328 63.7273 63.96 64.0006L62.399 65.5644C61.7632 66.1975 61.6042 67.1665 62.0042 67.9696C62.2819 68.5241 62.5202 69.0974 62.7175 69.6853C63.0046 70.5341 63.8025 71.1039 64.6985 71.1H66.9C67.2866 71.1 67.6 71.4134 67.6 71.8V76C67.6 76.3866 67.2866 76.7 66.9 76.7H64.6985C63.8028 76.6964 63.0052 77.2662 62.7182 78.1147C62.5209 78.7029 62.2823 79.2764 62.0042 79.8311C61.6049 80.6342 61.7642 81.6027 62.3997 82.2356L63.9607 83.7994C64.234 84.0728 64.234 84.5159 63.9607 84.7892L60.9885 87.76C60.7153 88.0328 60.2727 88.0328 59.9994 87.76L57.6992 85.4647C57.4302 85.187 56.9871 85.18 56.7094 85.449C56.4317 85.7179 56.4247 86.1611 56.6937 86.4388C56.6993 86.4445 56.705 86.4503 56.7108 86.4559L59.0103 88.7512C59.8303 89.5706 61.1591 89.5706 61.979 88.7512L64.9498 85.7811C65.7696 84.9611 65.7696 83.6318 64.9498 82.8117L63.3909 81.25C63.1809 81.0432 63.1266 80.7253 63.2558 80.4604C63.5637 79.847 63.8278 79.2127 64.0461 78.562C64.1414 78.2836 64.4043 78.0974 64.6985 78.1H66.9C68.0598 78.1 69 77.1598 69 76V71.8C69 70.6402 68.0598 69.7 66.9 69.7Z" fill="#88C4EB"/>
<path d="M56.5344 67.4655C52.9786 63.9171 47.2214 63.9171 43.6656 67.4655C43.397 67.7436 43.4047 68.1868 43.6828 68.4553C43.9541 68.7173 44.3841 68.7173 44.6554 68.4553C47.6422 65.4281 52.5174 65.3955 55.5446 68.3823C58.5717 71.3691 58.6044 76.2444 55.6176 79.2715C55.5934 79.296 55.5691 79.3203 55.5446 79.3445C55.2665 79.6131 55.2588 80.0562 55.5274 80.3343C55.7961 80.6124 56.2392 80.6201 56.5172 80.3514C56.523 80.3458 56.5288 80.3401 56.5344 80.3343C60.0828 76.7785 60.0828 71.0213 56.5344 67.4655Z" fill="#88C4EB"/>
</g>
<path d="M64 19V40H84C82.4941 38.0173 67.5932 22.9965 64 19Z" fill="#88C4EB"/>
<g clip-path="url(#clip1_575_12682)">
<path d="M87.875 8C88.975 8 89.875 7.1 89.875 6C89.875 4.9 88.975 4 87.875 4C86.775 4 85.875 4.9 85.875 6C85.875 7.1 86.775 8 87.875 8ZM87.875 10C86.775 10 85.875 10.9 85.875 12C85.875 13.1 86.775 14 87.875 14C88.975 14 89.875 13.1 89.875 12C89.875 10.9 88.975 10 87.875 10ZM87.875 16C86.775 16 85.875 16.9 85.875 18C85.875 19.1 86.775 20 87.875 20C88.975 20 89.875 19.1 89.875 18C89.875 16.9 88.975 16 87.875 16Z" fill="#8E9DA7"/>
</g>
<defs>
<filter id="filter0_d_575_12682" x="9" y="19" width="77" height="100" filterUnits="userSpaceOnUse" color-interpolation-filters="sRGB">
<feFlood flood-opacity="0" result="BackgroundImageFix"/>
<feColorMatrix in="SourceAlpha" type="matrix" values="0 0 0 0 0 0 0 0 0 0 0 0 0 0 0 0 0 0 127 0" result="hardAlpha"/>
<feOffset dy="2"/>
<feGaussianBlur stdDeviation="1"/>
<feComposite in2="hardAlpha" operator="out"/>
<feColorMatrix type="matrix" values="0 0 0 0 0.430625 0 0 0 0 0.565885 0 0 0 0 0.6625 0 0 0 0.29 0"/>
<feBlend mode="normal" in2="BackgroundImageFix" result="effect1_dropShadow_575_12682"/>
<feBlend mode="normal" in="SourceGraphic" in2="effect1_dropShadow_575_12682" result="shape"/>
</filter>
<clipPath id="clip0_575_12682">
<rect width="42" height="42" fill="white" transform="translate(27 55)"/>
</clipPath>
<clipPath id="clip1_575_12682">
<rect width="24" height="24" fill="white" transform="translate(75.875)"/>
</clipPath>
</defs>
</svg>
