<svg width="100" height="130" viewBox="0 0 100 130" fill="none" xmlns="http://www.w3.org/2000/svg">
<g clip-path="url(#clip0_575_12634)">
<g filter="url(#filter0_d_575_12634)">
<path d="M84 112.496C84 114.101 83.029 115 81.4828 115H13.5173C11.971 115 11 114.101 11 112.496V22.3391C10.9951 20.7395 11.971 19 13.5173 19H63.8621C67.537 22.9741 82.455 37.8937 84 39.8696V112.496Z" fill="#D9E7F0"/>
</g>
<path fill-rule="evenodd" clip-rule="evenodd" d="M55 71H40V80L55 80V71ZM56 71V80L71 80V71H56ZM55 81H40V90H55V81ZM56 90V81H71V90H56ZM55 91H40V100H55V91ZM56 100H71V91H56V100ZM72 80V71V70H71H24H23V71V80V81V90V91V100V101H24H71H72V100V91V90V81V80ZM24 100V91H39V100H24ZM24 90H39V81L24 81V90ZM39 80V71H24V80L39 80Z" fill="#88C4EB"/>
<g filter="url(#filter1_d_575_12634)">
<path d="M58 32H0V56H58V32Z" fill="#167CBF"/>
</g>
<path d="M64 19V40H84C82.4941 38.0173 67.5932 22.9965 64 19Z" fill="#88C4EB"/>
<path d="M13.1957 36.4545L16.9457 42.5057H17.0593L20.8093 36.4545H22.8832L18.3093 43.7273L22.8832 51H20.8093L17.0593 45.0625H16.9457L13.1957 51H11.1218L15.8093 43.7273L11.1218 36.4545H13.1957ZM25.1754 51V36.4545H26.9368V49.4375H33.6982V51H25.1754ZM44.38 40.0909C44.2947 39.3712 43.9491 38.8125 43.343 38.4148C42.737 38.017 41.9936 37.8182 41.1129 37.8182C40.469 37.8182 39.9055 37.9223 39.4226 38.1307C38.9444 38.339 38.5703 38.6255 38.3004 38.9901C38.0353 39.3546 37.9027 39.7689 37.9027 40.233C37.9027 40.6212 37.995 40.955 38.1797 41.2344C38.3691 41.509 38.6106 41.7386 38.9041 41.9233C39.1977 42.1032 39.5054 42.2524 39.8274 42.3707C40.1494 42.4844 40.4453 42.5767 40.7152 42.6477L42.1925 43.0455C42.5713 43.1449 42.9927 43.2822 43.4567 43.4574C43.9254 43.6326 44.3729 43.8717 44.799 44.1747C45.2299 44.473 45.585 44.8565 45.8643 45.3253C46.1437 45.794 46.2834 46.3693 46.2834 47.0511C46.2834 47.8371 46.0774 48.5473 45.6655 49.1818C45.2583 49.8163 44.6617 50.3205 43.8757 50.6946C43.0945 51.0687 42.1451 51.2557 41.0277 51.2557C39.986 51.2557 39.084 51.0876 38.3217 50.7514C37.5642 50.4152 36.9676 49.9465 36.532 49.3452C36.1011 48.7438 35.8572 48.0455 35.8004 47.25H37.6186C37.666 47.7992 37.8506 48.2538 38.1726 48.6136C38.4993 48.9687 38.9112 49.2339 39.4084 49.4091C39.9103 49.5795 40.45 49.6648 41.0277 49.6648C41.7 49.6648 42.3037 49.5559 42.8388 49.3381C43.3738 49.1155 43.7976 48.8078 44.1101 48.4148C44.4226 48.017 44.5788 47.553 44.5788 47.0227C44.5788 46.5398 44.4439 46.1468 44.174 45.8438C43.9041 45.5407 43.549 45.2945 43.1087 45.1051C42.6683 44.9157 42.1925 44.75 41.6811 44.608L39.8913 44.0966C38.755 43.7699 37.8554 43.3035 37.1925 42.6974C36.5296 42.0914 36.1982 41.2983 36.1982 40.3182C36.1982 39.5038 36.4183 38.7936 36.8587 38.1875C37.3037 37.5767 37.9003 37.1032 38.6484 36.767C39.4013 36.4261 40.2417 36.2557 41.1697 36.2557C42.1072 36.2557 42.9406 36.4238 43.6697 36.7599C44.3989 37.0914 44.9766 37.5459 45.4027 38.1236C45.8336 38.7012 46.0608 39.357 46.0845 40.0909H44.38Z" fill="#D9E7F0"/>
<g clip-path="url(#clip1_575_12634)">
<path d="M87.875 8C88.975 8 89.875 7.1 89.875 6C89.875 4.9 88.975 4 87.875 4C86.775 4 85.875 4.9 85.875 6C85.875 7.1 86.775 8 87.875 8ZM87.875 10C86.775 10 85.875 10.9 85.875 12C85.875 13.1 86.775 14 87.875 14C88.975 14 89.875 13.1 89.875 12C89.875 10.9 88.975 10 87.875 10ZM87.875 16C86.775 16 85.875 16.9 85.875 18C85.875 19.1 86.775 20 87.875 20C88.975 20 89.875 19.1 89.875 18C89.875 16.9 88.975 16 87.875 16Z" fill="#8E9DA7"/>
</g>
</g>
<defs>
<filter id="filter0_d_575_12634" x="9" y="19" width="77" height="100" filterUnits="userSpaceOnUse" color-interpolation-filters="sRGB">
<feFlood flood-opacity="0" result="BackgroundImageFix"/>
<feColorMatrix in="SourceAlpha" type="matrix" values="0 0 0 0 0 0 0 0 0 0 0 0 0 0 0 0 0 0 127 0" result="hardAlpha"/>
<feOffset dy="2"/>
<feGaussianBlur stdDeviation="1"/>
<feComposite in2="hardAlpha" operator="out"/>
<feColorMatrix type="matrix" values="0 0 0 0 0.430625 0 0 0 0 0.565885 0 0 0 0 0.6625 0 0 0 0.29 0"/>
<feBlend mode="normal" in2="BackgroundImageFix" result="effect1_dropShadow_575_12634"/>
<feBlend mode="normal" in="SourceGraphic" in2="effect1_dropShadow_575_12634" result="shape"/>
</filter>
<filter id="filter1_d_575_12634" x="-2" y="32" width="62" height="28" filterUnits="userSpaceOnUse" color-interpolation-filters="sRGB">
<feFlood flood-opacity="0" result="BackgroundImageFix"/>
<feColorMatrix in="SourceAlpha" type="matrix" values="0 0 0 0 0 0 0 0 0 0 0 0 0 0 0 0 0 0 127 0" result="hardAlpha"/>
<feOffset dy="2"/>
<feGaussianBlur stdDeviation="1"/>
<feComposite in2="hardAlpha" operator="out"/>
<feColorMatrix type="matrix" values="0 0 0 0 0.430625 0 0 0 0 0.565885 0 0 0 0 0.6625 0 0 0 0.29 0"/>
<feBlend mode="normal" in2="BackgroundImageFix" result="effect1_dropShadow_575_12634"/>
<feBlend mode="normal" in="SourceGraphic" in2="effect1_dropShadow_575_12634" result="shape"/>
</filter>
<clipPath id="clip0_575_12634">
<rect width="100" height="130" fill="white"/>
</clipPath>
<clipPath id="clip1_575_12634">
<rect width="24" height="24" fill="white" transform="translate(75.875)"/>
</clipPath>
</defs>
</svg>
