<svg width="40" height="39" viewBox="0 0 40 39" fill="none" xmlns="http://www.w3.org/2000/svg">
<g clip-path="url(#clip0_914_23642)">
<g filter="url(#filter0_d_914_23642)">
<path d="M19.9921 3.21875C19.3864 3.21875 18.7943 3.39834 18.2907 3.7348C17.7871 4.07126 17.3946 4.54949 17.1628 5.10901C16.931 5.66852 16.8704 6.2842 16.9885 6.87818C17.1067 7.47216 17.3984 8.01776 17.8267 8.446C18.255 8.87424 18.8006 9.16587 19.3947 9.28402C19.9887 9.40217 20.6045 9.34153 21.1641 9.10977C21.7237 8.87801 22.202 8.48554 22.5385 7.98199C22.875 7.47844 23.0546 6.88642 23.0546 6.2808C23.0544 5.46876 22.7317 4.69003 22.1574 4.11583C21.5831 3.54163 20.8043 3.21896 19.9921 3.21875V3.21875ZM19.9921 7.57924C19.7353 7.57924 19.4842 7.50309 19.2707 7.36041C19.0571 7.21774 18.8907 7.01495 18.7924 6.77769C18.6941 6.54043 18.6684 6.27936 18.7185 6.02749C18.7686 5.77562 18.8923 5.54426 19.0739 5.36267C19.2555 5.18108 19.4869 5.05742 19.7388 5.00732C19.9907 4.95722 20.2518 4.98293 20.4891 5.0812C20.7264 5.17948 20.9292 5.3459 21.0719 5.55943C21.2146 5.77296 21.2907 6.024 21.2907 6.2808C21.2907 6.62517 21.1539 6.95543 20.9104 7.19894C20.6669 7.44244 20.3365 7.57924 19.9921 7.57924Z" fill="#88C4EB"/>
<g style="mix-blend-mode:multiply">
<path d="M23.0538 6.33903C22.461 6.13648 21.8513 5.98735 21.232 5.89343C21.2939 6.08928 21.3085 6.29701 21.2745 6.49957C21.2406 6.70214 21.1591 6.89378 21.0367 7.05875C20.9143 7.22373 20.7546 7.35735 20.5706 7.44866C20.3866 7.53996 20.1836 7.58634 19.9781 7.58399C19.7727 7.58165 19.5708 7.53064 19.3889 7.43516C19.2071 7.33968 19.0504 7.20245 18.9319 7.03472C18.8133 6.86699 18.7362 6.67354 18.7069 6.47025C18.6776 6.26696 18.6969 6.05962 18.7632 5.86523C18.141 5.94705 17.5273 6.08465 16.9297 6.27638V6.2803C16.9323 7.08561 17.252 7.85749 17.8197 8.42875C18.3874 9.00002 19.1574 9.32467 19.9627 9.33239C20.7681 9.34012 21.5441 9.03029 22.1227 8.47002C22.7012 7.90975 23.0358 7.14415 23.0538 6.33903Z" fill="#88C4EB"/>
</g>
<g style="mix-blend-mode:multiply">
<path d="M23.0538 6.33903C22.461 6.13648 21.8513 5.98735 21.232 5.89343C21.2939 6.08928 21.3085 6.29701 21.2745 6.49957C21.2406 6.70214 21.1591 6.89378 21.0367 7.05875C20.9143 7.22373 20.7546 7.35735 20.5706 7.44866C20.3866 7.53996 20.1836 7.58634 19.9781 7.58399C19.7727 7.58165 19.5708 7.53064 19.3889 7.43516C19.2071 7.33968 19.0504 7.20245 18.9319 7.03472C18.8133 6.86699 18.7362 6.67354 18.7069 6.47025C18.6776 6.26696 18.6969 6.05962 18.7632 5.86523C18.141 5.94705 17.5273 6.08465 16.9297 6.27638V6.2803C16.9323 7.08561 17.252 7.85749 17.8197 8.42875C18.3874 9.00002 19.1574 9.32467 19.9627 9.33239C20.7681 9.34012 21.5441 9.03029 22.1227 8.47002C22.7012 7.90975 23.0358 7.14415 23.0538 6.33903Z" fill="#88C4EB"/>
</g>
<path d="M19.8949 35.7827C22.5314 35.7827 24.6687 33.6457 24.6687 31.0095C24.6687 28.3734 22.5314 26.2363 19.8949 26.2363C17.2584 26.2363 15.1211 28.3734 15.1211 31.0095C15.1211 33.6457 17.2584 35.7827 19.8949 35.7827Z" fill="#88C4EB"/>
<g style="mix-blend-mode:multiply">
<path d="M24.588 31.9072C24.7231 31.2153 24.7034 30.5022 24.5302 29.8188C24.3571 29.1355 24.0349 28.4989 23.5866 27.9548C23.1384 27.4107 22.5753 26.9725 21.9377 26.6717C21.3001 26.3709 20.6038 26.2148 19.8988 26.2148C19.1938 26.2148 18.4975 26.3709 17.8599 26.6717C17.2223 26.9725 16.6592 27.4107 16.211 27.9548C15.7628 28.4989 15.4405 29.1355 15.2674 29.8188C15.0943 30.5022 15.0745 31.2153 15.2096 31.9072H24.588Z" fill="#88C4EB"/>
</g>
<g style="mix-blend-mode:multiply" opacity="0.5">
<path d="M24.588 31.9072C24.7231 31.2153 24.7034 30.5022 24.5302 29.8188C24.3571 29.1355 24.0349 28.4989 23.5866 27.9548C23.1384 27.4107 22.5753 26.9725 21.9377 26.6717C21.3001 26.3709 20.6038 26.2148 19.8988 26.2148C19.1938 26.2148 18.4975 26.3709 17.8599 26.6717C17.2223 26.9725 16.6592 27.4107 16.211 27.9548C15.7628 28.4989 15.4405 29.1355 15.2674 29.8188C15.0943 30.5022 15.0745 31.2153 15.2096 31.9072H24.588Z" fill="#88C4EB"/>
</g>
<g style="mix-blend-mode:multiply" opacity="0.5">
<path d="M22.5105 27.0176C23.112 27.9349 23.3791 29.0314 23.2668 30.1226C23.1545 31.2138 22.6698 32.2329 21.8941 33.0086C21.1184 33.7843 20.0991 34.2691 19.0079 34.3815C17.9166 34.4939 16.8199 34.227 15.9023 33.6257C16.291 34.2194 16.8072 34.7191 17.4133 35.0883C18.0195 35.4574 18.7003 35.6868 19.4063 35.7597C20.1123 35.8326 20.8256 35.7472 21.4945 35.5097C22.1633 35.2722 22.7707 34.8885 23.2725 34.3867C23.7743 33.8849 24.1579 33.2775 24.3954 32.6087C24.6329 31.94 24.7182 31.2267 24.6452 30.5208C24.5722 29.815 24.3427 29.1342 23.9734 28.5282C23.6042 27.9222 23.1044 27.4061 22.5105 27.0176Z" fill="#88C4EB"/>
</g>
<g opacity="0.4">
<g style="mix-blend-mode:screen">
<path d="M18.3305 33.2231C18.2357 33.6147 17.6467 33.8065 17.0154 33.6538C16.3841 33.5011 15.9495 33.0594 16.0442 32.6686C16.139 32.2778 16.728 32.0852 17.3593 32.2379C17.9906 32.3906 18.4253 32.8323 18.3305 33.2231Z" fill="white"/>
</g>
<g style="mix-blend-mode:screen">
<path d="M19.55 33.815C19.5854 33.6691 19.4223 33.5043 19.1856 33.4469C18.9489 33.3895 18.7284 33.4612 18.693 33.607C18.6576 33.7529 18.8208 33.9176 19.0574 33.9751C19.2941 34.0325 19.5147 33.9608 19.55 33.815Z" fill="white"/>
</g>
</g>
<path d="M32.4887 25.5131C29.6237 22.8951 29.6989 18.6536 29.2493 15.0833C28.1065 6.01152 19.8959 6.28014 19.8959 6.28014C19.8959 6.28014 11.6852 6.01152 10.5425 15.0833C10.0929 18.6536 10.1681 22.8951 7.30305 25.5131C6.50102 26.2461 5.76165 26.9572 5.78984 28.128C5.82587 29.5885 7.01482 30.5432 8.34867 30.8611C8.80369 30.9644 9.26922 31.014 9.73578 31.0091H30.0552C30.5218 31.0143 30.9873 30.9649 31.4423 30.8619C32.7738 30.544 33.9651 29.5893 34.0012 28.1288C34.0301 26.9572 33.2908 26.2461 32.4887 25.5131Z" fill="#88C4EB"/>
<g style="mix-blend-mode:multiply" opacity="0.5">
<path d="M9.74973 20.9961C9.45993 22.2053 9.02367 23.3525 8.31641 24.3557H31.4719C30.767 23.3525 30.3284 22.2053 30.0386 20.9961H9.74973Z" fill="#88C4EB"/>
</g>
<path d="M8.5 24.0901H31.2921C30.6413 23.0767 30.2434 21.9302 29.9786 20.7305H9.81348C9.55032 21.9302 9.15087 23.0767 8.5 24.0901Z" fill="#167CBF"/>
<g style="mix-blend-mode:screen" opacity="0.2">
<path d="M30.0711 21.1338C30.0382 20.9999 30.0061 20.8652 29.9763 20.7305H9.80962C9.77985 20.8652 9.74774 20.9999 9.71484 21.1338H30.0711Z" fill="#003B62"/>
</g>
<path opacity="0.2" d="M26.5558 30.8638C26.3039 30.9646 26.0345 31.0146 25.7632 31.011H29.6543C30.1025 31.0159 30.5496 30.9662 30.9858 30.863C32.2664 30.5451 33.4075 29.5904 33.4428 28.1299C33.4702 26.9591 32.7606 26.2504 31.9907 25.515C29.2392 22.897 29.3112 18.6555 28.8796 15.0852C27.852 6.60625 20.8985 6.28673 19.9946 6.28125H19.9531C20.4896 6.28673 24.6737 6.5945 25.2909 15.0852C25.5501 18.6555 25.5063 22.897 27.1589 25.515C27.621 26.248 28.0479 26.9583 28.0306 28.1299C28.0103 29.5904 27.3249 30.5451 26.5558 30.8638Z" fill="#167CBF"/>
<g opacity="0.2">
<path d="M12.1635 28.1318C12.1471 26.9611 12.5552 26.2523 12.9922 25.517C14.5587 22.8989 14.5211 18.6575 14.7678 15.0872C15.3544 6.58863 19.3419 6.28712 19.8424 6.2832C19.222 6.2832 13.1167 6.47742 12.2278 15.0872C11.8589 18.6575 11.9207 22.8989 9.57181 25.517C8.91468 26.25 8.30846 26.9611 8.33274 28.1318C8.3625 29.5924 9.33684 30.547 10.4295 30.865C10.7996 30.9678 11.1825 31.0176 11.5667 31.013H14.3253C14.0646 31.017 13.8059 30.9669 13.5655 30.8658C12.8371 30.547 12.1831 29.5924 12.1635 28.1318Z" fill="white"/>
</g>
<g style="mix-blend-mode:multiply">
<path d="M6.35156 29.668C6.8309 30.2694 7.56479 30.6766 8.34959 30.8646C8.80461 30.9678 9.27014 31.0175 9.7367 31.0126H30.0554C30.5219 31.0175 30.9875 30.9679 31.4425 30.8646C32.2257 30.6774 32.9612 30.2702 33.4405 29.6688L6.35156 29.668Z" fill="#88C4EB"/>
</g>
<g opacity="0.4">
<g style="mix-blend-mode:screen" opacity="0.7">
<path d="M16.1307 26.564C16.1698 26.9071 14.1311 27.4145 11.5683 27.4114C9.00558 27.4083 6.96682 26.9071 7.00442 26.564C7.04201 26.221 9.08156 26.1506 11.5668 26.1466C14.052 26.1427 16.0907 26.2132 16.1307 26.564Z" fill="white"/>
</g>
<g style="mix-blend-mode:screen" opacity="0.7">
<path d="M20.879 26.5536C20.9573 26.8912 20.2179 27.3446 19.2154 27.343C18.2128 27.3415 17.4742 26.8912 17.5526 26.5536C17.6309 26.2161 18.3695 26.0838 19.2154 26.0783C20.0613 26.0728 20.8014 26.213 20.879 26.5536Z" fill="white"/>
</g>
</g>
<g opacity="0.4">
<path d="M16.093 8.75771C16.4298 9.3756 15.2416 10.5315 14.1514 12.0571C13.0086 13.5669 12.4588 15.1896 12.046 15.1763C11.6474 15.1959 11.2972 13.0939 12.5003 10.9387C13.7065 8.76789 15.7954 8.13747 16.093 8.75771Z" fill="white"/>
</g>
<path opacity="0.4" d="M17.5475 8.6694C18.1972 8.6694 18.7239 8.391 18.7239 8.04759C18.7239 7.70417 18.1972 7.42578 17.5475 7.42578C16.8978 7.42578 16.3711 7.70417 16.3711 8.04759C16.3711 8.391 16.8978 8.6694 17.5475 8.6694Z" fill="white"/>
</g>
</g>
<defs>
<filter id="filter0_d_914_23642" x="3.78906" y="3.21875" width="32.2148" height="36.5664" filterUnits="userSpaceOnUse" color-interpolation-filters="sRGB">
<feFlood flood-opacity="0" result="BackgroundImageFix"/>
<feColorMatrix in="SourceAlpha" type="matrix" values="0 0 0 0 0 0 0 0 0 0 0 0 0 0 0 0 0 0 127 0" result="hardAlpha"/>
<feOffset dy="2"/>
<feGaussianBlur stdDeviation="1"/>
<feComposite in2="hardAlpha" operator="out"/>
<feColorMatrix type="matrix" values="0 0 0 0 0.430625 0 0 0 0 0.565885 0 0 0 0 0.6625 0 0 0 0.29 0"/>
<feBlend mode="normal" in2="BackgroundImageFix" result="effect1_dropShadow_914_23642"/>
<feBlend mode="normal" in="SourceGraphic" in2="effect1_dropShadow_914_23642" result="shape"/>
</filter>
<clipPath id="clip0_914_23642">
<rect width="40" height="39" fill="white"/>
</clipPath>
</defs>
</svg>
