<svg width="37" height="33" viewBox="0 0 37 33" fill="none" xmlns="http://www.w3.org/2000/svg">
<g filter="url(#filter0_d_2531_2800)">
<path d="M25.0403 7.89311H12.9453V2.90993C12.9453 2.59273 13.01 2.27866 13.1357 1.98575C13.2613 1.69284 13.4455 1.42687 13.6776 1.20312C13.9097 0.979363 14.1851 0.802238 14.4881 0.681915C14.7911 0.561593 15.1156 0.500444 15.443 0.501981H22.5587C23.2172 0.503012 23.8484 0.757161 24.3137 1.20863C24.779 1.6601 25.0403 2.27198 25.0403 2.90993V7.89311ZM16.1578 4.78106H21.8278V3.61404H16.1578V4.78106Z" fill="#88C4EB"/>
<path d="M32.9621 6.47656H5.0336C4.27291 6.47656 3.65625 7.07395 3.65625 7.81086V27.1639C3.65625 27.9009 4.27291 28.4982 5.0336 28.4982H32.9621C33.7228 28.4982 34.3395 27.9009 34.3395 27.1639V7.81086C34.3395 7.07395 33.7228 6.47656 32.9621 6.47656Z" fill="#167CBF"/>
<path d="M7.26229 26.8605C7.08141 26.8605 6.90231 26.826 6.7352 26.759C6.56809 26.6919 6.41625 26.5936 6.28835 26.4697C6.16045 26.3458 6.059 26.1987 5.98978 26.0368C5.92056 25.875 5.88493 25.7015 5.88493 25.5262V21.5078C5.88493 21.1539 6.03005 20.8145 6.28835 20.5643C6.54666 20.3141 6.89699 20.1735 7.26229 20.1735H34.3395V7.81086C34.3395 7.45698 34.1944 7.1176 33.9361 6.86737C33.6778 6.61714 33.3275 6.47656 32.9622 6.47656H5.02961C4.66501 6.47759 4.31571 6.61862 4.05827 6.86874C3.80083 7.11886 3.65627 7.45765 3.65627 7.81086V27.1678C3.65522 27.3434 3.68993 27.5174 3.75842 27.6799C3.82692 27.8425 3.92784 27.9903 4.05542 28.115C4.183 28.2397 4.33472 28.3387 4.50189 28.4065C4.66906 28.4743 4.84839 28.5094 5.02961 28.5099H32.9622C33.143 28.5099 33.3222 28.4754 33.4893 28.4083C33.6564 28.3413 33.8082 28.243 33.9361 28.1191C34.064 27.9952 34.1655 27.8481 34.2347 27.6862C34.3039 27.5243 34.3395 27.3508 34.3395 27.1756V26.8683L7.26229 26.8605Z" fill="#003B62"/>
<path d="M33.5629 5.24805H4.42967C3.63793 5.24805 2.99609 5.86981 2.99609 6.6368V17.7741C2.99609 18.5411 3.63793 19.1628 4.42967 19.1628H33.5629C34.3546 19.1628 34.9965 18.5411 34.9965 17.7741V6.6368C34.9965 5.86981 34.3546 5.24805 33.5629 5.24805Z" fill="#167CBF"/>
<path d="M34.5468 16.6032C33.5308 17.8169 32.2499 17.7935 30.7159 17.7702C24.8049 17.7702 25.1463 17.7352 20.0786 17.7702C17.0709 17.7702 15.2076 17.7702 12.3847 16.6032C9.5617 15.4361 8.48953 12.822 8.52567 9.99005C8.51248 8.40877 8.85936 6.84413 9.54162 5.40755L9.62996 5.24805H4.43377C4.24517 5.24754 4.05833 5.28308 3.88393 5.35265C3.70954 5.42221 3.55103 5.52442 3.41749 5.65343C3.28394 5.78244 3.17799 5.93571 3.10569 6.10445C3.0334 6.2732 2.99618 6.45411 2.99618 6.63681V17.7702C2.99405 17.9542 3.0297 18.1368 3.10104 18.3073C3.17238 18.4779 3.278 18.633 3.41176 18.7636C3.54551 18.8943 3.70474 18.9979 3.88019 19.0684C4.05564 19.139 4.24381 19.175 4.43377 19.1745H33.559C33.7476 19.175 33.9344 19.1395 34.1088 19.0699C34.2832 19.0003 34.4417 18.8981 34.5752 18.7691C34.7088 18.6401 34.8147 18.4868 34.887 18.3181C34.9593 18.1494 34.9965 17.9684 34.9965 17.7857V15.9846C34.8582 16.1985 34.708 16.4049 34.5468 16.6032Z" fill="#003B62"/>
<path d="M20.979 18.6641H17.0156V21.9006H20.979V18.6641Z" fill="#88C4EB"/>
</g>
<defs>
<filter id="filter0_d_2531_2800" x="0.996094" y="0.501953" width="36" height="32.0078" filterUnits="userSpaceOnUse" color-interpolation-filters="sRGB">
<feFlood flood-opacity="0" result="BackgroundImageFix"/>
<feColorMatrix in="SourceAlpha" type="matrix" values="0 0 0 0 0 0 0 0 0 0 0 0 0 0 0 0 0 0 127 0" result="hardAlpha"/>
<feOffset dy="2"/>
<feGaussianBlur stdDeviation="1"/>
<feComposite in2="hardAlpha" operator="out"/>
<feColorMatrix type="matrix" values="0 0 0 0 0.430625 0 0 0 0 0.565885 0 0 0 0 0.6625 0 0 0 0.29 0"/>
<feBlend mode="normal" in2="BackgroundImageFix" result="effect1_dropShadow_2531_2800"/>
<feBlend mode="normal" in="SourceGraphic" in2="effect1_dropShadow_2531_2800" result="shape"/>
</filter>
</defs>
</svg>
