<svg width="36" height="42" viewBox="0 0 36 42" fill="none" xmlns="http://www.w3.org/2000/svg">
<g filter="url(#filter0_d_2531_2773)">
<path d="M33.3656 2.73972V36.2602C33.3656 36.9867 33.0771 37.6834 32.5634 38.1971C32.0497 38.7108 31.353 38.9994 30.6266 38.9995H5.56703C5.55079 38.9995 5.53455 38.9995 5.51831 38.9995C4.8002 38.9871 4.11571 38.693 3.61245 38.1806C3.1092 37.6681 2.82751 36.9785 2.82813 36.2602V2.73972C2.82813 1.22704 4.05451 0 5.56703 0H30.6266C30.9863 4.26488e-05 31.3425 0.0709415 31.6749 0.208648C32.0072 0.346355 32.3092 0.548173 32.5635 0.80258C32.8179 1.05699 33.0196 1.359 33.1572 1.69137C33.2949 2.02375 33.3657 2.37998 33.3656 2.73972Z" fill="#167CBF"/>
<path opacity="0.2" d="M33.3677 6.55469V36.2611C33.3677 36.9876 33.0792 37.6844 32.5655 38.1981C32.0518 38.7119 31.3551 39.0006 30.6286 39.0006H8.75C33.0294 37.8848 33.3677 6.55469 33.3677 6.55469Z" fill="#003B62"/>
<path d="M5.89062 2.17188V34.4239L7.7492 36.2825H30.3026V2.17188H5.89062Z" fill="#F7FAFC"/>
<path d="M7.7492 36.2824L5.89062 34.4238H7.7492V36.2824Z" fill="#88C4EB"/>
<path d="M12.696 32.5712C13.7029 31.5643 13.7029 29.9318 12.696 28.9249C11.6891 27.918 10.0566 27.918 9.0497 28.9249C8.04281 29.9318 8.04281 31.5643 9.0497 32.5712C10.0566 33.5781 11.6891 33.5781 12.696 32.5712Z" fill="#167CBF"/>
<path d="M10.4951 32.0998L9.42188 30.9371L9.91782 30.4793L10.4607 31.0675L11.8089 29.3965L12.3342 29.8203L10.4951 32.0998Z" fill="white"/>
<path d="M24.2704 29.1719H15.5031C15.2554 29.1719 15.0547 29.3726 15.0547 29.6202C15.0547 29.8679 15.2554 30.0686 15.5031 30.0686H24.2704C24.5181 30.0686 24.7188 29.8679 24.7188 29.6202C24.7188 29.3726 24.5181 29.1719 24.2704 29.1719Z" fill="#167CBF"/>
<path d="M25.8864 31.4258H15.5031C15.2554 31.4258 15.0547 31.6265 15.0547 31.8741C15.0547 32.1218 15.2554 32.3225 15.5031 32.3225H25.8864C26.134 32.3225 26.3348 32.1218 26.3348 31.8741C26.3348 31.6265 26.134 31.4258 25.8864 31.4258Z" fill="#88C4EB"/>
<path d="M10.8791 25.7113C12.303 25.7113 13.4574 24.5569 13.4574 23.133C13.4574 21.709 12.303 20.5547 10.8791 20.5547C9.45513 20.5547 8.30078 21.709 8.30078 23.133C8.30078 24.5569 9.45513 25.7113 10.8791 25.7113Z" fill="#167CBF"/>
<path d="M10.4951 24.4867L9.42188 23.324L9.91782 22.8662L10.4607 23.4542L11.8089 21.7832L12.3342 22.207L10.4951 24.4867Z" fill="white"/>
<path d="M15.503 24.709H24.2704C24.518 24.709 24.7188 24.5082 24.7188 24.2606C24.7188 24.013 24.518 23.8123 24.2704 23.8123H15.503C15.2554 23.8123 15.0546 24.013 15.0546 24.2606C15.0546 24.5082 15.2554 24.709 15.503 24.709Z" fill="#88C4EB"/>
<path d="M15.5031 21.5566H25.8866C26.0055 21.5566 26.1195 21.6039 26.2036 21.688C26.2877 21.772 26.3349 21.8861 26.3349 22.005C26.3349 22.1239 26.2877 22.238 26.2036 22.322C26.1195 22.4061 26.0055 22.4534 25.8866 22.4534H15.5031C15.3841 22.4534 15.2701 22.4061 15.186 22.322C15.1019 22.238 15.0547 22.1239 15.0547 22.005C15.0547 21.8861 15.1019 21.772 15.186 21.688C15.2701 21.6039 15.3841 21.5566 15.5031 21.5566Z" fill="#167CBF"/>
<path d="M12.696 17.3427C13.7029 16.3358 13.7029 14.7033 12.696 13.6964C11.6891 12.6895 10.0566 12.6895 9.0497 13.6964C8.04281 14.7033 8.04281 16.3358 9.0497 17.3427C10.0566 18.3496 11.6891 18.3496 12.696 17.3427Z" fill="#167CBF"/>
<path d="M10.4951 16.8694L9.42188 15.7066L9.91782 15.2488L10.4607 15.837L11.8089 14.166L12.3342 14.5899L10.4951 16.8694Z" fill="white"/>
<path d="M21.539 13.9434H15.5031C15.2554 13.9434 15.0547 14.1441 15.0547 14.3917C15.0547 14.6393 15.2554 14.8401 15.5031 14.8401H21.539C21.7866 14.8401 21.9874 14.6393 21.9874 14.3917C21.9874 14.1441 21.7866 13.9434 21.539 13.9434Z" fill="#88C4EB"/>
<path d="M24.2704 16.1992H15.5031C15.2554 16.1992 15.0547 16.4 15.0547 16.6476C15.0547 16.8952 15.2554 17.0959 15.5031 17.0959H24.2704C24.5181 17.0959 24.7188 16.8952 24.7188 16.6476C24.7188 16.4 24.5181 16.1992 24.2704 16.1992Z" fill="#167CBF"/>
<path d="M12.696 10.2763C13.7029 9.26937 13.7029 7.63688 12.696 6.62999C11.6891 5.6231 10.0566 5.6231 9.0497 6.62999C8.04281 7.63688 8.04281 9.26937 9.0497 10.2763C10.0566 11.2831 11.6891 11.2831 12.696 10.2763Z" fill="#167CBF"/>
<path d="M10.4951 9.8049L9.42188 8.64234L9.91782 8.18439L10.4607 8.77258L11.8089 7.10156L12.3342 7.52541L10.4951 9.8049Z" fill="white"/>
<path d="M24.2704 6.87695H15.5031C15.2554 6.87695 15.0547 7.07769 15.0547 7.32532C15.0547 7.57294 15.2554 7.77368 15.5031 7.77368H24.2704C24.5181 7.77368 24.7188 7.57294 24.7188 7.32532C24.7188 7.07769 24.5181 6.87695 24.2704 6.87695Z" fill="#167CBF"/>
<path d="M25.8864 9.13281H15.5031C15.2554 9.13281 15.0547 9.33355 15.0547 9.58118C15.0547 9.8288 15.2554 10.0295 15.5031 10.0295H25.8864C26.134 10.0295 26.3348 9.8288 26.3348 9.58118C26.3348 9.33355 26.134 9.13281 25.8864 9.13281Z" fill="#88C4EB"/>
</g>
<defs>
<filter id="filter0_d_2531_2773" x="0.828125" y="0" width="34.5391" height="43" filterUnits="userSpaceOnUse" color-interpolation-filters="sRGB">
<feFlood flood-opacity="0" result="BackgroundImageFix"/>
<feColorMatrix in="SourceAlpha" type="matrix" values="0 0 0 0 0 0 0 0 0 0 0 0 0 0 0 0 0 0 127 0" result="hardAlpha"/>
<feOffset dy="2"/>
<feGaussianBlur stdDeviation="1"/>
<feComposite in2="hardAlpha" operator="out"/>
<feColorMatrix type="matrix" values="0 0 0 0 0.430625 0 0 0 0 0.565885 0 0 0 0 0.6625 0 0 0 0.29 0"/>
<feBlend mode="normal" in2="BackgroundImageFix" result="effect1_dropShadow_2531_2773"/>
<feBlend mode="normal" in="SourceGraphic" in2="effect1_dropShadow_2531_2773" result="shape"/>
</filter>
</defs>
</svg>
