<svg width="40" height="39" viewBox="0 0 40 39" fill="none" xmlns="http://www.w3.org/2000/svg">
<g clip-path="url(#clip0_692_16505)">
<g filter="url(#filter0_d_692_16505)">
<path d="M19.9993 10.4645V10.0264C19.9993 9.6848 19.8637 9.35715 19.6222 9.11557C19.3808 8.874 19.0533 8.73828 18.7119 8.73828H5.28741C4.94597 8.73828 4.61851 8.874 4.37707 9.11557C4.13564 9.35715 4 9.6848 4 10.0264V33.2554H35.9986V11.7506C35.9986 11.4089 35.8629 11.0813 35.6215 10.8397C35.3801 10.5981 35.0526 10.4624 34.7112 10.4624L19.9993 10.4645Z" fill="#88C4EB"/>
<path d="M34.8768 12.3203H5.41992V33.4906H34.8768V12.3203Z" fill="#D9E7F0"/>
<path d="M35 2H11V33H35V2Z" fill="white"/>
<path d="M31 6H15V7H31V6Z" fill="#88C4EB"/>
<path d="M31 8H15V9H31V8Z" fill="#88C4EB"/>
<path d="M31 10H15V11H31V10Z" fill="#88C4EB"/>
<path d="M19.5428 14.9678L19.0681 16.2858H5.28741C4.94597 16.2858 4.61851 16.4215 4.37707 16.6631C4.13564 16.9047 4 17.2323 4 17.574V33.9753C4 34.3169 4.13564 34.6446 4.37707 34.8862C4.61851 35.1277 4.94597 35.2634 5.28741 35.2634H34.7112C35.0526 35.2634 35.3801 35.1277 35.6215 34.8862C35.8629 34.6446 35.9986 34.3169 35.9986 33.9753V15.4053C35.9986 15.0637 35.8629 14.7361 35.6215 14.4945C35.3801 14.2529 35.0526 14.1172 34.7112 14.1172H20.7539C20.4892 14.1173 20.2309 14.199 20.0142 14.3512C19.7974 14.5034 19.6329 14.7187 19.5428 14.9678Z" fill="#167CBF"/>
<path d="M36.0001 33.9744V23.2812C27.112 31.9312 11.6956 34.2445 4.35938 34.864C4.47913 34.9901 4.62332 35.0905 4.78314 35.1591C4.94296 35.2276 5.11506 35.2628 5.28893 35.2626H34.7127C35.0541 35.2626 35.3816 35.1269 35.623 34.8853C35.8645 34.6437 36.0001 34.3161 36.0001 33.9744Z" fill="#003B62"/>
<path d="M16.9951 17.3203H6.11559C5.83996 17.3205 5.57567 17.4301 5.38077 17.6251C5.18587 17.8201 5.07631 18.0845 5.07617 18.3603V20.6645C6.90542 19.4084 11.0354 17.8294 16.9951 17.3203Z" fill="#88C4EB"/>
</g>
</g>
<defs>
<filter id="filter0_d_692_16505" x="2" y="2" width="36" height="37.2637" filterUnits="userSpaceOnUse" color-interpolation-filters="sRGB">
<feFlood flood-opacity="0" result="BackgroundImageFix"/>
<feColorMatrix in="SourceAlpha" type="matrix" values="0 0 0 0 0 0 0 0 0 0 0 0 0 0 0 0 0 0 127 0" result="hardAlpha"/>
<feOffset dy="2"/>
<feGaussianBlur stdDeviation="1"/>
<feComposite in2="hardAlpha" operator="out"/>
<feColorMatrix type="matrix" values="0 0 0 0 0.430625 0 0 0 0 0.565885 0 0 0 0 0.6625 0 0 0 0.29 0"/>
<feBlend mode="normal" in2="BackgroundImageFix" result="effect1_dropShadow_692_16505"/>
<feBlend mode="normal" in="SourceGraphic" in2="effect1_dropShadow_692_16505" result="shape"/>
</filter>
<clipPath id="clip0_692_16505">
<rect width="40" height="39" fill="white"/>
</clipPath>
</defs>
</svg>
