<svg width="39" height="31" viewBox="0 0 39 31" fill="none" xmlns="http://www.w3.org/2000/svg">
<path d="M30.0541 15.9785H9.08984V23.1292C9.08984 24.6716 10.13 26.2139 12.185 27.3906C16.3001 29.7442 22.9398 29.7442 27.0246 27.3906C29.0443 26.2139 30.0844 24.6716 30.0541 23.1292V15.9785Z" fill="#167CBF"/>
<path opacity="0.1" d="M9.06641 19.3386L19.5586 25.3476L30.0509 19.2985V15.9785H9.06641V19.3386Z" fill="#003B62"/>
<path d="M39.0019 11.2031L38.9969 12.6453L19.5625 23.8471L19.5675 22.4049L39.0019 11.2031Z" fill="#88C4EB"/>
<path d="M19.5656 22.4049L19.5606 23.8471L0 12.6453L0.0050492 11.2031L19.5656 22.4049Z" fill="#003B62"/>
<path d="M38.9989 11.2018L19.5645 22.4036L0.00390625 11.2018L19.4383 0L38.9989 11.2018Z" fill="#167CBF"/>
<path d="M22.5646 10.5156C23.0241 11.1916 22.7868 11.9928 21.8375 12.5186C21.114 12.8832 20.3138 13.0733 19.5023 13.0733C18.6907 13.0733 17.8905 12.8832 17.167 12.5186C17.0853 12.471 17.006 12.4192 16.9297 12.3634C17.123 12.6357 17.377 12.8602 17.6719 13.0194C18.3942 13.3823 19.1925 13.5715 20.0021 13.5715C20.8118 13.5715 21.6101 13.3823 22.3323 13.0194C23.5391 12.3484 23.6098 11.2567 22.5646 10.5156Z" fill="#003B62"/>
<path d="M22.2667 13.0742C21.876 13.279 21.4551 13.421 21.0195 13.4948L28.0177 17.5009V24.8669H29.0276V16.94L22.2667 13.0742Z" fill="#D9E7F0"/>
<path d="M28.9858 24.6465H28.1173C28.1173 24.6465 26.2087 27.3205 27.4609 29.9995H29.6371C30.8944 27.3205 28.9858 24.6465 28.9858 24.6465Z" fill="#D9E7F0"/>
<path d="M29.2382 29.5453C29.2692 29.2693 29.2844 28.9918 29.2837 28.7141C29.3004 28.5476 29.3004 28.3799 29.2837 28.2133C29.2837 28.0531 29.2584 27.8879 29.2433 27.7126C29.2281 27.5373 29.1978 27.3921 29.1726 27.2369C29.1474 27.0816 29.1171 26.9264 29.0868 26.7762C29.011 26.4858 28.9555 26.2103 28.8797 25.99C28.807 25.7397 28.7193 25.4939 28.6172 25.2539C28.6868 25.5125 28.7408 25.7751 28.7788 26.0401C28.8394 26.2654 28.8696 26.5408 28.9252 26.8363C28.9252 26.9815 28.9605 27.1367 28.9757 27.292C28.9975 27.448 29.0093 27.6052 29.011 27.7627C29.011 27.9229 29.011 28.0832 29.011 28.2384C29.0238 28.3883 29.0238 28.5391 29.011 28.6891C28.9933 28.9543 28.9612 29.2184 28.9151 29.4802C28.8646 29.6906 28.8293 29.8608 28.799 29.981H29.1625C29.1877 29.8758 29.213 29.7356 29.2382 29.5453Z" fill="#88C4EB"/>
<path d="M28.1791 29.4904C28.1305 29.2289 28.0984 28.9646 28.0832 28.6992C28.0704 28.5492 28.0704 28.3985 28.0832 28.2485C28.0832 28.0933 28.0832 27.933 28.0832 27.7728C28.0849 27.6153 28.0967 27.4581 28.1185 27.3021C28.1185 27.1468 28.1488 26.9916 28.164 26.8464C28.2195 26.556 28.2548 26.2755 28.3154 26.0502C28.3693 25.7927 28.4385 25.5385 28.5225 25.2891C28.4249 25.5343 28.3423 25.7851 28.275 26.0402C28.1943 26.2605 28.1438 26.5409 28.063 26.8264C28.0377 26.9766 28.0074 27.1318 27.9822 27.2871C27.9484 27.444 27.9248 27.6029 27.9115 27.7628L27.8661 28.2635C27.8522 28.4302 27.8522 28.5976 27.8661 28.7643C27.8519 29.0245 27.8519 29.2852 27.8661 29.5454C27.8913 29.7207 27.9115 29.8609 27.9317 29.9861H28.275C28.275 29.8709 28.2245 29.7007 28.1791 29.4904Z" fill="#88C4EB"/>
<path d="M29.8508 29.1741C29.8805 29.0089 29.8941 28.8412 29.8912 28.6734C29.8967 28.5061 29.8882 28.3386 29.866 28.1726C29.8505 28.0041 29.8235 27.8368 29.7852 27.6719C29.6446 27.07 29.4095 26.4938 29.0884 25.9643C28.9538 25.7366 28.8001 25.5205 28.6289 25.3184C28.7812 25.5373 28.9179 25.7665 29.0379 26.0044C29.3148 26.5462 29.5055 27.1273 29.6034 27.727C29.6271 27.8929 29.6406 28.0601 29.6438 28.2277C29.6578 28.3943 29.6578 28.5618 29.6438 28.7285C29.6358 28.8754 29.6138 29.0213 29.5782 29.1641C29.5588 29.2905 29.5266 29.4147 29.4822 29.5347C29.4284 29.7089 29.3556 29.8769 29.2651 30.0354H29.6539C29.6788 29.9799 29.7007 29.923 29.7195 29.8652C29.7458 29.7914 29.7677 29.7161 29.7852 29.6398C29.8238 29.4874 29.8458 29.3313 29.8508 29.1741Z" fill="#88C4EB"/>
<path d="M28.5517 25.2891L28.375 30.0011H28.7284L28.5517 25.2891Z" fill="#88C4EB"/>
<path d="M27.8467 29.9905C27.7579 29.8317 27.6868 29.6638 27.6346 29.4898C27.5884 29.3699 27.5546 29.2458 27.5336 29.1192C27.4974 28.9766 27.477 28.8305 27.473 28.6836C27.4588 28.5169 27.4588 28.3494 27.473 28.1828C27.478 28.0151 27.4931 27.8479 27.5185 27.682C27.6148 27.0827 27.8039 26.5016 28.0789 25.9595C28.199 25.7216 28.3356 25.4924 28.4879 25.2734C28.3196 25.4766 28.1676 25.6926 28.0335 25.9194C27.7103 26.4478 27.4751 27.0244 27.3367 27.627C27.299 27.7922 27.2703 27.9594 27.2509 28.1277C27.2393 28.2944 27.2393 28.4617 27.2509 28.6285C27.2463 28.7961 27.2582 28.9638 27.2862 29.1292C27.301 29.2747 27.328 29.4188 27.367 29.5599C27.367 29.645 27.4124 29.7151 27.4326 29.7902C27.4528 29.8653 27.473 29.9004 27.4983 29.9555H27.8871L27.8467 29.9905Z" fill="#88C4EB"/>
<path d="M27.5667 24.6467C27.5717 24.4548 27.6336 24.2685 27.7448 24.1112C27.856 23.954 28.0114 23.8327 28.1917 23.7627C28.372 23.6926 28.5691 23.6768 28.7584 23.7172C28.9477 23.7577 29.1208 23.8526 29.256 23.9901C29.3912 24.1276 29.4825 24.3016 29.5184 24.4903C29.5544 24.679 29.5335 24.874 29.4583 25.051C29.3831 25.228 29.2569 25.379 29.0956 25.4853C28.9343 25.5915 28.745 25.6482 28.5513 25.6482C28.4199 25.6483 28.2897 25.6222 28.1686 25.5716C28.0475 25.521 27.9378 25.4468 27.846 25.3534C27.7543 25.2601 27.6823 25.1495 27.6343 25.0281C27.5863 24.9067 27.5634 24.7771 27.5667 24.6467Z" fill="#D9E7F0"/>
</svg>
