<svg width="40" height="40" viewBox="0 0 40 40" fill="none" xmlns="http://www.w3.org/2000/svg">
<path d="M8.65775 34.0476C9.4511 32.9808 10.1185 31.6582 10.6465 30.1075C7.09442 27.2699 5 22.9539 5 18.3812C5 10.11 11.7292 3.38086 20.0004 3.38086C28.2717 3.38086 35.0008 10.11 35.0008 18.3812C35.0008 26.6525 28.2717 33.3816 20.0004 33.3816C18.9261 33.3816 17.8566 33.2672 16.8126 33.0411C14.427 34.8864 11.8713 35.9961 10.5069 36.5094C9.00915 37.0731 7.70354 35.3303 8.65775 34.0476Z" fill="#88C4EB"/>
<path d="M9.99199 34.0476C10.7023 33.0925 11.3115 31.9324 11.8103 30.5872C11.9139 30.3078 11.8325 29.9913 11.6058 29.7978C8.28175 26.9613 6.33431 22.7905 6.33431 18.3812C6.33431 10.3336 12.7047 3.7468 20.6675 3.39644C20.4462 3.3867 20.224 3.38086 20.0004 3.38086C11.7292 3.38086 5 10.11 5 18.3812C5 22.9539 7.09435 27.2699 10.6464 30.1075C10.1184 31.6582 9.45111 32.9808 8.65769 34.0476C7.85577 35.1256 8.65009 36.6142 9.93591 36.6141C10.126 36.6141 10.3192 36.58 10.5069 36.5093C10.5407 36.4966 10.5758 36.4832 10.6111 36.4697C9.70642 36.0553 9.3623 34.894 9.99199 34.0476Z" fill="#88C4EB"/>
<g filter="url(#filter0_d_692_15790)">
<path d="M20.0011 5.93945C13.1403 5.93945 7.55859 11.5212 7.55859 18.382C7.55859 22.4379 9.54558 26.2507 12.8737 28.5812C13.3232 28.896 13.5218 29.4626 13.3672 29.9892C13.0585 31.0405 12.6942 32.017 12.277 32.9135C13.3599 32.3428 14.5614 31.6 15.6869 30.6677C16.0045 30.4047 16.4291 30.311 16.828 30.4158C17.8594 30.6869 18.927 30.8245 20.0011 30.8245C26.8619 30.8245 32.4437 25.2428 32.4437 18.3819C32.4437 11.521 26.8619 5.93945 20.0011 5.93945Z" fill="#167CBF"/>
</g>
<path opacity="0.2" d="M12.277 32.9137C12.8496 32.6119 13.4553 32.2615 14.0654 31.861C14.2995 31.2667 14.5128 30.6425 14.7046 29.9892C14.8592 29.4627 14.6607 28.8961 14.2111 28.5813C10.883 26.2508 8.89602 22.4379 8.89602 18.382C8.89602 11.7455 14.1187 6.30623 20.6698 5.95756C20.4483 5.94575 20.2255 5.93945 20.0011 5.93945C13.1403 5.93945 7.55859 11.5212 7.55859 18.382C7.55859 22.4379 9.54558 26.2507 12.8737 28.5813C13.3232 28.8961 13.5218 29.4627 13.3672 29.9892C13.0584 31.0406 12.6942 32.0172 12.277 32.9137Z" fill="white"/>
<path d="M20.0105 14.1469C20.9109 14.1469 21.6714 13.3977 21.6714 12.5109C21.6714 11.6358 20.9108 10.8965 20.0105 10.8965C19.0839 10.8965 18.3301 11.6207 18.3301 12.5109C18.3301 13.3977 19.0997 14.1469 20.0105 14.1469Z" fill="white"/>
<path d="M20.0105 15.959C19.0786 15.959 18.4277 16.4103 18.4277 17.0565V25.2624C18.4277 25.8028 19.0637 26.3814 20.0105 26.3814C20.864 26.3814 21.6128 25.8585 21.6128 25.2624V17.0565C21.6128 16.4205 20.9389 15.959 20.0105 15.959Z" fill="white"/>
<path d="M19.6564 12.5109C19.6564 11.8505 20.0715 11.2818 20.664 11.032C20.4622 10.9452 20.241 10.8965 20.0105 10.8965C19.0839 10.8965 18.3301 11.6207 18.3301 12.5109C18.3301 13.3977 19.0996 14.1469 20.0105 14.1469C20.2432 14.1469 20.4664 14.0965 20.6698 14.0069C20.0797 13.75 19.6564 13.1685 19.6564 12.5109Z" fill="#D9E7F0"/>
<path d="M19.7541 25.2623V17.0565C19.7541 16.5788 20.1099 16.2079 20.6719 16.0468C20.4732 15.99 20.2505 15.959 20.0105 15.959C19.0786 15.959 18.4277 16.4103 18.4277 17.0565V25.2624C18.4277 25.8028 19.0637 26.3814 20.0105 26.3814C20.242 26.3814 20.4656 26.3427 20.6689 26.2747C20.1034 26.0831 19.7541 25.6625 19.7541 25.2623Z" fill="#D9E7F0"/>
<defs>
<filter id="filter0_d_692_15790" x="5.55859" y="5.93945" width="28.8848" height="30.9746" filterUnits="userSpaceOnUse" color-interpolation-filters="sRGB">
<feFlood flood-opacity="0" result="BackgroundImageFix"/>
<feColorMatrix in="SourceAlpha" type="matrix" values="0 0 0 0 0 0 0 0 0 0 0 0 0 0 0 0 0 0 127 0" result="hardAlpha"/>
<feOffset dy="2"/>
<feGaussianBlur stdDeviation="1"/>
<feComposite in2="hardAlpha" operator="out"/>
<feColorMatrix type="matrix" values="0 0 0 0 0.430625 0 0 0 0 0.565885 0 0 0 0 0.6625 0 0 0 0.29 0"/>
<feBlend mode="normal" in2="BackgroundImageFix" result="effect1_dropShadow_692_15790"/>
<feBlend mode="normal" in="SourceGraphic" in2="effect1_dropShadow_692_15790" result="shape"/>
</filter>
</defs>
</svg>
