<svg width="40" height="40" viewBox="0 0 40 40" fill="none" xmlns="http://www.w3.org/2000/svg">
<path d="M8.75512 27.8477H8.65108C8.52994 27.8413 8.40985 27.821 8.29297 27.7871C8.40985 27.821 8.52994 27.8413 8.65108 27.8477H8.75512Z" fill="#D9E7F0"/>
<path d="M9.05859 27.8213C9.12615 27.8105 9.19298 27.7952 9.25866 27.7754C9.19298 27.7952 9.12615 27.8105 9.05859 27.8213Z" fill="#D9E7F0"/>
<path d="M10.3125 26.9434C10.3445 26.8953 10.3725 26.8431 10.4005 26.793C10.3725 26.8368 10.3545 26.889 10.3125 26.9434Z" fill="#D9E7F0"/>
<path d="M8.03906 27.6875C8.12082 27.7257 8.20505 27.7578 8.29114 27.7836C8.20505 27.7578 8.12082 27.7257 8.03906 27.6875Z" fill="#D9E7F0"/>
<path d="M7.10965 24.5234C7.07564 24.5882 7.04563 24.655 7.01562 24.7323C7.04563 24.6467 7.07564 24.5882 7.10965 24.5234Z" fill="#D9E7F0"/>
<path d="M6.88398 25.1543C6.87373 25.1982 6.86758 25.2399 6.85938 25.2838C6.86758 25.2399 6.87373 25.1982 6.88398 25.1543Z" fill="#D9E7F0"/>
<path d="M8.75391 27.8494C8.85518 27.8499 8.95629 27.8408 9.056 27.8223C8.95629 27.8408 8.85518 27.8499 8.75391 27.8494Z" fill="#D9E7F0"/>
<path d="M7.52675 23.7785C7.52787 23.7924 7.52787 23.8064 7.52675 23.8203C7.52787 23.8064 7.52787 23.7924 7.52675 23.7785C7.53598 23.6719 7.51115 23.5651 7.45614 23.4748C7.40113 23.3845 7.31903 23.3158 7.22266 23.2793C7.31903 23.3158 7.40113 23.3845 7.45614 23.4748C7.51115 23.5651 7.53598 23.6719 7.52675 23.7785Z" fill="#D9E7F0"/>
<path d="M15.2234 16.5007C15.1908 16.5224 15.16 16.5469 15.1313 16.5739C14.9609 16.7809 14.7502 16.9476 14.5132 17.0628C14.2762 17.1781 14.0184 17.2393 13.7569 17.2422C12.6526 17.2422 11.7683 16.1812 11.8363 14.9071C11.8983 13.7875 12.6986 12.8978 13.6789 12.8539C13.9528 12.8441 14.2253 12.8982 14.4766 13.0124C14.7279 13.1266 14.9516 13.298 15.1313 13.5139C15.2654 13.6601 15.4454 13.6163 15.6255 13.6163H17.084L15.9176 7.2207H3.35357C2.57532 7.2207 1.95312 7.93921 1.95312 8.8269V23.2556H7.08877C7.13501 23.2555 7.18094 23.2633 7.22481 23.2785C7.32119 23.315 7.40329 23.3838 7.4583 23.4741C7.51331 23.5644 7.53814 23.6712 7.52891 23.7777C7.53003 23.7916 7.53003 23.8056 7.52891 23.8195C7.51825 23.9178 7.47917 24.0103 7.41688 24.0848C7.37086 24.137 7.32685 24.1934 7.28483 24.2498C7.2377 24.3095 7.19426 24.3723 7.15479 24.4378L7.10077 24.5318C7.06676 24.5965 7.03675 24.6633 7.00674 24.7406C6.97673 24.8179 6.95473 24.8785 6.93272 24.9495C6.91008 25.0221 6.89137 25.0961 6.8767 25.1709C6.8667 25.2148 6.8607 25.2565 6.85269 25.3004C6.83085 25.4524 6.82215 25.6062 6.82669 25.7599C6.83843 26.0982 6.92106 26.4298 7.06876 26.7311C7.12567 26.8473 7.19264 26.9578 7.26883 27.0612C7.41436 27.2639 7.59401 27.4373 7.799 27.5729C7.95304 27.6654 8.11869 27.735 8.29116 27.7797C8.40804 27.8135 8.52813 27.8338 8.64927 27.8402H8.7533C8.85458 27.8407 8.95569 27.8316 9.0554 27.8131C9.12296 27.8022 9.18978 27.7869 9.25546 27.7671C9.35027 27.7383 9.44262 27.7013 9.53155 27.6564C9.84864 27.4964 10.1188 27.2504 10.3138 26.9442C10.3458 26.8962 10.3738 26.8439 10.4018 26.7938C10.5314 26.5497 10.6168 26.2828 10.6539 26.0064C10.6701 25.8916 10.6781 25.7757 10.6779 25.6596C10.679 25.0719 10.4642 24.506 10.0777 24.0785C10.0412 24.0263 10.014 23.9675 9.9977 23.9051V23.8738C9.98249 23.8038 9.98205 23.7311 9.99643 23.6609C10.0108 23.5907 10.0396 23.5245 10.0809 23.4671C10.1223 23.4097 10.175 23.3623 10.2356 23.3283C10.2962 23.2943 10.3632 23.2745 10.4318 23.2702H15.9176L17.118 16.436C17.118 16.436 15.6855 16.436 15.4394 16.436C15.363 16.4356 15.288 16.4581 15.2234 16.5007Z" fill="#003B62"/>
<path d="M24.7135 23.2563C24.6021 23.2539 24.495 23.2107 24.411 23.1344C24.3269 23.0581 24.2711 22.9534 24.2533 22.8386C24.2386 22.7574 24.241 22.6739 24.2603 22.5938C24.2797 22.5137 24.3155 22.439 24.3654 22.3749C24.5617 22.1519 24.7138 21.8906 24.8131 21.6059C24.9123 21.3213 24.9566 21.019 24.9436 20.7165C24.9162 20.0106 24.8359 19.308 24.7035 18.6152H22.9849C21.9386 18.6382 21.0983 19.6115 21.0983 20.8104C21.0973 21.3982 21.3121 21.9641 21.6985 22.3916C21.7542 22.4691 21.789 22.5608 21.7993 22.6572C21.8095 22.7535 21.7949 22.8509 21.757 22.9394C21.719 23.0278 21.659 23.1041 21.5833 23.1602C21.5076 23.2163 21.4189 23.2502 21.3264 23.2584H15.9247V29.3448C15.9161 29.4274 15.9312 29.5108 15.9682 29.5843C16.0052 29.6578 16.0624 29.7182 16.1324 29.7576C16.2024 29.7971 16.282 29.8139 16.3612 29.8058C16.4404 29.7978 16.5155 29.7652 16.5769 29.7124C16.7554 29.492 16.9792 29.3164 17.2317 29.1989C17.4843 29.0813 17.759 29.0248 18.0353 29.0336C19.0197 29.0733 19.8239 29.9652 19.8839 31.0868C19.962 32.3588 19.0677 33.4199 17.9613 33.4199C17.7005 33.4181 17.443 33.3583 17.206 33.2445C16.969 33.1307 16.7579 32.9654 16.5869 32.7598C16.5494 32.7185 16.5045 32.6852 16.4548 32.6617C16.3907 32.6365 16.3214 32.629 16.2537 32.6398C16.1859 32.6506 16.122 32.6794 16.068 32.7235C16.014 32.7675 15.9717 32.8253 15.9452 32.8912C15.9187 32.9572 15.9089 33.0292 15.9167 33.1003V39.005H28.4507C29.2269 39.005 29.8511 38.2844 29.8511 37.3988V23.2563H24.7135Z" fill="#003B62"/>
<path d="M7.07422 26.7148C7.13113 26.831 7.19809 26.9415 7.27428 27.0449C7.19809 26.9415 7.13113 26.831 7.07422 26.7148Z" fill="#D9E7F0"/>
<path d="M7.52219 23.8105C7.51153 23.9088 7.47245 24.0013 7.41016 24.0758C7.47245 24.0013 7.51153 23.9088 7.52219 23.8105Z" fill="#D9E7F0"/>
<path d="M10.3156 26.9434C10.1208 27.2558 9.84837 27.507 9.52734 27.6702C9.84837 27.507 10.1208 27.2558 10.3156 26.9434Z" fill="#D9E7F0"/>
<path d="M7.28029 24.25C7.23521 24.3099 7.19378 24.3727 7.15625 24.438C7.19378 24.3727 7.23521 24.3099 7.28029 24.25Z" fill="#D9E7F0"/>
<path d="M6.93883 24.9336C6.91619 25.0062 6.89748 25.0802 6.88281 25.155C6.89748 25.0802 6.91619 25.0062 6.93883 24.9336Z" fill="#D9E7F0"/>
<path d="M7.80469 27.5566C7.88032 27.6062 7.9592 27.6502 8.04076 27.6882C7.9592 27.6502 7.88032 27.6062 7.80469 27.5566Z" fill="#D9E7F0"/>
<path d="M10.4303 23.2559C10.3616 23.2601 10.2946 23.28 10.234 23.314C10.1734 23.348 10.1207 23.3953 10.0794 23.4528C10.0381 23.5102 10.0092 23.5763 9.99484 23.6466C9.98047 23.7168 9.9809 23.7895 9.99612 23.8595C9.9809 23.7895 9.98047 23.7168 9.99484 23.6466C10.0092 23.5763 10.0381 23.5102 10.0794 23.4528C10.1207 23.3953 10.1734 23.348 10.234 23.314C10.2946 23.28 10.3616 23.2601 10.4303 23.2559Z" fill="#D9E7F0"/>
<path d="M10 23.8906C10.0163 23.953 10.0435 24.0118 10.08 24.064C10.0435 24.0118 10.0163 23.953 10 23.8906Z" fill="#D9E7F0"/>
<path d="M6.8332 25.7427C6.84494 26.081 6.92757 26.4126 7.07528 26.714C6.92757 26.4126 6.84494 26.081 6.8332 25.7427C6.82866 25.589 6.83736 25.4353 6.85921 25.2832C6.83736 25.4353 6.82866 25.589 6.8332 25.7427Z" fill="#D9E7F0"/>
<path d="M10.4023 26.7874C10.5319 26.5433 10.6173 26.2764 10.6544 26C10.6173 26.2764 10.5319 26.5433 10.4023 26.7874Z" fill="#D9E7F0"/>
<path d="M7.80361 27.5566C7.59862 27.4211 7.41897 27.2477 7.27344 27.0449C7.41897 27.2477 7.59862 27.4211 7.80361 27.5566Z" fill="#D9E7F0"/>
<path d="M19.8809 31.0823C19.8208 29.9607 19.0166 29.0688 18.0323 29.0291C17.7566 29.0202 17.4825 29.0762 17.2303 29.193C16.9782 29.3098 16.7545 29.4844 16.5758 29.7038C16.5144 29.7566 16.4393 29.7891 16.3602 29.7971C16.281 29.8052 16.2013 29.7884 16.1313 29.749C16.0613 29.7095 16.0041 29.6492 15.9671 29.5756C15.9302 29.5021 15.915 29.4187 15.9236 29.3362V23.256H10.4258C10.3388 23.2635 10.2554 23.2954 10.1843 23.3483C10.1132 23.4013 10.0572 23.4733 10.0221 23.5568C9.98706 23.6403 9.97427 23.7321 9.98512 23.8225C9.99596 23.913 10.03 23.9987 10.0837 24.0706C10.4702 24.4981 10.685 25.0639 10.6839 25.6517C10.6839 26.9049 9.75562 27.9221 8.63927 27.8428C7.65895 27.7738 6.8787 26.8611 6.83869 25.7415C6.8256 25.439 6.86995 25.1367 6.96917 24.8521C7.0684 24.5674 7.22055 24.3061 7.41687 24.0831C7.48223 24.0045 7.52276 23.9068 7.53291 23.8032C7.54191 23.7364 7.53738 23.6683 7.51961 23.6034C7.50184 23.5385 7.47123 23.4782 7.42975 23.4265C7.38826 23.3747 7.33684 23.3326 7.27879 23.3029C7.22075 23.2731 7.15738 23.2565 7.09277 23.2539H1.95312V37.3881C1.95312 38.2737 2.58333 38.9943 3.35357 38.9943H15.9176V33.0958C15.9098 33.0247 15.9196 32.9527 15.9461 32.8868C15.9726 32.8208 16.0149 32.763 16.0689 32.719C16.1229 32.675 16.1869 32.6462 16.2546 32.6353C16.3223 32.6245 16.3916 32.632 16.4558 32.6572C16.5054 32.6807 16.5503 32.714 16.5878 32.7554C16.7581 32.9612 16.9683 33.1269 17.2046 33.2414C17.4409 33.3559 17.6978 33.4166 17.9583 33.4196C19.0646 33.4196 19.9589 32.3585 19.8809 31.0823Z" fill="#167CBF"/>
<path d="M23.9587 0L22.008 5.46401C21.9782 5.56179 21.9188 5.64682 21.8387 5.70633C21.7586 5.76584 21.6622 5.79661 21.5639 5.79402C21.4727 5.78957 21.3846 5.75842 21.3096 5.70412C21.2346 5.64982 21.1757 5.57457 21.1398 5.48699C21.0123 5.04352 20.9529 4.58177 20.9637 4.11889H19.3632C18.9897 4.12641 18.6264 4.24762 18.3179 4.46765C18.0094 4.68767 17.7691 4.99694 17.6266 5.35749C17.1405 6.50835 17.6086 7.87645 18.6269 8.3464C18.9531 8.49679 20.6476 8.47381 20.7716 8.48843C20.825 8.66577 20.8091 8.8579 20.7276 9.02314L18.659 14.8485L24.5689 17.5826C24.8209 17.6996 25.2871 17.4844 25.6472 17.1419C25.7292 17.0625 24.3308 16.6656 24.2968 16.5361V16.5236C24.0836 15.9738 24.075 15.3607 24.2728 14.8046C24.6889 13.6391 25.8733 13.1023 26.8916 13.6579C27.7759 14.1446 28.196 15.3289 27.8619 16.3732C27.7775 16.655 27.6373 16.9151 27.4505 17.1367C27.2637 17.3583 27.0345 17.5366 26.7776 17.6599C26.7096 17.6987 26.6512 17.7535 26.6067 17.8197C26.5623 17.886 26.5332 17.9621 26.5215 18.0421C26.4987 18.1596 26.5146 18.2816 26.5665 18.3885C26.6184 18.4954 26.7034 18.5808 26.8076 18.6311L31.5751 20.8472H33.1756L36.3506 7.4796C36.4951 7.09366 36.496 6.66524 36.3531 6.27867C36.2101 5.8921 35.9338 5.5754 35.5784 5.39091L25.5592 0H23.9587Z" fill="#88C4EB"/>
<path d="M17.5982 5.44922C17.1741 6.5792 17.6402 7.88672 18.6365 8.34623C18.9646 8.49662 20.6592 8.47364 20.7832 8.48826C20.8357 8.66569 20.8199 8.85748 20.7392 9.02297L18.6585 14.8483L24.5604 17.5824C24.8105 17.6994 25.2787 17.4842 25.6388 17.1417C25.7208 17.0623 24.3224 16.6655 24.2884 16.536C24.2884 16.536 24.2884 16.536 24.2884 16.5234C24.0745 15.9739 24.0653 15.3608 24.2623 14.8045C24.6785 13.639 25.8629 13.1022 26.8832 13.6578C27.7675 14.1444 28.1876 15.3287 27.8535 16.3731C27.7687 16.6546 27.6284 16.9145 27.4417 17.1361C27.2549 17.3577 27.0258 17.5361 26.7691 17.6597C26.701 17.6983 26.6424 17.753 26.598 17.8193C26.5535 17.8856 26.5244 17.9618 26.5131 18.0419C26.4903 18.1594 26.5062 18.2814 26.5581 18.3883C26.61 18.4952 26.695 18.5807 26.7992 18.6309L31.5627 20.8512H33.1632L34.9998 13.1231L17.5982 5.44922Z" fill="#167CBF"/>
<g style="mix-blend-mode:multiply" opacity="0.23">
<path d="M19.2736 32.8267C19.1 33.0192 18.8895 33.1714 18.6557 33.2731C18.4219 33.3749 18.1702 33.4241 17.917 33.4174C17.6638 33.4107 17.4148 33.3483 17.1863 33.2342C16.9578 33.1202 16.7548 32.9572 16.5908 32.7557C16.5533 32.7144 16.5084 32.681 16.4587 32.6575C16.3946 32.6324 16.3253 32.6248 16.2576 32.6357C16.1898 32.6465 16.1259 32.6753 16.0719 32.7193C16.0179 32.7633 15.9756 32.8211 15.9491 32.8871C15.9226 32.9531 15.9128 33.0251 15.9206 33.0961V39.0009H28.4546C29.2308 39.0009 29.855 38.2803 29.855 37.3947V33.1922C25.5296 34.8694 21.8965 34.3974 19.2736 32.8267Z" fill="#D9E7F0"/>
</g>
<path d="M10.3567 27.8477H10.2526C10.1315 27.8413 10.0114 27.821 9.89453 27.7871C10.0114 27.821 10.1315 27.8413 10.2526 27.8477H10.3567Z" fill="#88C4EB"/>
<path d="M10.6562 27.8213C10.7238 27.8105 10.7906 27.7952 10.8563 27.7754C10.7906 27.7952 10.7238 27.8105 10.6562 27.8213Z" fill="#88C4EB"/>
<path d="M11.9141 26.9434C11.9461 26.8953 11.9741 26.8431 12.0021 26.793C11.9741 26.8368 11.9541 26.889 11.9141 26.9434Z" fill="#88C4EB"/>
<path d="M9.64062 27.6875C9.72238 27.7257 9.80662 27.7578 9.89271 27.7836C9.80662 27.7578 9.72238 27.7257 9.64062 27.6875Z" fill="#88C4EB"/>
<path d="M8.70731 24.5234C8.67253 24.5913 8.64115 24.661 8.61328 24.7323C8.64115 24.661 8.67253 24.5913 8.70731 24.5234Z" fill="#88C4EB"/>
<path d="M8.48555 25.1543C8.48555 25.1982 8.46914 25.2399 8.46094 25.2838C8.46914 25.2399 8.47529 25.1982 8.48555 25.1543Z" fill="#88C4EB"/>
<path d="M10.3555 27.8494C10.4567 27.8499 10.5579 27.8408 10.6576 27.8223C10.5579 27.8408 10.4567 27.8499 10.3555 27.8494Z" fill="#88C4EB"/>
<path d="M9.13222 23.7785C9.13334 23.7924 9.13334 23.8064 9.13222 23.8203C9.13334 23.8064 9.13334 23.7924 9.13222 23.7785C9.14145 23.6719 9.11662 23.5651 9.06161 23.4748C9.0066 23.3845 8.9245 23.3158 8.82812 23.2793C8.9245 23.3158 9.0066 23.3845 9.06161 23.4748C9.11662 23.5651 9.14145 23.6719 9.13222 23.7785Z" fill="#88C4EB"/>
<path d="M16.8287 16.5007C16.7958 16.522 16.765 16.5464 16.7366 16.5739C16.5658 16.7809 16.3547 16.9477 16.1174 17.0629C15.8801 17.1782 15.6219 17.2393 15.3602 17.2422C14.2558 17.2422 13.3695 16.1812 13.4396 14.9071C13.5016 13.7875 14.2998 12.8978 15.2822 12.8539C15.5561 12.8441 15.8286 12.8982 16.0799 13.0124C16.3312 13.1266 16.5549 13.298 16.7346 13.5139C16.7978 13.5805 16.8786 13.6258 16.9667 13.644C17.0548 13.6623 17.146 13.6526 17.2288 13.6163C17.3214 13.5756 17.3999 13.5064 17.4538 13.418C17.5078 13.3295 17.5347 13.226 17.5309 13.1212V7.2207H4.96685C4.18861 7.2207 3.56641 7.93921 3.56641 8.8269V23.2556H8.69405C8.74028 23.2555 8.78622 23.2633 8.83009 23.2785C8.92647 23.315 9.00857 23.3838 9.06358 23.4741C9.11859 23.5644 9.14342 23.6712 9.13419 23.7777C9.1353 23.7916 9.1353 23.8056 9.13419 23.8195C9.12268 23.9175 9.08371 24.0098 9.02215 24.0848C8.97614 24.137 8.93213 24.1934 8.89011 24.2498C8.84229 24.3094 8.79818 24.3722 8.75807 24.4378C8.73806 24.4691 8.72206 24.5004 8.70405 24.5318C8.66927 24.5996 8.63789 24.6694 8.61002 24.7406C8.58201 24.8075 8.55801 24.8785 8.536 24.9495C8.51335 25.0221 8.49465 25.0961 8.47998 25.1709C8.47998 25.2148 8.46398 25.2565 8.45597 25.3004C8.43413 25.4524 8.42543 25.6062 8.42996 25.7599C8.44072 26.0984 8.52341 26.4301 8.67204 26.7311C8.83772 27.0728 9.08862 27.3614 9.39827 27.5666C9.47482 27.6158 9.55435 27.6598 9.63635 27.6982C9.7181 27.7364 9.80234 27.7685 9.88843 27.7943C10.0053 27.8281 10.1254 27.8485 10.2465 27.8549H10.3506C10.4519 27.8553 10.553 27.8462 10.6527 27.8277C10.7202 27.8169 10.7871 27.8015 10.8527 27.7818C10.947 27.7533 11.0387 27.7162 11.1268 27.6711C11.4495 27.5089 11.7235 27.2575 11.9191 26.9442C11.9511 26.8962 11.9791 26.8439 12.0071 26.7938C12.1367 26.5497 12.2221 26.2828 12.2592 26.0064C12.2754 25.8916 12.2834 25.7757 12.2832 25.6596C12.2842 25.0719 12.0694 24.506 11.683 24.0785C11.6464 24.0263 11.6193 23.9675 11.603 23.9051V23.8738C11.5878 23.8038 11.5873 23.7311 11.6017 23.6609C11.6161 23.5907 11.6449 23.5245 11.6862 23.4671C11.7275 23.4097 11.7803 23.3623 11.8409 23.3283C11.9015 23.2943 11.9685 23.2745 12.0371 23.2702H17.5229V16.9644C17.5229 16.5571 17.1348 16.2919 16.8287 16.5007Z" fill="#167CBF"/>
<path d="M26.3131 23.2548C26.2017 23.2524 26.0947 23.2093 26.0106 23.1329C25.9265 23.0566 25.8708 22.9519 25.853 22.8371C25.8383 22.7559 25.8407 22.6724 25.86 22.5923C25.8793 22.5122 25.9152 22.4375 25.965 22.3734C26.1613 22.1504 26.3135 21.8891 26.4127 21.6045C26.512 21.3198 26.5563 21.0175 26.5432 20.715C26.5052 19.5954 25.7249 18.6827 24.7426 18.6137C23.6243 18.5344 22.696 19.5453 22.696 20.8048C22.6949 21.3926 22.9097 21.9584 23.2962 22.3859C23.3519 22.4636 23.3867 22.5555 23.3969 22.652C23.407 22.7485 23.3923 22.8461 23.3541 22.9346C23.3159 23.0231 23.2556 23.0993 23.1797 23.1552C23.1037 23.2112 23.0147 23.2448 22.9221 23.2527H17.5203V29.3392C17.5117 29.4217 17.5269 29.5051 17.5639 29.5786C17.6009 29.6522 17.658 29.7125 17.728 29.752C17.798 29.7914 17.8777 29.8082 17.9569 29.8001C18.036 29.7921 18.1111 29.7596 18.1725 29.7068C18.3516 29.4863 18.5763 29.311 18.8296 29.1942C19.0829 29.0773 19.3582 29.0219 19.635 29.0321C20.6193 29.0718 21.4236 29.9637 21.4836 31.0853C21.5596 32.3573 20.6673 33.4184 19.559 33.4184C19.2981 33.4166 19.0406 33.3568 18.8036 33.243C18.5666 33.1292 18.3556 32.964 18.1845 32.7583C18.147 32.717 18.1022 32.6837 18.0525 32.6602C17.9883 32.635 17.9191 32.6275 17.8513 32.6383C17.7836 32.6492 17.7196 32.678 17.6656 32.722C17.6116 32.766 17.5693 32.8238 17.5428 32.8898C17.5163 32.9557 17.5065 33.0277 17.5143 33.0988V39.0035H30.0483C30.8246 39.0035 31.4488 38.2829 31.4488 37.3973V23.2548H26.3131Z" fill="#167CBF"/>
<path d="M8.67578 26.7148C8.73263 26.831 8.7996 26.9415 8.87585 27.0449C8.7996 26.9415 8.73263 26.831 8.67578 26.7148Z" fill="#88C4EB"/>
<path d="M9.12766 23.8105C9.11616 23.9086 9.07718 24.0008 9.01562 24.0758C9.07718 24.0008 9.11616 23.9086 9.12766 23.8105Z" fill="#88C4EB"/>
<path d="M11.9153 26.9434C11.7203 27.2564 11.447 27.5077 11.125 27.6702C11.447 27.5077 11.7203 27.2564 11.9153 26.9434Z" fill="#88C4EB"/>
<path d="M8.87995 24.25C8.83418 24.3098 8.79208 24.3726 8.75391 24.438C8.79208 24.3726 8.83418 24.3098 8.87995 24.25Z" fill="#88C4EB"/>
<path d="M8.54039 24.9336C8.51775 25.0062 8.49905 25.0802 8.48438 25.155C8.49905 25.0802 8.51775 25.0062 8.54039 24.9336Z" fill="#88C4EB"/>
<path d="M9.40234 27.5566C9.47889 27.6058 9.55842 27.6498 9.64042 27.6882C9.55842 27.6498 9.47889 27.6058 9.40234 27.5566Z" fill="#88C4EB"/>
<path d="M12.0279 23.2559C11.9592 23.2601 11.8923 23.28 11.8317 23.314C11.7711 23.348 11.7183 23.3953 11.677 23.4528C11.6357 23.5102 11.6069 23.5763 11.5925 23.6466C11.5781 23.7168 11.5786 23.7895 11.5938 23.8595C11.5786 23.7895 11.5781 23.7168 11.5925 23.6466C11.6069 23.5763 11.6357 23.5102 11.677 23.4528C11.7183 23.3953 11.7711 23.348 11.8317 23.314C11.8923 23.28 11.9592 23.2601 12.0279 23.2559Z" fill="#88C4EB"/>
<path d="M11.6016 23.8906C11.6179 23.953 11.645 24.0118 11.6816 24.064C11.645 24.0118 11.6179 23.953 11.6016 23.8906Z" fill="#88C4EB"/>
<path d="M8.43867 25.7427C8.44942 26.0812 8.53211 26.4129 8.68074 26.714C8.53211 26.4129 8.44942 26.0812 8.43867 25.7427C8.43413 25.589 8.44283 25.4353 8.46468 25.2832C8.44283 25.4353 8.43413 25.589 8.43867 25.7427Z" fill="#88C4EB"/>
<path d="M12.0039 26.7874C12.1335 26.5433 12.2189 26.2764 12.256 26C12.2189 26.2764 12.1335 26.5433 12.0039 26.7874Z" fill="#88C4EB"/>
<path d="M9.40517 27.5566C9.20048 27.4207 9.02089 27.2473 8.875 27.0449C9.02089 27.2473 9.20048 27.4207 9.40517 27.5566Z" fill="#88C4EB"/>
<path d="M21.4844 31.0823C21.4244 29.9607 20.6202 29.0688 19.6358 29.0291C19.3601 29.0199 19.0859 29.0757 18.8337 29.1925C18.5815 29.3094 18.3578 29.4841 18.1794 29.7038C18.118 29.7566 18.0429 29.7891 17.9637 29.7971C17.8845 29.8052 17.8049 29.7884 17.7349 29.749C17.6649 29.7095 17.6077 29.6492 17.5707 29.5756C17.5337 29.5021 17.5186 29.4187 17.5272 29.3362V23.256H12.0294C11.9424 23.2635 11.8589 23.2954 11.7878 23.3483C11.7168 23.4013 11.6607 23.4733 11.6257 23.5568C11.5906 23.6403 11.5778 23.7321 11.5887 23.8225C11.5995 23.913 11.6336 23.9987 11.6873 24.0706C12.0737 24.4981 12.2885 25.0639 12.2875 25.6517C12.2875 26.9049 11.3592 27.9221 10.2428 27.8428C9.26252 27.7738 8.48227 26.8611 8.44225 25.7415C8.42916 25.439 8.47351 25.1367 8.57274 24.8521C8.67196 24.5674 8.82412 24.3061 9.02044 24.0831C9.0858 24.0045 9.12632 23.9068 9.13648 23.8032C9.14548 23.7364 9.14095 23.6683 9.12318 23.6034C9.10541 23.5385 9.07479 23.4782 9.03331 23.4265C8.99183 23.3747 8.9404 23.3326 8.88236 23.3029C8.82431 23.2731 8.76094 23.2565 8.69633 23.2539H3.55469V37.3881C3.55469 38.2737 4.18489 38.9943 4.95514 38.9943H17.5212V33.0958C17.5134 33.0247 17.5232 32.9527 17.5497 32.8868C17.5762 32.8208 17.6184 32.763 17.6725 32.719C17.7265 32.675 17.7904 32.6462 17.8582 32.6353C17.9259 32.6245 17.9952 32.632 18.0593 32.6572C18.109 32.6807 18.1538 32.714 18.1914 32.7554C18.3614 32.9609 18.5713 33.1265 18.8072 33.241C19.0431 33.3555 19.2997 33.4163 19.5598 33.4196C20.6682 33.4196 21.5605 32.3585 21.4844 31.0823Z" fill="#D9E7F0"/>
<path d="M25.5618 0L23.6112 5.46401C23.5813 5.56179 23.5219 5.64682 23.4418 5.70633C23.3617 5.76584 23.2653 5.79661 23.167 5.79402C23.0759 5.78957 22.9877 5.75842 22.9127 5.70412C22.8377 5.64982 22.7789 5.57457 22.7429 5.48699C22.6491 5.20972 22.5003 4.95625 22.3062 4.74317C22.1121 4.53009 21.8771 4.3622 21.6165 4.25048C20.6922 3.86825 19.6579 4.34865 19.2318 5.35749C18.7456 6.50835 19.2158 7.86391 20.2321 8.3464C20.4729 8.46076 20.7351 8.51749 20.9995 8.51243C21.264 8.50737 21.524 8.44065 21.7606 8.31716C21.7955 8.30353 21.8317 8.29373 21.8686 8.28792C22.2207 8.22735 22.4908 8.64717 22.3548 9.02314L20.2641 14.8485L25.2657 17.1774C25.3522 17.2109 25.446 17.2181 25.5363 17.1982C25.6265 17.1784 25.7095 17.1322 25.7757 17.0651C25.8419 16.998 25.8884 16.9127 25.9101 16.8191C25.9317 16.7255 25.9275 16.6274 25.8979 16.5361V16.5236C25.6841 15.9741 25.6748 15.3609 25.8719 14.8046C26.288 13.6391 27.4724 13.1023 28.4927 13.6579C29.377 14.1446 29.7972 15.3289 29.4631 16.3732C29.3783 16.6548 29.238 16.9147 29.0512 17.1363C28.8645 17.3579 28.6354 17.5362 28.3787 17.6599C28.3108 17.6987 28.2523 17.7535 28.2079 17.8197C28.1635 17.886 28.1343 17.9621 28.1226 18.0421C28.0999 18.1596 28.1158 18.2816 28.1677 18.3885C28.2196 18.4954 28.3045 18.5808 28.4087 18.6311L33.1762 20.8472L37.9478 7.4796C38.0923 7.09366 38.0931 6.66524 37.9502 6.27867C37.8073 5.8921 37.5309 5.5754 37.1755 5.39091L25.5618 0Z" fill="#D9E7F0"/>
<g style="mix-blend-mode:multiply" opacity="0.23">
<path d="M12.0314 23.2556H17.5212V17.9629C11.3812 22.0588 5.67937 17.6036 3.55469 11.9746V23.2535H8.69233C8.73855 23.2537 8.78447 23.2614 8.82838 23.2765C8.92475 23.313 9.00685 23.3817 9.06186 23.472C9.11687 23.5623 9.1417 23.6691 9.13247 23.7757C9.13359 23.7896 9.13359 23.8036 9.13247 23.8175C9.12097 23.9155 9.08199 24.0078 9.02044 24.0827C8.97442 24.135 8.93041 24.1913 8.8884 24.2477C8.8405 24.3081 8.7964 24.3716 8.75635 24.4378C8.73635 24.4691 8.72034 24.5005 8.70234 24.5318C8.66756 24.5997 8.63617 24.6694 8.60831 24.7407C8.5803 24.8075 8.55629 24.8785 8.53428 24.9495C8.51164 25.0222 8.49294 25.0961 8.47826 25.1709C8.47826 25.2148 8.46226 25.2566 8.45426 25.3004C8.43241 25.4525 8.42371 25.6063 8.42825 25.76C8.439 26.0984 8.52169 26.4302 8.67033 26.7312C8.83601 27.0728 9.0869 27.3615 9.39656 27.5667C9.47311 27.6159 9.55263 27.6598 9.63463 27.6983C9.71639 27.7364 9.80063 27.7686 9.88672 27.7943C10.0036 27.8282 10.1237 27.8485 10.2448 27.8549H10.3489C10.4501 27.8554 10.5513 27.8463 10.651 27.8278C10.7185 27.8169 10.7853 27.8016 10.851 27.7818C10.9453 27.7533 11.037 27.7163 11.1251 27.6711C11.4478 27.5089 11.7218 27.2575 11.9174 26.9442C11.9494 26.8962 11.9774 26.844 12.0054 26.7939C12.1349 26.5497 12.2204 26.2828 12.2575 26.0064C12.2736 25.8916 12.2817 25.7757 12.2815 25.6597C12.2825 25.0719 12.0677 24.506 11.6813 24.0786C11.6447 24.0264 11.6176 23.9676 11.6013 23.9052V23.8739C11.5837 23.8032 11.5814 23.7293 11.5944 23.6575C11.6074 23.5858 11.6355 23.5179 11.6766 23.4588C11.7177 23.3997 11.7709 23.3508 11.8322 23.3157C11.8935 23.2806 11.9616 23.2601 12.0314 23.2556Z" fill="#167CBF"/>
</g>
<g style="mix-blend-mode:multiply" opacity="0.23">
<path d="M20.8713 32.8267C20.6977 33.0192 20.4871 33.1714 20.2533 33.2731C20.0196 33.3749 19.7679 33.4241 19.5147 33.4174C19.2615 33.4107 19.0125 33.3483 18.7839 33.2342C18.5554 33.1202 18.3525 32.9572 18.1884 32.7557C18.1509 32.7144 18.1061 32.681 18.0564 32.6575C17.9922 32.6324 17.923 32.6248 17.8552 32.6357C17.7875 32.6465 17.7235 32.6753 17.6695 32.7193C17.6155 32.7633 17.5732 32.8211 17.5467 32.8871C17.5202 32.9531 17.5104 33.0251 17.5182 33.0961V39.0009H30.0522C30.8285 39.0009 31.4527 38.2803 31.4527 37.3947V33.1922C27.1273 34.8694 23.4941 34.3974 20.8713 32.8267Z" fill="#167CBF"/>
</g>
<path d="M21.4844 31.0815C21.4244 29.9599 20.6202 29.068 19.6358 29.0283C19.5503 29.0254 19.4648 29.0289 19.3798 29.0388C16.3588 33.732 7.89408 36.0714 3.55469 32.8444V37.3873C3.55469 38.2729 4.18489 38.9935 4.95514 38.9935H17.5212V33.095C17.5134 33.0239 17.5232 32.9519 17.5497 32.886C17.5762 32.82 17.6184 32.7622 17.6725 32.7182C17.7265 32.6741 17.7904 32.6453 17.8582 32.6345C17.9259 32.6237 17.9952 32.6312 18.0593 32.6564C18.109 32.6799 18.1538 32.7132 18.1914 32.7545C18.3614 32.9601 18.5713 33.1257 18.8072 33.2402C19.0431 33.3547 19.2997 33.4155 19.5598 33.4187C20.6682 33.4187 21.5605 32.3577 21.4844 31.0815Z" fill="#D9E7F0"/>
<path d="M20.1619 4.32617C19.7491 4.54797 19.423 4.91274 19.2396 5.35798C18.7534 6.50885 19.2236 7.86441 20.2399 8.3469C20.4798 8.46058 20.7409 8.51694 21.0043 8.51188C21.2677 8.50682 21.5267 8.44047 21.7624 8.31766C21.7973 8.30403 21.8335 8.29423 21.8704 8.28842C22.2225 8.22784 22.4926 8.64767 22.3566 9.02363L20.2659 14.849L25.2675 17.1779C25.354 17.2114 25.4478 17.2186 25.5381 17.1987C25.6283 17.1789 25.7113 17.1327 25.7775 17.0656C25.8437 16.9985 25.8903 16.9132 25.9119 16.8196C25.9335 16.726 25.9293 16.6279 25.8997 16.5366V16.5241C25.6859 15.9746 25.6766 15.3614 25.8737 14.8051C26.2898 13.6396 27.4742 13.1028 28.4946 13.6584C29.3788 14.1451 29.799 15.3294 29.4649 16.3737C29.3801 16.6553 29.2398 16.9152 29.0531 17.1368C28.8663 17.3584 28.6372 17.5367 28.3805 17.6604C28.3126 17.6992 28.2541 17.754 28.2097 17.8202C28.1653 17.8865 28.1361 17.9626 28.1244 18.0426C28.1017 18.1601 28.1176 18.2821 28.1695 18.389C28.2214 18.4959 28.3063 18.5813 28.4105 18.6316L33.1781 20.8477L36.7792 10.7468C26.862 14.1159 21.7244 8.22993 20.1619 4.32617Z" fill="#D9E7F0"/>
</svg>
