<svg width="40" height="40" viewBox="0 0 40 40" fill="none" xmlns="http://www.w3.org/2000/svg">
<g clip-path="url(#clip0_914_23807)">
<g filter="url(#filter0_d_914_23807)">
<path d="M36.9897 18.963C36.9699 18.3228 36.911 17.6844 36.8134 17.0512L33.4483 16.4955L32.3075 13.3448L34.55 10.801C33.8719 9.68669 33.0651 8.65422 32.1459 7.72437L29.0947 9.23856L26.2974 7.3576L26.5995 3.99273C25.4242 3.50031 24.1962 3.14171 22.9391 2.92383L21.3523 5.92024L17.969 5.99876L16.2331 3.08534C14.9497 3.37304 13.7047 3.80819 12.5234 4.38194L13.0215 7.72606L10.333 9.76124L7.19964 8.42371C6.33402 9.40261 5.58693 10.4783 4.97358 11.6287L7.35776 14.0402L6.39604 17.2492L3.06714 17.9917C3.00493 18.6669 2.98354 19.3452 3.00311 20.023C3.02761 20.6436 3.08435 21.2627 3.17312 21.8776L6.53942 22.4384L7.67285 25.5929L5.40938 28.1312C6.08816 29.2497 6.8946 30.2873 7.81283 31.2235L10.8697 29.7172L13.6619 31.6076L13.3451 34.9759C14.5556 35.4855 15.8215 35.8549 17.1178 36.0768L18.6938 33.073L22.0771 32.9833L23.8203 35.8928C25.1026 35.5981 26.3463 35.1579 27.5266 34.5811L27.0166 31.2386L29.696 29.1917L32.8328 30.5219C33.6962 29.5401 34.441 28.4621 35.0521 27.3096L32.6543 24.9065L33.6024 21.6886L36.9347 20.941C36.9917 20.2833 37.01 19.6229 36.9897 18.963ZM25.024 25.1561C24.2723 25.8102 23.3976 26.3114 22.4501 26.6308C21.5025 26.9503 20.5006 27.0818 19.5016 27.0178C18.5027 26.9539 17.5263 26.6957 16.6282 26.2581C15.7301 25.8205 14.928 25.212 14.2677 24.4674C11.4965 21.3308 11.8048 16.5729 14.9716 13.831C16.4892 12.5119 18.4742 11.8434 20.4899 11.9725C22.5056 12.1017 24.3869 13.0179 25.7199 14.5197C27.053 16.0215 27.7285 17.9858 27.598 19.9805C27.4675 21.9752 26.5416 23.8369 25.024 25.1561Z" fill="#167CBF"/>
<path d="M28.3737 12.2092C24.3109 7.63356 17.2553 7.17482 12.6286 11.1953C11.5284 12.1527 10.6295 13.3152 9.98331 14.6164C9.33714 15.9177 8.95634 17.3321 8.86267 18.779C8.76899 20.2259 8.96427 21.6769 9.43736 23.0491C9.91045 24.4213 10.6521 25.6878 11.6199 26.7763C15.6821 31.3559 22.7326 31.8045 27.3565 27.7835C31.9803 23.7625 32.4382 16.7849 28.3737 12.2092ZM26.6345 26.9703C22.464 30.5965 16.1043 30.1905 12.4405 26.0618C11.5674 25.0802 10.8982 23.938 10.4713 22.7005C10.0443 21.4629 9.86787 20.1543 9.95207 18.8493C10.0363 17.5442 10.3794 16.2684 10.962 15.0946C11.5445 13.9209 12.355 12.8722 13.3472 12.0084C17.5217 8.38168 23.8881 8.79276 27.5508 12.9226C31.2135 17.0524 30.8089 23.3436 26.6345 26.9703Z" fill="#88C4EB"/>
<path opacity="0.4" d="M13.5522 31.5307L13.6656 31.6064L13.4043 34.9449L13.3477 34.9735C14.5581 35.4832 15.8241 35.8526 17.1203 36.0744L17.0897 36.0183L18.6958 33.0718L22.0791 32.9821L23.8557 35.8338L23.8223 35.8899C25.1046 35.5952 26.3483 35.155 27.5286 34.5782L27.4719 34.554L27.0186 31.2357L29.698 29.1888L32.8314 30.4624L32.8348 30.5184C33.6982 29.5366 34.443 28.4586 35.054 27.3061L34.9974 27.3213L32.658 24.903L33.6061 21.6851L36.893 20.896L36.9361 20.9375C36.9925 20.2798 37.0103 19.6193 36.9894 18.9596C36.9696 18.3194 36.9107 17.6809 36.8131 17.0477L36.7774 17.096L35.8333 16.9277C29.515 25.945 20.6118 29.8544 13.5522 31.5307Z" fill="#003B62"/>
<path d="M27.3605 27.7843C28.8917 26.4575 30.0247 24.7396 30.6356 22.8184C30.0167 23.3769 29.3884 23.905 28.7507 24.4027C27.8772 25.9277 26.6118 27.1971 25.0828 28.0823C23.5539 28.9675 21.8156 29.437 20.0442 29.4432C19.2814 29.7595 18.5258 30.0468 17.7773 30.3052C19.4629 30.6461 21.2054 30.5959 22.8681 30.1586C24.5308 29.7212 26.0685 28.9085 27.3605 27.7843Z" fill="#88C4EB"/>
<path d="M13.5195 7.532L13.1953 4.82215C13.1953 4.82215 14.8144 3.97757 16.051 3.77344C16.0516 3.77344 14.0499 4.50193 13.5195 7.532Z" fill="#88C4EB"/>
</g>
</g>
<defs>
<filter id="filter0_d_914_23807" x="0.996094" y="2.92383" width="38" height="37.1523" filterUnits="userSpaceOnUse" color-interpolation-filters="sRGB">
<feFlood flood-opacity="0" result="BackgroundImageFix"/>
<feColorMatrix in="SourceAlpha" type="matrix" values="0 0 0 0 0 0 0 0 0 0 0 0 0 0 0 0 0 0 127 0" result="hardAlpha"/>
<feOffset dy="2"/>
<feGaussianBlur stdDeviation="1"/>
<feComposite in2="hardAlpha" operator="out"/>
<feColorMatrix type="matrix" values="0 0 0 0 0.430625 0 0 0 0 0.565885 0 0 0 0 0.6625 0 0 0 0.29 0"/>
<feBlend mode="normal" in2="BackgroundImageFix" result="effect1_dropShadow_914_23807"/>
<feBlend mode="normal" in="SourceGraphic" in2="effect1_dropShadow_914_23807" result="shape"/>
</filter>
<clipPath id="clip0_914_23807">
<rect width="40" height="40" fill="white"/>
</clipPath>
</defs>
</svg>
