<svg width="40" height="42" viewBox="0 0 40 42" fill="none" xmlns="http://www.w3.org/2000/svg">
<g clip-path="url(#clip0_914_23753)">
<path d="M4.17491 13.8809C3.8885 13.8806 3.60486 13.9377 3.34032 14.0489C3.07578 14.1601 2.83554 14.3231 2.63342 14.5286C2.4313 14.7342 2.27129 14.9781 2.16259 15.2465C2.05389 15.5149 1.99864 15.8024 2.00003 16.0925C2.00234 16.6751 2.23249 17.2332 2.64011 17.6443C3.04773 18.0555 3.5996 18.2864 4.17491 18.2864H31.3112C31.8865 18.2864 32.4383 18.0555 32.846 17.6443C33.2536 17.2332 33.4837 16.6751 33.486 16.0925C33.4874 15.8024 33.4322 15.5149 33.3235 15.2465C33.2148 14.9781 33.0548 14.7342 32.8527 14.5286C32.6505 14.3231 32.4103 14.1601 32.1458 14.0489C31.8812 13.9377 31.5976 13.8806 31.3112 13.8809H4.17491Z" fill="#167CBF"/>
<path d="M4.73048 18.2865H33.4844V16.2695H6.71495C6.45382 16.2698 6.1953 16.3221 5.95418 16.4237C5.71306 16.5252 5.49407 16.6739 5.30975 16.8612C5.12543 17.0486 4.97939 17.2709 4.87999 17.5155C4.7806 17.76 4.72979 18.022 4.73048 18.2865Z" fill="white"/>
<path d="M31.4113 2.99993L6.25391 11.4414L10.8561 25.5107L36.0135 17.0692L31.4113 2.99993Z" fill="#88C4EB"/>
<path d="M33.4432 13.8433L31.2491 7.14475C30.9505 7.24504 30.6354 7.28479 30.3216 7.26171C30.0079 7.23863 29.7017 7.15318 29.4206 7.01024C29.1395 6.8673 28.8889 6.66967 28.6832 6.42864C28.4775 6.1876 28.3207 5.90789 28.2217 5.60547L10.344 11.6051C10.4443 11.9079 10.4846 12.2279 10.4624 12.5465C10.4403 12.8651 10.3562 13.1762 10.215 13.4618C10.0737 13.7473 9.87815 14.0019 9.63948 14.2106C9.40081 14.4194 9.12374 14.5784 8.82422 14.6784L11.0148 21.3769C11.6178 21.1748 12.2754 21.2234 12.843 21.512C13.4106 21.8007 13.8419 22.3057 14.0422 22.9162L31.9199 16.9183C31.8196 16.6151 31.7795 16.2949 31.8019 15.9759C31.8242 15.657 31.9086 15.3457 32.0502 15.0599C32.1917 14.7742 32.3877 14.5195 32.6268 14.3107C32.8658 14.1019 33.1433 13.9431 33.4432 13.8433Z" fill="#D9E7F0"/>
<path d="M21.4353 18.3714C23.68 18.202 25.3641 16.2218 25.1969 13.9484C25.0297 11.675 23.0745 9.96935 20.8299 10.1387C18.5852 10.308 16.9012 12.2883 17.0684 14.5617C17.2356 16.835 19.1907 18.5407 21.4353 18.3714Z" fill="#88C4EB"/>
<path d="M37.9982 15.1445H11.4961V29.9658H37.9982V15.1445Z" fill="#88C4EB"/>
<path d="M36.5608 26.0851V19.0292C35.9256 19.0292 35.3164 18.7736 34.8672 18.3187C34.4181 17.8638 34.1658 17.2468 34.1658 16.6035H15.3325C15.3325 17.2468 15.0802 17.8638 14.631 18.3187C14.1819 18.7736 13.5727 19.0292 12.9375 19.0292V26.0851C13.252 26.0851 13.5634 26.1479 13.854 26.2698C14.1446 26.3917 14.4086 26.5703 14.631 26.7956C14.8534 27.0208 15.0298 27.2882 15.1502 27.5825C15.2705 27.8768 15.3325 28.1923 15.3325 28.5108H34.1658C34.1658 28.1923 34.2277 27.8768 34.3481 27.5825C34.4684 27.2882 34.6448 27.0208 34.8672 26.7956C35.0896 26.5703 35.3537 26.3917 35.6442 26.2698C35.9348 26.1479 36.2462 26.0851 36.5608 26.0851Z" fill="#D9E7F0"/>
<path d="M28.7704 23.2178C29.1322 20.9677 27.6246 18.8467 25.403 18.4802C23.1815 18.1138 21.0872 19.6407 20.7254 21.8908C20.3636 24.1408 21.8713 26.2619 24.0928 26.6283C26.3144 26.9948 28.4086 25.4678 28.7704 23.2178Z" fill="#167CBF"/>
<path d="M23.4219 23.3479C23.5867 23.4229 23.758 23.4822 23.9337 23.5248C24.0643 23.5603 24.1986 23.5799 24.3338 23.5832C24.4235 23.5857 24.5119 23.5604 24.5871 23.5107C24.6202 23.4886 24.6473 23.4584 24.6656 23.4228C24.684 23.3871 24.693 23.3474 24.6919 23.3072C24.6944 23.2855 24.6944 23.2635 24.6919 23.2417C24.687 23.221 24.68 23.2008 24.6709 23.1816C24.6579 23.1555 24.6427 23.1307 24.6255 23.1073C24.6093 23.0834 24.5912 23.0609 24.5713 23.04L24.3966 22.8631C24.0944 22.5659 23.8918 22.3571 23.7922 22.2333C23.7165 22.1373 23.6575 22.029 23.6175 21.913C23.5757 21.7998 23.5544 21.68 23.5546 21.5592C23.5543 21.471 23.5673 21.3833 23.5931 21.2991C23.6184 21.2126 23.6561 21.1304 23.7049 21.0549C23.8054 20.9015 23.9456 20.7791 24.1102 20.7011C24.2287 20.6497 24.3515 20.6089 24.477 20.579C24.477 20.517 24.477 20.4817 24.477 20.4693V20.2923V19.9668H24.9906H25.5024C25.4919 20.1809 25.4885 20.3047 25.4885 20.3419V20.5878C25.6753 20.6157 25.8602 20.6553 26.0422 20.7064C26.0544 21.016 26.0737 21.338 26.0964 21.6706C25.9602 21.6058 25.818 21.5548 25.6719 21.5185C25.5663 21.4906 25.4578 21.4751 25.3487 21.4725C25.2639 21.4685 25.18 21.492 25.1094 21.5397C25.0794 21.558 25.0548 21.584 25.0379 21.6151C25.021 21.6462 25.0125 21.6812 25.0133 21.7166C25.0131 21.7801 25.0327 21.842 25.0692 21.8935C25.1158 21.9576 25.1684 22.0168 25.2264 22.0705C25.4179 22.2474 25.5998 22.4346 25.7714 22.6313C25.874 22.7496 25.9566 22.884 26.016 23.0294C26.0621 23.1478 26.0864 23.2737 26.0876 23.401C26.0878 23.4978 26.0749 23.5943 26.0492 23.6876C26.0246 23.7749 25.9869 23.8579 25.9374 23.9335C25.8869 24.0072 25.8283 24.0749 25.7627 24.1352C25.7013 24.1923 25.6346 24.2433 25.5636 24.2874C25.4674 24.3442 25.3669 24.3933 25.2631 24.4342V24.8005C25.2631 24.9208 25.2631 25.0376 25.2631 25.1543H24.7722H24.2359C24.2359 25.0199 24.2499 24.85 24.2499 24.6448V24.5262C24.0962 24.5068 23.9687 24.4838 23.8656 24.4608C23.7367 24.4314 23.6096 24.3947 23.4848 24.3511C23.4551 23.861 23.4393 23.5248 23.4219 23.3479Z" fill="white"/>
<g filter="url(#filter0_d_914_23753)">
<path d="M2 16.0938V35.7983C2 36.3825 2.22914 36.9428 2.63701 37.3559C3.04488 37.769 3.59807 38.001 4.17488 38.001H31.3111C31.888 38.001 32.4411 37.769 32.849 37.3559C33.2569 36.9428 33.486 36.3825 33.486 35.7983V18.2824H4.17488C3.60062 18.2819 3.0498 18.0516 2.64243 17.6417C2.23506 17.2317 2.00415 16.6754 2 16.0938V16.0938Z" fill="#167CBF"/>
</g>
<path d="M31.3117 37.0503H30.2845V36.6451H31.3117C31.3977 36.6451 31.4832 36.6314 31.565 36.6044L31.6873 36.9919C31.5658 37.0308 31.4391 37.0505 31.3117 37.0503ZM28.9429 37.0503H27.5995V36.6451H28.9429V37.0503ZM26.2579 37.0503H24.9163V36.6451H26.2579V37.0503ZM23.5747 37.0503H22.2348V36.6451H23.5747V37.0503ZM20.8932 37.0503H19.5533V36.6451H20.8932V37.0503ZM18.2117 37.0503H16.8718V36.6451H18.2117V37.0503ZM15.5302 37.0503H14.1886V36.6451H15.5302V37.0503ZM12.8487 37.0503H11.5071V36.6451H12.8487V37.0503ZM10.1673 37.0503H8.82565V36.6451H10.1673V37.0503ZM7.48404 37.0503H6.14242V36.6451H7.48404V37.0503ZM4.80081 37.0503H3.46094V36.6451H4.79556L4.80081 37.0503ZM32.5502 35.7693H32.1484V34.4141H32.5502V35.7693Z" fill="white"/>
<path d="M32.5502 32.4512H32.1484V33.1288H32.5502V32.4512Z" fill="white"/>
<path d="M32.5502 23.7227H32.1484V24.4003H32.5502V23.7227Z" fill="white"/>
<path d="M32.5502 21.3184H32.1484V22.5197H32.5502V21.3184Z" fill="white"/>
<path d="M32.5496 20.1174H32.1479V19.6433H31.6797V19.2363H32.5496V20.1174Z" fill="white"/>
<path d="M30.3905 19.6433H29.0995V19.2363H30.3905V19.6433ZM27.8068 19.6433H26.5159V19.2363H27.8068V19.6433ZM25.2249 19.6433H23.934V19.2363H25.2249V19.6433ZM22.643 19.6433H21.3503V19.2363H22.643V19.6433ZM20.0593 19.6433H18.7719V19.2363H20.0628L20.0593 19.6433ZM17.4774 19.6433H16.1865V19.2363H17.4774V19.6433ZM14.8938 19.6433H13.6028V19.2363H14.8938V19.6433ZM12.3084 19.6433H11.0209V19.2363H12.3084V19.6433ZM9.72647 19.6433H8.43376V19.2363H9.72647V19.6433ZM7.14281 19.6433H5.85535V19.2363H7.1463L7.14281 19.6433ZM4.5609 19.6433H3.27344V19.2363H4.56439L4.5609 19.6433Z" fill="white"/>
<path d="M34.079 25.5527H30.7861C30.1301 25.5527 29.5009 25.8167 29.037 26.2865C28.5731 26.7564 28.3125 27.3936 28.3125 28.058V28.7941C28.3125 29.4585 28.5731 30.0957 29.037 30.5656C29.5009 31.0354 30.1301 31.2994 30.7861 31.2994H34.079C34.3746 31.2994 34.6581 31.1804 34.8671 30.9688C35.0761 30.7571 35.1935 30.4699 35.1935 30.1706V26.6815C35.1935 26.3822 35.0761 26.095 34.8671 25.8834C34.6581 25.6717 34.3746 25.5527 34.079 25.5527Z" fill="#88C4EB"/>
<path d="M32.4337 28.425C32.4337 28.6868 32.357 28.9428 32.2133 29.1604C32.0697 29.3781 31.8655 29.5477 31.6266 29.6478C31.3878 29.748 31.1249 29.7741 30.8714 29.7229C30.6179 29.6716 30.3851 29.5454 30.2024 29.3602C30.0197 29.1749 29.8954 28.9389 29.8452 28.6821C29.795 28.4253 29.8211 28.1591 29.9203 27.9173C30.0194 27.6755 30.1872 27.4689 30.4023 27.3237C30.6174 27.1785 30.8702 27.1012 31.1287 27.1016C31.3002 27.1016 31.4701 27.1358 31.6285 27.2023C31.787 27.2689 31.9309 27.3664 32.0521 27.4893C32.1733 27.6122 32.2694 27.7581 32.3348 27.9187C32.4003 28.0792 32.4339 28.2513 32.4337 28.425Z" fill="white"/>
</g>
<defs>
<filter id="filter0_d_914_23753" x="0" y="16.0938" width="35.4844" height="25.9082" filterUnits="userSpaceOnUse" color-interpolation-filters="sRGB">
<feFlood flood-opacity="0" result="BackgroundImageFix"/>
<feColorMatrix in="SourceAlpha" type="matrix" values="0 0 0 0 0 0 0 0 0 0 0 0 0 0 0 0 0 0 127 0" result="hardAlpha"/>
<feOffset dy="2"/>
<feGaussianBlur stdDeviation="1"/>
<feComposite in2="hardAlpha" operator="out"/>
<feColorMatrix type="matrix" values="0 0 0 0 0.430625 0 0 0 0 0.565885 0 0 0 0 0.6625 0 0 0 0.29 0"/>
<feBlend mode="normal" in2="BackgroundImageFix" result="effect1_dropShadow_914_23753"/>
<feBlend mode="normal" in="SourceGraphic" in2="effect1_dropShadow_914_23753" result="shape"/>
</filter>
<clipPath id="clip0_914_23753">
<rect width="40" height="42" fill="white"/>
</clipPath>
</defs>
</svg>
