<svg width="40" height="40" viewBox="0 0 40 40" fill="none" xmlns="http://www.w3.org/2000/svg">
<circle cx="20.0007" cy="20.0007" r="16.6667" fill="white"/>
<path d="M19.984 3.33398C10.784 3.33398 3.33398 10.8007 3.33398 20.0007C3.33398 29.2007 10.784 36.6673 19.984 36.6673C29.2007 36.6673 36.6673 29.2007 36.6673 20.0007C36.6673 10.8007 29.2007 3.33398 19.984 3.33398ZM20.0007 33.334C12.634 33.334 6.66732 27.3673 6.66732 20.0007C6.66732 12.634 12.634 6.66732 20.0007 6.66732C27.3673 6.66732 33.334 12.634 33.334 20.0007C33.334 27.3673 27.3673 33.334 20.0007 33.334Z" fill="#DB4848"/>
<rect x="18" y="12" width="4" height="11" fill="#DB4848"/>
<rect x="18" y="25" width="4" height="4" fill="#DB4848"/>
</svg>
