<svg width="15" height="26" viewBox="0 0 15 26" fill="none" xmlns="http://www.w3.org/2000/svg">
<path d="M7.40078 25.125C3.38789 25.125 0.140625 22.05 0.140625 18.25L0.140624 5.125C0.140624 2.3625 2.50347 0.125 5.42073 0.125C8.33799 0.125 10.7008 2.3625 10.7008 5.125L10.7008 15.75C10.7008 17.475 9.22241 18.875 7.40078 18.875C5.57914 18.875 4.10071 17.475 4.10071 15.75L4.10071 6.375L6.74076 6.375L6.74076 15.8625C6.74076 16.55 8.06079 16.55 8.06079 15.8625L8.06079 5.125C8.06079 3.75 6.87276 2.625 5.42073 2.625C3.9687 2.625 2.78068 3.75 2.78068 5.125L2.78068 18.25C2.78068 20.6625 4.85312 22.625 7.40078 22.625C9.94843 22.625 12.0209 20.6625 12.0209 18.25L12.0209 6.375L14.6609 6.375L14.6609 18.25C14.6609 22.05 11.4137 25.125 7.40078 25.125Z" fill="#8E9DA7"/>
</svg>
