<svg width="20" height="20" viewBox="0 0 20 20" fill="none" xmlns="http://www.w3.org/2000/svg">
<g clip-path="url(#clip0_608_15851)">
<path d="M2.87609 14.309C2.8573 14.309 2.8381 14.3078 2.8185 14.305C1.90469 14.173 1.02806 13.8862 0.213821 13.4523C0.0190598 13.3483 -0.0549254 13.106 0.0490539 12.9108C0.153433 12.7165 0.394585 12.6425 0.590546 12.7461C1.3224 13.1368 2.11064 13.3943 2.93248 13.5127C3.15124 13.5443 3.30281 13.7471 3.27161 13.9658C3.24282 14.1654 3.07165 14.309 2.87609 14.309Z" fill="black"/>
<path d="M17.1281 14.3125C16.9325 14.3125 16.7614 14.1689 16.7326 13.9697C16.7014 13.751 16.853 13.5482 17.0717 13.5166C17.894 13.3982 18.6818 13.1407 19.4137 12.75C19.61 12.6464 19.8508 12.7204 19.9551 12.9147C20.0591 13.1095 19.9851 13.3523 19.7904 13.4562C18.9761 13.8901 18.0995 14.1769 17.1857 14.3089C17.1661 14.3113 17.1469 14.3125 17.1281 14.3125Z" fill="black"/>
<path d="M12.9388 10.7212C12.8636 10.7212 12.788 10.7 12.7208 10.6565C12.5357 10.5357 12.4833 10.2881 12.6041 10.103C13.1708 9.23394 14.1282 8.71484 15.1656 8.71484C15.3867 8.71484 15.5655 8.89361 15.5655 9.11476C15.5655 9.33592 15.3867 9.51468 15.1656 9.51468C14.3993 9.51468 13.6923 9.89781 13.2743 10.5397C13.1979 10.6573 13.07 10.7212 12.9388 10.7212Z" fill="black"/>
<path d="M16.0565 9.52038C14.6388 9.52038 13.4414 8.32302 13.4414 6.9057C13.4414 5.48838 14.6388 4.29102 16.0565 4.29102C17.4738 4.29102 18.6712 5.48838 18.6712 6.9057C18.6712 8.32302 17.4738 9.52038 16.0565 9.52038ZM16.0565 5.09086C15.0727 5.09086 14.2412 5.92189 14.2412 6.9057C14.2412 7.8895 15.0727 8.72054 16.0565 8.72054C17.0403 8.72054 17.8713 7.8895 17.8713 6.9057C17.8713 5.92189 17.0403 5.09086 16.0565 5.09086Z" fill="black"/>
<path d="M19.5969 12.1784C19.3757 12.1784 19.1969 11.9997 19.1969 11.7785C19.1969 10.5335 18.1839 9.52054 16.939 9.52054C16.7178 9.52054 16.5391 9.34178 16.5391 9.12062C16.5391 8.89947 16.7178 8.7207 16.939 8.7207C18.625 8.7207 19.9968 10.0928 19.9968 11.7785C19.9968 11.9993 19.818 12.1784 19.5969 12.1784Z" fill="black"/>
<path d="M16.9415 9.51469H15.1695C14.9483 9.51469 14.7695 9.33592 14.7695 9.11476C14.7695 8.89361 14.9483 8.71484 15.1695 8.71484H16.9415C17.1627 8.71484 17.3414 8.89361 17.3414 9.11476C17.3414 9.33592 17.1623 9.51469 16.9415 9.51469Z" fill="black"/>
<path d="M19.5972 13.5018C19.376 13.5018 19.1973 13.3231 19.1973 13.1019V11.773C19.1973 11.5518 19.376 11.373 19.5972 11.373C19.8183 11.373 19.9971 11.5518 19.9971 11.773V13.1019C19.9971 13.3231 19.8183 13.5018 19.5972 13.5018Z" fill="black"/>
<path d="M5.27687 13.7967C5.05572 13.7967 4.87695 13.6179 4.87695 13.3967C4.87695 11.222 6.6462 9.45312 8.82057 9.45312C9.04173 9.45312 9.22049 9.63189 9.22049 9.85305C9.22049 10.0742 9.04173 10.253 8.82057 10.253C7.08691 10.253 5.67679 11.6631 5.67679 13.3967C5.67679 13.6179 5.49763 13.7967 5.27687 13.7967Z" fill="black"/>
<path d="M11.1806 10.2569H8.81789C8.59673 10.2569 8.41797 10.0781 8.41797 9.85695C8.41797 9.6358 8.59673 9.45703 8.81789 9.45703H11.1806C11.4018 9.45703 11.5805 9.6358 11.5805 9.85695C11.5805 10.0781 11.4018 10.2569 11.1806 10.2569Z" fill="black"/>
<path d="M7.05832 10.7212C6.92755 10.7212 6.79957 10.6573 6.72279 10.5397C6.30447 9.89821 5.59781 9.51468 4.83156 9.51468C4.61041 9.51468 4.43164 9.33592 4.43164 9.11476C4.43164 8.89361 4.61041 8.71484 4.83156 8.71484C5.86936 8.71484 6.82637 9.23394 7.39305 10.103C7.51383 10.2881 7.46144 10.5357 7.27628 10.6565C7.20869 10.7 7.1331 10.7212 7.05832 10.7212Z" fill="black"/>
<path d="M5.27687 15.5699C5.05572 15.5699 4.87695 15.3912 4.87695 15.17V13.398C4.87695 13.1768 5.05572 12.998 5.27687 12.998C5.49803 12.998 5.67679 13.1768 5.67679 13.398V15.17C5.67679 15.3912 5.49763 15.5699 5.27687 15.5699Z" fill="black"/>
<path d="M10.0018 10.2555C8.18413 10.2555 6.64844 8.7198 6.64844 6.90216C6.64844 5.08452 8.18413 3.54883 10.0018 3.54883C11.8194 3.54883 13.3551 5.08452 13.3551 6.90216C13.3551 8.7198 11.8194 10.2555 10.0018 10.2555ZM10.0018 4.34867C8.61765 4.34867 7.44828 5.51804 7.44828 6.90216C7.44828 8.28629 8.61765 9.45566 10.0018 9.45566C11.3859 9.45566 12.5553 8.28629 12.5553 6.90216C12.5553 5.51804 11.3859 4.34867 10.0018 4.34867Z" fill="black"/>
<path d="M14.7249 13.8006C14.5037 13.8006 14.3249 13.6218 14.3249 13.4006C14.3249 11.667 12.9148 10.2569 11.1812 10.2569C10.96 10.2569 10.7812 10.0781 10.7812 9.85695C10.7812 9.6358 10.96 9.45703 11.1812 9.45703C13.3559 9.45703 15.1248 11.2263 15.1248 13.4006C15.1248 13.6218 14.946 13.8006 14.7249 13.8006Z" fill="black"/>
<path d="M14.7222 15.5699C14.501 15.5699 14.3223 15.3912 14.3223 15.17V13.398C14.3223 13.1768 14.501 12.998 14.7222 12.998C14.9433 12.998 15.1221 13.1768 15.1221 13.398V15.17C15.1221 15.3912 14.9433 15.5699 14.7222 15.5699Z" fill="black"/>
<path d="M10.0022 16.7591C8.31458 16.7591 6.62732 16.3487 5.08882 15.5285C4.89406 15.4241 4.82007 15.1822 4.92405 14.987C5.02843 14.7926 5.26919 14.7187 5.46555 14.8222C8.30658 16.3375 11.6987 16.3375 14.5393 14.8222C14.7353 14.7187 14.9769 14.7926 15.0808 14.987C15.1848 15.1818 15.1108 15.4241 14.9161 15.5285C13.3772 16.3483 11.6899 16.7591 10.0022 16.7591Z" fill="black"/>
<path d="M3.94476 9.52038C2.52744 9.52038 1.33008 8.32302 1.33008 6.9057C1.33008 5.48838 2.52744 4.29102 3.94476 4.29102C5.36208 4.29102 6.55944 5.48838 6.55944 6.9057C6.55944 8.32302 5.36208 9.52038 3.94476 9.52038ZM3.94476 5.09086C2.96095 5.09086 2.12992 5.92189 2.12992 6.9057C2.12992 7.8895 2.96095 8.72054 3.94476 8.72054C4.92856 8.72054 5.7596 7.8895 5.7596 6.9057C5.7596 5.92189 4.92856 5.09086 3.94476 5.09086Z" fill="black"/>
<path d="M0.401874 12.1784C0.180718 12.1784 0.00195312 11.9997 0.00195312 11.7785C0.00195312 10.0924 1.37408 8.7207 3.05975 8.7207C3.2809 8.7207 3.45967 8.89947 3.45967 9.12062C3.45967 9.34178 3.2809 9.52054 3.05975 9.52054C1.81479 9.52014 0.801794 10.5331 0.801794 11.7785C0.801794 11.9993 0.62303 12.1784 0.401874 12.1784Z" fill="black"/>
<path d="M4.83408 9.51469H3.06203C2.84087 9.51469 2.66211 9.33592 2.66211 9.11476C2.66211 8.89361 2.84087 8.71484 3.06203 8.71484H4.83408C5.05523 8.71484 5.234 8.89361 5.234 9.11476C5.234 9.33592 5.05523 9.51469 4.83408 9.51469Z" fill="black"/>
<path d="M0.401874 13.5018C0.180718 13.5018 0.00195312 13.3231 0.00195312 13.1019V11.773C0.00195312 11.5518 0.180718 11.373 0.401874 11.373C0.62303 11.373 0.801794 11.5518 0.801794 11.773V13.1019C0.801794 13.3231 0.62303 13.5018 0.401874 13.5018Z" fill="black"/>
</g>
<defs>
<clipPath id="clip0_608_15851">
<rect width="20" height="20" fill="white"/>
</clipPath>
</defs>
</svg>
