<svg width="40" height="40" viewBox="0 0 40 40" fill="none" xmlns="http://www.w3.org/2000/svg">
<circle cx="20.0007" cy="20.0007" r="16.6667" fill="white"/>
<g clip-path="url(#clip0_1922_12931)">
<path d="M27.6507 12.634L16.6673 23.6173L10.684 17.6507L8.33398 20.0007L16.6673 28.334L30.0007 15.0007L27.6507 12.634ZM20.0007 3.33398C10.8007 3.33398 3.33398 10.8007 3.33398 20.0007C3.33398 29.2007 10.8007 36.6673 20.0007 36.6673C29.2007 36.6673 36.6673 29.2007 36.6673 20.0007C36.6673 10.8007 29.2007 3.33398 20.0007 3.33398ZM20.0007 33.334C12.634 33.334 6.66732 27.3673 6.66732 20.0007C6.66732 12.634 12.634 6.66732 20.0007 6.66732C27.3673 6.66732 33.334 12.634 33.334 20.0007C33.334 27.3673 27.3673 33.334 20.0007 33.334Z" fill="#00BFA8"/>
</g>
<defs>
<clipPath id="clip0_1922_12931">
<rect width="40" height="40" fill="white"/>
</clipPath>
</defs>
</svg>
