<svg width="16" height="17" viewBox="0 0 16 17" fill="none" xmlns="http://www.w3.org/2000/svg">
<g clip-path="url(#clip0_2212_30413)">
<path d="M7.99398 1.83398C4.31398 1.83398 1.33398 4.82065 1.33398 8.50065C1.33398 12.1807 4.31398 15.1673 7.99398 15.1673C11.6807 15.1673 14.6673 12.1807 14.6673 8.50065C14.6673 4.82065 11.6807 1.83398 7.99398 1.83398ZM8.00065 13.834C5.05398 13.834 2.66732 11.4473 2.66732 8.50065C2.66732 5.55398 5.05398 3.16732 8.00065 3.16732C10.9473 3.16732 13.334 5.55398 13.334 8.50065C13.334 11.4473 10.9473 13.834 8.00065 13.834Z" fill="#516674"/>
<path d="M8.33398 5.16602H7.33398V9.16602L10.834 11.266L11.334 10.446L8.33398 8.66602V5.16602Z" fill="#516674"/>
</g>
<defs>
<clipPath id="clip0_2212_30413">
<rect width="16" height="16" fill="white" transform="translate(0 0.5)"/>
</clipPath>
</defs>
</svg>
