<svg width="142" height="94" viewBox="0 0 142 94" fill="none" xmlns="http://www.w3.org/2000/svg">
<g clip-path="url(#clip0_2810_5615)">
<g opacity="0.81">
<path d="M41.2857 69.2244H33.876C33.7431 69.2244 33.6157 69.1711 33.5217 69.0762C33.4278 68.9814 33.375 68.8528 33.375 68.7186C33.375 68.5845 33.4278 68.4559 33.5217 68.361C33.6157 68.2662 33.7431 68.2129 33.876 68.2129H41.2857C41.4185 68.2129 41.546 68.2662 41.6399 68.361C41.7339 68.4559 41.7866 68.5845 41.7866 68.7186C41.7866 68.8528 41.7339 68.9814 41.6399 69.0762C41.546 69.1711 41.4185 69.2244 41.2857 69.2244Z" fill="#F2F4FC"/>
<path d="M41.2857 81.5486H33.876C33.7431 81.5486 33.6157 81.4953 33.5217 81.4005C33.4278 81.3056 33.375 81.177 33.375 81.0428C33.375 80.9087 33.4278 80.7801 33.5217 80.6852C33.6157 80.5904 33.7431 80.5371 33.876 80.5371H41.2857C41.4185 80.5371 41.546 80.5904 41.6399 80.6852C41.7339 80.7801 41.7866 80.9087 41.7866 81.0428C41.7866 81.177 41.7339 81.3056 41.6399 81.4005C41.546 81.4953 41.4185 81.5486 41.2857 81.5486Z" fill="#F2F4FC"/>
<path d="M46.6423 94H1.35769C0.998012 93.9987 0.653446 93.8538 0.399116 93.5971C0.144785 93.3404 0.00131992 92.9925 0 92.6295L0 54.3705C0.00131992 54.0075 0.144785 53.6596 0.399116 53.4029C0.653446 53.1462 0.998012 53.0013 1.35769 53H46.6423C47.0024 53 47.3477 53.1444 47.6023 53.4014C47.857 53.6584 48 54.0071 48 54.3705V92.6295C48 92.993 47.857 93.3416 47.6023 93.5986C47.3477 93.8556 47.0024 94 46.6423 94ZM1.35769 54.0115C1.26335 54.0115 1.17287 54.0493 1.10617 54.1166C1.03946 54.184 1.00198 54.2753 1.00198 54.3705V92.6295C1.00198 92.7247 1.03946 92.816 1.10617 92.8834C1.17287 92.9507 1.26335 92.9885 1.35769 92.9885H46.6423C46.7367 92.9885 46.8271 92.9507 46.8938 92.8834C46.9605 92.816 46.998 92.7247 46.998 92.6295V54.3705C46.998 54.2753 46.9605 54.184 46.8938 54.1166C46.8271 54.0493 46.7367 54.0115 46.6423 54.0115H1.35769Z" fill="#F2F4FC"/>
<path opacity="0.66" d="M46.6423 94H1.35769C0.998012 93.9987 0.653446 93.8538 0.399116 93.5971C0.144785 93.3404 0.00131992 92.9925 0 92.6295L0 54.3705C0.00131992 54.0075 0.144785 53.6596 0.399116 53.4029C0.653446 53.1462 0.998012 53.0013 1.35769 53H46.6423C47.0024 53 47.3477 53.1444 47.6023 53.4014C47.857 53.6584 48 54.0071 48 54.3705V92.6295C48 92.993 47.857 93.3416 47.6023 93.5986C47.3477 93.8556 47.0024 94 46.6423 94ZM1.35769 54.0115C1.26335 54.0115 1.17287 54.0493 1.10617 54.1166C1.03946 54.184 1.00198 54.2753 1.00198 54.3705V92.6295C1.00198 92.7247 1.03946 92.816 1.10617 92.8834C1.17287 92.9507 1.26335 92.9885 1.35769 92.9885H46.6423C46.7367 92.9885 46.8271 92.9507 46.8938 92.8834C46.9605 92.816 46.998 92.7247 46.998 92.6295V54.3705C46.998 54.2753 46.9605 54.184 46.8938 54.1166C46.8271 54.0493 46.7367 54.0115 46.6423 54.0115H1.35769Z" fill="#F2F4FC"/>
<path d="M41.2874 63.241H5.97755C5.84468 63.241 5.71725 63.1877 5.6233 63.0928C5.52935 62.998 5.47656 62.8694 5.47656 62.7352C5.47656 62.6011 5.52935 62.4725 5.6233 62.3776C5.71725 62.2828 5.84468 62.2295 5.97755 62.2295H41.2874C41.4203 62.2295 41.5477 62.2828 41.6417 62.3776C41.7356 62.4725 41.7884 62.6011 41.7884 62.7352C41.7884 62.8694 41.7356 62.998 41.6417 63.0928C41.5477 63.1877 41.4203 63.241 41.2874 63.241Z" fill="#F2F4FC"/>
<path d="M41.2874 75.2068H5.97755C5.84468 75.2068 5.71725 75.1535 5.6233 75.0587C5.52935 74.9638 5.47656 74.8352 5.47656 74.701C5.47656 74.5669 5.52935 74.4383 5.6233 74.3434C5.71725 74.2486 5.84468 74.1953 5.97755 74.1953H41.2874C41.4203 74.1953 41.5477 74.2486 41.6417 74.3434C41.7356 74.4383 41.7884 74.5669 41.7884 74.701C41.7884 74.8352 41.7356 74.9638 41.6417 75.0587C41.5477 75.1535 41.4203 75.2068 41.2874 75.2068Z" fill="#F2F4FC"/>
<path d="M25.0152 69.2244H5.97755C5.84468 69.2244 5.71725 69.1711 5.6233 69.0762C5.52935 68.9814 5.47656 68.8528 5.47656 68.7186C5.47656 68.5845 5.52935 68.4559 5.6233 68.361C5.71725 68.2662 5.84468 68.2129 5.97755 68.2129H25.0152C25.1481 68.2129 25.2755 68.2662 25.3695 68.361C25.4634 68.4559 25.5162 68.5845 25.5162 68.7186C25.5162 68.8528 25.4634 68.9814 25.3695 69.0762C25.2755 69.1711 25.1481 69.2244 25.0152 69.2244Z" fill="#F2F4FC"/>
<path d="M25.0152 81.5486H5.97755C5.84468 81.5486 5.71725 81.4953 5.6233 81.4005C5.52935 81.3056 5.47656 81.177 5.47656 81.0428C5.47656 80.9087 5.52935 80.7801 5.6233 80.6852C5.71725 80.5904 5.84468 80.5371 5.97755 80.5371H25.0152C25.1481 80.5371 25.2755 80.5904 25.3695 80.6852C25.4634 80.7801 25.5162 80.9087 25.5162 81.0428C25.5162 81.177 25.4634 81.3056 25.3695 81.4005C25.2755 81.4953 25.1481 81.5486 25.0152 81.5486Z" fill="#F2F4FC"/>
<path d="M18.818 87.2634H5.97755C5.84468 87.2634 5.71725 87.2101 5.6233 87.1153C5.52935 87.0205 5.47656 86.8918 5.47656 86.7577C5.47656 86.6236 5.52935 86.4949 5.6233 86.4001C5.71725 86.3052 5.84468 86.252 5.97755 86.252H18.818C18.9508 86.252 19.0783 86.3052 19.1722 86.4001C19.2662 86.4949 19.319 86.6236 19.319 86.7577C19.319 86.8918 19.2662 87.0205 19.1722 87.1153C19.0783 87.2101 18.9508 87.2634 18.818 87.2634Z" fill="#F2F4FC"/>
</g>
</g>
<g clip-path="url(#clip1_2810_5615)">
<path d="M114.237 60H109.763C108.863 59.991 108.003 59.6296 107.366 58.9934C106.73 58.3571 106.369 57.4967 106.36 56.597V51.5612C106.355 51.0995 106.21 50.6501 105.946 50.2718C105.681 49.8936 105.308 49.6041 104.876 49.4414C104.349 49.2466 103.822 49.0289 103.312 48.794C102.889 48.5971 102.416 48.5338 101.957 48.6126C101.497 48.6915 101.073 48.9086 100.74 49.2352L97.1819 52.7986C96.5437 53.4367 95.6782 53.7952 94.7757 53.7952C93.8732 53.7952 93.0077 53.4367 92.3695 52.7986L89.2071 49.6362C88.5756 48.9934 88.2217 48.1283 88.2217 47.2272C88.2217 46.326 88.5756 45.4609 89.2071 44.8181L92.7648 41.2489C93.0914 40.916 93.3085 40.4913 93.3874 40.0317C93.4662 39.5721 93.4029 39.0993 93.206 38.6766C92.9653 38.1667 92.7476 37.6396 92.5586 37.1126C92.3955 36.6796 92.1052 36.3061 91.7258 36.0413C91.3464 35.7764 90.8958 35.6326 90.4331 35.6288H85.403C84.5052 35.6199 83.6465 35.26 83.0106 34.6262C82.3746 33.9924 82.0119 33.135 82 32.2372V27.7628C82.009 26.8631 82.3704 26.0027 83.0066 25.3664C83.6429 24.7301 84.5033 24.3687 85.403 24.3598H90.4331C90.8958 24.3559 91.3464 24.2121 91.7258 23.9473C92.1052 23.6824 92.3955 23.309 92.5586 22.876C92.7476 22.3489 92.9653 21.8276 93.206 21.3119C93.4029 20.8892 93.4662 20.4165 93.3874 19.9568C93.3085 19.4972 93.0914 19.0726 92.7648 18.7396L89.2071 15.1819C88.569 14.5437 88.2105 13.6782 88.2105 12.7757C88.2105 11.8732 88.569 11.0077 89.2071 10.3695L92.3695 7.2071C93.0077 6.56899 93.8732 6.2105 94.7757 6.2105C95.6782 6.2105 96.5437 6.56899 97.1819 7.2071L100.74 10.7648C101.073 11.0914 101.497 11.3085 101.957 11.3874C102.416 11.4662 102.889 11.4029 103.312 11.206C103.828 10.9653 104.355 10.7476 104.876 10.5586C105.309 10.3955 105.682 10.1052 105.947 9.72581C106.212 9.34643 106.356 8.89577 106.36 8.43311V3.40304C106.369 2.50327 106.73 1.64289 107.366 1.00662C108.003 0.370362 108.863 0.00895356 109.763 0L114.237 0C115.137 0.00895356 115.997 0.370362 116.634 1.00662C117.27 1.64289 117.631 2.50327 117.64 3.40304V8.43311C117.644 8.89577 117.788 9.34643 118.053 9.72581C118.318 10.1052 118.691 10.3955 119.124 10.5586C119.651 10.7476 120.178 10.9653 120.688 11.206C121.109 11.4003 121.58 11.4622 122.037 11.3835C122.494 11.3047 122.917 11.089 123.249 10.7648L126.807 7.2071C127.449 6.57555 128.315 6.22168 129.216 6.22168C130.117 6.22168 130.982 6.57555 131.625 7.2071L134.787 10.3695C135.417 11.0121 135.77 11.876 135.77 12.7757C135.77 13.6755 135.417 14.5393 134.787 15.1819L131.27 18.7396C130.943 19.0726 130.726 19.4972 130.647 19.9568C130.568 20.4165 130.631 20.8892 130.828 21.3119C131.063 21.8276 131.281 22.3489 131.476 22.876C131.636 23.3027 131.921 23.6718 132.292 23.9361C132.664 24.2004 133.105 24.348 133.561 24.3598H138.591C139.491 24.3687 140.351 24.7301 140.988 25.3664C141.624 26.0027 141.985 26.8631 141.994 27.7628V32.2372C141.994 33.1397 141.636 34.0053 140.998 34.6435C140.359 35.2817 139.494 35.6402 138.591 35.6402H133.561C133.099 35.6452 132.65 35.7896 132.272 36.0543C131.894 36.3191 131.604 36.692 131.441 37.124C131.247 37.6511 131.029 38.1782 130.794 38.6881C130.604 39.1127 130.548 39.5852 130.633 40.0426C130.718 40.5001 130.94 40.9208 131.27 41.2489L134.827 44.8066C135.459 45.4495 135.813 46.3146 135.813 47.2157C135.813 48.1168 135.459 48.9819 134.827 49.6247L131.665 52.7872C131.022 53.4187 130.157 53.7726 129.256 53.7726C128.355 53.7726 127.49 53.4187 126.847 52.7872L123.249 49.2695C122.916 48.943 122.491 48.7258 122.032 48.647C121.572 48.5682 121.099 48.6315 120.677 48.8284C120.167 49.0633 119.645 49.281 119.113 49.4758C118.688 49.6382 118.321 49.9231 118.059 50.2945C117.797 50.6658 117.651 51.1067 117.64 51.5612V56.5912C117.641 57.0386 117.554 57.4817 117.383 57.8953C117.212 58.3088 116.962 58.6846 116.646 59.0012C116.329 59.3179 115.954 59.569 115.541 59.7404C115.128 59.9118 114.685 60 114.237 60ZM102.344 47.4363C102.844 47.4378 103.339 47.5472 103.793 47.7571C104.274 47.9805 104.773 48.1868 105.271 48.3701C105.923 48.6135 106.485 49.0488 106.884 49.6186C107.283 50.1883 107.5 50.8657 107.506 51.5612V56.5912C107.506 57.1899 107.743 57.764 108.167 58.1873C108.59 58.6107 109.164 58.8485 109.763 58.8485H114.237C114.836 58.8485 115.41 58.6107 115.833 58.1873C116.257 57.764 116.494 57.1899 116.494 56.5912V51.5612C116.499 50.8647 116.715 50.1861 117.114 49.6152C117.513 49.0443 118.076 48.6081 118.729 48.3644C119.233 48.181 119.726 47.9748 120.207 47.7514C120.843 47.4551 121.554 47.3605 122.245 47.4803C122.937 47.6002 123.575 47.9286 124.074 48.4217L127.632 51.9794C128.055 52.4023 128.629 52.6399 129.227 52.6399C129.826 52.6399 130.399 52.4023 130.823 51.9794L133.985 48.817C134.408 48.3937 134.646 47.8198 134.646 47.2214C134.646 46.6231 134.408 46.0492 133.985 45.6259L130.427 42.0682C129.934 41.569 129.606 40.931 129.486 40.2397C129.366 39.5484 129.461 38.837 129.757 38.2011C129.981 37.7198 130.187 37.2214 130.37 36.723C130.614 36.0725 131.05 35.5114 131.62 35.1135C132.189 34.7157 132.866 34.4998 133.561 34.4944H138.591C139.19 34.4944 139.764 34.2566 140.187 33.8333C140.611 33.41 140.848 32.8358 140.848 32.2372V27.7628C140.848 27.1642 140.611 26.59 140.187 26.1667C139.764 25.7434 139.19 25.5056 138.591 25.5056H133.561C132.865 25.5009 132.186 25.2847 131.615 24.8857C131.044 24.4867 130.608 23.9237 130.364 23.2713C130.181 22.7728 129.975 22.2801 129.751 21.7932C129.456 21.1579 129.363 20.4477 129.482 19.7576C129.602 19.0675 129.93 18.4305 130.422 17.9318L133.979 14.3741C134.396 13.9463 134.629 13.3728 134.629 12.7757C134.629 12.1786 134.396 11.6052 133.979 11.1773L130.823 8.02062C130.399 7.59766 129.826 7.36007 129.227 7.36007C128.629 7.36007 128.055 7.59766 127.632 8.02062L124.074 11.5726C123.575 12.0656 122.937 12.3941 122.245 12.5139C121.554 12.6337 120.843 12.5392 120.207 12.2429C119.726 12.0195 119.227 11.8132 118.734 11.6299C118.081 11.3871 117.517 10.9513 117.117 10.3803C116.717 9.80937 116.5 9.13026 116.494 8.43311V3.40304C116.486 2.80715 116.245 2.23815 115.823 1.81675C115.402 1.39534 114.833 1.15468 114.237 1.1458H109.763C109.167 1.15468 108.598 1.39534 108.177 1.81675C107.755 2.23815 107.514 2.80715 107.506 3.40304V8.43311C107.501 9.12959 107.285 9.8082 106.886 10.3791C106.487 10.9499 105.924 11.3861 105.271 11.6299C104.779 11.8132 104.28 12.0195 103.793 12.2429C103.158 12.5379 102.448 12.6318 101.758 12.512C101.068 12.3922 100.431 12.0644 99.9318 11.5726L96.3741 8.02062C95.9463 7.60417 95.3728 7.37115 94.7757 7.37115C94.1786 7.37115 93.6052 7.60417 93.1773 8.02062L90.0206 11.1773C89.6042 11.6052 89.3711 12.1786 89.3711 12.7757C89.3711 13.3728 89.6042 13.9463 90.0206 14.3741L93.5726 17.9318C94.0597 18.4286 94.3845 19.0615 94.5042 19.7469C94.6239 20.4322 94.5328 21.1378 94.2429 21.7703C94.0195 22.2572 93.8132 22.7499 93.6299 23.2484C93.3861 23.9008 92.9499 24.4638 92.3791 24.8628C91.8082 25.2618 91.1296 25.478 90.4331 25.4827H85.403C84.8032 25.4917 84.2308 25.7355 83.8088 26.1618C83.3868 26.5881 83.1487 27.1629 83.1458 27.7628V32.2372C83.1547 32.8331 83.3953 33.4021 83.8167 33.8235C84.2382 34.2449 84.8071 34.4855 85.403 34.4944H90.4331C91.1296 34.4991 91.8082 34.7153 92.3791 35.1143C92.9499 35.5133 93.3861 36.0763 93.6299 36.7287C93.8132 37.2272 94.0195 37.7256 94.2429 38.2068C94.5392 38.8428 94.6337 39.5542 94.5139 40.2454C94.3941 40.9367 94.0656 41.5748 93.5726 42.0739L90.0206 45.6316C89.6059 46.0592 89.3739 46.6315 89.3739 47.2272C89.3739 47.8228 89.6059 48.3951 90.0206 48.8227L93.183 51.9851C93.6109 52.4016 94.1844 52.6346 94.7814 52.6346C95.3785 52.6346 95.952 52.4016 96.3798 51.9851L99.9376 48.4274C100.579 47.7944 101.443 47.4385 102.344 47.4363ZM112.003 45.7176C108.892 45.7176 105.851 44.7949 103.265 43.0664C100.678 41.3379 98.6626 38.8811 97.4727 36.0069C96.2828 33.1326 95.972 29.9701 96.5797 26.9192C97.1875 23.8683 98.6864 21.0662 100.887 18.8673C103.087 16.6684 105.891 15.1715 108.942 14.566C111.993 13.9605 115.156 14.2736 118.029 15.4656C120.902 16.6577 123.358 18.6751 125.084 21.2628C126.811 23.8504 127.731 26.892 127.729 30.0029C127.724 34.1723 126.066 38.1697 123.118 41.1179C120.17 44.0661 116.172 45.7245 112.003 45.729V45.7176ZM112.003 15.4111C109.12 15.4111 106.301 16.2659 103.904 17.8675C101.506 19.4691 99.6374 21.7456 98.5335 24.4091C97.4296 27.0726 97.1402 30.0037 97.7018 32.8317C98.2635 35.6597 99.651 38.2577 101.689 40.2972C103.727 42.3368 106.324 43.7263 109.151 44.2902C111.979 44.8541 114.91 44.567 117.575 43.4652C120.239 42.3634 122.517 40.4964 124.12 38.1001C125.724 35.7039 126.581 32.8861 126.583 30.0029C126.58 26.1368 125.043 22.43 122.309 19.6964C119.576 16.9627 115.869 15.4255 112.003 15.4225V15.4111Z" fill="#F2F4FC"/>
</g>
<g clip-path="url(#clip2_2810_5615)">
<path d="M114.595 40.8467H43.4051C31.5834 40.8467 22 50.4366 22 62.2664C22 74.0961 31.5834 83.6861 43.4051 83.6861H114.595C126.417 83.6861 136 74.0961 136 62.2664C136 50.4366 126.417 40.8467 114.595 40.8467Z" fill="#D9E7F0"/>
<path d="M90.9061 71.7874C106.174 65.2043 113.218 47.4819 106.64 32.2035C100.061 16.925 82.3509 9.87602 67.0828 16.4591C51.8147 23.0422 44.7705 40.7646 51.3492 56.043C57.9278 71.3215 75.6381 78.3705 90.9061 71.7874Z" fill="#D9E7F0"/>
<g opacity="0.35">
<g filter="url(#filter0_d_2810_5615)">
<path d="M114.595 40.8467H43.4051C31.5834 40.8467 22 50.4366 22 62.2664C22 74.0961 31.5834 83.6861 43.4051 83.6861H114.595C126.417 83.6861 136 74.0961 136 62.2664C136 50.4366 126.417 40.8467 114.595 40.8467Z" fill="#ECF1F7"/>
</g>
<path d="M90.9061 71.7874C106.174 65.2043 113.218 47.4819 106.64 32.2035C100.061 16.925 82.3509 9.87602 67.0828 16.4591C51.8147 23.0422 44.7705 40.7646 51.3492 56.043C57.9278 71.3215 75.6381 78.3705 90.9061 71.7874Z" fill="#ECF1F7"/>
</g>
<path d="M71.9656 48.607C71.6906 48.6075 71.4217 48.5261 71.1932 48.3731C70.9646 48.2202 70.7868 48.0026 70.6822 47.7482C70.5776 47.4937 70.5511 47.2139 70.606 46.9443C70.661 46.6747 70.7948 46.4276 70.9906 46.2344L79.0618 38.2852L87.0112 46.2399C87.2712 46.5002 87.4173 46.8531 87.4173 47.2211C87.4173 47.5891 87.2712 47.9421 87.0112 48.2023C86.7511 48.4625 86.3984 48.6087 86.0307 48.6087C85.6629 48.6087 85.3102 48.4625 85.0502 48.2023L79.0618 42.1877L72.9682 48.2078C72.8365 48.3384 72.6798 48.441 72.5075 48.5096C72.3352 48.5782 72.1509 48.6113 71.9656 48.607Z" fill="white"/>
<path d="M78.9943 59.6328C78.627 59.6328 78.2747 59.4868 78.015 59.2269C77.7553 58.967 77.6094 58.6145 77.6094 58.2469V40.2364C77.6094 39.8689 77.7553 39.5164 78.015 39.2565C78.2747 38.9966 78.627 38.8506 78.9943 38.8506C79.3616 38.8506 79.7138 38.9966 79.9736 39.2565C80.2333 39.5164 80.3792 39.8689 80.3792 40.2364V58.2469C80.3799 58.4291 80.3446 58.6097 80.2753 58.7781C80.2059 58.9466 80.1039 59.0997 79.9752 59.2285C79.8464 59.3573 79.6935 59.4594 79.5251 59.5288C79.3568 59.5982 79.1764 59.6335 78.9943 59.6328Z" fill="white"/>
<path d="M92.0933 68.1814H65.7025C64.7935 68.1799 63.9221 67.8179 63.2794 67.1748C62.6366 66.5316 62.2749 65.6596 62.2734 64.75V55.1544C62.2734 54.7869 62.4194 54.4344 62.6791 54.1745C62.9388 53.9146 63.291 53.7686 63.6583 53.7686C64.0256 53.7686 64.3779 53.9146 64.6376 54.1745C64.8973 54.4344 65.0433 54.7869 65.0433 55.1544V64.75C65.0433 64.925 65.1127 65.0928 65.2363 65.2165C65.36 65.3402 65.5276 65.4097 65.7025 65.4097H92.0933C92.2072 65.4097 92.32 65.3871 92.4252 65.3433C92.5305 65.2995 92.626 65.2353 92.7063 65.1545C92.7866 65.0736 92.8502 64.9776 92.8933 64.872C92.9364 64.7665 92.9582 64.6534 92.9574 64.5394V55.1544C92.9574 54.7869 93.1033 54.4344 93.3631 54.1745C93.6228 53.9146 93.975 53.7686 94.3423 53.7686C94.7096 53.7686 95.0619 53.9146 95.3216 54.1745C95.5813 54.4344 95.7272 54.7869 95.7272 55.1544V64.5394C95.7272 65.5043 95.3446 66.4299 94.6632 67.1127C93.9819 67.7956 93.0576 68.1799 92.0933 68.1814Z" fill="white"/>
</g>
<defs>
<filter id="filter0_d_2810_5615" x="20" y="40.8467" width="118" height="46.8398" filterUnits="userSpaceOnUse" color-interpolation-filters="sRGB">
<feFlood flood-opacity="0" result="BackgroundImageFix"/>
<feColorMatrix in="SourceAlpha" type="matrix" values="0 0 0 0 0 0 0 0 0 0 0 0 0 0 0 0 0 0 127 0" result="hardAlpha"/>
<feOffset dy="2"/>
<feGaussianBlur stdDeviation="1"/>
<feComposite in2="hardAlpha" operator="out"/>
<feColorMatrix type="matrix" values="0 0 0 0 0.430625 0 0 0 0 0.565885 0 0 0 0 0.6625 0 0 0 0.29 0"/>
<feBlend mode="normal" in2="BackgroundImageFix" result="effect1_dropShadow_2810_5615"/>
<feBlend mode="normal" in="SourceGraphic" in2="effect1_dropShadow_2810_5615" result="shape"/>
</filter>
<clipPath id="clip0_2810_5615">
<rect width="48" height="41" fill="white" transform="translate(0 53)"/>
</clipPath>
<clipPath id="clip1_2810_5615">
<rect width="60" height="60" fill="white" transform="translate(82)"/>
</clipPath>
<clipPath id="clip2_2810_5615">
<rect width="114" height="76" fill="white" transform="translate(22 14)"/>
</clipPath>
</defs>
</svg>
