<svg width="24" height="24" viewBox="0 0 24 24" fill="none" xmlns="http://www.w3.org/2000/svg">
<path d="M12 24C18.6274 24 24 18.6274 24 12C24 5.37258 18.6274 0 12 0C5.37258 0 0 5.37258 0 12C0 18.6274 5.37258 24 12 24Z" fill="#167CBF"/>
<path d="M18.2787 1.75781C19.515 3.6866 20.1704 5.93031 20.1667 8.22131C20.1667 14.8486 14.7944 20.2213 8.16668 20.2213C5.95007 20.2246 3.77629 19.611 1.88867 18.449C2.97311 20.1472 4.4681 21.5448 6.23551 22.5125C8.00291 23.4802 9.98571 23.9868 12.0007 23.9855C18.628 23.9855 24.0007 18.6128 24.0007 11.9855C24.0019 9.93351 23.4765 7.91557 22.4746 6.12481C21.4727 4.33405 20.028 2.83041 18.2787 1.75781Z" fill="#003B62" fill-opacity="0.1"/>
<path d="M1.6311 13.2667C1.6311 7.11375 6.61961 2.12476 12.7725 2.12476C14.4797 2.12331 16.1642 2.51487 17.6957 3.26911C19.2272 4.02336 20.5645 5.12004 21.604 6.4742C20.6273 4.77523 19.2197 3.364 17.5232 2.38296C15.8268 1.40193 13.9015 0.885814 11.9418 0.88672C5.7889 0.88672 0.802748 5.87476 0.802748 12.0282C0.798928 14.4853 1.61109 16.8741 3.11175 18.8197C2.13891 17.1309 1.62822 15.2156 1.6311 13.2667Z" fill="#D9E7F0" fill-opacity="0.2"/>
<path d="M18.914 9.16336H14.7482C14.7234 9.1635 14.699 9.15796 14.6767 9.14716C14.6545 9.13636 14.635 9.12058 14.6198 9.10106C14.6046 9.08154 14.5941 9.05879 14.5891 9.03456C14.5841 9.01033 14.5848 8.98528 14.591 8.96134C14.7604 8.35955 14.7751 7.70772 14.7755 7.0913C14.7755 6.75099 14.7916 6.36443 14.7543 5.99202C14.717 5.61962 14.6221 5.24816 14.3994 4.96024C14.152 4.6407 13.7829 4.40234 13.3723 4.40234C12.4208 4.40234 12.2716 5.33359 12.1819 6.08878C12.0781 6.97047 12.0375 7.88236 11.6476 8.69419C11.3748 9.26059 10.9868 9.75099 10.3813 9.99076C9.91494 10.1748 9.57227 10.3183 9.08045 10.4156C9.04354 10.4224 9.01019 10.442 8.98622 10.4709C8.96225 10.4998 8.94916 10.5361 8.94924 10.5737V16.7332C8.94892 16.7545 8.95282 16.7757 8.9607 16.7955C8.96858 16.8152 8.98028 16.8333 8.99515 16.8485C9.01001 16.8638 9.02774 16.876 9.04732 16.8844C9.0669 16.8928 9.08794 16.8972 9.10924 16.8975H10.8136C10.8391 16.8977 10.8641 16.9039 10.8867 16.9155C10.9093 16.9271 10.9289 16.9439 10.9439 16.9645C11.1153 17.1952 11.3383 17.3825 11.5951 17.5115C11.8519 17.6405 12.1353 17.7076 12.4226 17.7074H17.7642C18.1393 17.706 18.4987 17.5564 18.764 17.2912C19.0292 17.0259 19.1788 16.6665 19.1802 16.2914C19.1803 16.0962 19.1342 15.9038 19.0457 15.7298C19.0292 15.6973 19.0244 15.6601 19.0321 15.6245C19.0398 15.5889 19.0596 15.557 19.0882 15.5343C19.377 15.304 19.5635 14.7792 19.5635 14.3822V14.2203C19.5636 14.0251 19.5175 13.8326 19.4289 13.6586C19.4124 13.6262 19.4076 13.589 19.4154 13.5534C19.4231 13.5178 19.4429 13.4859 19.4714 13.4632C19.6193 13.3461 19.7389 13.1972 19.8212 13.0274C19.9035 12.8577 19.9464 12.6715 19.9467 12.4829V12.3191C19.9468 12.1241 19.9007 11.9317 19.8122 11.7579C19.7956 11.7254 19.7908 11.6881 19.7986 11.6524C19.8063 11.6167 19.8261 11.5848 19.8547 11.562C20.0026 11.445 20.1221 11.2961 20.2044 11.1265C20.2867 10.9568 20.3296 10.7707 20.33 10.5822C20.3295 10.2065 20.1802 9.84636 19.9149 9.58047C19.6495 9.31458 19.2896 9.1646 18.914 9.16336Z" fill="#F2F4FC"/>
<path d="M7.95257 9.71875H4.92425C4.85282 9.71875 4.79492 9.77665 4.79492 9.84808V17.3948C4.79492 17.4662 4.85282 17.5241 4.92425 17.5241H7.95257C8.02399 17.5241 8.08189 17.4662 8.08189 17.3948V9.84808C8.08189 9.77665 8.02399 9.71875 7.95257 9.71875Z" fill="#F2F4FC"/>
</svg>
