<svg width="24" height="24" viewBox="0 0 24 24" fill="none" xmlns="http://www.w3.org/2000/svg">
<g clip-path="url(#clip0_2517_22316)">
<path d="M14.8047 4.76953L17.7236 1.85064L23.9971 8.12416L21.0782 11.0431L14.8047 4.76953Z" fill="#167CBF"/>
<path d="M13.6713 5.62305L8.40023 8.75889L5.30859 19.6653L11.3624 13.625L11.3564 12.2074L13.7723 12.1798L13.8 14.606L12.3649 14.6119L6.30263 20.6613L17.3229 17.4845L20.2459 12.1977L13.6713 5.62305Z" fill="#167CBF"/>
<path d="M5.30944 19.6654L4.81261 20.1623C4.43634 20.5385 3.93609 20.7458 3.40397 20.7458C2.87184 20.7458 2.37159 20.5385 1.99528 20.1623C1.24022 19.4072 1.21298 18.1981 1.93331 17.4098L2.88398 16.3693C4.11295 15.0242 4.06655 12.9615 2.77819 11.6731L0.994687 9.88965L0 10.8844L1.7835 12.6679C2.53856 13.4229 2.5658 14.632 1.84547 15.4203L0.894797 16.4609C-0.334172 17.8059 -0.287766 19.8687 1.00059 21.157C1.64255 21.799 2.49609 22.1525 3.40402 22.1525C4.31194 22.1525 5.16544 21.7989 5.80739 21.157L6.30356 20.6609L6.30361 20.6609L5.30944 19.6654Z" fill="#167CBF"/>
</g>
<defs>
<clipPath id="clip0_2517_22316">
<rect width="24" height="24" fill="white"/>
</clipPath>
</defs>
</svg>
