<svg width="9" height="13" viewBox="0 0 9 13" fill="none" xmlns="http://www.w3.org/2000/svg">
<path d="M2.95345 9.13346V8.97235C2.95811 8.22466 3.03724 7.62981 3.19085 7.1878C3.34911 6.74579 3.57254 6.39053 3.86113 6.12202C4.14973 5.84938 4.50116 5.59946 4.91544 5.37226C5.19938 5.21528 5.45306 5.04385 5.67649 4.85796C5.90458 4.66794 6.08379 4.45726 6.21412 4.22593C6.34445 3.99047 6.40962 3.72815 6.40962 3.43899C6.40962 3.11265 6.32351 2.82968 6.15128 2.59009C5.97905 2.35049 5.74632 2.1646 5.45306 2.03241C5.16447 1.90022 4.84096 1.83413 4.48254 1.83413C4.15206 1.83413 3.83786 1.89816 3.53995 2.02622C3.2467 2.15014 3.00233 2.34016 2.80683 2.59628C2.61598 2.84827 2.50892 3.16841 2.48565 3.55672H0C0.0232739 2.77185 0.237393 2.11503 0.642358 1.58627C1.05198 1.05752 1.59193 0.660947 2.26222 0.396568C2.93716 0.132189 3.68192 0 4.49651 0C5.38557 0 6.16757 0.138386 6.84251 0.415157C7.52211 0.691929 8.05043 1.08643 8.42746 1.59867C8.80915 2.10677 9 2.70988 9 3.40801C9 3.87893 8.91389 4.30029 8.74166 4.67207C8.57409 5.04385 8.33437 5.37432 8.0225 5.66349C7.71063 5.95265 7.34057 6.21084 6.91234 6.43804C6.5353 6.64458 6.22576 6.85939 5.98371 7.08246C5.74632 7.30553 5.56943 7.56784 5.45306 7.8694C5.34135 8.16683 5.28316 8.53448 5.27851 8.97235V9.13346H2.95345ZM4.16835 13C3.74942 13 3.38867 12.8678 3.08611 12.6034C2.78355 12.3391 2.63227 12.0168 2.63227 11.6368C2.63227 11.265 2.78355 10.9469 3.08611 10.6826C3.38867 10.4182 3.74942 10.286 4.16835 10.286C4.58262 10.286 4.94104 10.4182 5.2436 10.6826C5.55082 10.9469 5.70442 11.265 5.70442 11.6368C5.70442 11.8888 5.63227 12.118 5.48798 12.3246C5.34833 12.5311 5.16214 12.6964 4.9294 12.8203C4.70132 12.9401 4.44763 13 4.16835 13Z" fill="#516674"/>
</svg>
