<svg width="34" height="34" viewBox="0 0 34 34" fill="none" xmlns="http://www.w3.org/2000/svg">
<path d="M27.7895 24.3333V25.5556C27.7895 26.9 26.7 28 25.3684 28H8.42105C7.07737 28 6 26.9 6 25.5556V8.44444C6 7.1 7.07737 6 8.42105 6H25.3684C26.7 6 27.7895 7.1 27.7895 8.44444V9.66667H16.8947C15.5511 9.66667 14.4737 10.7667 14.4737 12.1111V21.8889C14.4737 23.2333 15.5511 24.3333 16.8947 24.3333H27.7895ZM16.8947 21.8889H29V12.1111H16.8947V21.8889ZM21.7368 18.8333C20.7321 18.8333 19.9211 18.0144 19.9211 17C19.9211 15.9856 20.7321 15.1667 21.7368 15.1667C22.7416 15.1667 23.5526 15.9856 23.5526 17C23.5526 18.0144 22.7416 18.8333 21.7368 18.8333Z" fill="#516674"/>
</svg>
