<svg width="20" height="20" viewBox="0 0 20 20" fill="none" xmlns="http://www.w3.org/2000/svg">
<g opacity="0.6">
<path d="M13.6667 16.6667C13.6667 18.5077 12.1743 20 10.3333 20C8.4923 20 7 18.5077 7 16.6667C7 14.8257 8.4923 13.3333 10.3333 13.3333C12.1743 13.3333 13.6667 14.8257 13.6667 16.6667ZM10.3333 3.33328C9.8734 3.33328 9.5 2.96004 9.5 2.5V0.833281C9.5 0.373398 9.8734 0 10.3333 0C10.7933 0 11.1667 0.373398 11.1667 0.833281V2.5C11.1667 2.96004 10.7933 3.33328 10.3333 3.33328Z" fill="#8E9DA7"/>
<path d="M18.1491 14.0934C16.8892 13.0282 16.1667 11.4725 16.1667 9.82332V7.5C16.1667 4.28328 13.5492 1.66672 10.3333 1.66672C7.1175 1.66672 4.5 4.28328 4.5 7.5V9.82332C4.5 11.4725 3.7775 13.0292 2.50996 14.1008C2.34988 14.2375 2.22138 14.4073 2.13333 14.5985C2.04529 14.7897 1.99979 14.9978 2 15.2083C2 16.0126 2.65414 16.6667 3.45828 16.6667H17.2083C18.0126 16.6667 18.6667 16.0126 18.6667 15.2083C18.6667 14.7816 18.4809 14.3774 18.1491 14.0933V14.0934Z" fill="#8E9DA7"/>
</g>
</svg>
