<svg width="20" height="20" viewBox="0 0 20 20" fill="none" xmlns="http://www.w3.org/2000/svg">
<g opacity="0.6">
<path d="M13.491 1.66667H6.50768C3.47435 1.66667 1.66602 3.47501 1.66602 6.50834V13.4917C1.66602 16.525 3.47435 18.3333 6.50768 18.3333H13.491C16.5244 18.3333 18.3327 16.525 18.3327 13.4917V6.50834C18.3327 3.47501 16.5244 1.66667 13.491 1.66667ZM8.30768 12.4167L6.43268 14.2917C6.30768 14.4167 6.14935 14.475 5.99102 14.475C5.83268 14.475 5.66602 14.4167 5.54935 14.2917L4.92435 13.6667C4.67435 13.425 4.67435 13.025 4.92435 12.7833C5.16602 12.5417 5.55768 12.5417 5.80768 12.7833L5.99102 12.9667L7.42435 11.5333C7.66602 11.2917 8.05768 11.2917 8.30768 11.5333C8.54935 11.775 8.54935 12.175 8.30768 12.4167ZM8.30768 6.58334L6.43268 8.45834C6.30768 8.58334 6.14935 8.64167 5.99102 8.64167C5.83268 8.64167 5.66602 8.58334 5.54935 8.45834L4.92435 7.83334C4.67435 7.59167 4.67435 7.19167 4.92435 6.95001C5.16602 6.70834 5.55768 6.70834 5.80768 6.95001L5.99102 7.13334L7.42435 5.70001C7.66602 5.45834 8.05768 5.45834 8.30768 5.70001C8.54935 5.94167 8.54935 6.34167 8.30768 6.58334ZM14.6327 13.85H10.2577C9.91602 13.85 9.63268 13.5667 9.63268 13.225C9.63268 12.8833 9.91602 12.6 10.2577 12.6H14.6327C14.7984 12.6 14.9574 12.6659 15.0746 12.7831C15.1918 12.9003 15.2577 13.0592 15.2577 13.225C15.2577 13.3908 15.1918 13.5497 15.0746 13.6669C14.9574 13.7842 14.7984 13.85 14.6327 13.85ZM14.6327 8.01667H10.2577C9.91602 8.01667 9.63268 7.73334 9.63268 7.39167C9.63268 7.05001 9.91602 6.76667 10.2577 6.76667H14.6327C14.7984 6.76667 14.9574 6.83252 15.0746 6.94973C15.1918 7.06694 15.2577 7.22591 15.2577 7.39167C15.2577 7.55743 15.1918 7.7164 15.0746 7.83361C14.9574 7.95082 14.7984 8.01667 14.6327 8.01667Z" fill="#8E9DA7"/>
</g>
</svg>
