<svg width="20" height="20" viewBox="0 0 20 20" fill="none" xmlns="http://www.w3.org/2000/svg">
<g opacity="0.6" clip-path="url(#clip0_3876_22330)">
<path d="M9.99935 1.66667C5.39935 1.66667 1.66602 5.40001 1.66602 10C1.66602 14.6 5.39935 18.3333 9.99935 18.3333C14.5993 18.3333 18.3327 14.6 18.3327 10C18.3327 5.40001 14.5993 1.66667 9.99935 1.66667ZM9.99935 4.16667C11.3827 4.16667 12.4993 5.28334 12.4993 6.66667C12.4993 8.05001 11.3827 9.16667 9.99935 9.16667C8.61602 9.16667 7.49935 8.05001 7.49935 6.66667C7.49935 5.28334 8.61602 4.16667 9.99935 4.16667ZM9.99935 16C7.91602 16 6.07435 14.9333 4.99935 13.3167C5.02435 11.6583 8.33268 10.75 9.99935 10.75C11.6577 10.75 14.9743 11.6583 14.9993 13.3167C13.9243 14.9333 12.0827 16 9.99935 16Z" fill="#8E9DA7"/>
</g>
<defs>
<clipPath id="clip0_3876_22330">
<rect width="20" height="20" fill="white"/>
</clipPath>
</defs>
</svg>
