<svg width="120" height="130" viewBox="0 0 120 130" fill="none" xmlns="http://www.w3.org/2000/svg">
<g filter="url(#filter0_d_345_6671)">
<path d="M106 122C106 123.924 104.843 125 103 125H22C20.1572 125 19 123.924 19 122V14C18.9941 12.0838 20.1572 10 22 10H82C86.3797 14.7607 104.159 32.6331 106 35V122Z" fill="#D9E7F0"/>
</g>
<g filter="url(#filter1_d_345_6671)">
<path d="M75 26H6V55H75V26Z" fill="#167CBF"/>
</g>
<path d="M82 10V35H106C104.193 32.6397 86.3118 14.7577 82 10Z" fill="#88C4EB"/>
<path d="M91 66H34V68H91V66Z" fill="#88C4EB"/>
<path d="M91 73H34V75H91V73Z" fill="#88C4EB"/>
<path d="M91 80H34V82H91V80Z" fill="#88C4EB"/>
<path d="M91 87H34V89H91V87Z" fill="#88C4EB"/>
<path d="M91 94H34V96H91V94Z" fill="#88C4EB"/>
<path d="M91 101H34V103H91V101Z" fill="#88C4EB"/>
<path d="M91 108H34V110H91V108Z" fill="#88C4EB"/>
<path d="M18.8379 51H12.5538V30.6364H19.1163C21.0917 30.6364 22.782 31.044 24.1873 31.8594C25.5926 32.6681 26.6698 33.8314 27.4189 35.3494C28.1679 36.8608 28.5424 38.6705 28.5424 40.7784C28.5424 42.8996 28.1646 44.7259 27.4089 46.2571C26.6532 47.7817 25.5529 48.955 24.1078 49.777C22.6627 50.5923 20.9061 51 18.8379 51ZM15.0197 48.8125H18.6788C20.3625 48.8125 21.7579 48.4877 22.8649 47.8381C23.9719 47.1884 24.7972 46.2637 25.3407 45.0639C25.8843 43.8641 26.1561 42.4356 26.1561 40.7784C26.1561 39.1345 25.8876 37.7192 25.3507 36.5327C24.8137 35.3395 24.0117 34.4247 22.9444 33.7884C21.8772 33.1454 20.5481 32.8239 18.9572 32.8239H15.0197V48.8125ZM49.8606 40.8182C49.8606 42.9659 49.4728 44.822 48.6973 46.3864C47.9217 47.9508 46.8578 49.1572 45.5055 50.0057C44.1532 50.8542 42.6087 51.2784 40.872 51.2784C39.1352 51.2784 37.5907 50.8542 36.2385 50.0057C34.8862 49.1572 33.8223 47.9508 33.0467 46.3864C32.2711 44.822 31.8833 42.9659 31.8833 40.8182C31.8833 38.6705 32.2711 36.8144 33.0467 35.25C33.8223 33.6856 34.8862 32.4792 36.2385 31.6307C37.5907 30.7822 39.1352 30.358 40.872 30.358C42.6087 30.358 44.1532 30.7822 45.5055 31.6307C46.8578 32.4792 47.9217 33.6856 48.6973 35.25C49.4728 36.8144 49.8606 38.6705 49.8606 40.8182ZM47.4743 40.8182C47.4743 39.0549 47.1793 37.5668 46.5893 36.3537C46.006 35.1406 45.2138 34.2225 44.2129 33.5994C43.2186 32.9763 42.1049 32.6648 40.872 32.6648C39.639 32.6648 38.5221 32.9763 37.5211 33.5994C36.5268 34.2225 35.7347 35.1406 35.1447 36.3537C34.5614 37.5668 34.2697 39.0549 34.2697 40.8182C34.2697 42.5814 34.5614 44.0696 35.1447 45.2827C35.7347 46.4957 36.5268 47.4138 37.5211 48.0369C38.5221 48.66 39.639 48.9716 40.872 48.9716C42.1049 48.9716 43.2186 48.66 44.2129 48.0369C45.2138 47.4138 46.006 46.4957 46.5893 45.2827C47.1793 44.0696 47.4743 42.5814 47.4743 40.8182ZM70.3933 37H67.9274C67.7815 36.2907 67.5263 35.6676 67.1618 35.1307C66.8038 34.5938 66.3663 34.143 65.8493 33.7784C65.3388 33.4072 64.7721 33.1288 64.149 32.9432C63.5259 32.7576 62.8762 32.6648 62.2001 32.6648C60.9672 32.6648 59.8502 32.9763 58.8493 33.5994C57.8549 34.2225 57.0628 35.1406 56.4728 36.3537C55.8895 37.5668 55.5978 39.0549 55.5978 40.8182C55.5978 42.5814 55.8895 44.0696 56.4728 45.2827C57.0628 46.4957 57.8549 47.4138 58.8493 48.0369C59.8502 48.66 60.9672 48.9716 62.2001 48.9716C62.8762 48.9716 63.5259 48.8788 64.149 48.6932C64.7721 48.5076 65.3388 48.2325 65.8493 47.8679C66.3663 47.4967 66.8038 47.0426 67.1618 46.5057C67.5263 45.9621 67.7815 45.339 67.9274 44.6364H70.3933C70.2077 45.6771 69.8696 46.6084 69.3791 47.4304C68.8886 48.2524 68.2787 48.9517 67.5495 49.5284C66.8204 50.0985 66.0017 50.5327 65.0936 50.831C64.1921 51.1293 63.2276 51.2784 62.2001 51.2784C60.4634 51.2784 58.9189 50.8542 57.5666 50.0057C56.2143 49.1572 55.1504 47.9508 54.3748 46.3864C53.5993 44.822 53.2115 42.9659 53.2115 40.8182C53.2115 38.6705 53.5993 36.8144 54.3748 35.25C55.1504 33.6856 56.2143 32.4792 57.5666 31.6307C58.9189 30.7822 60.4634 30.358 62.2001 30.358C63.2276 30.358 64.1921 30.5071 65.0936 30.8054C66.0017 31.1037 66.8204 31.5412 67.5495 32.1179C68.2787 32.688 68.8886 33.384 69.3791 34.206C69.8696 35.0213 70.2077 35.9527 70.3933 37Z" fill="#D9E7F0"/>
<defs>
<filter id="filter0_d_345_6671" x="17" y="10" width="91" height="119" filterUnits="userSpaceOnUse" color-interpolation-filters="sRGB">
<feFlood flood-opacity="0" result="BackgroundImageFix"/>
<feColorMatrix in="SourceAlpha" type="matrix" values="0 0 0 0 0 0 0 0 0 0 0 0 0 0 0 0 0 0 127 0" result="hardAlpha"/>
<feOffset dy="2"/>
<feGaussianBlur stdDeviation="1"/>
<feComposite in2="hardAlpha" operator="out"/>
<feColorMatrix type="matrix" values="0 0 0 0 0.430625 0 0 0 0 0.565885 0 0 0 0 0.6625 0 0 0 0.29 0"/>
<feBlend mode="normal" in2="BackgroundImageFix" result="effect1_dropShadow_345_6671"/>
<feBlend mode="normal" in="SourceGraphic" in2="effect1_dropShadow_345_6671" result="shape"/>
</filter>
<filter id="filter1_d_345_6671" x="4" y="26" width="73" height="33" filterUnits="userSpaceOnUse" color-interpolation-filters="sRGB">
<feFlood flood-opacity="0" result="BackgroundImageFix"/>
<feColorMatrix in="SourceAlpha" type="matrix" values="0 0 0 0 0 0 0 0 0 0 0 0 0 0 0 0 0 0 127 0" result="hardAlpha"/>
<feOffset dy="2"/>
<feGaussianBlur stdDeviation="1"/>
<feComposite in2="hardAlpha" operator="out"/>
<feColorMatrix type="matrix" values="0 0 0 0 0.066441 0 0 0 0 0.250157 0 0 0 0 0.370833 0 0 0 0.39 0"/>
<feBlend mode="normal" in2="BackgroundImageFix" result="effect1_dropShadow_345_6671"/>
<feBlend mode="normal" in="SourceGraphic" in2="effect1_dropShadow_345_6671" result="shape"/>
</filter>
</defs>
</svg>
