<svg width="120" height="130" viewBox="0 0 120 130" fill="none" xmlns="http://www.w3.org/2000/svg">
<g filter="url(#filter0_d_345_6606)">
<path d="M106 122C106 123.924 104.843 125 103 125H22C20.1572 125 19 123.924 19 122V14C18.9941 12.0838 20.1572 10 22 10H82C86.3797 14.7607 104.159 32.6331 106 35V122Z" fill="#D9E7F0"/>
</g>
<path d="M55.9991 87.9998H36.9991V68.9998H55.9991V87.9998ZM40 84.9999H53V71.9999H40V84.9999Z" fill="#88C4EB"/>
<path d="M18.9991 79.9998L35.9932 80.0301L36 76.9998L19 76.9694L18.9991 79.9998Z" fill="#88C4EB"/>
<path d="M106 76.9998H57V79.9998H106V76.9998Z" fill="#88C4EB"/>
<path d="M44.9991 68.0102L47.9991 67.9999V9.99585L44.9991 9.99976V68.0102Z" fill="#88C4EB"/>
<path d="M47.9991 88.9999H44.9991V125H47.9991V88.9999Z" fill="#88C4EB"/>
<path d="M48 77H45V80H48V77Z" fill="#88C4EB"/>
<g filter="url(#filter1_d_345_6606)">
<path d="M75 26H6V55H75V26Z" fill="#167CBF"/>
</g>
<path d="M82 10V35H106C104.193 32.6397 86.3118 14.7577 82 10Z" fill="#88C4EB"/>
<path d="M15.9727 51H9.68857V30.6364H16.2511C18.2264 30.6364 19.9168 31.044 21.3221 31.8594C22.7274 32.6681 23.8046 33.8314 24.5536 35.3494C25.3027 36.8608 25.6772 38.6705 25.6772 40.7784C25.6772 42.8996 25.2994 44.7259 24.5437 46.2571C23.788 47.7817 22.6876 48.955 21.2425 49.777C19.7975 50.5923 18.0408 51 15.9727 51ZM12.1545 48.8125H15.8136C17.4973 48.8125 18.8926 48.4877 19.9996 47.8381C21.1067 47.1884 21.9319 46.2637 22.4755 45.0639C23.0191 43.8641 23.2908 42.4356 23.2908 40.7784C23.2908 39.1345 23.0224 37.7192 22.4854 36.5327C21.9485 35.3395 21.1464 34.4247 20.0792 33.7884C19.012 33.1454 17.6829 32.8239 16.092 32.8239H12.1545V48.8125ZM33.5124 51L27.9442 30.6364H30.4499L34.7056 47.2216H34.9045L39.2397 30.6364H42.0238L46.359 47.2216H46.5579L50.8136 30.6364H53.3192L47.7511 51H45.2056L40.7113 34.7727H40.5522L36.0579 51H33.5124ZM69.3551 37C69.1364 36.3305 68.848 35.7306 68.4901 35.2003C68.1387 34.6634 67.7178 34.206 67.2273 33.8281C66.7434 33.4503 66.1932 33.1619 65.5767 32.9631C64.9602 32.7642 64.2841 32.6648 63.5483 32.6648C62.3419 32.6648 61.2448 32.9763 60.2571 33.5994C59.2694 34.2225 58.4839 35.1406 57.9006 36.3537C57.3172 37.5668 57.0256 39.0549 57.0256 40.8182C57.0256 42.5814 57.3205 44.0696 57.9105 45.2827C58.5005 46.4957 59.2992 47.4138 60.3068 48.0369C61.3144 48.66 62.4479 48.9716 63.7074 48.9716C64.8741 48.9716 65.9015 48.723 66.7898 48.2259C67.6847 47.7221 68.3807 47.0128 68.8778 46.098C69.3816 45.1766 69.6335 44.0928 69.6335 42.8466L70.3892 43.0057H64.2642V40.8182H72.0199V43.0057C72.0199 44.6828 71.6619 46.1411 70.946 47.3807C70.2367 48.6203 69.2557 49.5814 68.0028 50.2642C66.7566 50.9403 65.3248 51.2784 63.7074 51.2784C61.9044 51.2784 60.3201 50.8542 58.9545 50.0057C57.5956 49.1572 56.535 47.9508 55.7727 46.3864C55.017 44.822 54.6392 42.9659 54.6392 40.8182C54.6392 39.2074 54.8546 37.759 55.2855 36.473C55.723 35.1804 56.3395 34.08 57.1349 33.1719C57.9304 32.2637 58.8717 31.5677 59.9588 31.0838C61.0459 30.5999 62.2424 30.358 63.5483 30.358C64.6222 30.358 65.6231 30.5204 66.5511 30.8452C67.4858 31.1634 68.3177 31.6174 69.0469 32.2074C69.7827 32.7907 70.3958 33.4901 70.8864 34.3054C71.3769 35.1141 71.715 36.0123 71.9006 37H69.3551Z" fill="#D9E7F0"/>
<defs>
<filter id="filter0_d_345_6606" x="17" y="10" width="91" height="119" filterUnits="userSpaceOnUse" color-interpolation-filters="sRGB">
<feFlood flood-opacity="0" result="BackgroundImageFix"/>
<feColorMatrix in="SourceAlpha" type="matrix" values="0 0 0 0 0 0 0 0 0 0 0 0 0 0 0 0 0 0 127 0" result="hardAlpha"/>
<feOffset dy="2"/>
<feGaussianBlur stdDeviation="1"/>
<feComposite in2="hardAlpha" operator="out"/>
<feColorMatrix type="matrix" values="0 0 0 0 0.430625 0 0 0 0 0.565885 0 0 0 0 0.6625 0 0 0 0.29 0"/>
<feBlend mode="normal" in2="BackgroundImageFix" result="effect1_dropShadow_345_6606"/>
<feBlend mode="normal" in="SourceGraphic" in2="effect1_dropShadow_345_6606" result="shape"/>
</filter>
<filter id="filter1_d_345_6606" x="4" y="26" width="73" height="33" filterUnits="userSpaceOnUse" color-interpolation-filters="sRGB">
<feFlood flood-opacity="0" result="BackgroundImageFix"/>
<feColorMatrix in="SourceAlpha" type="matrix" values="0 0 0 0 0 0 0 0 0 0 0 0 0 0 0 0 0 0 127 0" result="hardAlpha"/>
<feOffset dy="2"/>
<feGaussianBlur stdDeviation="1"/>
<feComposite in2="hardAlpha" operator="out"/>
<feColorMatrix type="matrix" values="0 0 0 0 0.430625 0 0 0 0 0.565885 0 0 0 0 0.6625 0 0 0 0.29 0"/>
<feBlend mode="normal" in2="BackgroundImageFix" result="effect1_dropShadow_345_6606"/>
<feBlend mode="normal" in="SourceGraphic" in2="effect1_dropShadow_345_6606" result="shape"/>
</filter>
</defs>
</svg>
