<svg width="120" height="130" viewBox="0 0 120 130" fill="none" xmlns="http://www.w3.org/2000/svg">
<g filter="url(#filter0_d_345_6607)">
<path d="M106 122C106 123.924 104.843 125 103 125H22C20.1572 125 19 123.924 19 122V14C18.9941 12.0838 20.1572 10 22 10H82C86.3797 14.7607 104.159 32.6331 106 35V122Z" fill="#D9E7F0"/>
</g>
<g filter="url(#filter1_d_345_6607)">
<path d="M75 26H6V55H75V26Z" fill="#167CBF"/>
</g>
<path d="M82 10V35H106C104.193 32.6397 86.3118 14.7577 82 10Z" fill="#88C4EB"/>
<path d="M19.3674 30.6364V51H16.9015V30.6364H19.3674ZM24.3116 30.6364H27.2548L34.1752 47.5398H34.4139L41.3343 30.6364H44.2775V51H41.9707V35.5284H41.7718L35.4082 51H33.1809L26.8173 35.5284H26.6184V51H24.3116V30.6364ZM63.1422 37C62.9235 36.3305 62.6351 35.7306 62.2772 35.2003C61.9258 34.6634 61.5049 34.206 61.0144 33.8281C60.5305 33.4503 59.9803 33.1619 59.3638 32.9631C58.7473 32.7642 58.0712 32.6648 57.3354 32.6648C56.129 32.6648 55.0319 32.9763 54.0442 33.5994C53.0565 34.2225 52.271 35.1406 51.6877 36.3537C51.1043 37.5668 50.8127 39.0549 50.8127 40.8182C50.8127 42.5814 51.1077 44.0696 51.6976 45.2827C52.2876 46.4957 53.0864 47.4138 54.0939 48.0369C55.1015 48.66 56.235 48.9716 57.4945 48.9716C58.6612 48.9716 59.6886 48.723 60.5769 48.2259C61.4718 47.7221 62.1678 47.0128 62.665 46.098C63.1687 45.1766 63.4206 44.0928 63.4206 42.8466L64.1763 43.0057H58.0513V40.8182H65.807V43.0057C65.807 44.6828 65.449 46.1411 64.7331 47.3807C64.0239 48.6203 63.0428 49.5814 61.79 50.2642C60.5437 50.9403 59.1119 51.2784 57.4945 51.2784C55.6915 51.2784 54.1072 50.8542 52.7417 50.0057C51.3828 49.1572 50.3221 47.9508 49.5598 46.3864C48.8042 44.822 48.4263 42.9659 48.4263 40.8182C48.4263 39.2074 48.6417 37.759 49.0726 36.473C49.5101 35.1804 50.1266 34.08 50.9221 33.1719C51.7175 32.2637 52.6588 31.5677 53.7459 31.0838C54.833 30.5999 56.0295 30.358 57.3354 30.358C58.4093 30.358 59.4102 30.5204 60.3382 30.8452C61.2729 31.1634 62.1048 31.6174 62.834 32.2074C63.5698 32.7907 64.1829 33.4901 64.6735 34.3054C65.164 35.1141 65.5021 36.0123 65.6877 37H63.1422Z" fill="#D9E7F0"/>
<g clip-path="url(#clip0_345_6607)">
<path d="M84 105H41V74H84V105ZM43 103H82V76H43V103Z" fill="#88C4EB"/>
<path d="M42.9999 94L49.9999 82L53.9999 91L55.9999 87L60.9999 96C60.9999 96 64.127 96.867 66.9999 96C69.8728 95.133 74.0177 91.6584 81.9999 96V103H42.9999V94Z" fill="#88C4EB"/>
<path d="M76 83C76 83.5934 75.824 84.1735 75.4943 84.6668C75.1646 85.1602 74.696 85.5447 74.1478 85.7717C73.5995 85.9988 72.9963 86.0581 72.4143 85.9423C71.8323 85.8264 71.2978 85.5406 70.8783 85.1209C70.4588 84.7012 70.1731 84.1666 70.0575 83.5846C69.9419 83.0025 70.0015 82.3993 70.2287 81.8512C70.4559 81.303 70.8406 80.8345 71.3341 80.505C71.8276 80.1755 72.4078 79.9998 73.0011 80C73.3951 80 73.7851 80.0776 74.149 80.2284C74.5129 80.3792 74.8436 80.6002 75.1221 80.8787C75.4005 81.1573 75.6214 81.4881 75.7721 81.852C75.9227 82.216 76.0002 82.6061 76 83Z" fill="#88C4EB"/>
</g>
<defs>
<filter id="filter0_d_345_6607" x="17" y="10" width="91" height="119" filterUnits="userSpaceOnUse" color-interpolation-filters="sRGB">
<feFlood flood-opacity="0" result="BackgroundImageFix"/>
<feColorMatrix in="SourceAlpha" type="matrix" values="0 0 0 0 0 0 0 0 0 0 0 0 0 0 0 0 0 0 127 0" result="hardAlpha"/>
<feOffset dy="2"/>
<feGaussianBlur stdDeviation="1"/>
<feComposite in2="hardAlpha" operator="out"/>
<feColorMatrix type="matrix" values="0 0 0 0 0.430625 0 0 0 0 0.565885 0 0 0 0 0.6625 0 0 0 0.29 0"/>
<feBlend mode="normal" in2="BackgroundImageFix" result="effect1_dropShadow_345_6607"/>
<feBlend mode="normal" in="SourceGraphic" in2="effect1_dropShadow_345_6607" result="shape"/>
</filter>
<filter id="filter1_d_345_6607" x="4" y="26" width="73" height="33" filterUnits="userSpaceOnUse" color-interpolation-filters="sRGB">
<feFlood flood-opacity="0" result="BackgroundImageFix"/>
<feColorMatrix in="SourceAlpha" type="matrix" values="0 0 0 0 0 0 0 0 0 0 0 0 0 0 0 0 0 0 127 0" result="hardAlpha"/>
<feOffset dy="2"/>
<feGaussianBlur stdDeviation="1"/>
<feComposite in2="hardAlpha" operator="out"/>
<feColorMatrix type="matrix" values="0 0 0 0 0.430625 0 0 0 0 0.565885 0 0 0 0 0.6625 0 0 0 0.29 0"/>
<feBlend mode="normal" in2="BackgroundImageFix" result="effect1_dropShadow_345_6607"/>
<feBlend mode="normal" in="SourceGraphic" in2="effect1_dropShadow_345_6607" result="shape"/>
</filter>
<clipPath id="clip0_345_6607">
<rect width="43" height="31" fill="white" transform="translate(41 74)"/>
</clipPath>
</defs>
</svg>
