<svg width="120" height="130" viewBox="0 0 120 130" fill="none" xmlns="http://www.w3.org/2000/svg">
<g filter="url(#filter0_d_345_6642)">
<path d="M106 122C106 123.924 104.843 125 103 125H22C20.1572 125 19 123.924 19 122V14C18.9941 12.0838 20.1572 10 22 10H82C86.3797 14.7607 104.159 32.6331 106 35V122Z" fill="#D9E7F0"/>
</g>
<g filter="url(#filter1_d_345_6642)">
<path d="M75 26H6V55H75V26Z" fill="#167CBF"/>
</g>
<path d="M82 10V35H106C104.193 32.6397 86.3118 14.7577 82 10Z" fill="#88C4EB"/>
<path d="M15.7999 51V30.6364H22.6806C24.2781 30.6364 25.584 30.9247 26.5982 31.5014C27.619 32.0715 28.3747 32.8438 28.8652 33.8182C29.3558 34.7926 29.601 35.8797 29.601 37.0795C29.601 38.2794 29.3558 39.3698 28.8652 40.3509C28.3813 41.3319 27.6323 42.1141 26.6181 42.6974C25.6039 43.2741 24.3046 43.5625 22.7203 43.5625H17.7885V41.375H22.6408C23.7346 41.375 24.6129 41.1861 25.2757 40.8082C25.9386 40.4304 26.4192 39.92 26.7175 39.277C27.0224 38.6274 27.1749 37.8949 27.1749 37.0795C27.1749 36.2642 27.0224 35.535 26.7175 34.892C26.4192 34.2491 25.9353 33.7453 25.2658 33.3807C24.5963 33.0095 23.708 32.8239 22.601 32.8239H18.2658V51H15.7999ZM39.8574 51H33.5733V30.6364H40.1358C42.1112 30.6364 43.8016 31.044 45.2069 31.8594C46.6122 32.6681 47.6893 33.8314 48.4384 35.3494C49.1874 36.8608 49.562 38.6705 49.562 40.7784C49.562 42.8996 49.1841 44.7259 48.4284 46.2571C47.6728 47.7817 46.5724 48.955 45.1273 49.777C43.6822 50.5923 41.9256 51 39.8574 51ZM36.0392 48.8125H39.6983C41.382 48.8125 42.7774 48.4877 43.8844 47.8381C44.9914 47.1884 45.8167 46.2637 46.3603 45.0639C46.9038 43.8641 47.1756 42.4356 47.1756 40.7784C47.1756 39.1345 46.9071 37.7192 46.3702 36.5327C45.8333 35.3395 45.0312 34.4247 43.964 33.7884C42.8967 33.1454 41.5676 32.8239 39.9767 32.8239H36.0392V48.8125ZM53.6983 51V30.6364H65.9086V32.8239H56.1642V39.7045H64.9938V41.892H56.1642V51H53.6983Z" fill="#D9E7F0"/>
<path fill-rule="evenodd" clip-rule="evenodd" d="M64.4552 71.8628C64.3958 74.7461 63.7764 77.5443 63.006 80.315C62.6782 81.4898 62.2936 82.6496 61.9465 83.8144C61.9031 83.9478 61.9104 84.0919 61.9671 84.2206C64.1313 87.8987 66.6748 91.298 69.8301 94.2488C69.9036 94.3258 69.997 94.3825 70.1006 94.413C70.2043 94.4435 70.3144 94.4468 70.4198 94.4225C73.6964 93.9026 76.9897 93.5939 80.314 93.7976C82.149 93.9151 83.9648 94.1613 85.6308 94.9774C86.126 95.2159 86.5843 95.5205 86.9922 95.8822C87.3737 96.219 87.6622 96.6427 87.8315 97.1149C88.0008 97.5872 88.0456 98.0929 87.9617 98.5861C87.8778 99.0794 87.668 99.5445 87.3513 99.9392C87.0346 100.334 86.6211 100.646 86.1483 100.846C84.9971 101.354 83.7686 101.395 82.5349 101.311C78.6751 101.053 75.3082 99.5615 72.2265 97.3882C71.4522 96.8383 70.7257 96.2096 69.9643 95.6385C69.8349 95.5431 69.6732 95.4984 69.5113 95.5135C64.7504 96.3512 60.0629 97.5415 55.4902 99.0741C55.3277 99.137 55.1915 99.2504 55.103 99.3966C53.5312 102.087 51.8407 104.694 49.843 107.101C48.4945 108.726 47.0401 110.248 45.2695 111.456C44.1455 112.22 42.9467 112.822 41.5542 112.968C40.4083 113.093 39.3243 112.892 38.3577 112.255C37.0259 111.377 36.6349 109.867 37.3602 108.404C37.9086 107.299 38.7797 106.445 39.7256 105.664C41.7568 103.993 44.0539 102.718 46.4426 101.604C47.9641 100.894 49.5294 100.274 51.069 99.604C51.2366 99.5302 51.3777 99.4097 51.4742 99.2578C53.8151 95.2311 55.6773 90.9956 57.3459 86.6764C57.9524 85.1079 58.5073 83.5232 59.0984 81.9485C59.135 81.8593 59.1517 81.7637 59.1475 81.6679C59.1432 81.572 59.1182 81.4781 59.0739 81.3923C57.9486 78.9665 57.0788 76.4607 56.6013 73.8362C56.2735 72.0328 56.0928 70.2119 56.4542 68.3997C56.5612 67.8354 56.743 67.2868 56.9949 66.7675C57.8892 64.9916 59.9953 64.4867 61.8987 65.5715C62.7659 66.0714 63.3067 66.8387 63.6938 67.7173C64.281 69.0383 64.4578 70.4331 64.4552 71.8628ZM61.5013 85.2466C59.9191 89.5834 58.2621 93.8388 55.9625 97.9243C60.2418 96.5683 64.4887 95.4448 68.8958 94.6749C65.9392 91.8554 63.5841 88.671 61.5013 85.2466ZM50.5257 100.869C50.4224 100.898 50.385 100.904 50.3502 100.918C48.0054 101.881 45.7109 102.938 43.5287 104.214C42.0614 105.068 40.6496 106.002 39.452 107.198C38.8649 107.78 38.3383 108.407 38.0764 109.197C37.6182 110.58 38.6235 111.829 40.1115 111.712C40.4383 111.682 40.7593 111.608 41.0651 111.492C41.9233 111.174 42.6447 110.642 43.3286 110.063C44.783 108.829 46.0012 107.391 47.1446 105.889C48.361 104.274 49.4895 102.598 50.5257 100.869ZM71.0121 95.2673C71.3296 95.5235 71.5877 95.7372 71.8523 95.9409C74.2513 97.7994 76.8722 99.2416 79.8752 99.974C80.9231 100.224 81.9632 100.274 82.9904 99.894C84.068 99.4953 84.6874 98.6779 84.7261 97.6194C84.7649 96.5608 84.237 95.761 83.1595 95.2798C82.9958 95.2056 82.8267 95.1429 82.6536 95.0923C81.4057 94.7324 80.1165 94.6824 78.8286 94.6462C76.8152 94.6035 74.8014 94.7189 72.8072 94.9911C72.2304 95.0599 71.66 95.1623 71.0121 95.2623V95.2673ZM59.6688 80.3388C59.723 80.1851 59.7552 80.1051 59.7785 80.0238C60.1914 78.5991 60.6418 77.1844 61.0083 75.7496C61.5245 73.725 61.931 71.6766 61.9658 69.5795C61.9813 68.6672 61.9168 67.7623 61.4419 66.9425C60.745 65.7364 59.1474 65.5827 58.2647 66.6625C57.964 67.0505 57.7412 67.4897 57.6079 67.9573C57.1769 69.3745 57.2285 70.8318 57.382 72.279C57.6105 74.4224 58.1796 76.4895 58.9371 78.5091C59.159 79.1003 59.4068 79.6839 59.6688 80.3338V80.3388Z" fill="#88C4EB"/>
<defs>
<filter id="filter0_d_345_6642" x="17" y="10" width="91" height="119" filterUnits="userSpaceOnUse" color-interpolation-filters="sRGB">
<feFlood flood-opacity="0" result="BackgroundImageFix"/>
<feColorMatrix in="SourceAlpha" type="matrix" values="0 0 0 0 0 0 0 0 0 0 0 0 0 0 0 0 0 0 127 0" result="hardAlpha"/>
<feOffset dy="2"/>
<feGaussianBlur stdDeviation="1"/>
<feComposite in2="hardAlpha" operator="out"/>
<feColorMatrix type="matrix" values="0 0 0 0 0.430625 0 0 0 0 0.565885 0 0 0 0 0.6625 0 0 0 0.29 0"/>
<feBlend mode="normal" in2="BackgroundImageFix" result="effect1_dropShadow_345_6642"/>
<feBlend mode="normal" in="SourceGraphic" in2="effect1_dropShadow_345_6642" result="shape"/>
</filter>
<filter id="filter1_d_345_6642" x="4" y="26" width="73" height="33" filterUnits="userSpaceOnUse" color-interpolation-filters="sRGB">
<feFlood flood-opacity="0" result="BackgroundImageFix"/>
<feColorMatrix in="SourceAlpha" type="matrix" values="0 0 0 0 0 0 0 0 0 0 0 0 0 0 0 0 0 0 127 0" result="hardAlpha"/>
<feOffset dy="2"/>
<feGaussianBlur stdDeviation="1"/>
<feComposite in2="hardAlpha" operator="out"/>
<feColorMatrix type="matrix" values="0 0 0 0 0.430625 0 0 0 0 0.565885 0 0 0 0 0.6625 0 0 0 0.29 0"/>
<feBlend mode="normal" in2="BackgroundImageFix" result="effect1_dropShadow_345_6642"/>
<feBlend mode="normal" in="SourceGraphic" in2="effect1_dropShadow_345_6642" result="shape"/>
</filter>
</defs>
</svg>
