<svg width="120" height="130" viewBox="0 0 120 130" fill="none" xmlns="http://www.w3.org/2000/svg">
<g filter="url(#filter0_d_345_7077)">
<path d="M106 122C106 123.924 104.843 125 103 125H22C20.1572 125 19 123.924 19 122V14C18.9941 12.0838 20.1572 10 22 10H82C86.3797 14.7607 104.159 32.6331 106 35V122Z" fill="#D9E7F0"/>
</g>
<path d="M82 10V35H106C104.193 32.6397 86.3118 14.7577 82 10Z" fill="#88C4EB"/>
<g clip-path="url(#clip0_345_7077)">
<path d="M68.8333 82.1667H67.9167C67.5719 82.1674 67.2634 81.9523 67.145 81.6284C67.0433 81.3617 66.9342 81.1009 66.8167 80.8426C66.6706 80.5284 66.7373 80.1564 66.9833 79.9126L67.6367 79.2584C68.6066 78.28 68.6048 76.7021 67.6325 75.7259L65.2775 73.3709C64.3001 72.3992 62.7216 72.3992 61.7442 73.3709L61.0908 74.0234C60.8465 74.2685 60.4751 74.3351 60.1608 74.1901C59.9025 74.0726 59.6417 73.9634 59.3742 73.8567C59.0486 73.7391 58.8321 73.4296 58.8333 73.0834V72.1667C58.8333 70.786 57.7141 69.6667 56.3333 69.6667H53C51.6193 69.6667 50.5 70.786 50.5 72.1667V73.0834C50.5006 73.4282 50.2855 73.7366 49.9617 73.8551C49.695 73.9567 49.4342 74.0659 49.1758 74.1834C48.8616 74.3287 48.4901 74.2622 48.2458 74.0167L47.5917 73.3634C46.6144 72.3924 45.0365 72.3924 44.0592 73.3634L41.7042 75.7259C40.7325 76.7033 40.7325 78.2819 41.7042 79.2592L42.3567 79.9126C42.6027 80.1564 42.6694 80.5284 42.5233 80.8426C42.4058 81.1009 42.2967 81.3617 42.1942 81.6292C42.0749 81.955 41.7635 82.1703 41.4167 82.1667H40.5C39.1193 82.1667 38 83.286 38 84.6667V88.0001C38 89.3808 39.1193 90.5001 40.5 90.5001H41.4167C41.7615 90.4995 42.0699 90.7146 42.1883 91.0384C42.29 91.3051 42.3992 91.5659 42.5167 91.8242C42.6627 92.1384 42.596 92.5104 42.35 92.7543L41.6967 93.4084C40.7256 94.3857 40.7256 95.9636 41.6967 96.9409L44.0517 99.2959C45.0291 100.268 46.6076 100.268 47.585 99.2959L48.2383 98.6434C48.4827 98.3983 48.8541 98.3317 49.1683 98.4767C49.4267 98.5942 49.6875 98.7034 49.955 98.8101C50.2822 98.9263 50.5006 99.2362 50.5 99.5834V100.5C50.5 101.881 51.6193 103 53 103H56.3333C57.7141 103 58.8333 101.881 58.8333 100.5V99.5834C58.8327 99.2386 59.0478 98.9302 59.3717 98.8117C59.6383 98.7101 59.8992 98.6009 60.1575 98.4834C60.4718 98.3381 60.8432 98.4047 61.0875 98.6501L61.7417 99.3034C62.7203 100.273 64.2978 100.271 65.2742 99.2992L67.6292 96.9443C68.6008 95.9669 68.6008 94.3883 67.6292 93.4109L66.9767 92.7576C66.7306 92.5137 66.664 92.1417 66.81 91.8276C66.9275 91.5692 67.0367 91.3084 67.1433 91.0409C67.2609 90.7154 67.5705 90.4988 67.9167 90.5001H68.8333C70.2141 90.5001 71.3333 89.3808 71.3333 88.0001V84.6667C71.3333 83.286 70.2141 82.1667 68.8333 82.1667ZM69.6667 88.0001C69.6667 88.4603 69.2935 88.8334 68.8333 88.8334H67.9167C66.8807 88.8373 65.9536 89.4776 65.5833 90.4451C65.495 90.6784 65.3995 90.9081 65.2967 91.1343C64.8682 92.0801 65.067 93.1922 65.7967 93.9309L66.4483 94.5834C66.774 94.9086 66.7743 95.4363 66.449 95.762C66.4487 95.7622 66.4485 95.7624 66.4483 95.7626L64.0933 98.1176C63.7679 98.4429 63.2404 98.4429 62.915 98.1176L62.2617 97.4651C61.5232 96.7348 60.4107 96.5359 59.465 96.9651C59.2392 97.0676 59.0092 97.1634 58.7775 97.2518C57.8107 97.622 57.1708 98.5482 57.1667 99.5834V100.5C57.1667 100.96 56.7935 101.333 56.3333 101.333H53C52.5398 101.333 52.1667 100.96 52.1667 100.5V99.5834C52.1628 98.5475 51.5225 97.6204 50.555 97.2501C50.3217 97.1617 50.092 97.0662 49.8658 96.9634C48.92 96.5352 47.808 96.734 47.0692 97.4634L46.4167 98.1151C46.0915 98.4407 45.5638 98.441 45.2381 98.1157C45.2379 98.1155 45.2377 98.1153 45.2375 98.1151L42.8825 95.7626C42.5572 95.4372 42.5572 94.9097 42.8825 94.5842L43.535 93.9309C44.2647 93.1922 44.4634 92.0801 44.035 91.1343C43.9325 90.9084 43.8367 90.6784 43.7483 90.4468C43.379 89.4789 42.4525 88.838 41.4167 88.8334H40.5C40.0398 88.8334 39.6667 88.4603 39.6667 88.0001V84.6667C39.6667 84.2065 40.0398 83.8334 40.5 83.8334H41.4167C42.4526 83.8296 43.3797 83.1892 43.75 82.2218C43.8383 81.9884 43.9339 81.7587 44.0367 81.5326C44.4651 80.5867 44.2663 79.4747 43.5367 78.7359L42.8817 78.0834C42.556 77.7582 42.5557 77.2305 42.881 76.9049C42.8813 76.9047 42.8815 76.9045 42.8817 76.9042L45.2367 74.5492C45.5621 74.2239 46.0896 74.2239 46.415 74.5492L47.0683 75.2017C47.8068 75.9321 48.9193 76.1309 49.865 75.7017C50.0908 75.5992 50.3208 75.5034 50.5525 75.4151C51.5206 75.046 52.162 74.1195 52.1667 73.0834V72.1667C52.1667 71.7065 52.5398 71.3334 53 71.3334H56.3333C56.7935 71.3334 57.1667 71.7065 57.1667 72.1667V73.0834C57.1705 74.1194 57.8108 75.0464 58.7783 75.4167C59.0117 75.5051 59.2414 75.6006 59.4675 75.7034C60.4132 76.1326 61.5257 75.9337 62.2642 75.2034L62.9167 74.5517C63.2433 74.2286 63.7692 74.2286 64.0958 74.5517L66.4508 76.9067C66.7761 77.2322 66.7761 77.7597 66.4508 78.0851L65.7983 78.7384C65.0688 79.4772 64.8699 80.5892 65.2983 81.5351C65.4008 81.7609 65.4967 81.9909 65.585 82.2226C65.9552 83.1894 66.8815 83.8292 67.9167 83.8334H68.8333C69.2935 83.8334 69.6667 84.2065 69.6667 84.6667V88.0001Z" fill="#88C4EB"/>
<path d="M62.15 85.9999C62.1417 85.7999 62.1275 85.6008 62.1033 85.4024C62.0767 85.1891 62.045 84.9774 62.0008 84.7699C61.9717 84.6341 61.9333 84.4999 61.8967 84.3649C61.85 84.1933 61.7975 84.0241 61.7392 83.8574C61.6983 83.7416 61.6558 83.6266 61.6125 83.5124C61.5052 83.2455 61.3825 82.985 61.245 82.7324C61.2342 82.7133 61.2275 82.6924 61.2167 82.6733C60.9999 82.2874 60.7489 81.9217 60.4667 81.5808C60.4425 81.5508 60.415 81.5224 60.39 81.4933C60.275 81.3574 60.1567 81.2258 60.0325 81.0999C59.9675 81.0324 59.8992 80.9691 59.8308 80.9041C59.7475 80.8266 59.6642 80.7499 59.5808 80.6766C59.4797 80.5888 59.3767 80.5038 59.2717 80.4216L59.135 80.3199C57.8455 79.3541 56.2777 78.8324 54.6667 78.8333C54.5833 78.8333 54.5 78.8458 54.4167 78.8491C54.2392 78.8541 54.0608 78.8641 53.8817 78.8824C53.7875 78.8924 53.6925 78.9033 53.5983 78.9166C53.3267 78.9523 53.0571 79.0027 52.7908 79.0674C48.7782 80.1043 46.3659 84.1978 47.4028 88.2104C48.0862 90.8546 50.152 92.9188 52.7967 93.5999C52.81 93.5999 52.8242 93.6041 52.8383 93.6074C53.1262 93.6792 53.4177 93.7349 53.7117 93.7741C53.9058 93.7983 54.1 93.8033 54.295 93.8124C54.425 93.8191 54.545 93.8383 54.6808 93.8383C54.9183 93.8383 55.165 93.8224 55.4167 93.7974C55.4433 93.7974 55.47 93.7899 55.5 93.7866C55.7025 93.7641 55.9075 93.7341 56.1167 93.6924C56.2 93.6766 56.2775 93.6558 56.3575 93.6374C56.5042 93.6033 56.65 93.5674 56.8 93.5233C56.9167 93.4883 57.03 93.4474 57.1442 93.4074C57.2583 93.3674 57.3767 93.3241 57.495 93.2791C57.6133 93.2341 57.7125 93.1824 57.82 93.1324C57.96 93.0683 58.0992 93.0049 58.2367 92.9299H58.2417C59.0194 92.5136 59.7377 91.9948 60.3775 91.3874C60.5503 91.2262 60.7006 91.0422 60.8242 90.8408C61.4746 89.798 61.9019 88.6319 62.0792 87.4158C62.1025 87.2549 62.1233 87.0941 62.1358 86.9299C62.1475 86.7791 62.1558 86.6291 62.1592 86.4791C62.1592 86.4316 62.1658 86.3866 62.1658 86.3391C62.1667 86.2216 62.155 86.1133 62.15 85.9999ZM60.4892 86.5458C60.4892 86.6149 60.4833 86.6841 60.4792 86.7524C60.4642 86.9541 60.4383 87.1558 60.4042 87.3583C60.0927 89.0909 59.017 90.5909 57.4758 91.4416C57.3725 91.4958 57.2708 91.5466 57.1692 91.5933L57.1 91.6266C56.6158 91.8464 56.1048 92.0011 55.58 92.0866C55.5433 92.0924 55.5058 92.0991 55.4683 92.1041C55.3642 92.1191 55.2617 92.1316 55.16 92.1408C55.0258 92.1524 54.8908 92.1591 54.7533 92.1616C54.695 92.1616 54.6375 92.1616 54.5792 92.1616C54.382 92.1593 54.1851 92.1471 53.9892 92.1249L53.8892 92.1133C53.66 92.0833 53.4327 92.0404 53.2083 91.9849C50.0873 91.1861 48.2048 88.0084 49.0036 84.8873C49.5314 82.825 51.1407 81.214 53.2025 80.6841V80.6833C53.6813 80.5625 54.1729 80.5009 54.6667 80.4999C54.9049 80.5013 55.1429 80.5174 55.3792 80.5483C55.4425 80.5558 55.505 80.5674 55.5675 80.5766C55.7475 80.6049 55.9258 80.6408 56.1017 80.6858C56.1592 80.7008 56.2167 80.7141 56.2733 80.7299C56.7165 80.8578 57.143 81.0374 57.5442 81.2649C57.6083 81.3024 57.6708 81.3416 57.7342 81.3808C57.8658 81.4641 57.9933 81.5474 58.1192 81.6424C58.1867 81.6916 58.255 81.7399 58.32 81.7924C58.4836 81.923 58.6401 82.0621 58.7892 82.2091C58.8483 82.2691 58.9025 82.3349 58.96 82.3974C59.0558 82.5016 59.1492 82.6083 59.2383 82.7208C59.3 82.7983 59.3592 82.8783 59.4175 82.9591C59.5008 83.0791 59.5842 83.2041 59.6592 83.3308C59.7008 83.3999 59.7425 83.4674 59.785 83.5383C59.8925 83.7361 59.9882 83.94 60.0717 84.1491C60.105 84.2324 60.1333 84.3158 60.1633 84.3991C60.2175 84.5524 60.2642 84.7074 60.305 84.8641C60.3258 84.9474 60.3492 85.0216 60.3667 85.1024C60.4153 85.3276 60.4506 85.5555 60.4725 85.7849C60.4775 85.8458 60.4775 85.9074 60.4817 85.9683C60.4933 86.1599 60.4967 86.3524 60.4892 86.5458Z" fill="#88C4EB"/>
<path d="M85.5 70.5H82.8792C82.5297 70.5035 82.2171 70.2834 82.1025 69.9533C81.8441 69.1793 81.5314 68.4243 81.1667 67.6942C81.0119 67.3789 81.0764 66.9998 81.3267 66.7533L83.185 64.8925C84.1604 63.9164 84.1604 62.3345 83.185 61.3583L79.6417 57.8208C78.6655 56.8454 77.0837 56.8454 76.1075 57.8208L74.25 59.6775C74.0039 59.9277 73.6253 59.9925 73.31 59.8383C72.5798 59.4718 71.8246 59.1574 71.05 58.8975C70.7186 58.7841 70.4969 58.4711 70.5 58.1208V55.5C70.5 54.1193 69.3807 53 68 53H63C61.6193 53 60.5 54.1193 60.5 55.5V58.1208C60.5036 58.4703 60.2836 58.7829 59.9533 58.8975C59.1792 59.1573 58.4242 59.4715 57.6942 59.8375C57.3789 59.9928 56.9996 59.9283 56.7533 59.6775L54.8925 57.8192C53.9152 56.8466 52.3356 56.8466 51.3583 57.8192L47.8217 61.3558C46.8457 62.3321 46.8457 63.9146 47.8217 64.8908L50.5542 67.6283C50.8847 67.9485 51.4123 67.9402 51.7325 67.6096C52.0449 67.2871 52.0456 66.775 51.7342 66.4517L49 63.715C48.6747 63.3896 48.6747 62.8621 49 62.5367L52.5367 59C52.8621 58.6747 53.3896 58.6747 53.715 59L55.5767 60.8583C56.3299 61.616 57.4841 61.8054 58.44 61.3283C59.1001 60.9978 59.7826 60.7141 60.4825 60.4792C61.4927 60.1372 62.1711 59.1874 62.1667 58.1208V55.5C62.1667 55.0398 62.5398 54.6667 63 54.6667H68C68.4602 54.6667 68.8333 55.0398 68.8333 55.5V58.1208C68.8291 59.1872 69.5074 60.1367 70.5175 60.4783C71.2177 60.7133 71.9005 60.9973 72.5608 61.3283C73.517 61.8029 74.6696 61.6133 75.4233 60.8575L77.285 59C77.6104 58.6747 78.1379 58.6747 78.4633 59L82 62.5375C82.3248 62.8628 82.3248 63.3897 82 63.715L80.1417 65.5767C79.3847 66.3303 79.1954 67.484 79.6717 68.44C80.0022 69.1001 80.2859 69.7826 80.5208 70.4825C80.8626 71.4929 81.8125 72.1713 82.8792 72.1667H85.5C85.9602 72.1667 86.3333 72.5398 86.3333 73V78C86.3333 78.4602 85.9602 78.8333 85.5 78.8333H82.8792C81.8128 78.8291 80.8633 79.5074 80.5217 80.5175C80.2868 81.2177 80.0027 81.9005 79.6717 82.5608C79.1963 83.5169 79.3859 84.6699 80.1425 85.4233L82.0008 87.285C82.3262 87.6104 82.3262 88.1379 82.0008 88.4633L78.4625 92C78.1372 92.3248 77.6103 92.3248 77.285 92L74.5467 89.2675C74.2265 88.9369 73.6989 88.9285 73.3683 89.2488C73.0377 89.569 73.0294 90.0966 73.3496 90.4271C73.3563 90.434 73.3631 90.4408 73.37 90.4475L76.1075 93.18C77.0837 94.1554 78.6655 94.1554 79.6417 93.18L83.1783 89.6442C84.1543 88.6679 84.1543 87.0854 83.1783 86.1092L81.3225 84.25C81.0725 84.0038 81.0078 83.6253 81.1617 83.31C81.5282 82.5798 81.8426 81.8246 82.1025 81.05C82.216 80.7185 82.5289 80.4969 82.8792 80.5H85.5C86.8807 80.5 88 79.3807 88 78V73C88 71.6193 86.8807 70.5 85.5 70.5Z" fill="#88C4EB"/>
<path d="M73.16 67.8401C68.9268 63.6158 62.0731 63.6158 57.84 67.8401C57.5203 68.1711 57.5294 68.6987 57.8605 69.0184C58.1834 69.3303 58.6954 69.3303 59.0183 69.0184C62.574 65.4147 68.3779 65.3758 71.9816 68.9315C75.5854 72.4873 75.6242 78.2911 72.0685 81.8949C72.0398 81.924 72.0108 81.953 71.9816 81.9817C71.6506 82.3015 71.6414 82.829 71.9612 83.1601C72.281 83.4911 72.8085 83.5003 73.1396 83.1805C73.1464 83.1738 73.1533 83.167 73.16 83.1601C77.3842 78.927 77.3842 72.0732 73.16 67.8401Z" fill="#88C4EB"/>
</g>
<defs>
<filter id="filter0_d_345_7077" x="17" y="10" width="91" height="119" filterUnits="userSpaceOnUse" color-interpolation-filters="sRGB">
<feFlood flood-opacity="0" result="BackgroundImageFix"/>
<feColorMatrix in="SourceAlpha" type="matrix" values="0 0 0 0 0 0 0 0 0 0 0 0 0 0 0 0 0 0 127 0" result="hardAlpha"/>
<feOffset dy="2"/>
<feGaussianBlur stdDeviation="1"/>
<feComposite in2="hardAlpha" operator="out"/>
<feColorMatrix type="matrix" values="0 0 0 0 0.430625 0 0 0 0 0.565885 0 0 0 0 0.6625 0 0 0 0.29 0"/>
<feBlend mode="normal" in2="BackgroundImageFix" result="effect1_dropShadow_345_7077"/>
<feBlend mode="normal" in="SourceGraphic" in2="effect1_dropShadow_345_7077" result="shape"/>
</filter>
<clipPath id="clip0_345_7077">
<rect width="50" height="50" fill="white" transform="translate(38 53)"/>
</clipPath>
</defs>
</svg>
