<svg width="120" height="130" viewBox="0 0 120 130" fill="none" xmlns="http://www.w3.org/2000/svg">
<g filter="url(#filter0_d_345_7063)">
<path d="M106 122C106 123.924 104.843 125 103 125H22C20.1572 125 19 123.924 19 122V14C18.9941 12.0838 20.1572 10 22 10H82C86.3797 14.7607 104.159 32.6331 106 35V122Z" fill="#D9E7F0"/>
</g>
<g filter="url(#filter1_d_345_7063)">
<path d="M75 26H6V55H75V26Z" fill="#167CBF"/>
</g>
<path d="M82 10V35H106C104.193 32.6397 86.3118 14.7577 82 10Z" fill="#88C4EB"/>
<path d="M18.8739 30.6364L24.1239 39.108H24.283L29.533 30.6364H32.4364L26.033 40.8182L32.4364 51H29.533L24.283 42.6875H24.1239L18.8739 51H15.9705L22.533 40.8182L15.9705 30.6364H18.8739ZM35.6456 51V30.6364H38.1115V48.8125H47.5774V51H35.6456ZM62.532 35.7273C62.4126 34.7197 61.9287 33.9375 61.0803 33.3807C60.2318 32.8239 59.1911 32.5455 57.9581 32.5455C57.0566 32.5455 56.2678 32.6913 55.5916 32.983C54.9221 33.2746 54.3984 33.6757 54.0206 34.1861C53.6494 34.6965 53.4638 35.2765 53.4638 35.9261C53.4638 36.4697 53.593 36.937 53.8516 37.3281C54.1167 37.7126 54.4548 38.0341 54.8658 38.2926C55.2768 38.5445 55.7076 38.7533 56.1584 38.919C56.6091 39.0781 57.0234 39.2074 57.4013 39.3068L59.4695 39.8636C59.9998 40.0028 60.5897 40.1951 61.2393 40.4403C61.8956 40.6856 62.522 41.0204 63.1186 41.4446C63.7218 41.8622 64.219 42.3991 64.6101 43.0554C65.0012 43.7116 65.1967 44.517 65.1967 45.4716C65.1967 46.572 64.9084 47.5663 64.3317 48.4545C63.7616 49.3428 62.9264 50.0488 61.826 50.5724C60.7322 51.0961 59.4032 51.358 57.8388 51.358C56.3804 51.358 55.1177 51.1226 54.0504 50.652C52.9898 50.1813 52.1546 49.5251 51.5447 48.6832C50.9415 47.8414 50.6001 46.8636 50.5206 45.75H53.0661C53.1323 46.5189 53.3909 47.1553 53.8416 47.6591C54.299 48.1562 54.8757 48.5275 55.5717 48.7727C56.2744 49.0114 57.0301 49.1307 57.8388 49.1307C58.7801 49.1307 59.6252 48.9782 60.3743 48.6733C61.1233 48.3617 61.7166 47.9309 62.1541 47.3807C62.5916 46.8239 62.8104 46.1742 62.8104 45.4318C62.8104 44.7557 62.6214 44.2055 62.2436 43.7812C61.8658 43.357 61.3686 43.0123 60.7521 42.7472C60.1357 42.482 59.4695 42.25 58.7536 42.0511L56.2479 41.3352C54.657 40.8778 53.3975 40.2249 52.4695 39.3764C51.5414 38.5279 51.0774 37.4176 51.0774 36.0455C51.0774 34.9053 51.3857 33.911 52.0021 33.0625C52.6252 32.2074 53.4605 31.5445 54.5078 31.0739C55.5618 30.5966 56.7384 30.358 58.0376 30.358C59.3501 30.358 60.5168 30.5933 61.5376 31.0639C62.5585 31.5279 63.3672 32.1643 63.9638 32.973C64.567 33.7817 64.8852 34.6998 64.9183 35.7273H62.532Z" fill="#D9E7F0"/>
<path d="M34 104V68H91V104H34Z" stroke="#88C4EB" stroke-width="2"/>
<path d="M35 80H90" stroke="#88C4EB" stroke-width="2"/>
<path d="M72 69L72 103" stroke="#88C4EB" stroke-width="2"/>
<path d="M35 92H90" stroke="#88C4EB" stroke-width="2"/>
<path d="M53 69L53 103" stroke="#88C4EB" stroke-width="2"/>
<defs>
<filter id="filter0_d_345_7063" x="17" y="10" width="91" height="119" filterUnits="userSpaceOnUse" color-interpolation-filters="sRGB">
<feFlood flood-opacity="0" result="BackgroundImageFix"/>
<feColorMatrix in="SourceAlpha" type="matrix" values="0 0 0 0 0 0 0 0 0 0 0 0 0 0 0 0 0 0 127 0" result="hardAlpha"/>
<feOffset dy="2"/>
<feGaussianBlur stdDeviation="1"/>
<feComposite in2="hardAlpha" operator="out"/>
<feColorMatrix type="matrix" values="0 0 0 0 0.430625 0 0 0 0 0.565885 0 0 0 0 0.6625 0 0 0 0.29 0"/>
<feBlend mode="normal" in2="BackgroundImageFix" result="effect1_dropShadow_345_7063"/>
<feBlend mode="normal" in="SourceGraphic" in2="effect1_dropShadow_345_7063" result="shape"/>
</filter>
<filter id="filter1_d_345_7063" x="4" y="26" width="73" height="33" filterUnits="userSpaceOnUse" color-interpolation-filters="sRGB">
<feFlood flood-opacity="0" result="BackgroundImageFix"/>
<feColorMatrix in="SourceAlpha" type="matrix" values="0 0 0 0 0 0 0 0 0 0 0 0 0 0 0 0 0 0 127 0" result="hardAlpha"/>
<feOffset dy="2"/>
<feGaussianBlur stdDeviation="1"/>
<feComposite in2="hardAlpha" operator="out"/>
<feColorMatrix type="matrix" values="0 0 0 0 0.430625 0 0 0 0 0.565885 0 0 0 0 0.6625 0 0 0 0.29 0"/>
<feBlend mode="normal" in2="BackgroundImageFix" result="effect1_dropShadow_345_7063"/>
<feBlend mode="normal" in="SourceGraphic" in2="effect1_dropShadow_345_7063" result="shape"/>
</filter>
</defs>
</svg>
