<svg width="120" height="130" viewBox="0 0 120 130" fill="none" xmlns="http://www.w3.org/2000/svg">
<g filter="url(#filter0_d_345_6605)">
<path d="M106 122C106 123.924 104.843 125 103 125H22C20.1572 125 19 123.924 19 122V14C18.9941 12.0838 20.1572 10 22 10H82C86.3797 14.7607 104.159 32.6331 106 35V122Z" fill="#D9E7F0"/>
</g>
<path d="M54.9977 115C54.1279 114.992 53.2695 114.8 52.4776 114.439C51.6857 114.077 50.9778 113.553 50.3993 112.9C49.8944 112.36 49.5105 111.717 49.2736 111.015C49.0366 110.313 48.9522 109.568 49.0258 108.83L50.1406 98.8498C50.1765 98.6113 50.2971 98.394 50.48 98.2378C50.6629 98.0816 50.8958 97.997 51.1359 97.9998H58.8795C59.1195 97.997 59.3524 98.0816 59.5354 98.2378C59.7183 98.394 59.8388 98.6113 59.8748 98.8498L60.9697 108.83C61.0494 109.567 60.9716 110.311 60.7416 111.015C60.5116 111.719 60.1346 112.365 59.6359 112.91C59.0517 113.566 58.3369 114.09 57.5378 114.45C56.7388 114.81 55.8734 114.998 54.9977 115ZM52.0118 99.9999L51.0164 109.05C50.9673 109.516 51.0193 109.987 51.1687 110.431C51.3182 110.874 51.5617 111.28 51.8824 111.62C52.2767 112.061 52.7564 112.416 53.2921 112.663C53.8278 112.911 54.4082 113.046 54.9977 113.06C55.5983 113.057 56.1916 112.928 56.7399 112.682C57.2883 112.436 57.7796 112.078 58.1828 111.63C58.4988 111.285 58.7392 110.877 58.8884 110.433C59.0375 109.988 59.0922 109.517 59.0487 109.05L58.0534 99.9999H52.0118Z" fill="#88C4EB"/>
<rect x="54" y="53" width="2" height="46" fill="#88C4EB"/>
<rect x="59" y="93" width="2" height="8" rx="1" transform="rotate(90 59 93)" fill="#88C4EB"/>
<rect x="59" y="88" width="2" height="8" rx="1" transform="rotate(90 59 88)" fill="#88C4EB"/>
<rect x="59" y="83" width="2" height="8" rx="1" transform="rotate(90 59 83)" fill="#88C4EB"/>
<rect x="59" y="78" width="2" height="8" rx="1" transform="rotate(90 59 78)" fill="#88C4EB"/>
<rect x="59" y="73" width="2" height="8" rx="1" transform="rotate(90 59 73)" fill="#88C4EB"/>
<rect x="59" y="68" width="2" height="8" rx="1" transform="rotate(90 59 68)" fill="#88C4EB"/>
<rect x="59" y="63" width="2" height="8" rx="1" transform="rotate(90 59 63)" fill="#88C4EB"/>
<rect x="59" y="58" width="2" height="8" rx="1" transform="rotate(90 59 58)" fill="#88C4EB"/>
<path d="M54.9973 111.89C54.504 111.888 54.0167 111.78 53.5686 111.573C53.1204 111.366 52.7217 111.065 52.3995 110.69C52.1382 110.389 51.9458 110.034 51.8357 109.651C51.7256 109.267 51.7006 108.864 51.7625 108.47L52.0412 106.75C52.0856 106.519 52.2098 106.311 52.3919 106.162C52.574 106.014 52.7418 105.995 52.9761 105.999H56.9275C57.1618 105.995 57.4504 106.014 57.6325 106.162C57.8146 106.311 57.9388 106.519 57.9832 106.75L58.2619 108.47C58.3245 108.865 58.2989 109.269 58.1871 109.653C58.0752 110.037 57.8798 110.391 57.615 110.69C57.2919 111.069 56.8902 111.373 56.4381 111.58C55.986 111.788 55.4942 111.893 54.9973 111.89ZM53.8029 107.89L53.6536 108.8C53.6377 108.918 53.6482 109.039 53.6843 109.153C53.7205 109.267 53.7814 109.372 53.8626 109.46C54.0035 109.625 54.1773 109.758 54.3728 109.851C54.5683 109.944 54.781 109.995 54.9973 110C55.2066 109.997 55.413 109.95 55.6033 109.862C55.7935 109.774 55.9634 109.647 56.1021 109.49C56.1842 109.4 56.2462 109.294 56.284 109.179C56.3218 109.063 56.3344 108.941 56.321 108.82L56.1717 107.91L53.8029 107.89Z" fill="#88C4EB"/>
<g filter="url(#filter1_d_345_6605)">
<path d="M75 26H6V55H75V26Z" fill="#167CBF"/>
</g>
<path d="M82 10V35H106C104.193 32.6397 86.3118 14.7577 82 10Z" fill="#88C4EB"/>
<path d="M20.948 51V49.2102L31.9252 32.8239H20.8287V30.6364H34.8684V32.4261L23.8912 48.8125H34.9877V51H20.948ZM41.59 30.6364V51H39.1241V30.6364H41.59ZM46.5343 51V30.6364H53.415C55.0125 30.6364 56.3184 30.9247 57.3326 31.5014C58.3534 32.0715 59.1091 32.8438 59.5996 33.8182C60.0901 34.7926 60.3354 35.8797 60.3354 37.0795C60.3354 38.2794 60.0901 39.3698 59.5996 40.3509C59.1157 41.3319 58.3667 42.1141 57.3525 42.6974C56.3382 43.2741 55.039 43.5625 53.4547 43.5625H48.5229V41.375H53.3752C54.4689 41.375 55.3472 41.1861 56.0101 40.8082C56.673 40.4304 57.1536 39.92 57.4519 39.277C57.7568 38.6274 57.9093 37.8949 57.9093 37.0795C57.9093 36.2642 57.7568 35.535 57.4519 34.892C57.1536 34.2491 56.6697 33.7453 56.0002 33.3807C55.3307 33.0095 54.4424 32.8239 53.3354 32.8239H49.0002V51H46.5343Z" fill="#D9E7F0"/>
<defs>
<filter id="filter0_d_345_6605" x="17" y="10" width="91" height="119" filterUnits="userSpaceOnUse" color-interpolation-filters="sRGB">
<feFlood flood-opacity="0" result="BackgroundImageFix"/>
<feColorMatrix in="SourceAlpha" type="matrix" values="0 0 0 0 0 0 0 0 0 0 0 0 0 0 0 0 0 0 127 0" result="hardAlpha"/>
<feOffset dy="2"/>
<feGaussianBlur stdDeviation="1"/>
<feComposite in2="hardAlpha" operator="out"/>
<feColorMatrix type="matrix" values="0 0 0 0 0.430625 0 0 0 0 0.565885 0 0 0 0 0.6625 0 0 0 0.29 0"/>
<feBlend mode="normal" in2="BackgroundImageFix" result="effect1_dropShadow_345_6605"/>
<feBlend mode="normal" in="SourceGraphic" in2="effect1_dropShadow_345_6605" result="shape"/>
</filter>
<filter id="filter1_d_345_6605" x="4" y="26" width="73" height="33" filterUnits="userSpaceOnUse" color-interpolation-filters="sRGB">
<feFlood flood-opacity="0" result="BackgroundImageFix"/>
<feColorMatrix in="SourceAlpha" type="matrix" values="0 0 0 0 0 0 0 0 0 0 0 0 0 0 0 0 0 0 127 0" result="hardAlpha"/>
<feOffset dy="2"/>
<feGaussianBlur stdDeviation="1"/>
<feComposite in2="hardAlpha" operator="out"/>
<feColorMatrix type="matrix" values="0 0 0 0 0.430625 0 0 0 0 0.565885 0 0 0 0 0.6625 0 0 0 0.29 0"/>
<feBlend mode="normal" in2="BackgroundImageFix" result="effect1_dropShadow_345_6605"/>
<feBlend mode="normal" in="SourceGraphic" in2="effect1_dropShadow_345_6605" result="shape"/>
</filter>
</defs>
</svg>
