<svg width="100" height="130" viewBox="0 0 100 130" fill="none" xmlns="http://www.w3.org/2000/svg">
<g clip-path="url(#clip0_575_12790)">
<g filter="url(#filter0_d_575_12790)">
<path d="M84 112.496C84 114.101 83.029 115 81.4828 115H13.5173C11.971 115 11 114.101 11 112.496V22.3391C10.9951 20.7395 11.971 19 13.5173 19H63.8621C67.537 22.9741 82.455 37.8937 84 39.8696V112.496Z" fill="#F2F4FC"/>
</g>
<path d="M42.0456 84H26V68H42.0456V84ZM28 82H40V70H28V82Z" fill="#D9E7F0"/>
<path d="M11 77H25V75H11V77Z" fill="#D9E7F0"/>
<path d="M84 75H43V77H84V75Z" fill="#D9E7F0"/>
<path d="M33 67H35V19H33V67Z" fill="#D9E7F0"/>
<path d="M35 85H33V115H35V85Z" fill="#D9E7F0"/>
<path d="M35 75H33V77H35V75Z" fill="#D9E7F0"/>
<g filter="url(#filter1_d_575_12790)">
<path d="M58 32H0V56H58V32Z" fill="#D9E7F0"/>
</g>
<path d="M64 19V40H84C82.4941 38.0173 67.5932 22.9965 64 19Z" fill="#D9E7F0"/>
<path d="M11.4805 51H6.99183V36.4545H11.6793C13.0903 36.4545 14.2977 36.7457 15.3015 37.3281C16.3053 37.9058 17.0747 38.7367 17.6097 39.821C18.1448 40.9006 18.4123 42.1932 18.4123 43.6989C18.4123 45.214 18.1424 46.5185 17.6026 47.6122C17.0629 48.7012 16.2769 49.5393 15.2447 50.1264C14.2125 50.7088 12.9577 51 11.4805 51ZM8.7532 49.4375H11.3668C12.5695 49.4375 13.5662 49.2055 14.3569 48.7415C15.1476 48.2775 15.7371 47.617 16.1254 46.7599C16.5136 45.9029 16.7077 44.8826 16.7077 43.6989C16.7077 42.5246 16.516 41.5137 16.1325 40.6662C15.7489 39.8139 15.176 39.1605 14.4137 38.706C13.6514 38.2467 12.7021 38.017 11.5657 38.017H8.7532V49.4375ZM24.0089 51L20.0316 36.4545H21.8214L24.8612 48.3011H25.0032L28.0998 36.4545H30.0884L33.185 48.3011H33.3271L36.3668 36.4545H38.1566L34.1793 51H32.3612L29.1509 39.4091H29.0373L25.8271 51H24.0089ZM49.6108 41C49.4545 40.5218 49.2486 40.0933 48.9929 39.7145C48.742 39.331 48.4413 39.0043 48.0909 38.7344C47.7453 38.4645 47.3523 38.2585 46.9119 38.1165C46.4716 37.9744 45.9886 37.9034 45.4631 37.9034C44.6013 37.9034 43.8177 38.1259 43.1122 38.571C42.4067 39.0161 41.8456 39.6719 41.429 40.5384C41.0123 41.4048 40.804 42.4678 40.804 43.7273C40.804 44.9867 41.0147 46.0497 41.4361 46.9162C41.8575 47.7827 42.428 48.4384 43.1477 48.8835C43.8674 49.3286 44.6771 49.5511 45.5767 49.5511C46.41 49.5511 47.1439 49.3736 47.7784 49.0185C48.4176 48.6586 48.9148 48.152 49.2699 47.4986C49.6297 46.8404 49.8097 46.0663 49.8097 45.1761L50.3494 45.2898H45.9744V43.7273H51.5142V45.2898C51.5142 46.4877 51.2585 47.5294 50.7472 48.4148C50.2405 49.3002 49.5398 49.9867 48.6449 50.4744C47.7547 50.9574 46.732 51.1989 45.5767 51.1989C44.2888 51.1989 43.1572 50.8958 42.1818 50.2898C41.2112 49.6837 40.4536 48.822 39.9091 47.7045C39.3693 46.5871 39.0994 45.2614 39.0994 43.7273C39.0994 42.5767 39.2533 41.5421 39.5611 40.6236C39.8736 39.7003 40.3139 38.9143 40.8821 38.2656C41.4503 37.617 42.1226 37.1198 42.8991 36.7741C43.6757 36.4285 44.5303 36.2557 45.4631 36.2557C46.2301 36.2557 46.9451 36.3717 47.608 36.6037C48.2756 36.831 48.8698 37.1553 49.3906 37.5767C49.9162 37.9934 50.3542 38.4929 50.7045 39.0753C51.0549 39.6529 51.2964 40.2945 51.429 41H49.6108Z" fill="#8E9DA7"/>
<g clip-path="url(#clip1_575_12790)">
<rect x="75.875" width="24" height="24" rx="12" fill="#167CBF"/>
<path d="M87.875 8C88.975 8 89.875 7.1 89.875 6C89.875 4.9 88.975 4 87.875 4C86.775 4 85.875 4.9 85.875 6C85.875 7.1 86.775 8 87.875 8ZM87.875 10C86.775 10 85.875 10.9 85.875 12C85.875 13.1 86.775 14 87.875 14C88.975 14 89.875 13.1 89.875 12C89.875 10.9 88.975 10 87.875 10ZM87.875 16C86.775 16 85.875 16.9 85.875 18C85.875 19.1 86.775 20 87.875 20C88.975 20 89.875 19.1 89.875 18C89.875 16.9 88.975 16 87.875 16Z" fill="white"/>
</g>
</g>
<defs>
<filter id="filter0_d_575_12790" x="9" y="19" width="77" height="100" filterUnits="userSpaceOnUse" color-interpolation-filters="sRGB">
<feFlood flood-opacity="0" result="BackgroundImageFix"/>
<feColorMatrix in="SourceAlpha" type="matrix" values="0 0 0 0 0 0 0 0 0 0 0 0 0 0 0 0 0 0 127 0" result="hardAlpha"/>
<feOffset dy="2"/>
<feGaussianBlur stdDeviation="1"/>
<feComposite in2="hardAlpha" operator="out"/>
<feColorMatrix type="matrix" values="0 0 0 0 0.430625 0 0 0 0 0.565885 0 0 0 0 0.6625 0 0 0 0.29 0"/>
<feBlend mode="normal" in2="BackgroundImageFix" result="effect1_dropShadow_575_12790"/>
<feBlend mode="normal" in="SourceGraphic" in2="effect1_dropShadow_575_12790" result="shape"/>
</filter>
<filter id="filter1_d_575_12790" x="-2" y="32" width="62" height="28" filterUnits="userSpaceOnUse" color-interpolation-filters="sRGB">
<feFlood flood-opacity="0" result="BackgroundImageFix"/>
<feColorMatrix in="SourceAlpha" type="matrix" values="0 0 0 0 0 0 0 0 0 0 0 0 0 0 0 0 0 0 127 0" result="hardAlpha"/>
<feOffset dy="2"/>
<feGaussianBlur stdDeviation="1"/>
<feComposite in2="hardAlpha" operator="out"/>
<feColorMatrix type="matrix" values="0 0 0 0 0.430625 0 0 0 0 0.565885 0 0 0 0 0.6625 0 0 0 0.29 0"/>
<feBlend mode="normal" in2="BackgroundImageFix" result="effect1_dropShadow_575_12790"/>
<feBlend mode="normal" in="SourceGraphic" in2="effect1_dropShadow_575_12790" result="shape"/>
</filter>
<clipPath id="clip0_575_12790">
<rect width="100" height="130" fill="white"/>
</clipPath>
<clipPath id="clip1_575_12790">
<rect x="75.875" width="24" height="24" rx="12" fill="white"/>
</clipPath>
</defs>
</svg>
