<svg width="100" height="130" viewBox="0 0 100 130" fill="none" xmlns="http://www.w3.org/2000/svg">
<g clip-path="url(#clip0_575_12742)">
<g filter="url(#filter0_d_575_12742)">
<path d="M84 112.496C84 114.101 83.029 115 81.4828 115H13.5173C11.971 115 11 114.101 11 112.496V22.3391C10.9951 20.7395 11.971 19 13.5173 19H63.8621C67.537 22.9741 82.455 37.8937 84 39.8696V112.496Z" fill="#F2F4FC"/>
</g>
<path d="M41.9977 107C41.1279 106.992 40.2695 106.8 39.4776 106.439C38.6857 106.077 37.9778 105.553 37.3993 104.9C36.8944 104.36 36.5105 103.717 36.2736 103.015C36.0366 102.313 35.9522 101.568 36.0258 100.83L37.1406 90.8498C37.1765 90.6113 37.2971 90.394 37.48 90.2378C37.6629 90.0816 37.8958 89.997 38.1359 89.9998H45.8795C46.1195 89.997 46.3524 90.0816 46.5354 90.2378C46.7183 90.394 46.8388 90.6113 46.8748 90.8498L47.9697 100.83C48.0494 101.567 47.9716 102.311 47.7416 103.015C47.5116 103.719 47.1346 104.365 46.6359 104.91C46.0517 105.566 45.3369 106.09 44.5378 106.45C43.7388 106.81 42.8734 106.998 41.9977 107ZM39.0118 91.9999L38.0164 101.05C37.9673 101.516 38.0193 101.987 38.1687 102.431C38.3182 102.874 38.5617 103.28 38.8824 103.62C39.2767 104.061 39.7564 104.416 40.2921 104.663C40.8278 104.911 41.4082 105.046 41.9977 105.06C42.5983 105.057 43.1916 104.928 43.7399 104.682C44.2883 104.436 44.7796 104.078 45.1828 103.63C45.4988 103.285 45.7392 102.877 45.8884 102.433C46.0375 101.988 46.0922 101.517 46.0487 101.05L45.0534 91.9999H39.0118Z" fill="#D9E7F0"/>
<rect x="41" y="45" width="2" height="46" fill="#D9E7F0"/>
<rect x="46" y="85" width="2" height="8" rx="1" transform="rotate(90 46 85)" fill="#D9E7F0"/>
<rect x="46" y="80" width="2" height="8" rx="1" transform="rotate(90 46 80)" fill="#D9E7F0"/>
<rect x="46" y="75" width="2" height="8" rx="1" transform="rotate(90 46 75)" fill="#D9E7F0"/>
<rect x="46" y="70" width="2" height="8" rx="1" transform="rotate(90 46 70)" fill="#D9E7F0"/>
<rect x="46" y="65" width="2" height="8" rx="1" transform="rotate(90 46 65)" fill="#D9E7F0"/>
<rect x="46" y="60" width="2" height="8" rx="1" transform="rotate(90 46 60)" fill="#D9E7F0"/>
<path d="M41.9973 103.89C41.504 103.888 41.0167 103.78 40.5686 103.573C40.1204 103.366 39.7217 103.065 39.3995 102.69C39.1382 102.389 38.9458 102.034 38.8357 101.651C38.7256 101.267 38.7006 100.864 38.7625 100.47L39.0412 98.7497C39.0856 98.5186 39.2098 98.3106 39.3919 98.1624C39.574 98.0143 39.7418 97.995 39.9761 97.9993H43.9275C44.1618 97.995 44.4504 98.0143 44.6325 98.1624C44.8146 98.3106 44.9388 98.5186 44.9832 98.7497L45.2619 100.47C45.3245 100.865 45.2989 101.269 45.1871 101.653C45.0752 102.037 44.8798 102.391 44.615 102.69C44.2919 103.069 43.8902 103.373 43.4381 103.58C42.986 103.788 42.4942 103.893 41.9973 103.89ZM40.8029 99.8897L40.6536 100.8C40.6377 100.918 40.6482 101.039 40.6843 101.153C40.7205 101.267 40.7814 101.372 40.8626 101.46C41.0035 101.625 41.1773 101.758 41.3728 101.851C41.5683 101.944 41.781 101.995 41.9973 102C42.2066 101.997 42.413 101.95 42.6033 101.862C42.7935 101.774 42.9634 101.647 43.1021 101.49C43.1842 101.4 43.2462 101.294 43.284 101.179C43.3218 101.063 43.3344 100.941 43.321 100.82L43.1717 99.9097L40.8029 99.8897Z" fill="#D9E7F0"/>
<g filter="url(#filter1_d_575_12742)">
<path d="M58 32H0V56H58V32Z" fill="#D9E7F0"/>
</g>
<path d="M64 19V40H84C82.4941 38.0173 67.5932 22.9965 64 19Z" fill="#D9E7F0"/>
<path d="M11.2106 51V36.4545H16.1254C17.2617 36.4545 18.1945 36.6487 18.9237 37.0369C19.6528 37.4205 20.1926 37.9484 20.543 38.6207C20.8933 39.2931 21.0685 40.0578 21.0685 40.9148C21.0685 41.7718 20.8933 42.5317 20.543 43.1946C20.1926 43.8575 19.6552 44.3783 18.9308 44.7571C18.2063 45.1312 17.2807 45.3182 16.1538 45.3182H12.1765V43.7273H16.0969C16.8735 43.7273 17.4985 43.6136 17.9719 43.3864C18.4502 43.1591 18.7958 42.8371 19.0089 42.4205C19.2267 41.9991 19.3356 41.4972 19.3356 40.9148C19.3356 40.3324 19.2267 39.8234 19.0089 39.3878C18.7911 38.9522 18.4431 38.616 17.9648 38.3793C17.4866 38.1378 16.8545 38.017 16.0685 38.017H12.9719V51H11.2106ZM18.0572 44.4659L21.6367 51H19.5913L16.0685 44.4659H18.0572ZM24.6001 51H22.7536L28.0945 36.4545H29.9126L35.2536 51H33.407L29.0604 38.7557H28.9467L24.6001 51ZM25.282 45.3182H32.7251V46.8807H25.282V45.3182ZM37.5192 51V36.4545H42.4339C43.5703 36.4545 44.5031 36.6487 45.2322 37.0369C45.9614 37.4205 46.5012 37.9484 46.8516 38.6207C47.2019 39.2931 47.3771 40.0578 47.3771 40.9148C47.3771 41.7718 47.2019 42.5317 46.8516 43.1946C46.5012 43.8575 45.9638 44.3783 45.2393 44.7571C44.5149 45.1312 43.5893 45.3182 42.4624 45.3182H38.4851V43.7273H42.4055C43.1821 43.7273 43.8071 43.6136 44.2805 43.3864C44.7588 43.1591 45.1044 42.8371 45.3175 42.4205C45.5353 41.9991 45.6442 41.4972 45.6442 40.9148C45.6442 40.3324 45.5353 39.8234 45.3175 39.3878C45.0997 38.9522 44.7517 38.616 44.2734 38.3793C43.7952 38.1378 43.1631 38.017 42.3771 38.017H39.2805V51H37.5192ZM44.3658 44.4659L47.9453 51H45.8999L42.3771 44.4659H44.3658Z" fill="#8E9DA7"/>
<g clip-path="url(#clip1_575_12742)">
<rect x="75.875" width="24" height="24" rx="12" fill="#167CBF"/>
<path d="M87.875 8C88.975 8 89.875 7.1 89.875 6C89.875 4.9 88.975 4 87.875 4C86.775 4 85.875 4.9 85.875 6C85.875 7.1 86.775 8 87.875 8ZM87.875 10C86.775 10 85.875 10.9 85.875 12C85.875 13.1 86.775 14 87.875 14C88.975 14 89.875 13.1 89.875 12C89.875 10.9 88.975 10 87.875 10ZM87.875 16C86.775 16 85.875 16.9 85.875 18C85.875 19.1 86.775 20 87.875 20C88.975 20 89.875 19.1 89.875 18C89.875 16.9 88.975 16 87.875 16Z" fill="white"/>
</g>
</g>
<defs>
<filter id="filter0_d_575_12742" x="9" y="19" width="77" height="100" filterUnits="userSpaceOnUse" color-interpolation-filters="sRGB">
<feFlood flood-opacity="0" result="BackgroundImageFix"/>
<feColorMatrix in="SourceAlpha" type="matrix" values="0 0 0 0 0 0 0 0 0 0 0 0 0 0 0 0 0 0 127 0" result="hardAlpha"/>
<feOffset dy="2"/>
<feGaussianBlur stdDeviation="1"/>
<feComposite in2="hardAlpha" operator="out"/>
<feColorMatrix type="matrix" values="0 0 0 0 0.430625 0 0 0 0 0.565885 0 0 0 0 0.6625 0 0 0 0.29 0"/>
<feBlend mode="normal" in2="BackgroundImageFix" result="effect1_dropShadow_575_12742"/>
<feBlend mode="normal" in="SourceGraphic" in2="effect1_dropShadow_575_12742" result="shape"/>
</filter>
<filter id="filter1_d_575_12742" x="-2" y="32" width="62" height="28" filterUnits="userSpaceOnUse" color-interpolation-filters="sRGB">
<feFlood flood-opacity="0" result="BackgroundImageFix"/>
<feColorMatrix in="SourceAlpha" type="matrix" values="0 0 0 0 0 0 0 0 0 0 0 0 0 0 0 0 0 0 127 0" result="hardAlpha"/>
<feOffset dy="2"/>
<feGaussianBlur stdDeviation="1"/>
<feComposite in2="hardAlpha" operator="out"/>
<feColorMatrix type="matrix" values="0 0 0 0 0.430625 0 0 0 0 0.565885 0 0 0 0 0.6625 0 0 0 0.29 0"/>
<feBlend mode="normal" in2="BackgroundImageFix" result="effect1_dropShadow_575_12742"/>
<feBlend mode="normal" in="SourceGraphic" in2="effect1_dropShadow_575_12742" result="shape"/>
</filter>
<clipPath id="clip0_575_12742">
<rect width="100" height="130" fill="white"/>
</clipPath>
<clipPath id="clip1_575_12742">
<rect x="75.875" width="24" height="24" rx="12" fill="white"/>
</clipPath>
</defs>
</svg>
