<svg width="81" height="73" viewBox="0 0 81 73" fill="none" xmlns="http://www.w3.org/2000/svg">
<path d="M11.7871 9.16073H62.2016L62.2397 9.11471C63.3002 7.84206 63.8809 6.23791 63.8809 4.58134C63.8809 2.92477 63.3002 1.32062 62.2397 0.0479692L62.2016 0.00195312H11.7871L12.0362 0.270116C13.1603 1.48118 13.7678 3.08287 13.7295 4.73476C13.6913 6.38665 13.0104 7.95852 11.8315 9.1163L11.7871 9.16073Z" fill="#D9E7F0"/>
<g filter="url(#filter0_d_608_13450)">
<path d="M52.1628 68.2578H6.13086V5.43324C6.13128 4.0254 6.69084 2.67537 7.68648 1.68003C8.68212 0.684683 10.0323 0.12553 11.4402 0.12553H56.474C56.474 0.12553 61.147 -0.156913 61.0534 0.12553C57.7751 0.189001 57.9417 9.28431 57.9417 9.28431V62.4788C57.9419 63.2378 57.7926 63.9894 57.5023 64.6906C57.2119 65.3918 56.7863 66.029 56.2496 66.5657C55.7129 67.1023 55.0758 67.528 54.3745 67.8183C53.6733 68.1087 52.9217 68.258 52.1628 68.2578Z" fill="#167CBF"/>
</g>
<path d="M52.0954 68.2584H1.67928L1.6412 68.2124C0.580744 66.9397 0 65.3356 0 63.679C0 62.0224 0.580744 60.4183 1.6412 59.1456L1.67928 59.0996H52.0954L51.8463 59.3678C49.5074 61.886 49.1091 66.1813 52.0954 68.2536V68.2584Z" fill="#D9E7F0"/>
<path d="M48.6495 10.2871H17.3301V12.9227H48.6495V10.2871Z" fill="#D9E7F0"/>
<path d="M53.0071 55.0684H39.0039V55.9268H53.0071V55.0684Z" fill="white"/>
<path d="M53.0098 17.873H12.9727V18.9441H53.0098V17.873Z" fill="#D9E7F0"/>
<path d="M53.0098 23.1289H12.9727V24.2H53.0098V23.1289Z" fill="#D9E7F0"/>
<path d="M53.0098 28.3848H12.9727V29.4558H53.0098V28.3848Z" fill="#D9E7F0"/>
<path d="M53.0098 33.6406H12.9727V34.7117H53.0098V33.6406Z" fill="#D9E7F0"/>
<path d="M53.0098 38.8945H12.9727V39.9656H53.0098V38.8945Z" fill="#D9E7F0"/>
<path d="M53.0098 49.4082H12.9727V50.4793H53.0098V49.4082Z" fill="#D9E7F0"/>
<path d="M53.0098 44.1543H12.9727V45.2254H53.0098V44.1543Z" fill="#D9E7F0"/>
<path d="M57.1648 48.9841L54.8418 47.5925L56.427 43.9477L71.5012 18.8008L74.8556 20.8112L59.7909 45.9407L57.1648 48.9841Z" fill="#88C4EB"/>
<path d="M76.5828 9.19623L69.3612 21.2436C69.317 21.3172 69.341 21.4127 69.4146 21.4569L73.3968 23.844C73.4705 23.8881 73.566 23.8642 73.6102 23.7906L80.8318 11.7432C80.8759 11.6696 80.852 11.574 80.7783 11.5299L76.7961 9.14281C76.7225 9.09866 76.627 9.12257 76.5828 9.19623Z" fill="#88C4EB"/>
<path d="M80.4746 13.1284L80.3509 13.0538L75.6112 10.2135C75.5972 10.205 75.5816 10.1992 75.5653 10.1967C75.5491 10.1943 75.5325 10.195 75.5165 10.199C75.5006 10.203 75.4856 10.2101 75.4724 10.22C75.4593 10.2298 75.4482 10.2422 75.4398 10.2564L75.1368 10.761C75.1198 10.7894 75.1149 10.8234 75.1229 10.8555C75.1309 10.8876 75.1513 10.9152 75.1796 10.9323L79.8145 13.7092C79.8287 13.7175 79.8411 13.7286 79.851 13.7417C79.8608 13.7549 79.8679 13.7699 79.8719 13.7859C79.8759 13.8018 79.8767 13.8184 79.8742 13.8347C79.8717 13.8509 79.866 13.8665 79.8574 13.8805L75.8588 20.5449C75.8418 20.5734 75.8368 20.6073 75.8449 20.6394C75.8529 20.6716 75.8733 20.6992 75.9016 20.7163L76.3776 21.0051C76.4063 21.0221 76.4405 21.0271 76.4729 21.0191C76.5052 21.0111 76.5331 20.9907 76.5506 20.9623L80.9792 13.5727C80.9879 13.5586 80.9936 13.5429 80.9961 13.5265C80.9986 13.5101 80.9979 13.4934 80.9939 13.4773C80.9899 13.4612 80.9828 13.4461 80.9729 13.4328C80.963 13.4195 80.9506 13.4082 80.9364 13.3998L80.4746 13.1284Z" fill="#167CBF"/>
<path d="M54.933 51.5673L53.4922 50.7025L56.4277 43.9492L59.7821 45.9596L54.933 51.5673Z" fill="#88C4EB"/>
<path d="M54.932 51.5679L53.4912 50.7031L52.7343 51.1918L52.0742 54.1432L52.4582 54.3733L54.8146 52.3962L54.932 51.5679Z" fill="#D9E7F0"/>
<path d="M55.929 43.7223L55.9274 43.7251C55.8661 43.8273 55.8993 43.9598 56.0015 44.0211L59.8435 46.3242C59.9458 46.3854 60.0783 46.3522 60.1396 46.25L60.1412 46.2473C60.2025 46.1451 60.1693 46.0125 60.0671 45.9512L56.225 43.6482C56.1228 43.5869 55.9903 43.6201 55.929 43.7223Z" fill="#D9E7F0"/>
<path d="M55.6145 44.2419L55.6129 44.2446C55.5516 44.3468 55.5848 44.4794 55.687 44.5406L59.5291 46.8437C59.6313 46.905 59.7638 46.8718 59.8251 46.7695L59.8267 46.7668C59.888 46.6646 59.8548 46.5321 59.7526 46.4708L55.9106 44.1677C55.8084 44.1065 55.6758 44.1397 55.6145 44.2419Z" fill="#D9E7F0"/>
<path d="M53.6436 52.6267C53.6117 52.681 53.5643 52.7246 53.5075 52.7518C53.4507 52.7791 53.3871 52.7889 53.3247 52.7799C53.2624 52.7709 53.2041 52.7435 53.1574 52.7013C53.1106 52.6591 53.0775 52.6039 53.0622 52.5428C53.0469 52.4816 53.0502 52.4174 53.0716 52.3581C53.0929 52.2988 53.1315 52.2473 53.1823 52.21C53.2331 52.1727 53.2938 52.1514 53.3567 52.1487C53.4197 52.1461 53.482 52.1622 53.5357 52.1951C53.6067 52.2385 53.6578 52.3081 53.678 52.3888C53.6981 52.4695 53.6858 52.555 53.6436 52.6267Z" fill="#167CBF"/>
<path d="M53.2305 52.5524L52.2246 54.2305L52.3553 54.3088L53.3612 52.6307L53.2305 52.5524Z" fill="#167CBF"/>
<path opacity="0.28" d="M69.7793 21.6758L73.1337 23.6862L71.2788 26.7804L69.7793 21.6758Z" fill="#167CBF"/>
<defs>
<filter id="filter0_d_608_13450" x="4.13086" y="0" width="58.9238" height="72.2578" filterUnits="userSpaceOnUse" color-interpolation-filters="sRGB">
<feFlood flood-opacity="0" result="BackgroundImageFix"/>
<feColorMatrix in="SourceAlpha" type="matrix" values="0 0 0 0 0 0 0 0 0 0 0 0 0 0 0 0 0 0 127 0" result="hardAlpha"/>
<feOffset dy="2"/>
<feGaussianBlur stdDeviation="1"/>
<feComposite in2="hardAlpha" operator="out"/>
<feColorMatrix type="matrix" values="0 0 0 0 0.430625 0 0 0 0 0.565885 0 0 0 0 0.6625 0 0 0 0.29 0"/>
<feBlend mode="normal" in2="BackgroundImageFix" result="effect1_dropShadow_608_13450"/>
<feBlend mode="normal" in="SourceGraphic" in2="effect1_dropShadow_608_13450" result="shape"/>
</filter>
</defs>
</svg>
