<svg width="120" height="121" viewBox="0 0 120 121" fill="none" xmlns="http://www.w3.org/2000/svg">
<g filter="url(#filter0_d_2202_37631)">
<circle cx="71" cy="48" r="46" fill="#D9E7F0"/>
</g>
<g filter="url(#filter1_d_2202_37631)">
<path d="M72.777 116.362H9.71094V30.1133C9.71151 28.1806 10.4781 26.3272 11.8422 24.9607C13.2063 23.5943 15.0561 22.8266 16.985 22.8266H78.6836C78.6836 22.8266 85.0859 22.4389 84.9576 22.8266C80.4663 22.9138 80.6945 35.4003 80.6945 35.4003V108.428C80.6948 109.47 80.4902 110.502 80.0924 111.465C79.6946 112.427 79.1114 113.302 78.3762 114.039C77.6409 114.776 76.768 115.36 75.8073 115.759C74.8465 116.157 73.8168 116.362 72.777 116.362V116.362Z" fill="#167CBF"/>
</g>
<path d="M72.6839 116.363H3.61125L3.55908 116.3C2.1062 114.552 1.31055 112.35 1.31055 110.076C1.31055 107.802 2.1062 105.599 3.55908 103.852L3.61125 103.789H72.6839L72.3426 104.157C69.1382 107.614 68.5926 113.511 72.6839 116.356V116.363Z" fill="#D9E7F0"/>
<path d="M67.962 36.7773H25.0527V40.3956H67.962V36.7773Z" fill="#D9E7F0"/>
<path d="M73.9331 98.2559H54.748V99.4344H73.9331V98.2559Z" fill="white"/>
<path d="M73.935 47.1914H19.082V48.6618H73.935V47.1914Z" fill="#D9E7F0"/>
<path d="M73.935 54.4082H19.082V55.8786H73.935V54.4082Z" fill="#D9E7F0"/>
<path d="M73.935 61.623H19.082V63.0935H73.935V61.623Z" fill="#D9E7F0"/>
<path d="M73.935 68.8398H19.082V70.3103H73.935V68.8398Z" fill="#D9E7F0"/>
<path d="M73.935 76.0508H19.082V77.5212H73.935V76.0508Z" fill="#D9E7F0"/>
<path d="M73.935 90.4824H19.082V91.9528H73.935V90.4824Z" fill="#D9E7F0"/>
<path d="M73.935 83.2715H19.082V84.7419H73.935V83.2715Z" fill="#D9E7F0"/>
<path d="M79.6299 89.902L76.4473 87.9916L78.619 82.9879L99.2715 48.4648L103.867 51.2249L83.2278 85.7239L79.6299 89.902Z" fill="#88C4EB"/>
<path d="M106.232 35.2797L96.3381 51.8188C96.2776 51.92 96.3103 52.0511 96.4112 52.1117L101.867 55.3888C101.968 55.4494 102.099 55.4166 102.159 55.3155L112.053 38.7763C112.114 38.6752 112.081 38.544 111.98 38.4834L106.524 35.2063C106.423 35.1457 106.293 35.1785 106.232 35.2797Z" fill="#88C4EB"/>
<path d="M111.566 40.6771L111.396 40.5747L104.903 36.6754C104.883 36.6636 104.862 36.6558 104.84 36.6524C104.818 36.6489 104.795 36.65 104.773 36.6555C104.751 36.6609 104.731 36.6707 104.713 36.6843C104.694 36.6978 104.679 36.7148 104.668 36.7342L104.253 37.427C104.229 37.466 104.223 37.5126 104.234 37.5567C104.245 37.6008 104.273 37.6387 104.311 37.6622L110.661 41.4744C110.681 41.4858 110.698 41.501 110.711 41.5191C110.725 41.5372 110.735 41.5578 110.74 41.5797C110.746 41.6016 110.747 41.6244 110.743 41.6467C110.74 41.669 110.732 41.6904 110.72 41.7097L105.242 50.8589C105.219 50.8979 105.212 50.9445 105.223 50.9886C105.234 51.0327 105.262 51.0706 105.301 51.0941L105.953 51.4906C105.992 51.5139 106.039 51.5209 106.083 51.5098C106.128 51.4988 106.166 51.4708 106.19 51.4318L112.257 41.2871C112.269 41.2676 112.277 41.2461 112.28 41.2236C112.284 41.2011 112.283 41.1781 112.277 41.1561C112.272 41.134 112.262 41.1132 112.248 41.0949C112.235 41.0767 112.218 41.0613 112.198 41.0496L111.566 40.6771Z" fill="#167CBF"/>
<path d="M76.5736 93.4487L74.5996 92.2614L78.6214 82.9902L83.2171 85.7502L76.5736 93.4487Z" fill="#88C4EB"/>
<path d="M76.5696 93.4489L74.5956 92.2617L73.5587 92.9327L72.6543 96.9845L73.1804 97.3003L76.4087 94.5861L76.5696 93.4489Z" fill="#D9E7F0"/>
<path d="M77.9355 82.6797L77.9333 82.6834C77.8493 82.8237 77.8948 83.0057 78.0348 83.0898L83.2986 86.2516C83.4387 86.3357 83.6203 86.2901 83.7042 86.1498L83.7064 86.146C83.7904 86.0057 83.7449 85.8237 83.6049 85.7396L78.3411 82.5779C78.201 82.4937 78.0194 82.5393 77.9355 82.6797Z" fill="#D9E7F0"/>
<path d="M77.5078 83.3926L77.5055 83.3963C77.4216 83.5366 77.467 83.7186 77.6071 83.8027L82.8709 86.9645C83.0109 87.0486 83.1925 87.003 83.2765 86.8627L83.2787 86.8589C83.3627 86.7186 83.3172 86.5366 83.1771 86.4525L77.9134 83.2908C77.7733 83.2066 77.5917 83.2522 77.5078 83.3926Z" fill="#D9E7F0"/>
<path d="M74.8056 94.9027C74.7619 94.9772 74.697 95.037 74.6192 95.0745C74.5414 95.1119 74.4542 95.1253 74.3688 95.113C74.2833 95.1006 74.2035 95.0631 74.1394 95.0051C74.0754 94.9471 74.03 94.8713 74.0091 94.7874C73.9881 94.7035 73.9926 94.6153 74.0219 94.5339C74.0512 94.4526 74.104 94.3818 74.1736 94.3306C74.2431 94.2794 74.3263 94.2501 74.4126 94.2465C74.4988 94.2428 74.5842 94.265 74.6578 94.3101C74.7551 94.3698 74.825 94.4653 74.8527 94.5761C74.8803 94.6869 74.8634 94.8042 74.8056 94.9027Z" fill="#167CBF"/>
<path d="M74.2414 94.8017L72.8633 97.1055L73.0423 97.213L74.4204 94.9092L74.2414 94.8017Z" fill="#167CBF"/>
<path opacity="0.28" d="M96.9121 52.4102L101.508 55.1702L98.9665 59.418L96.9121 52.4102Z" fill="#167CBF"/>
<defs>
<filter id="filter0_d_2202_37631" x="23" y="2" width="96" height="96" filterUnits="userSpaceOnUse" color-interpolation-filters="sRGB">
<feFlood flood-opacity="0" result="BackgroundImageFix"/>
<feColorMatrix in="SourceAlpha" type="matrix" values="0 0 0 0 0 0 0 0 0 0 0 0 0 0 0 0 0 0 127 0" result="hardAlpha"/>
<feOffset dy="2"/>
<feGaussianBlur stdDeviation="1"/>
<feComposite in2="hardAlpha" operator="out"/>
<feColorMatrix type="matrix" values="0 0 0 0 0.430625 0 0 0 0 0.565885 0 0 0 0 0.6625 0 0 0 0.29 0"/>
<feBlend mode="normal" in2="BackgroundImageFix" result="effect1_dropShadow_2202_37631"/>
<feBlend mode="normal" in="SourceGraphic" in2="effect1_dropShadow_2202_37631" result="shape"/>
</filter>
<filter id="filter1_d_2202_37631" x="7.71094" y="22.6543" width="79.248" height="97.707" filterUnits="userSpaceOnUse" color-interpolation-filters="sRGB">
<feFlood flood-opacity="0" result="BackgroundImageFix"/>
<feColorMatrix in="SourceAlpha" type="matrix" values="0 0 0 0 0 0 0 0 0 0 0 0 0 0 0 0 0 0 127 0" result="hardAlpha"/>
<feOffset dy="2"/>
<feGaussianBlur stdDeviation="1"/>
<feComposite in2="hardAlpha" operator="out"/>
<feColorMatrix type="matrix" values="0 0 0 0 0.430625 0 0 0 0 0.565885 0 0 0 0 0.6625 0 0 0 0.29 0"/>
<feBlend mode="normal" in2="BackgroundImageFix" result="effect1_dropShadow_2202_37631"/>
<feBlend mode="normal" in="SourceGraphic" in2="effect1_dropShadow_2202_37631" result="shape"/>
</filter>
</defs>
</svg>
