<svg width="76" height="56" viewBox="0 0 76 56" fill="none" xmlns="http://www.w3.org/2000/svg">
<g clip-path="url(#clip0_604_13171)">
<g filter="url(#filter0_d_604_13171)">
<path d="M70.5557 51.3371C69.2525 49.1122 65.0936 47.4844 60.1489 47.4844C55.2043 47.4844 51.0454 49.1122 49.7422 51.3371H70.5557Z" fill="#88C4EB"/>
<path d="M73.133 53.6967H47.1641L47.6336 52.6564C47.9216 52.1545 48.3433 51.7434 48.8512 51.4694C49.3591 51.1954 49.9331 51.0695 50.5084 51.1057H69.7887C70.364 51.0695 70.938 51.1954 71.4459 51.4694C71.9538 51.7434 72.3755 52.1545 72.6635 52.6564L73.133 53.6967Z" fill="#167CBF"/>
<path d="M75.9963 55.9992H44.2969L45.0347 54.4677C45.3334 53.9795 45.759 53.5825 46.2656 53.3194C46.7722 53.0563 47.3406 52.9372 47.9095 52.9748H72.3932C72.9594 52.9342 73.5259 53.049 74.0322 53.3068C74.5385 53.5647 74.9657 53.956 75.268 54.4388L75.9963 55.9992Z" fill="#D9E7F0"/>
<path d="M59.4106 15.0924C61.0109 17.7894 11.2291 50.5764 8.54593 52.185C7.25231 52.9564 5.70679 53.1798 4.24934 52.8059C2.7919 52.432 1.54192 51.4914 0.774396 50.1912C0.00687015 48.8909 -0.215335 47.3374 0.156664 45.8725C0.528663 44.4075 1.46439 43.1511 2.75801 42.3797C5.44115 40.8193 57.8103 12.3955 59.4106 15.0924Z" fill="#88C4EB"/>
<path d="M37.4288 23.7133C36.6278 23.5937 35.8099 23.6695 35.0442 23.9342C34.2784 24.199 33.5872 24.645 33.0289 25.2345C32.4705 25.8241 32.0615 26.54 31.8361 27.3219C31.6108 28.1037 31.5759 28.9285 31.7342 29.7268C31.8925 30.525 32.2396 31.2733 32.746 31.9085C33.2524 32.5437 33.9033 33.0471 34.6439 33.3764C35.3845 33.7057 36.193 33.8511 37.0012 33.8004C37.8095 33.7497 38.5937 33.5044 39.2879 33.0852C40.2985 32.4828 41.0653 31.5414 41.4535 30.4268C40.0523 30.0373 38.8555 29.1176 38.1141 27.8607C37.3727 26.6037 37.1443 25.107 37.4767 23.6844L37.4288 23.7133Z" fill="#167CBF"/>
<path opacity="0.44" d="M42.8891 21.4489C42.7954 22.5318 43.069 23.6147 43.6653 24.5215C44.1817 25.4344 44.8643 26.2414 45.6777 26.9006C53.8612 20.9577 59.9846 16.0646 59.4096 15.0918C58.8346 14.119 51.8105 17.1242 42.8891 21.4489Z" fill="#88C4EB"/>
<path d="M64.7764 22.0566C65.0349 18.9366 64.2783 15.8166 62.6203 13.1663C61.0984 10.4474 58.7465 8.29284 55.9124 7.02112C55.5004 6.86971 55.1499 6.58527 54.9158 6.2123C54.6817 5.83934 54.5772 5.39889 54.6187 4.95989C54.7094 3.99789 54.6933 3.02874 54.5708 2.07031L42.9375 9.03419C43.7214 9.60338 44.5669 10.0816 45.4577 10.4597C45.8573 10.6226 46.1931 10.9119 46.4145 11.2839C46.6358 11.6558 46.7305 12.0901 46.6843 12.5209C46.4364 15.647 47.2029 18.7696 48.8692 21.4208C50.3878 24.14 52.7409 26.2924 55.577 27.5564C55.9754 27.7236 56.3098 28.0152 56.5307 28.3881C56.7515 28.7611 56.8472 29.1955 56.8036 29.6272C56.6927 30.5872 56.6927 31.5569 56.8036 32.5168L68.4561 25.5337C67.6703 24.9621 66.8214 24.4838 65.9263 24.1082C65.5455 23.9296 65.2299 23.6358 65.0237 23.2679C64.8175 22.9 64.731 22.4764 64.7764 22.0566Z" fill="#D9E7F0"/>
<path d="M52.5602 1.01012C51.9619 0.631585 51.2711 0.426744 50.5642 0.418244C49.8573 0.409745 49.1618 0.597919 48.5546 0.961959L44.827 3.15804C44.221 3.52618 43.7283 4.05587 43.4035 4.68833C43.0787 5.3208 42.9346 6.03133 42.9871 6.74111L52.5602 1.01012Z" fill="#167CBF"/>
<path d="M59.4691 10.3439L47.9125 17.3367C47.7478 17.4385 47.5647 17.5066 47.3737 17.537C47.1828 17.5674 46.9877 17.5595 46.7998 17.5139C46.6119 17.4682 46.4348 17.3857 46.2787 17.2709C46.1227 17.1562 45.9907 17.0116 45.8905 16.8454C45.7924 16.678 45.7281 16.4927 45.7015 16.3002C45.6748 16.1077 45.6864 15.9119 45.7353 15.7239C45.7843 15.5359 45.8698 15.3594 45.9869 15.2048C46.104 15.0501 46.2504 14.9203 46.4176 14.8227L58.003 7.88774C58.1669 7.78615 58.3493 7.71825 58.5395 7.68796C58.7297 7.65767 58.924 7.66559 59.1111 7.71128C59.2983 7.75696 59.4746 7.83949 59.6298 7.9541C59.785 8.06871 59.916 8.21312 60.0153 8.37897C60.1941 8.71406 60.237 9.10561 60.1352 9.47179C60.0334 9.83797 59.7948 10.1504 59.4691 10.3439Z" fill="#88C4EB"/>
<path d="M55.4929 2.94641L43.2941 10.257C42.9426 10.4535 42.5292 10.506 42.14 10.4038C41.7509 10.3015 41.416 10.0523 41.2051 9.70802C41.0997 9.5312 41.0302 9.33513 41.0006 9.13115C40.971 8.92717 40.9819 8.71932 41.0327 8.5196C41.0835 8.31989 41.1732 8.13227 41.2965 7.96758C41.4199 7.80289 41.5744 7.6644 41.7513 7.5601L53.8734 0.220576C54.05 0.114398 54.2458 0.044362 54.4495 0.014494C54.6532 -0.015374 54.8607 -0.00448508 55.0602 0.0465349C55.2597 0.097555 55.4471 0.1877 55.6118 0.311788C55.7765 0.435876 55.9152 0.59146 56.0199 0.769596C56.1281 0.947144 56.2003 1.14444 56.2324 1.35013C56.2644 1.55583 56.2557 1.76587 56.2067 1.96816C56.1577 2.17046 56.0695 2.36104 55.9469 2.52892C55.8244 2.6968 55.6701 2.83869 55.4929 2.94641Z" fill="#88C4EB"/>
<path d="M68.4772 27.8359V27.9323C68.5272 28.6351 68.3816 29.338 68.0567 29.9623C67.7317 30.5867 67.2402 31.1077 66.6373 31.4672L62.9001 33.7018C62.3058 34.072 61.6205 34.2681 60.9213 34.2681C60.2221 34.2681 59.5368 34.072 58.9424 33.7018H58.8945L68.4772 27.8359Z" fill="#167CBF"/>
<path d="M63.5893 17.3361L52.0039 24.2711C51.6681 24.47 51.4242 24.7943 51.3255 25.1733C51.2268 25.5522 51.2812 25.955 51.4768 26.2938C51.681 26.6275 52.0083 26.8664 52.3871 26.9584C52.7659 27.0504 53.1655 26.9881 53.4988 26.7851L65.0842 19.8404C65.42 19.6416 65.6639 19.3173 65.7626 18.9383C65.8613 18.5593 65.8069 18.1565 65.6113 17.8177C65.5111 17.6514 65.3791 17.5067 65.2228 17.3922C65.0664 17.2777 64.889 17.1956 64.7007 17.1508C64.5125 17.1059 64.3173 17.0992 64.1265 17.1311C63.9357 17.1629 63.753 17.2326 63.5893 17.3361Z" fill="#88C4EB"/>
<path d="M68.177 24.3302L55.9782 31.6408C55.6229 31.8533 55.3659 32.1987 55.2635 32.6013C55.1611 33.004 55.2217 33.431 55.432 33.7887C55.6434 34.1459 55.987 34.4042 56.3876 34.5072C56.7882 34.6101 57.213 34.5492 57.569 34.3378L69.7677 27.0271C70.1237 26.8128 70.3809 26.4657 70.4832 26.0615C70.5855 25.6573 70.5247 25.2288 70.3139 24.8696C70.1009 24.5141 69.7566 24.2577 69.3562 24.1567C68.9557 24.0556 68.5318 24.118 68.177 24.3302Z" fill="#88C4EB"/>
</g>
</g>
<defs>
<filter id="filter0_d_604_13171" x="-2.01953" y="-0.00195312" width="80.0156" height="60.002" filterUnits="userSpaceOnUse" color-interpolation-filters="sRGB">
<feFlood flood-opacity="0" result="BackgroundImageFix"/>
<feColorMatrix in="SourceAlpha" type="matrix" values="0 0 0 0 0 0 0 0 0 0 0 0 0 0 0 0 0 0 127 0" result="hardAlpha"/>
<feOffset dy="2"/>
<feGaussianBlur stdDeviation="1"/>
<feComposite in2="hardAlpha" operator="out"/>
<feColorMatrix type="matrix" values="0 0 0 0 0.430625 0 0 0 0 0.565885 0 0 0 0 0.6625 0 0 0 0.29 0"/>
<feBlend mode="normal" in2="BackgroundImageFix" result="effect1_dropShadow_604_13171"/>
<feBlend mode="normal" in="SourceGraphic" in2="effect1_dropShadow_604_13171" result="shape"/>
</filter>
<clipPath id="clip0_604_13171">
<rect width="76" height="56" fill="white"/>
</clipPath>
</defs>
</svg>
