<svg width="74" height="86" viewBox="0 0 74 86" fill="none" xmlns="http://www.w3.org/2000/svg">
<path d="M38.7886 6.0912C38.2837 5.61147 37.7547 5.15769 37.2038 4.73162C36.6796 4.32806 36.1285 3.96085 35.5543 3.63257C34.9141 3.26941 34.2542 2.94208 33.5777 2.65208C32.8324 2.32759 31.989 1.99842 30.9992 1.63805L34.654 0C35.6377 0.365831 36.4772 0.70202 37.2163 1.03041C37.8885 1.32505 38.5434 1.65761 39.178 2.0265C39.748 2.3604 40.2945 2.73308 40.8135 3.14193C41.3562 3.57462 41.8761 4.03519 42.3711 4.5218L38.7886 6.0912Z" fill="#167CBF"/>
<path d="M42.7821 54.115C41.7579 55.7023 34.4565 52.8075 26.4746 47.6501C18.4927 42.4928 12.8515 37.0239 13.8764 35.4352C14.9012 33.8466 22.202 36.7435 30.1846 41.9015C38.1672 47.0595 43.807 52.5271 42.7821 54.115Z" fill="#88C4EB"/>
<path d="M42.7812 54.5255L6.50825 85.7138L6.50063 85.72C6.20752 85.9498 5.4148 85.8387 4.25483 85.2842C2.48299 84.4375 0.625935 82.98 0.106926 82.0222C-0.0129509 81.7995 -0.0143356 81.6516 0.0203094 81.5246L13.484 35.6562L13.493 35.6625C12.877 37.5301 18.4461 42.929 26.2631 47.9787C34.0801 53.0285 41.2866 55.8872 42.7355 54.5581L42.7812 54.5255Z" fill="#167CBF"/>
<path d="M35.9058 60.4383C34.8103 61.3662 31.5853 60.7909 27.1367 58.6817C20.409 55.4926 13.3764 49.9432 11.4286 46.2857C10.974 45.4313 10.8174 44.7525 10.9602 44.2598C11.2976 43.0952 11.7661 41.5454 12.1035 40.3809C11.9497 40.9125 12.098 41.6412 12.5886 42.5629C14.6895 46.5077 22.2751 52.4944 29.5322 55.9347C34.3308 58.2091 37.7836 58.8212 38.9609 57.8086C38.0373 58.6033 36.8309 59.654 35.9058 60.4383Z" fill="#F2F4FC"/>
<path d="M28.942 66.4251C28.0349 67.1955 25.3616 66.7291 21.6904 64.992C16.1393 62.3658 10.3408 57.7845 8.74016 54.7599C8.36528 54.0534 8.24748 53.4988 8.36597 53.0942C8.70204 51.9421 9.15592 50.4021 9.49129 49.25C9.36102 49.697 9.48368 50.3084 9.89251 51.0815C11.6442 54.3865 17.9874 59.3995 24.0595 62.2707C28.0786 64.1702 30.9653 64.6755 31.959 63.8322L28.9433 66.4251H28.942Z" fill="#F2F4FC"/>
<path d="M22.6368 71.8431C21.9189 72.4442 19.7591 72.0333 16.8016 70.6202C12.328 68.4833 7.63618 64.7966 6.32168 62.3863C6.01471 61.8227 5.93295 61.389 6.02373 61.0676C6.34455 59.9357 6.80536 58.4477 7.12549 57.3164C7.02363 57.6759 7.08183 58.1402 7.42484 58.7697C8.89316 61.4625 14.1338 65.5802 19.1306 67.967C22.4345 69.5452 24.805 69.9713 25.6074 69.3009L22.6368 71.8438V71.8431Z" fill="#F2F4FC"/>
<path d="M16.3397 77.2569C15.7923 77.715 14.1189 77.4013 11.8648 76.3248C8.45554 74.6959 4.88001 71.883 3.87872 70.0494C3.6445 69.6198 3.60154 69.3137 3.67084 69.0681C3.99236 67.9298 4.46078 66.4273 4.783 65.2891C4.70262 65.5729 4.71371 65.9172 4.98603 66.4134C6.14184 68.5336 10.2697 71.7768 14.2021 73.6563C16.804 74.8993 18.6715 75.2352 19.3027 74.707L16.3356 77.2569H16.3397Z" fill="#F2F4FC"/>
<path d="M10.0148 82.6981C9.63782 83.0132 8.47439 82.7994 6.92013 82.0568C4.5697 80.9339 2.10425 78.9969 1.41339 77.7302C1.25263 77.4339 1.27481 77.2646 1.32262 77.0952L2.45695 73.2246C2.39806 73.4328 2.34608 73.6612 2.54357 74.0248C3.39172 75.5801 6.41984 77.9593 9.30591 79.3383C11.2156 80.2496 12.5696 80.4911 13.0332 80.1017L10.0148 82.6967V82.6981Z" fill="#F2F4FC"/>
<path d="M42.7071 52.9049C42.9275 53.415 42.9663 53.8293 42.7827 54.1146C41.7578 55.7018 34.4564 52.807 26.4745 47.6497C18.4926 42.4924 12.8514 37.0234 13.8762 35.4348C14.0599 35.1502 14.4527 35.0149 15.0085 35.0059C14.2975 34.9851 13.7931 35.1273 13.57 35.473C12.4862 37.1518 18.1676 42.7526 26.2596 47.9808C34.3517 53.2089 41.7897 56.0863 42.8734 54.4075C43.0938 54.0632 43.0189 53.5448 42.7071 52.9049Z" fill="#167CBF"/>
<path d="M54.3224 52.0922C54.146 51.2687 54.6695 50.4579 55.4917 50.2813C56.3138 50.1046 57.1233 50.6289 57.2997 51.4523C57.4761 52.2758 56.9526 53.0866 56.1305 53.2633C55.3083 53.44 54.4988 52.9156 54.3224 52.0922Z" fill="#D9E7F0"/>
<path d="M32.0335 18.4098C31.2763 18.0436 30.9588 17.1319 31.3243 16.3735C31.6899 15.615 32.6002 15.297 33.3574 15.6632C34.1147 16.0293 34.4322 16.941 34.0666 17.6995C33.701 18.4579 32.7908 18.7759 32.0335 18.4098Z" fill="#D9E7F0"/>
<path d="M3.33465 26.9677C2.41061 26.6274 1.93699 25.6012 2.27679 24.6757C2.61658 23.7502 3.64112 23.2759 4.56516 23.6162C5.4892 23.9565 5.96282 24.9827 5.62302 25.9082C5.28323 26.8337 4.25869 27.308 3.33465 26.9677Z" fill="#167CBF"/>
<path d="M54.4384 32.0403C53.7541 31.943 53.278 31.3085 53.3752 30.6231C53.4723 29.9376 54.1059 29.4609 54.7902 29.5582C55.4745 29.6555 55.9505 30.29 55.8534 30.9754C55.7562 31.6608 55.1227 32.1376 54.4384 32.0403Z" fill="#88C4EB"/>
<path d="M44.0174 42.0161C43.9306 42.1507 43.8058 42.2564 43.6589 42.32C43.512 42.3836 43.3496 42.4021 43.1922 42.3733C43.0348 42.3444 42.8895 42.2695 42.7746 42.1579C42.6597 42.0463 42.5805 41.9031 42.5468 41.7464C42.5132 41.5898 42.5267 41.4266 42.5856 41.2776C42.6445 41.1286 42.7463 41.0004 42.8779 40.9093C43.0096 40.8182 43.1652 40.7682 43.3252 40.7657C43.4852 40.7632 43.6423 40.8083 43.7768 40.8952C43.9568 41.0121 44.0833 41.1957 44.1284 41.4058C44.1735 41.6159 44.1336 41.8354 44.0174 42.0161Z" fill="#D9E7F0"/>
<path d="M50.4237 18.5956C50.4237 18.5956 53.5132 17.3273 52.6713 12.9288C51.8294 8.53021 53.6362 7.69402 53.6362 7.69402L55.9337 7.32897C55.9337 7.32897 56.6058 6.22056 57.5287 9.32661C58.4515 12.4327 56.9142 20.5589 53.5973 20.002C49.1465 19.2579 50.4237 18.5956 50.4237 18.5956Z" fill="#167CBF"/>
<path d="M54.707 19.8455C54.707 19.8455 52.6977 20.8167 49.8201 20.8541C48.4183 20.8744 45.1154 18.046 45.7416 14.0461C45.7416 14.0461 45.5858 13.4127 47.0756 12.543C48.5655 11.6732 49.7531 11.0609 50.1129 11.4182C50.1129 11.4182 49.5911 12.4712 49.9066 13.9977C50.1059 14.9618 50.4315 15.5702 51.2757 17.078C52.637 19.5117 54.0536 20.1591 54.707 19.8455Z" fill="#88C4EB"/>
<path d="M56.3769 7.17141C56.3769 7.17141 55.7328 6.48655 52.7944 7.85471C51.4463 8.48185 50.6224 9.93893 50.8903 11.4062C51.0093 12.0177 51.1762 12.6188 51.3895 13.2041C52.6885 16.8515 55.3247 19.3195 57.2164 19.0543C61.0636 18.5161 62.5496 17.6245 63.1562 17.0644C63.1562 17.0644 60.7693 18.6362 58.0038 15.545C54.8528 12.0185 54.5786 7.31181 56.3769 7.17141Z" fill="#88C4EB"/>
<path d="M43.1426 32.3509C43.0694 31.3829 42.9868 30.5327 42.8723 29.748C42.7703 29.0028 42.6286 28.2636 42.4479 27.5335C42.266 26.8087 42.0448 26.0945 41.7851 25.3939C41.5141 24.6552 41.1878 23.876 40.7945 23L37.9208 24.1505C38.3257 25.0312 38.6606 25.8151 38.9402 26.5569C39.2079 27.2614 39.4367 27.9801 39.6256 28.7098C39.8127 29.4438 39.9601 30.1875 40.0671 30.9375C40.1839 31.7277 40.2743 32.5841 40.3522 33.5584L43.1426 32.3509Z" fill="#88C4EB"/>
<path d="M17.8103 20.2135C17.7168 19.4335 25.5772 17.5934 25.4915 16.5373L25.2041 13.8984C25.2874 14.503 17.4364 16.4515 17.5159 17.4865L17.8103 20.2135Z" fill="#88C4EB"/>
<path d="M15.9573 15.6637C15.863 14.8836 25.5785 11.6481 25.4936 10.5935L25.2078 7.95312C25.2857 8.55764 15.5835 11.9032 15.6621 12.9367L15.9573 15.6637Z" fill="#88C4EB"/>
<path d="M15.9547 15.6344C16.0022 16.0705 18.066 16.0666 20.6913 15.7819C23.3166 15.4972 25.4466 16.1071 25.4902 16.5042C25.4902 16.5042 25.2659 14.4332 25.1982 13.8037C25.1359 13.2304 23.0254 12.7975 20.3993 13.0822C17.7732 13.3669 15.7148 13.4153 15.6634 12.9395C15.6634 12.9395 15.9049 15.1711 15.9547 15.6344Z" fill="#167CBF"/>
<path d="M18.3612 8.89529C20.8206 8.23695 25.3337 9.09498 25.502 10.655C25.502 10.655 25.2777 8.58406 25.2099 7.95458C25.0339 6.33291 20.6929 5.62153 18.0699 6.19797L18.3612 8.89529Z" fill="#167CBF"/>
<path d="M18.3403 25.108C18.2461 24.328 26.1065 22.4879 26.0208 21.4318L25.7334 18.793C25.8175 19.3975 17.9657 21.346 18.0452 22.3811L18.3403 25.108Z" fill="#88C4EB"/>
<path d="M20.7144 28.6344C20.7144 28.6344 26.6332 27.3668 26.5499 26.3107L26.2633 23.6719C26.4191 25.1352 20.244 26.3068 20.244 26.3068L20.7144 28.6344Z" fill="#88C4EB"/>
<path d="M18.3439 25.1305C18.3906 25.5666 19.8462 25.8833 22.4715 25.5985C25.0968 25.3138 26.5158 26.001 26.5586 26.3973L26.2673 23.6976C26.205 23.1243 24.8047 22.6142 22.1794 22.8989C19.5541 23.1836 18.1032 22.9114 18.0518 22.4355C18.0518 22.434 18.2933 24.6672 18.3439 25.1305Z" fill="#167CBF"/>
<path d="M17.8029 20.1325C17.8496 20.5685 19.3044 20.8852 21.9305 20.6005C24.5566 20.3158 25.9755 21.003 26.0176 21.4C26.0176 21.4 25.7941 19.3291 25.7263 18.6996C25.664 18.1263 24.2645 17.6161 21.6384 17.9008C19.0123 18.1855 17.563 17.9133 17.5108 17.4375C17.5116 17.4375 17.7523 19.6691 17.8029 20.1325Z" fill="#167CBF"/>
<path d="M69.752 33.0059C68.8112 33.1977 69.9747 43.4184 68.7208 43.7281L65.555 44.4106C66.2871 44.2756 65.2544 34.023 66.481 33.7149L69.752 33.0059Z" fill="#167CBF"/>
<path d="M69.7779 33.0001C69.8994 32.9736 72.6556 36.7177 73.1875 38.9907L69.9508 39.6927C69.1829 36.4081 67.7975 33.4299 66.5475 33.7014L69.7779 33.0001Z" fill="#88C4EB"/>
<path d="M63.8633 34.2832C62.9225 34.4751 64.086 44.6957 62.8322 45.0054L59.6679 45.6879C60.4 45.553 59.3673 35.3004 60.5947 34.9915L63.8633 34.2832Z" fill="#167CBF"/>
<path d="M55.4355 36.1094C53.2612 36.5774 49.3851 44.6896 46.8252 45.2419L43.661 45.9244C46.3821 45.3378 49.2231 37.4557 52.167 36.8184L55.4355 36.1094Z" fill="#167CBF"/>
<path d="M63.8885 34.279C64.4111 34.1651 65.3846 35.8008 66.154 39.0863C67.1594 43.3834 67.263 44.0441 68.7832 43.7173L65.5465 44.4193C64.8596 44.5683 63.686 43.0745 62.9173 39.7899C62.1487 36.5052 61.2289 34.857 60.6588 34.981L63.8885 34.279Z" fill="#88C4EB"/>
<path d="M55.2134 36.1572C56.218 35.9396 57.7055 37.3069 59.4266 40.2484C61.1306 43.1626 62.316 45.1157 62.791 45.0128L59.5544 45.7148C58.8675 45.8638 57.8636 43.8833 56.1907 40.9512C54.5358 38.0511 52.9027 36.6611 51.9853 36.8584L55.2134 36.1572Z" fill="#88C4EB"/>
<path d="M30.6617 35.0611L34.1507 33.1562L35.6172 36.0618L30.7147 37.1414L30.6617 35.0611Z" fill="#167CBF"/>
</svg>
