<svg width="96" height="96" viewBox="0 0 96 96" fill="none" xmlns="http://www.w3.org/2000/svg">
<mask id="mask0_684_14867" style="mask-type:alpha" maskUnits="userSpaceOnUse" x="0" y="0" width="96" height="96">
<circle cx="48" cy="48" r="48" fill="white"/>
</mask>
<g mask="url(#mask0_684_14867)">
<path d="M41.9297 76.5308C41.9297 76.5308 44.0692 77.7907 45.7903 76.7828C47.5115 75.7748 48.7211 75.0189 48.7211 75.0189L44.9411 72.7988L41.9297 76.5308Z" fill="#D9E7F0"/>
<path d="M41.9297 76.5308C41.9297 76.5308 44.0692 77.7907 45.7903 76.7828C47.5115 75.7748 48.7211 75.0189 48.7211 75.0189L44.9411 72.7988L41.9297 76.5308Z" fill="#88C4EB"/>
<path d="M70.7286 62.8948C69.9348 64.0615 68.2892 65.2912 64.9477 63.4214C65.0233 63.5424 66.0414 65.1601 65.5676 67.0677C65.5146 67.2848 65.4438 67.4972 65.3559 67.7027L65.3358 67.7481C64.3429 70.016 61.2862 70.1848 60.4445 69.9076C60.4646 69.9505 61.0115 71.1071 60.137 72.5182C60.0257 72.6948 59.9019 72.8633 59.7666 73.0222C58.3655 74.6803 56.4251 74.2822 55.8379 74.1032C55.3845 73.9311 54.9598 73.6916 54.5779 73.3926C54.4831 74.0275 54.2415 74.6314 53.8723 75.1566C53.6367 75.4874 53.3241 75.7557 52.9613 75.9384C52.5986 76.1211 52.1968 76.2125 51.7908 76.2048C50.1654 76.2174 48.8878 75.7588 47.4161 74.9625C47.0834 74.7836 46.7432 74.5871 46.3854 74.3754C45.9242 74.1007 45.4354 73.8009 44.9087 73.4783C42.1543 71.7925 31.4368 66.5032 31.4368 66.5032C31.4368 66.5032 29.456 64.8653 27.1931 63.0359C25.2426 61.4559 23.083 59.7298 21.8104 58.7924L19.6759 57.7693L13.4465 54.7857L10.5334 53.3973L2.13672 49.378L13.6783 32.8828L19.3685 35.37L26.5051 38.4871L30.7463 40.3417L40.4155 38.1015L42.7314 37.5572L50.4829 42.471L69.6727 54.6396L70.4287 57.7139L71.1847 59.4072C71.2679 59.5951 71.3158 59.7967 71.3258 60.0019C71.3246 60.0153 71.3246 60.0288 71.3258 60.0422C71.3611 60.6798 71.3183 62.0279 70.7286 62.8948Z" fill="#D9E7F0"/>
<path d="M46.394 74.3889C45.9328 74.1143 45.444 73.8144 44.9173 73.4918C42.1629 71.806 31.4454 66.5168 31.4454 66.5168C31.4454 66.5168 29.4646 64.8789 27.2017 63.0494C25.2512 61.4669 23.0916 59.7433 21.819 58.8059L19.6845 57.7828L13.4551 54.7993L14.7756 52.4961L24.2004 56.9437C24.2004 56.9437 35.9032 66.794 39.275 68.9208C42.6468 71.0476 46.2705 73.8094 46.2705 73.8094L46.394 74.3889Z" fill="#88C4EB"/>
<path opacity="0.5" d="M71.1989 59.4105L70.4429 57.7172L69.6869 54.6429L50.4971 42.4743L42.7456 37.5605L40.4297 38.1048L38.9707 40.2014L32.459 49.1319C32.459 49.1319 33.5703 51.9315 37.1411 51.6316C40.712 51.3318 43.7158 46.3751 44.9758 45.7855C45.4798 45.5537 48.272 46.5414 51.737 48.0105C56.8576 50.8454 66.8444 56.4068 68.9713 57.8381C69.8775 58.4226 70.6791 59.1552 71.3426 60.0052C71.3317 59.7999 71.283 59.5982 71.1989 59.4105Z" fill="#88C4EB"/>
<path opacity="0.5" d="M65.572 67.0766C63.556 65.6629 60.1716 63.3572 58.4429 62.1729C55.6104 60.2325 55.9633 57.7832 55.9633 57.7832L64.947 63.4227C65.0277 63.5512 66.0458 65.169 65.572 67.0766Z" fill="#88C4EB"/>
<path opacity="0.5" d="M60.1409 72.528C58.707 71.5628 56.3609 69.9778 54.9321 69.0001C52.7649 67.5285 52.6641 64.7012 52.6641 64.7012L60.4408 69.9098C60.4685 69.9602 61.0153 71.1168 60.1409 72.528Z" fill="#88C4EB"/>
<path opacity="0.5" d="M54.5871 73.4091C54.4922 74.0439 54.2506 74.6479 53.8815 75.173C52.4384 74.3352 51.0412 73.4209 49.6958 72.4339C47.8108 70.9699 47.9091 69.4453 47.9091 69.4453L54.5871 73.4091Z" fill="#88C4EB"/>
<path d="M98.5127 45.0596L82.3721 50.9637L75.8201 53.3626C75.7747 53.418 75.7268 53.471 75.6789 53.5239C74.5463 54.7715 73.266 55.8767 71.8662 56.8149C71.027 57.3894 70.4449 57.7145 70.4449 57.7145L69.9913 57.1324C69.5336 56.5439 68.9705 56.0457 68.3306 55.6633L65.5914 54.0228L60.4077 50.9133L59.4426 50.3362L58.8252 49.9658L47.8355 43.3763C47.4326 43.1357 46.954 43.0557 46.4948 43.152C46.418 43.1671 46.3422 43.1873 46.268 43.2125L43.1054 44.3061L42.9265 44.3666C42.8648 44.3887 42.8042 44.414 42.7451 44.4422C42.4235 44.5919 42.1515 44.8307 41.9613 45.1301C39.5396 48.9553 37.0196 50.1497 35.1271 50.3765C34.9005 50.404 34.6725 50.4183 34.4442 50.4194C34.0101 50.4223 33.5771 50.3749 33.1539 50.2783C32.9701 50.2355 32.7977 50.1532 32.6488 50.0372C32.4999 49.9213 32.3779 49.7743 32.2914 49.6065C32.2049 49.4388 32.1558 49.2542 32.1477 49.0656C32.1396 48.877 32.1725 48.6889 32.2442 48.5143L35.6815 40.9975C35.9801 40.2442 36.534 39.6198 37.2464 39.2336L46.5704 34.1938C47.1798 33.8639 47.8742 33.7243 48.5637 33.7931L64.6766 35.4159L69.6713 33.5764L76.1981 31.1649L91.2223 25.6211L97.3509 41.9752L98.5127 45.0596Z" fill="#D9E7F0"/>
<path d="M47.4261 74.9755C46.6701 74.5647 45.8562 74.0633 44.9187 73.4913C42.1644 71.8055 31.4468 66.5162 31.4468 66.5162C31.4468 66.5162 29.4661 64.8783 27.2031 63.0488C28.2111 63.0791 30.2624 63.4445 32.3641 65.5687L35.1487 64.2332C35.1487 64.2332 38.1954 64.4852 39.3596 68.5019L42.2349 67.2193C42.8906 67.5902 43.4475 68.1131 43.8589 68.7442C44.2702 69.3752 44.524 70.0958 44.5987 70.8454C44.5987 70.8454 46.9095 71.6694 47.2951 73.1133C47.4648 73.7187 47.5094 74.3523 47.4261 74.9755Z" fill="#88C4EB"/>
<path d="M29.3764 67.9777C28.8735 68.0364 28.3643 67.9489 27.9098 67.7257C26.1962 66.9319 24.5834 63.8148 25.8686 62.9026C25.8686 62.9026 26.5565 62.2122 28.3432 63.2831C29.3915 63.9131 30.0745 64.5204 30.4751 65.1226C30.7364 65.4955 30.897 65.9295 30.9413 66.3826C31.0043 67.0982 30.3592 67.8466 29.3764 67.9777Z" fill="#D9E7F0"/>
<path d="M29.377 67.9781C29.6453 66.9916 30.0134 66.035 30.4757 65.123C30.737 65.4959 30.8976 65.9299 30.9419 66.383C31.0049 67.0986 30.3598 67.847 29.377 67.9781Z" fill="#88C4EB"/>
<path d="M32.2619 72.087C31.8966 72.0051 31.5512 71.8514 31.2458 71.6347C30.9405 71.4181 30.6813 71.1429 30.4834 70.8251C30.2854 70.5073 30.1527 70.1534 30.0929 69.7838C30.0331 69.4142 30.0474 69.0365 30.135 68.6725C30.4174 67.4322 30.901 66.2464 31.5664 65.1623C33.0784 62.7911 37.5413 63.794 37.0953 67.7704L35.3817 71.6258C35.3817 71.6258 33.8293 72.4196 32.2619 72.087Z" fill="#D9E7F0"/>
<path d="M42.6835 70.3485L40.6171 74.6475C40.5037 74.7029 38.4726 75.4035 36.7565 74.1788C36.6456 74.0981 36.5423 74.0142 36.4465 73.9268C35.1059 72.7903 35.3831 71.616 35.3831 71.616L37.0967 67.7606C37.0967 67.7606 38.3265 65.4045 40.4609 65.9488L40.5945 65.9866C42.8095 66.6771 43.2354 68.7232 42.6835 70.3485Z" fill="#D9E7F0"/>
<path d="M46.5089 72.6846C46.2847 73.8085 45.3422 76.6811 45.3422 76.6811C44.9516 77.0541 44.3039 77.4598 42.5399 76.8197C42.2283 76.7091 41.9352 76.5519 41.6705 76.3535C41.1128 75.9418 40.7355 75.3307 40.6172 74.6476L42.3106 71.1197C43.0666 70.4696 43.7848 70.3234 44.4098 70.4494C45.7328 70.7191 46.6072 72.1831 46.5089 72.6846Z" fill="#D9E7F0"/>
<path d="M40.4595 65.9586C39.8522 66.4096 38.7232 67.4705 37.9546 69.5091C37.3826 71.0336 36.8358 72.6968 36.4426 73.9366C35.102 72.8001 35.3792 71.6258 35.3792 71.6258L37.0928 67.7704C37.0928 67.7704 38.3251 65.4143 40.4595 65.9586Z" fill="#88C4EB"/>
<path d="M44.4098 70.4553C44.0041 70.8056 43.4018 71.5389 42.8373 73.0332C42.3661 74.2805 41.9629 75.4674 41.6705 76.3544C41.1128 75.9426 40.7355 75.3315 40.6172 74.6484L42.3106 71.1206C43.0666 70.4755 43.7848 70.3293 44.4098 70.4553Z" fill="#88C4EB"/>
<path d="M97.3545 41.9677C85.4802 45.9743 71.7563 50.6815 70.5265 51.4299C69.6055 51.9827 68.6015 52.3835 67.5529 52.6168C66.2677 51.7978 64.6247 50.7621 62.8305 49.6408C65.8242 47.2746 65.5621 43.4494 65.5621 43.4494C64.6398 46.3826 63.1253 48.0155 61.6738 48.9201C55.3309 44.9689 47.7155 40.3525 47.156 40.3247C46.2362 40.2945 42.2042 41.6023 42.2042 41.6023C42.2042 41.6023 41.9522 45.6342 38.6762 48.154C37.5706 49.0133 36.38 49.7571 35.123 50.3741C37.0156 50.1473 39.5356 48.9529 41.9573 45.1277C42.0297 45.0154 42.1142 44.9115 42.2093 44.8177C42.2436 44.7822 42.2798 44.7486 42.3176 44.7169L42.3403 44.6968C42.3781 44.664 42.4184 44.6338 42.4562 44.606H42.4688L42.5848 44.5304H42.6075C42.6523 44.5044 42.6986 44.4809 42.746 44.4599C42.7734 44.4447 42.8021 44.4321 42.8317 44.4221L42.9275 44.3843L43.1064 44.3238L46.269 43.2302L46.3774 43.1974H46.4051L46.4807 43.1798C46.9444 43.0803 47.4286 43.1595 47.8365 43.4015L58.8262 49.991L60.4087 50.9385L65.5924 54.0481L68.3266 55.6659C68.9665 56.0483 69.5296 56.5465 69.9872 57.135L70.4408 57.717C70.4408 57.717 71.023 57.392 71.8621 56.8174C73.3215 55.8394 74.6502 54.6793 75.816 53.3652L98.5137 45.0495L97.3545 41.9677Z" fill="#88C4EB"/>
<path d="M44 86.0024C41.7968 86.4396 41.4416 86.7998 41 89C40.5584 86.7998 40.2032 86.4396 38 86.0024C40.2032 85.5605 40.5584 85.205 41 83C41.4416 85.205 41.7968 85.5605 44 86.0024Z" fill="#167CBF"/>
<path d="M62 15.0024C59.7968 15.4396 59.4416 15.7998 59 18C58.5584 15.7998 58.2032 15.4396 56 15.0024C58.2032 14.5605 58.5584 14.205 59 12C59.4416 14.205 59.7968 14.5605 62 15.0024Z" fill="#167CBF"/>
<path d="M36 26.0024C33.7968 26.4396 33.4416 26.7998 33 29C32.5584 26.7998 32.2032 26.4396 30 26.0024C32.2032 25.5605 32.5584 25.205 33 23C33.4416 25.205 33.7968 25.5605 36 26.0024Z" fill="#167CBF"/>
<path opacity="0.2" d="M26.5075 38.4882L19.6858 57.783L10.5332 53.3984L19.3708 35.3711L26.5075 38.4882Z" fill="#167CBF"/>
<path d="M25.4304 36.8431L15.5798 58.3303L8.75309 55.2283L1.82812 52.086L13.4302 31.0625L18.2535 33.3858L25.4304 36.8431Z" fill="#003B62"/>
<path d="M17.1628 31.7189L16.6814 32.626L16.0061 33.9011L11.6339 42.1487L10.9585 43.4263L6.65688 51.5404L5.4876 53.7453L1.8588 60.5918L-10.4438 53.4076L-13.3469 51.7117L-15 50.7466V13.9688L3.23472 24.9933L17.1628 31.7189Z" fill="#167CBF"/>
<path opacity="0.2" d="M82.3727 50.9629L75.8207 53.3618C75.7753 53.4172 75.7274 53.4702 75.6796 53.5231L69.6719 33.5756L76.1987 31.1641L82.3727 50.9629Z" fill="#167CBF"/>
<path d="M93.2173 49.6682L86.509 51.9588L78.9238 54.5467L71.2051 32.2053L78.7626 29.4335L83.7093 27.6191L93.2173 49.6682Z" fill="#003B62"/>
<path d="M111.001 14.6445V49.5526L92.3578 58.1329L89.4119 50.9688L88.4896 48.7261L87.1388 45.4376L84.9716 40.166L84.4223 38.8279L80.602 29.5396L80.3222 28.8618L79.9316 27.9093L94.4468 22.5696L111.001 14.6445Z" fill="#167CBF"/>
</g>
</svg>
