<svg width="76" height="76" viewBox="0 0 76 76" fill="none" xmlns="http://www.w3.org/2000/svg">
<g clip-path="url(#clip0_685_14543)">
<path d="M38 0C17.0131 0 0 17.0131 0 38C0 58.9869 17.0131 76 38 76C58.9869 76 76 58.9869 76 38C76 17.0131 58.9869 0 38 0Z" fill="#167CBF"/>
<path d="M38.0006 5.13867C40.2268 5.13801 42.4474 5.36174 44.6288 5.80646C48.8291 6.66684 52.8188 8.34596 56.3703 10.748C61.6558 14.3156 65.7935 19.3394 68.282 25.2108C69.1212 27.1965 69.7619 29.2604 70.1947 31.3723C71.0847 35.7463 71.0847 40.2548 70.1947 44.6288C69.3343 48.8291 67.6552 52.8188 65.2531 56.3703C61.6855 61.6558 56.6617 65.7935 50.7903 68.282C48.8046 69.1212 46.7407 69.7619 44.6288 70.1947C40.2548 71.0847 35.7463 71.0847 31.3723 70.1947C27.1721 69.3343 23.1823 67.6552 19.6309 65.2531C14.3453 61.6855 10.2076 56.6617 7.71913 50.7903C6.87992 48.8046 6.23924 46.7407 5.80646 44.6288C4.91608 40.2548 4.91608 35.7463 5.80646 31.3723C6.66684 27.1721 8.34596 23.1823 10.748 19.6309C14.3156 14.3453 19.3394 10.2076 25.2108 7.71913C27.1965 6.87992 29.2604 6.23924 31.3723 5.80646C33.5537 5.36174 35.7743 5.13801 38.0006 5.13867Z" fill="#D9E7F0"/>
<g opacity="0.2">
<path d="M25.2104 68.2806C27.1962 69.1198 29.2601 69.7605 31.372 70.1932C35.746 71.0833 40.2544 71.0833 44.6284 70.1932C48.8287 69.3329 52.8185 67.6537 56.3699 65.2517C61.6555 61.6841 65.7932 56.6603 68.2817 50.7889C69.1209 48.8032 69.7615 46.7393 70.1943 44.6273C71.0844 40.2534 71.0844 35.7449 70.1943 31.3709C69.4734 27.8485 68.1748 24.4696 66.351 21.3711C60.4716 22.9141 49.1497 26.7273 38.3156 36.4713C26.4145 47.1744 21.4401 59.3311 19.4785 65.1486C19.514 65.1739 19.5664 65.2094 19.6305 65.2527C21.3884 66.4398 23.2571 67.4538 25.2104 68.2806Z" fill="white"/>
</g>
<g filter="url(#filter0_d_685_14543)">
<path d="M48.1474 17.3142C47.8198 17.2402 47.4887 17.1706 47.1665 17.1034L46.7151 17.0084L46.6624 16.998H26.5036L26.497 21.8494C26.4916 25.5337 26.4866 29.2178 26.4821 32.9018C26.4808 34.0489 26.4821 35.1734 26.4821 36.3644C26.4821 36.7385 26.4821 37.1152 26.4821 37.4945H24.1973V43.1185H26.4441V44.7953H24.1973V50.4193H26.4849V63.5741H32.0835V50.3737H49.3535V44.7867H32.1046V43.1025H32.2865C33.2338 43.1025 34.1808 43.1031 35.1276 43.1043C37.4076 43.1063 39.7656 43.1084 42.0851 43.1002C42.4233 43.1002 42.7691 43.1002 43.1035 43.1025C44.2519 43.1084 45.439 43.1144 46.6081 43.0032C49.6205 42.7162 52.4683 41.336 54.6269 39.1168C56.7818 36.9014 58.0722 34.0355 58.2587 31.0474C58.6681 24.5033 54.4159 18.7276 48.1474 17.3142ZM32.1056 22.5749H32.7191C33.952 22.5749 35.1859 22.5743 36.4209 22.5729C39.1956 22.5706 42.0646 22.5681 44.8857 22.579C48.4843 22.5929 51.273 24.522 52.3423 27.7394C53.077 29.9482 52.697 32.4301 51.329 34.3785C49.9846 36.2906 47.9194 37.4185 45.6627 37.473C42.453 37.5505 39.1835 37.5327 36.0216 37.5158C34.7385 37.5087 33.4145 37.5016 32.1066 37.5008L32.1056 22.5749Z" fill="#88C4EB"/>
</g>
<path d="M46.8056 16.6052C46.478 16.5312 46.1469 16.4616 45.8247 16.3944L45.3733 16.2994L45.3206 16.2891H25.1618L25.1552 21.1396C25.1498 24.8239 25.1448 28.5081 25.1403 32.1921C25.1403 33.3392 25.1403 34.4637 25.1403 35.6546C25.1403 36.0287 25.1403 36.4054 25.1403 36.7847H22.8555V42.4087H25.1023V44.0856H22.8555V49.7096H25.1431V62.8644H30.7417V49.6647H48.0117V44.0777H30.7628V42.3935H30.9447C31.892 42.3935 32.839 42.3941 33.7858 42.3953C36.0658 42.3973 38.4238 42.3994 40.7433 42.3913C41.0815 42.3913 41.4273 42.3913 41.7617 42.3935C42.9101 42.3994 44.0972 42.4055 45.2664 42.2942C48.2787 42.0072 51.1265 40.627 53.2851 38.4078C55.44 36.1924 56.7304 33.3265 56.9169 30.3384C57.3263 23.7943 53.0741 18.0186 46.8056 16.6052ZM30.7638 21.8659H31.3773C32.6102 21.8659 33.8441 21.8653 35.0791 21.8639C37.8538 21.8616 40.7228 21.8591 43.5439 21.87C47.1425 21.8839 49.9312 23.8131 51.0006 27.0304C51.7352 29.2392 51.3552 31.7211 49.9872 33.6695C48.6428 35.5817 46.5776 36.7095 44.3209 36.764C41.1112 36.8415 37.8417 36.8238 34.6798 36.8068C33.3967 36.7997 32.0728 36.7926 30.7648 36.7918L30.7638 21.8659Z" fill="#167CBF"/>
<path opacity="0.6" d="M68.3991 25.3763C69.2385 27.3619 69.8791 29.4258 70.3118 31.5376C71.2022 35.9116 71.2022 40.4201 70.3118 44.794C69.4514 48.9943 67.7723 52.9841 65.3702 56.5355C61.8026 61.8211 56.7788 65.9588 50.9075 68.4473C48.9218 69.2867 46.8578 69.9274 44.7459 70.3599C40.3719 71.2503 35.8634 71.2503 31.4895 70.3599C27.2892 69.4995 23.2995 67.8204 19.748 65.4184C18.0114 64.2444 16.3902 62.9082 14.9062 61.4277C15.2047 61.7511 15.5093 62.0684 15.82 62.3797C18.8163 65.3787 22.3637 67.7708 26.2672 69.4244C28.2528 70.2637 30.3167 70.9044 32.4286 71.337C36.8026 72.2274 41.3112 72.2274 45.6852 71.337C49.8855 70.4766 53.8752 68.7975 57.4267 66.3955C62.7113 62.8279 66.8482 57.8046 69.3364 51.934C70.1759 49.9483 70.8166 47.8844 71.2491 45.7724C72.1395 41.3985 72.1395 36.8899 71.2491 32.516C70.3888 28.3156 68.7099 24.3257 66.3081 20.774C65.128 19.0273 63.7837 17.3973 62.2938 15.9062L62.2684 15.8809C64.8448 18.6682 66.919 21.8806 68.3991 25.3758V25.3763Z" fill="#88C4EB"/>
<path opacity="0.6" d="M38.9391 0.977107C49.4608 0.977107 58.9833 5.25337 65.8644 12.1625C58.9253 4.6816 49.0091 0 38 0C17.0131 0 0 17.0131 0 38C0 48.4652 4.23067 57.9424 11.0747 64.8146C4.78496 58.0344 0.939107 48.9559 0.939107 38.9771C0.939107 17.9902 17.9525 0.977107 38.9391 0.977107Z" fill="#88C4EB"/>
<path opacity="0.6" d="M10.7305 54.0917C9.89129 52.1063 9.25069 50.0428 8.8181 47.9311C7.92772 43.5571 7.92772 39.0485 8.8181 34.6745C9.67819 30.4739 11.3573 26.4838 13.7596 22.9322C17.327 17.6467 22.3505 13.509 28.2217 11.0205C30.2072 10.181 32.2711 9.54033 34.383 9.10782C38.7569 8.21743 43.2655 8.21743 47.6394 9.10782C51.84 9.96818 55.83 11.6474 59.3817 14.0496C60.8824 15.0646 62.2974 16.201 63.6123 17.4473C60.2079 13.2264 55.8143 9.91103 50.8213 7.7953C48.8355 6.95609 46.7716 6.31541 44.6597 5.88263C40.2858 4.99225 35.7772 4.99225 31.4033 5.88263C27.2034 6.74306 23.214 8.42209 19.6628 10.8239C14.3777 14.3917 10.2405 19.4155 7.75233 25.2867C6.91312 27.2724 6.27245 29.3364 5.83966 31.4483C4.94928 35.8222 4.94928 40.3307 5.83966 44.7047C6.70005 48.905 8.37916 52.8947 10.7812 56.4462C11.9613 58.1925 13.3053 59.8222 14.795 61.3132C15.0037 61.522 15.2155 61.7279 15.4304 61.9311C14.8409 61.2012 14.2836 60.4481 13.7584 59.6719C12.5713 57.9139 11.5573 56.0451 10.7305 54.0917Z" fill="#88C4EB"/>
</g>
<defs>
<filter id="filter0_d_685_14543" x="22.1973" y="16.998" width="38.0879" height="50.5762" filterUnits="userSpaceOnUse" color-interpolation-filters="sRGB">
<feFlood flood-opacity="0" result="BackgroundImageFix"/>
<feColorMatrix in="SourceAlpha" type="matrix" values="0 0 0 0 0 0 0 0 0 0 0 0 0 0 0 0 0 0 127 0" result="hardAlpha"/>
<feOffset dy="2"/>
<feGaussianBlur stdDeviation="1"/>
<feComposite in2="hardAlpha" operator="out"/>
<feColorMatrix type="matrix" values="0 0 0 0 0.430625 0 0 0 0 0.565885 0 0 0 0 0.6625 0 0 0 0.29 0"/>
<feBlend mode="normal" in2="BackgroundImageFix" result="effect1_dropShadow_685_14543"/>
<feBlend mode="normal" in="SourceGraphic" in2="effect1_dropShadow_685_14543" result="shape"/>
</filter>
<clipPath id="clip0_685_14543">
<rect width="76" height="76" fill="white"/>
</clipPath>
</defs>
</svg>
