<svg width="77" height="85" viewBox="0 0 77 85" fill="none" xmlns="http://www.w3.org/2000/svg">
<g clip-path="url(#clip0_606_13393)">
<path d="M60.7317 82.8949L10.189 74.2647C9.71528 74.182 9.29359 73.9172 9.01586 73.5279C8.73814 73.1386 8.62689 72.6563 8.70636 72.1864L20.1255 6.26718C20.2086 5.79781 20.4756 5.38013 20.8682 5.1052C21.2609 4.83027 21.7475 4.72037 22.2218 4.79945L72.7638 13.4306C73.2375 13.5133 73.6592 13.7781 73.937 14.1674C74.2147 14.5567 74.3259 15.0389 74.2465 15.5089L62.8273 81.4281C62.744 81.8972 62.4771 82.3145 62.0846 82.5892C61.6921 82.8639 61.2059 82.9738 60.7317 82.8949Z" fill="#167CBF"/>
<path d="M63.3776 32.4607L24.6997 25.8511C24.3489 25.7902 24.0366 25.5941 23.831 25.3056C23.6255 25.0172 23.5434 24.6599 23.6027 24.3117C23.6638 23.9637 23.8614 23.654 24.1523 23.4503C24.4433 23.2467 24.8038 23.1656 25.155 23.2249L63.8329 29.8345C64.1837 29.8954 64.496 30.0915 64.7016 30.3799C64.9071 30.6684 64.9892 31.0257 64.9299 31.3738C64.8688 31.7218 64.6712 32.0315 64.3803 32.2352C64.0893 32.4389 63.7288 32.52 63.3776 32.4607Z" fill="#88C4EB"/>
<path d="M62.3267 38.4956L23.6488 31.886C23.298 31.825 22.9858 31.6288 22.7803 31.3404C22.5747 31.052 22.4926 30.6947 22.5518 30.3466C22.613 29.9988 22.8106 29.6893 23.1013 29.4857C23.392 29.2821 23.7522 29.2009 24.1033 29.2598L62.7812 35.8694C63.132 35.9303 63.4443 36.1264 63.65 36.4148C63.8556 36.7033 63.9378 37.0606 63.8786 37.4087C63.8173 37.7565 63.6197 38.066 63.3289 38.2697C63.0381 38.4733 62.6778 38.5545 62.3267 38.4956Z" fill="#88C4EB"/>
<path d="M61.2744 44.531L22.5964 37.9214C22.2456 37.8604 21.9333 37.6643 21.7276 37.3758C21.522 37.0873 21.4398 36.7299 21.499 36.3817C21.5604 36.0339 21.7581 35.7245 22.0488 35.5209C22.3396 35.3173 22.6998 35.236 23.0509 35.2948L61.7289 41.9045C62.0796 41.9655 62.3919 42.1617 62.5974 42.4502C62.803 42.7387 62.8851 43.0961 62.8259 43.4442C62.7646 43.7919 62.567 44.1014 62.2763 44.305C61.9856 44.5086 61.6254 44.5898 61.2744 44.531Z" fill="#88C4EB"/>
<path d="M60.2213 50.564L21.5434 43.9544C21.1926 43.8935 20.8803 43.6974 20.6748 43.409C20.4692 43.1205 20.3871 42.7632 20.4464 42.415C20.5075 42.0672 20.7051 41.7577 20.9958 41.554C21.2865 41.3504 21.6468 41.2692 21.9979 41.3283L60.6759 47.9379C61.0266 47.9988 61.3389 48.1949 61.5445 48.4833C61.7501 48.7718 61.8322 49.1291 61.7729 49.4772C61.7117 49.825 61.5142 50.1346 61.2234 50.3382C60.9327 50.5419 60.5724 50.6231 60.2213 50.564Z" fill="#88C4EB"/>
<path d="M59.1685 56.599L20.4905 49.9894C20.1398 49.9284 19.8276 49.7323 19.622 49.4438C19.4165 49.1554 19.3343 48.7981 19.3935 48.45C19.4549 48.1023 19.6525 47.7929 19.9431 47.5893C20.2338 47.3857 20.594 47.3044 20.9451 47.3632L59.623 53.9728C59.9738 54.0337 60.2861 54.2298 60.4918 54.5182C60.6974 54.8067 60.7796 55.164 60.7204 55.5122C60.6591 55.86 60.4615 56.1695 60.1707 56.3731C59.8799 56.5767 59.5196 56.6579 59.1685 56.599Z" fill="#88C4EB"/>
<path d="M58.1142 62.6347L19.4363 56.0251C19.0855 55.9641 18.7731 55.768 18.5675 55.4795C18.3619 55.191 18.2797 54.8336 18.3389 54.4854C18.4003 54.1375 18.598 53.8279 18.889 53.6242C19.1799 53.4206 19.5403 53.3394 19.8916 53.3985L58.5695 60.0081C58.9203 60.0692 59.2325 60.2654 59.4381 60.5539C59.6436 60.8424 59.7258 61.1997 59.6666 61.5479C59.6053 61.8957 59.4076 62.2053 59.1167 62.409C58.8258 62.6126 58.4654 62.6938 58.1142 62.6347Z" fill="#88C4EB"/>
<path d="M57.0631 68.6695L18.3852 62.0599C18.0344 61.999 17.7221 61.8029 17.5165 61.5144C17.311 61.226 17.2289 60.8686 17.2882 60.5205C17.3493 60.1727 17.5469 59.8631 17.8376 59.6595C18.1283 59.4558 18.4886 59.3747 18.8397 59.4337L57.5176 66.0433C57.8684 66.1042 58.1807 66.3003 58.3863 66.5888C58.5918 66.8772 58.674 67.2346 58.6147 67.5827C58.5535 67.9305 58.356 68.2401 58.0652 68.4437C57.7745 68.6474 57.4142 68.7285 57.0631 68.6695Z" fill="#88C4EB"/>
<path d="M56.0122 74.7025L17.3343 68.0929C16.9836 68.0319 16.6713 67.8358 16.4658 67.5474C16.2602 67.2589 16.1781 66.9016 16.2373 66.5535C16.2986 66.2058 16.4962 65.8964 16.7869 65.6928C17.0776 65.4892 17.4377 65.4079 17.7888 65.4668L56.4668 72.0764C56.8175 72.1373 57.1299 72.3333 57.3355 72.6218C57.5411 72.9102 57.6233 73.2675 57.5642 73.6157C57.5028 73.9635 57.3052 74.273 57.0144 74.4766C56.7237 74.6802 56.3634 74.7615 56.0122 74.7025Z" fill="#88C4EB"/>
<g filter="url(#filter0_d_606_13393)">
<path d="M47.3614 3.14867L5.73268 3.15099C5.34497 3.151 4.9611 3.2267 4.60302 3.37375C4.24493 3.5208 3.91963 3.73634 3.64571 4.00804C3.37178 4.27975 3.15458 4.6023 3.00653 4.95728C2.85847 5.31226 2.78245 5.69272 2.78281 6.07692L2.83532 70.7527C2.83599 71.5286 3.14767 72.2727 3.70179 72.8212C4.25591 73.3698 5.00709 73.678 5.79008 73.6779L56.4106 73.6728C57.1931 73.6723 57.9432 73.3638 58.4959 72.8153C59.0486 72.2667 59.3587 71.523 59.3581 70.7475L59.311 14.982L47.3614 3.14867Z" fill="#D9E7F0"/>
</g>
<path d="M47.4168 12.054C47.4171 12.4382 47.4937 12.8186 47.6424 13.1736C47.791 13.5285 48.0087 13.851 48.2831 14.1227C48.5574 14.3943 48.8831 14.6098 49.2414 14.7568C49.5997 14.9038 49.9837 14.9794 50.3714 14.9794L59.3639 14.9778L47.4095 3.14472L47.4168 12.054Z" fill="#88C4EB"/>
<path d="M49.8945 14.9355L59.3637 16.4741L59.3624 14.9716L49.8945 14.9355Z" fill="#D9E7F0"/>
<path d="M43.8153 17.4359L18.3365 17.4384C18.0055 17.4375 17.6883 17.3067 17.454 17.0744C17.2198 16.8422 17.0875 16.5274 17.0862 16.1989C17.0868 15.8705 17.2182 15.5558 17.4518 15.3233C17.6853 15.0909 18.002 14.9596 18.3328 14.958L43.8112 14.9559C44.1424 14.9563 44.46 15.0869 44.6946 15.3191C44.9292 15.5513 45.0617 15.8662 45.0631 16.1949C45.0627 16.5236 44.9312 16.8386 44.6974 17.0712C44.4635 17.3037 44.1464 17.4349 43.8153 17.4359Z" fill="#167CBF"/>
<path d="M52.1359 25.8251L10.0142 25.829C9.68317 25.8282 9.36586 25.6973 9.13157 25.4649C8.89729 25.2326 8.7651 24.9177 8.76388 24.589C8.76457 24.2603 8.89626 23.9453 9.13018 23.7129C9.36411 23.4805 9.68123 23.3496 10.0123 23.3487L52.1339 23.3444C52.4649 23.3453 52.7821 23.4763 53.0163 23.7086C53.2505 23.941 53.3826 24.2559 53.3838 24.5845C53.3833 24.9132 53.2517 25.2282 53.0178 25.4606C52.784 25.6931 52.4669 25.8241 52.1359 25.8251Z" fill="#88C4EB"/>
<path d="M52.134 32.1161L10.0119 32.1204C9.68088 32.1194 9.36364 31.9883 9.12945 31.7559C8.89526 31.5235 8.76313 31.2086 8.76193 30.8799C8.76273 30.5513 8.89441 30.2365 9.12822 30.0041C9.36203 29.7718 9.67899 29.6407 10.0099 29.6397L52.132 29.6354C52.463 29.6364 52.7802 29.7674 53.0144 29.9998C53.2486 30.2322 53.3807 30.5472 53.3819 30.8758C53.3812 31.2044 53.2496 31.5193 53.0158 31.7517C52.7819 31.9841 52.4649 32.1151 52.134 32.1161Z" fill="#88C4EB"/>
<path d="M52.134 38.4075L10.0119 38.4114C9.68093 38.4106 9.36364 38.2797 9.12943 38.0473C8.89521 37.8149 8.76311 37.5 8.76201 37.1714C8.7626 36.8427 8.89419 36.5277 9.12803 36.2952C9.36186 36.0627 9.67893 35.9317 10.0099 35.9307L52.1321 35.9268C52.463 35.9277 52.7802 36.0587 53.0144 36.291C53.2486 36.5234 53.3808 36.8382 53.382 37.1669C53.3812 37.4955 53.2495 37.8104 53.0157 38.0428C52.7819 38.2752 52.465 38.4063 52.134 38.4075Z" fill="#88C4EB"/>
<path d="M52.1336 44.7001L10.0119 44.7044C9.68089 44.7035 9.36359 44.5725 9.12938 44.3401C8.89516 44.1076 8.76307 43.7926 8.76197 43.4639C8.76266 43.1353 8.89431 42.8204 9.12814 42.588C9.36198 42.3556 9.67899 42.2247 10.0099 42.2237L52.1316 42.2194C52.4627 42.2204 52.7799 42.3514 53.0142 42.5838C53.2484 42.8162 53.3807 43.1311 53.382 43.4598C53.3812 43.7885 53.2495 44.1034 53.0156 44.3358C52.7817 44.5682 52.4646 44.6992 52.1336 44.7001Z" fill="#88C4EB"/>
<path d="M52.1319 50.9911L10.0102 50.9953C9.67929 50.9943 9.3621 50.8634 9.12786 50.631C8.89363 50.3987 8.76136 50.0839 8.75993 49.7553C8.76072 49.4266 8.89243 49.1117 9.12631 48.8792C9.36019 48.6468 9.67725 48.5157 10.0083 48.5146L52.13 48.5108C52.461 48.5116 52.7783 48.6425 53.0126 48.8748C53.2469 49.1072 53.3791 49.4221 53.3803 49.7508C53.3796 50.0795 53.2479 50.3944 53.014 50.6269C52.7801 50.8593 52.4629 50.9902 52.1319 50.9911Z" fill="#88C4EB"/>
<path d="M52.13 57.2821L10.0092 57.2863C9.67798 57.2856 9.36046 57.1547 9.12601 56.9223C8.89156 56.6899 8.75925 56.3748 8.75801 56.046C8.75871 55.7173 8.89035 55.4024 9.12419 55.1701C9.35802 54.9377 9.67504 54.8067 10.006 54.8057L52.1281 54.8014C52.459 54.8023 52.7762 54.9333 53.0104 55.1656C53.2446 55.398 53.3768 55.7129 53.378 56.0415C53.3774 56.3702 53.2458 56.6852 53.012 56.9176C52.7781 57.1501 52.4611 57.2811 52.13 57.2821Z" fill="#88C4EB"/>
<path d="M38.9044 65.7518C38.8723 65.5533 38.6477 65.4554 38.4951 65.6064C38.2921 65.8086 38.0808 66.0092 37.8373 66.1636L37.4811 66.3489C37.2484 66.503 37.1001 66.4152 37.0361 66.0858C37.2382 65.8602 36.8989 65.5599 36.6872 65.7723C36.4246 66.0344 36.0772 66.3883 35.6662 66.3804C35.5331 66.3711 35.4021 66.3418 35.2778 66.2934C35.3558 66.221 35.4262 66.141 35.4879 66.0545C35.5385 65.9819 35.5113 65.8907 35.4765 65.8196C35.3803 65.6229 35.2632 65.4981 35.1684 65.3647C36.0337 64.3065 36.7328 62.9862 36.9901 61.7399C37.0395 61.4987 36.7532 61.3801 36.586 61.5322C35.801 62.245 35.1114 63.1131 34.7075 64.0977C34.5647 64.4455 34.4532 64.819 34.5557 65.1947C34.5682 65.2323 34.5828 65.2692 34.5992 65.3053C34.3934 65.5412 34.1729 65.764 33.9388 65.9725C33.6218 66.2515 33.2833 66.4895 32.8925 66.6562C32.6143 66.775 32.1963 66.9591 31.9686 66.7009C32.5836 66.2704 33.0571 65.7004 32.7078 65.0907C32.1829 64.1698 31.3259 65.7292 31.3596 66.5467C31.0553 66.7235 30.7342 66.8703 30.4009 66.9849C30.1167 67.0857 30.2619 67.5296 30.548 67.4278C30.8823 67.3059 31.2061 67.1577 31.5164 66.9846C32.1734 67.8954 33.8217 66.7236 34.3661 66.2222C34.5282 66.0726 34.6874 65.9104 34.8445 65.7404C35.0041 65.9661 35.0087 65.9253 34.6975 66.1827C34.5414 66.3126 34.5685 66.5447 34.7745 66.6058C35.1555 66.7185 35.5545 66.9098 35.955 66.822C36.0785 66.7919 36.197 66.744 36.3065 66.6799C36.3138 66.7107 36.3274 66.7397 36.3465 66.7651C36.3655 66.7905 36.3897 66.8117 36.4174 66.8274C37.1038 67.1778 37.8814 66.7483 38.4565 66.2719C38.4196 67.0206 38.111 67.7306 37.5875 68.2713C36.7797 69.0813 35.6264 69.025 34.5684 68.9305C34.2707 68.904 34.1658 69.3588 34.4655 69.3852C35.6197 69.4878 36.8493 69.5492 37.773 68.7381C38.5816 68.0289 39.0748 66.8138 38.9044 65.7518ZM32.0337 65.6092C32.3667 65.2923 32.1753 65.8465 32.0621 65.9889C31.988 66.0778 31.9046 66.1587 31.8132 66.2302C31.8067 66.0767 31.9397 65.6985 32.0337 65.6092ZM35.0123 64.6418C35.0621 64.2734 35.3348 63.8415 35.5286 63.522C35.7435 63.1674 35.9905 62.8331 36.2667 62.523C35.9606 63.3429 35.5345 64.1137 35.0021 64.8107C35.0023 64.7543 35.0057 64.6978 35.0123 64.6418Z" fill="#88C4EB"/>
<path d="M48.0471 69.9056C47.1567 69.8584 46.3002 69.5506 45.5859 69.0212C44.8717 68.4917 44.3317 67.7645 44.0344 66.9313C43.7371 66.0981 43.6957 65.1964 43.9155 64.3402C44.1353 63.4841 44.6064 62.7119 45.2693 62.1214C45.9322 61.5309 46.757 61.1486 47.6395 61.0227C48.522 60.8969 49.4225 61.0332 50.2271 61.4144C51.0318 61.7957 51.7045 62.4047 52.1601 63.1645C52.6157 63.9243 52.8338 64.8008 52.7868 65.6831C52.7226 66.8658 52.1874 67.9746 51.2988 68.7662C50.4103 69.5578 49.2408 69.9675 48.0471 69.9056ZM48.471 61.9481C47.7731 61.9111 47.0799 62.0799 46.479 62.4334C45.8782 62.7868 45.3967 63.3089 45.0956 63.9337C44.7944 64.5584 44.687 65.2578 44.787 65.9433C44.887 66.6289 45.1899 67.2698 45.6574 67.785C46.1249 68.3002 46.7359 68.6665 47.4133 68.8377C48.0907 69.009 48.8039 68.9773 49.4628 68.7468C50.1218 68.5163 50.6968 68.0973 51.1152 67.5428C51.5336 66.9883 51.7765 66.3232 51.8133 65.6316C51.8617 64.7046 51.537 63.7961 50.9104 63.1056C50.2838 62.415 49.4065 61.9988 48.471 61.9481Z" fill="#88C4EB"/>
<path d="M54.4879 61.6362L54.4574 61.6446C54.1031 61.7407 53.7564 61.8621 53.4199 62.0079L52.9315 62.2235L52.4681 62.4645C51.8604 62.7854 51.2775 63.1503 50.724 63.5563C50.157 63.9379 49.6486 64.3806 49.1432 64.8278C48.8607 65.0803 48.5911 65.3465 48.3279 65.6196C48.148 65.4868 47.9629 65.3585 47.7711 65.2358C47.5136 65.0557 47.2275 64.9007 46.9477 64.7403C46.6545 64.581 46.3513 64.4407 46.0399 64.3201L46.0102 64.309C45.9968 64.3045 45.9824 64.3045 45.969 64.3089C45.9556 64.3133 45.944 64.3219 45.936 64.3334C45.9281 64.3449 45.9241 64.3587 45.9247 64.3727C45.9253 64.3867 45.9305 64.4 45.9395 64.4108C46.7355 65.3405 47.5516 66.2523 48.3681 67.1641C48.3896 67.1873 48.4194 67.2012 48.4511 67.2029C48.4828 67.2046 48.5139 67.1939 48.5378 67.1732C49.556 66.2861 50.5682 65.392 51.5638 64.4802L53.0657 63.1211C53.5693 62.6716 54.0558 62.2034 54.552 61.7454C54.5625 61.7356 54.5694 61.7225 54.5716 61.7083C54.5738 61.6942 54.5712 61.6797 54.5642 61.6671C54.5572 61.6546 54.5461 61.6447 54.5328 61.639C54.5195 61.6334 54.5047 61.6323 54.4907 61.6359L54.4879 61.6362Z" fill="#167CBF"/>
</g>
<defs>
<filter id="filter0_d_606_13393" x="0.783203" y="3.14844" width="60.5742" height="74.5293" filterUnits="userSpaceOnUse" color-interpolation-filters="sRGB">
<feFlood flood-opacity="0" result="BackgroundImageFix"/>
<feColorMatrix in="SourceAlpha" type="matrix" values="0 0 0 0 0 0 0 0 0 0 0 0 0 0 0 0 0 0 127 0" result="hardAlpha"/>
<feOffset dy="2"/>
<feGaussianBlur stdDeviation="1"/>
<feComposite in2="hardAlpha" operator="out"/>
<feColorMatrix type="matrix" values="0 0 0 0 0.430625 0 0 0 0 0.565885 0 0 0 0 0.6625 0 0 0 0.29 0"/>
<feBlend mode="normal" in2="BackgroundImageFix" result="effect1_dropShadow_606_13393"/>
<feBlend mode="normal" in="SourceGraphic" in2="effect1_dropShadow_606_13393" result="shape"/>
</filter>
<clipPath id="clip0_606_13393">
<rect width="77" height="85" fill="white"/>
</clipPath>
</defs>
</svg>
