<svg width="85" height="96" viewBox="0 0 85 96" fill="none" xmlns="http://www.w3.org/2000/svg">
<g clip-path="url(#clip0_684_14607)">
<path d="M84.9562 42.7612C84.9562 18.801 65.3785 -0.557153 41.4479 0.0142873C18.467 0.562123 -0.0740357 19.7708 0.000222279 42.9028C0.058847 60.9233 11.1956 76.3109 26.9119 82.5446C30.8202 84.0967 34.2644 86.644 36.7677 90.0432L40.3673 94.9314C40.6116 95.2634 40.9299 95.5331 41.2965 95.7189C41.663 95.9048 42.0678 96.0016 42.4782 96.0016C42.8887 96.0016 43.2934 95.9048 43.66 95.7189C44.0266 95.5331 44.3448 95.2634 44.5892 94.9314L48.1888 90.0432C50.6901 86.646 54.1304 84.0947 58.0387 82.5476C73.8 76.2991 84.9562 60.8456 84.9562 42.7612Z" fill="#D9E7F0"/>
<path opacity="0.2" d="M84.9997 42.7592C84.9997 59.7991 75.096 74.5012 60.7681 81.3702C71.1447 73.5776 77.867 61.1269 77.867 47.0907C77.867 23.1305 58.2893 3.77337 34.3577 4.34383C28.4387 4.48153 22.6158 5.87862 17.2715 8.44325C24.2781 3.16806 32.7432 0.221203 41.4903 0.0122929C65.4219 -0.558164 84.9997 18.799 84.9997 42.7592Z" fill="#88C4EB"/>
<path d="M52.7349 34.0315C52.726 36.6076 52.2748 39.1627 51.4012 41.5841C51.0612 39.0564 51.0748 36.3271 50.3958 33.6784C49.2526 29.2141 45.1352 27.721 40.625 27.9315C38.9503 28.0102 33.5392 27.5607 31.9739 27.0857C30.6148 26.6736 33.0839 26.2811 31.8762 25.6753C31.7248 25.5995 31.5763 25.5218 31.4277 25.4451V22.5859H48.5012C51.0846 25.2858 52.7349 29.4088 52.7349 34.0315Z" fill="#D9E7F0"/>
<g clip-path="url(#clip1_684_14607)">
<g filter="url(#filter0_d_684_14607)">
<path d="M62.5354 50.0491C63.4543 50.0491 64.3355 49.6877 64.9852 49.0443C65.635 48.4009 66 47.5282 66 46.6183C66 45.7084 65.635 44.8357 64.9852 44.1923C64.3355 43.5489 63.4543 43.1875 62.5354 43.1875H61.5453V43.1592C62.4541 43.14 63.3191 42.769 63.9549 42.1258C64.5907 41.4826 64.9468 40.6183 64.9468 39.7182C64.9468 38.8181 64.5907 37.9538 63.9549 37.3106C63.3191 36.6673 62.4541 36.2964 61.5453 36.2771L47.779 36.4497C50.4404 31.8282 50.4166 25.1814 50.0475 21.9812C49.9549 21.1663 49.5645 20.4131 48.9498 19.8636C48.3351 19.3141 47.5387 19.0063 46.7106 18.9982C45.8826 18.9901 45.0801 19.2823 44.4546 19.8196C43.8291 20.357 43.4237 21.1024 43.3148 21.9153C42.9422 24.5047 42.111 27.0087 40.8594 29.3119C39.703 31.4721 38.4024 33.6919 36.5489 35.3783C34.4245 37.3094 31.7331 38.7903 29.3647 40.4171C29.322 40.4469 28.9434 40.6524 28.9434 40.7057V56.8732C28.9434 56.8732 33.5279 58.1141 37.7022 60.2381C38.6143 60.7392 39.6405 61.0016 40.6836 61.0006H61.5453C61.8696 61.0088 62.1922 60.9526 62.4942 60.8354C62.7962 60.7182 63.0714 60.5423 63.3036 60.3181C63.5359 60.0939 63.7205 59.8259 63.8465 59.53C63.9725 59.234 64.0375 58.9161 64.0375 58.5949C64.0375 58.2737 63.9725 57.9558 63.8465 57.6598C63.7205 57.3639 63.5359 57.0959 63.3036 56.8717C63.0714 56.6475 62.7962 56.4716 62.4942 56.3544C62.1922 56.2372 61.8696 56.181 61.5453 56.1892C62.3646 56.1892 63.1503 55.8669 63.7297 55.2932C64.309 54.7196 64.6344 53.9415 64.6344 53.1302C64.6344 52.3189 64.309 51.5408 63.7297 50.9671C63.1503 50.3934 62.3646 50.0711 61.5453 50.0711V50.0429L62.5354 50.0491Z" fill="white"/>
</g>
<g filter="url(#filter1_d_684_14607)">
<path d="M29.1192 36.4277H20.2574C19.0107 36.4277 18 37.4286 18 38.6632V58.7651C18 59.9997 19.0107 61.0005 20.2574 61.0005H29.1192C30.3659 61.0005 31.3766 59.9997 31.3766 58.7651V38.6632C31.3766 37.4286 30.3659 36.4277 29.1192 36.4277Z" fill="#167CBF"/>
</g>
<path d="M26.9974 59.1865C28.1567 59.1865 29.0965 58.2559 29.0965 57.1079C29.0965 55.9599 28.1567 55.0293 26.9974 55.0293C25.8382 55.0293 24.8984 55.9599 24.8984 57.1079C24.8984 58.2559 25.8382 59.1865 26.9974 59.1865Z" fill="#88C4EB"/>
<path d="M26.1185 58.5849C27.2778 58.5849 28.2176 57.6543 28.2176 56.5063C28.2176 55.3583 27.2778 54.4277 26.1185 54.4277C24.9593 54.4277 24.0195 55.3583 24.0195 56.5063C24.0195 57.6543 24.9593 58.5849 26.1185 58.5849Z" fill="#D9E7F0"/>
</g>
</g>
<defs>
<filter id="filter0_d_684_14607" x="26.9434" y="18.998" width="41.0566" height="46.0039" filterUnits="userSpaceOnUse" color-interpolation-filters="sRGB">
<feFlood flood-opacity="0" result="BackgroundImageFix"/>
<feColorMatrix in="SourceAlpha" type="matrix" values="0 0 0 0 0 0 0 0 0 0 0 0 0 0 0 0 0 0 127 0" result="hardAlpha"/>
<feOffset dy="2"/>
<feGaussianBlur stdDeviation="1"/>
<feComposite in2="hardAlpha" operator="out"/>
<feColorMatrix type="matrix" values="0 0 0 0 0.430625 0 0 0 0 0.565885 0 0 0 0 0.6625 0 0 0 0.29 0"/>
<feBlend mode="normal" in2="BackgroundImageFix" result="effect1_dropShadow_684_14607"/>
<feBlend mode="normal" in="SourceGraphic" in2="effect1_dropShadow_684_14607" result="shape"/>
</filter>
<filter id="filter1_d_684_14607" x="16" y="36.4277" width="17.377" height="28.5723" filterUnits="userSpaceOnUse" color-interpolation-filters="sRGB">
<feFlood flood-opacity="0" result="BackgroundImageFix"/>
<feColorMatrix in="SourceAlpha" type="matrix" values="0 0 0 0 0 0 0 0 0 0 0 0 0 0 0 0 0 0 127 0" result="hardAlpha"/>
<feOffset dy="2"/>
<feGaussianBlur stdDeviation="1"/>
<feComposite in2="hardAlpha" operator="out"/>
<feColorMatrix type="matrix" values="0 0 0 0 0.430625 0 0 0 0 0.565885 0 0 0 0 0.6625 0 0 0 0.29 0"/>
<feBlend mode="normal" in2="BackgroundImageFix" result="effect1_dropShadow_684_14607"/>
<feBlend mode="normal" in="SourceGraphic" in2="effect1_dropShadow_684_14607" result="shape"/>
</filter>
<clipPath id="clip0_684_14607">
<rect width="85" height="96" fill="white"/>
</clipPath>
<clipPath id="clip1_684_14607">
<rect width="49" height="46" fill="white" transform="translate(18 19)"/>
</clipPath>
</defs>
</svg>
