<svg width="85" height="96" viewBox="0 0 85 96" fill="none" xmlns="http://www.w3.org/2000/svg">
<g clip-path="url(#clip0_608_13326)">
<path d="M84.9562 42.7612C84.9562 18.801 65.3785 -0.557153 41.4479 0.0142873C18.467 0.562123 -0.0740357 19.7708 0.000222279 42.9028C0.058847 60.9233 11.1956 76.3109 26.9119 82.5446C30.8202 84.0967 34.2644 86.644 36.7677 90.0432L40.3673 94.9314C40.6116 95.2634 40.9299 95.5331 41.2965 95.7189C41.663 95.9048 42.0678 96.0016 42.4782 96.0016C42.8887 96.0016 43.2934 95.9048 43.66 95.7189C44.0266 95.5331 44.3448 95.2634 44.5892 94.9314L48.1888 90.0432C50.6901 86.646 54.1304 84.0947 58.0387 82.5476C73.8 76.2991 84.9562 60.8456 84.9562 42.7612Z" fill="#D9E7F0"/>
<path opacity="0.2" d="M84.9997 42.7592C84.9997 59.7991 75.096 74.5012 60.7681 81.3702C71.1447 73.5776 77.867 61.1269 77.867 47.0907C77.867 23.1305 58.2893 3.77337 34.3577 4.34383C28.4387 4.48153 22.6158 5.87862 17.2715 8.44325C24.2781 3.16806 32.7432 0.221203 41.4903 0.0122929C65.4219 -0.558164 84.9997 18.799 84.9997 42.7592Z" fill="#88C4EB"/>
<path d="M70.6833 65.4685C64.1222 73.9624 53.8755 79.4201 42.3616 79.4201C30.8478 79.4201 20.6001 73.9624 14.0391 65.4685C14.5675 63.2195 15.6782 61.1515 17.2581 59.4748C18.838 57.798 20.8309 56.5723 23.0341 55.9222C24.1704 55.5898 25.2813 55.339 26.2633 55.2524L26.3727 55.2426C26.4704 55.2337 26.5623 55.2259 26.6561 55.216C28.5741 55.0439 30.3817 54.8826 32.0925 54.7361C32.1043 54.7361 32.116 54.7361 32.1267 54.7361L32.2977 54.7223L33.7741 54.5994L33.8718 54.5905C34.5499 54.5367 35.2114 54.4856 35.8563 54.4371C37.3531 54.3269 38.768 54.2355 40.1075 54.1705C40.8823 54.1332 41.6308 54.1037 42.3548 54.084L42.7368 54.0948C44.0852 54.1371 45.5118 54.2099 47.0272 54.3092L47.845 54.3643C48.3443 54.3997 48.8524 54.4371 49.3722 54.4764H49.4054C49.8744 54.5118 50.3522 54.5492 50.8388 54.5885C51.3547 54.6299 51.8804 54.6735 52.4158 54.7194C53.8677 54.8413 55.3936 54.9751 56.9934 55.1206C57.437 55.16 57.8845 55.2003 58.3408 55.2426L58.4512 55.2524C59.4283 55.339 60.5451 55.5898 61.6756 55.9222C63.8814 56.5698 65.8771 57.7945 67.4595 59.4715C69.0419 61.1485 70.1543 63.2178 70.6833 65.4685Z" fill="#167CBF"/>
<path d="M56.8102 57.4881L51.2408 59.7267L48.0165 61.4164H35.6281L32.6461 59.5585L27.9141 57.493C28.3606 56.3197 33.161 56.6855 34.0208 54.2729C35.3047 50.6731 33.2528 47.2081 33.2528 47.2081C33.2528 47.2081 34.224 46.8147 35.6281 46.3377C37.0595 45.8547 38.9443 45.2941 40.7138 44.9961H44.0114C45.3667 45.2398 46.7048 45.5717 48.0175 45.9895C49.9785 46.5983 51.4665 47.2081 51.4665 47.2081C51.4665 47.2081 49.4147 50.6731 50.6986 54.2729C51.5623 56.6806 56.3637 56.3147 56.8102 57.4881Z" fill="white"/>
<path d="M68.4123 66.607C68.3351 61.6076 65.2983 57.2416 60.924 55.8863L53.4542 54.0176C50.1458 56.3437 47.2009 57.7639 42.3634 57.7639C37.5259 57.7639 34.5809 56.3437 31.2726 54.0176L23.8028 55.8863C19.4284 57.2436 16.3907 61.6096 16.3145 66.607H68.4123Z" fill="#167CBF"/>
<path d="M52.7347 34.8302C52.7347 39.6496 51.0551 44.8437 47.9686 48.3284C44.2557 52.5212 38.5143 52.6461 34.7467 48.5339C31.5732 45.0679 29.8613 39.6869 29.8613 34.8302C29.8613 26.6933 34.9812 20.0977 41.2932 20.0977C47.6051 20.0977 52.7347 26.6933 52.7347 34.8302Z" fill="white"/>
<path d="M29.8724 64.0168C30.4244 64.7938 31.0722 65.4144 31.7103 66.0989C31.8744 66.274 32.0601 66.5229 32.2965 66.5838C32.4812 66.631 32.4597 66.457 32.4626 66.3025C32.4644 66.1147 32.452 65.9269 32.4255 65.7409C32.3766 65.3731 32.2926 65.0131 32.2301 64.6492C32.0767 63.7955 31.9418 62.93 31.8217 62.0704C31.724 61.3425 31.6429 60.6118 31.4924 59.9016C31.6929 60.3663 31.9991 60.777 32.3864 61.1006C32.5869 61.2723 32.8024 61.4254 33.0303 61.5579C33.1407 61.6228 33.2541 61.6828 33.3684 61.7379C33.4514 61.7773 33.6361 61.8982 33.725 61.8766C33.7123 61.6661 33.598 61.4222 33.5423 61.2206C33.3009 60.3434 33.1146 59.4519 32.9844 58.5512C32.9639 58.4086 32.9443 58.266 32.9267 58.1234C32.9179 58.0486 32.8593 57.8647 32.8877 57.7968C33.0713 57.3651 33.9918 56.9992 34.3298 56.6864C34.8681 56.1942 35.313 55.6077 35.643 54.9554C36.2732 53.6876 36.3211 52.2015 36.2859 50.791C36.2566 49.5665 35.8902 47.7784 36.5976 46.7103C40.6359 40.6054 46.1593 41.6775 46.9654 43.4833C47.4618 44.5967 46.981 46.3602 46.8179 47.506C46.5912 49.1033 46.2404 50.8048 46.5433 52.4159C46.7299 53.4142 47.0123 54.4056 47.4696 55.2967C47.8037 55.9478 48.2415 56.5536 48.7994 56.9913C48.9851 57.1384 49.1862 57.2644 49.3993 57.367C49.5002 57.4153 49.604 57.4574 49.71 57.4929C49.9719 57.5824 50.2132 57.4988 50.0139 57.8863C49.9299 58.0476 49.8517 58.208 49.7765 58.3781C49.6104 58.7469 49.4482 59.1177 49.3036 59.4974C49.1767 59.8117 49.077 60.1365 49.0056 60.4681C48.8903 61.0681 48.8307 61.6828 48.7681 62.2926C48.732 62.6467 48.7681 63.0037 48.7163 63.3568C49.1072 62.9083 49.3153 62.1618 49.5957 61.6297C49.7612 61.2875 49.9825 60.9757 50.2503 60.7071C50.4761 60.4918 50.605 60.299 50.8982 60.2577C50.691 61.9199 49.9572 63.468 49.2176 64.9128C48.9528 65.4301 48.5668 66.0114 48.1916 66.6124H50.3774C51.8931 64.9322 53.2293 63.0963 54.3639 61.135C60.7745 49.8665 59.2111 36.5572 55.468 24.5894C54.5671 21.7105 53.4327 18.7796 51.587 16.4623C50.6207 15.2496 49.3084 14.2395 47.9894 13.5432C46.9859 13.013 45.5467 12.4967 44.5911 13.4035C44.3449 13.6356 44.3615 13.6927 44.0664 13.5874C43.8427 13.5078 43.6179 13.435 43.3922 13.3651C43.0151 13.2491 42.6203 13.0996 42.2305 13.0445C41.0746 12.8812 39.8972 13.0652 38.7726 13.3661C36.2087 14.0546 33.9693 15.6981 32.2955 17.914C29.6711 21.3889 28.3462 25.8709 27.4688 30.2084C26.2902 36.0526 25.8171 42.0187 26.0598 47.9771C26.2836 53.4407 26.6793 59.5289 29.8724 64.0168Z" fill="#003B62"/>
<path d="M52.7347 34.0304C52.7258 36.6065 52.2746 39.1617 51.401 41.5831C50.5989 43.8039 49.4469 45.8605 47.9686 47.5286C44.2557 51.7195 38.5143 51.8454 34.7467 47.7332C31.5722 44.2681 29.8613 38.8862 29.8613 34.0304C29.8613 30.9273 30.6059 28.0475 31.877 25.6703C32.4755 24.5448 33.2236 23.5068 34.1009 22.5849C36.0668 20.5273 38.573 19.2949 41.3019 19.2949C44.0309 19.2949 46.5381 20.5273 48.503 22.5849C51.0845 25.2847 52.7347 29.4077 52.7347 34.0304Z" fill="white"/>
<path d="M52.7349 34.0315C52.726 36.6076 52.2748 39.1627 51.4012 41.5841C51.0612 39.0564 51.0748 36.3271 50.3958 33.6784C49.2526 29.2141 45.1352 27.721 40.625 27.9315C38.9503 28.0102 33.5392 27.5607 31.9739 27.0857C30.6148 26.6736 33.0839 26.2811 31.8762 25.6753C31.7248 25.5995 31.5763 25.5218 31.4277 25.4451V22.5859H48.5012C51.0846 25.2858 52.7349 29.4088 52.7349 34.0315Z" fill="#D9E7F0"/>
<path d="M54.6975 34.1826C54.2012 34.2712 53.7204 33.9653 53.2925 33.5384C52.7922 33.0466 52.3545 32.3936 52.0223 32.008C51.6217 31.5458 51.1976 31.1061 50.7716 30.6743C49.4819 29.3731 48.0465 28.2105 46.4109 27.4906C46.0108 27.3159 45.5995 27.1683 45.1798 27.049C44.4392 26.8365 43.6722 26.7746 43.0077 26.3182C42.3932 25.8963 41.888 25.2766 41.4132 24.6855C40.9383 24.0944 40.4673 23.0361 39.9016 22.6201C39.7877 22.796 39.6855 22.9793 39.5958 23.1689C39.4616 23.4023 39.3199 23.6295 39.1708 23.8505C38.8774 24.2808 38.5566 24.6915 38.2103 25.0799C37.5282 25.8444 36.7644 26.5308 35.9327 27.1267C35.8692 27.1709 35.8057 27.2172 35.7422 27.2604C35.3865 27.5122 35.027 27.7522 34.683 28.0247C33.2819 29.141 32.0762 30.5327 30.9526 31.9677C30.5461 32.488 30.1357 33.0073 29.7664 33.561C29.5407 33.8984 28.5538 35.6481 28.0301 35.3698C26.9778 34.8072 28.4063 21.8303 36.3871 18.263C40.6598 16.3549 45.4856 17.6827 48.71 20.2507C49.5604 20.9391 50.3301 21.7228 51.0042 22.5866C51.8838 23.711 52.6509 24.9201 53.2944 26.1962C55.2642 30.0606 55.9501 33.9623 54.6975 34.1826Z" fill="#003B62"/>
</g>
<defs>
<clipPath id="clip0_608_13326">
<rect width="85" height="96" fill="white"/>
</clipPath>
</defs>
</svg>
