<svg width="84" height="84" viewBox="0 0 84 84" fill="none" xmlns="http://www.w3.org/2000/svg">
<circle cx="42" cy="42" r="42" fill="#F2F4FC"/>
<g clip-path="url(#clip0_742_20122)">
<path d="M23.3564 28.074C21.7064 25.2435 19.4645 25.0759 18.8306 25.6672C18.1968 26.2584 20.0145 28.074 20.0145 28.074C20.0145 28.074 18.8306 27.6923 18.6162 28.2835C18.4018 28.8747 20.6204 29.7779 19.8281 31.4678C19.0357 33.1577 23.3564 28.074 23.3564 28.074Z" fill="#167CBF"/>
<path d="M41.9998 72.239C41.9998 72.239 19.4922 62.5884 11.7598 48.7525L21.9718 26.9047C21.0396 24.1627 16.691 23.6692 16.1131 26.9699C15.7635 28.9531 18.4855 31.588 20.1168 32.6169C20.1168 32.6169 18.9469 35.8757 18.4202 36.709C17.4181 35.9874 14.5889 33.9949 12.8644 31.0154C12.7619 30.8292 12.6733 30.6383 12.5894 30.4428C11.8948 28.75 11.8483 26.8611 12.4586 25.1362C13.0689 23.4113 14.2934 21.9711 15.8987 21.0901C19.4922 19.1581 24.3442 20.3033 25.8124 23.8275H25.8637C31.1165 20.4616 34.9292 20.0287 40.5829 22.6636L41.9998 23.3247" fill="#167CBF"/>
<path d="M41.9998 72.239C41.9998 72.239 64.5073 62.5884 72.2398 48.7525L62.0277 26.9047C62.9599 24.1627 67.3085 23.6692 67.8865 26.9699C68.236 28.9531 65.5141 31.588 63.8828 32.6169C63.8828 32.6169 65.0526 35.8757 65.5793 36.709C66.5814 36.006 69.4106 33.9949 71.1351 31.0154C71.2377 30.8292 71.3262 30.6383 71.4101 30.4428C72.1047 28.75 72.1513 26.8611 71.5409 25.1362C70.9306 23.4113 69.7061 21.9711 68.1009 21.0901C64.5073 19.1535 59.646 20.2987 58.1871 23.8228H58.1405C52.883 20.4616 49.0704 20.0287 43.4167 22.6636L41.9998 23.3247" fill="#167CBF"/>
<path d="M42 35.9883C36.9289 35.9883 35.0645 42.0869 35.3722 46.1696C35.628 48.4953 36.1167 50.7895 36.831 53.0177C36.973 53.7029 37.2554 54.3512 37.6607 54.9218C37.8679 55.2081 38.1563 55.4258 38.4886 55.547C38.8209 55.6681 39.1819 55.6871 39.525 55.6015C39.8415 55.4635 40.1095 55.2342 40.2947 54.9431C40.4799 54.652 40.5738 54.3122 40.5644 53.9675C40.5644 53.1528 40.1403 52.2775 39.8606 51.5187C39.4178 50.299 38.8678 49.1212 38.4623 47.8921C38.1501 46.9611 37.9963 45.76 39.1335 45.3922C40.131 45.071 40.392 45.9881 42.0186 45.9881C43.6453 45.9881 43.911 45.057 44.9084 45.3922C46.0503 45.76 45.8872 46.975 45.5749 47.8921C45.1647 49.1212 44.6148 50.299 44.1766 51.5187C43.8737 52.2822 43.4542 53.1528 43.4542 53.9675C43.4461 54.312 43.5405 54.6512 43.7255 54.9421C43.9106 55.233 44.1779 55.4625 44.4936 55.6015C44.8368 55.6871 45.1977 55.6681 45.53 55.547C45.8623 55.4258 46.1507 55.2081 46.3579 54.9218C46.7594 54.3496 47.0401 53.7018 47.1829 53.0177C47.8928 50.7883 48.3815 48.4946 48.6418 46.1696C48.9494 42.0869 47.0524 35.9883 42 35.9883Z" fill="#F5F5EB"/>
<path d="M50.3519 36.7423C50.3519 38.1389 51.4752 37.3103 52.8595 37.3103C54.2438 37.3103 55.3717 38.125 55.3717 36.7423C55.3863 36.404 55.3322 36.0663 55.2127 35.7494C55.0931 35.4325 54.9106 35.1431 54.6761 34.8986C54.4416 34.654 54.16 34.4594 53.8482 34.3265C53.5364 34.1935 53.2009 34.125 52.8618 34.125C52.5228 34.125 52.1873 34.1935 51.8755 34.3265C51.5637 34.4594 51.2821 34.654 51.0476 34.8986C50.8131 35.1431 50.6305 35.4325 50.511 35.7494C50.3914 36.0663 50.3373 36.404 50.3519 36.7423Z" fill="#F5F5EB"/>
<path d="M33.6661 36.7417C33.6661 38.1383 32.5381 37.3096 31.1538 37.3096C29.7695 37.3096 28.6416 38.1243 28.6416 36.7417C28.6416 36.0762 28.9063 35.4379 29.3774 34.9674C29.8486 34.4968 30.4875 34.2324 31.1538 34.2324C31.8201 34.2324 32.4591 34.4968 32.9302 34.9674C33.4014 35.4379 33.6661 36.0762 33.6661 36.7417Z" fill="#F5F5EB"/>
<path d="M38.6672 54.6457C38.5665 54.6313 38.4732 54.5844 38.4017 54.5121C38.3302 54.4398 38.2843 54.3461 38.2711 54.2453C38.2579 54.1445 38.2781 54.0422 38.3286 53.9539C38.379 53.8657 38.4571 53.7963 38.5507 53.7565C38.6672 53.7467 38.7831 53.781 38.8755 53.8526C38.9679 53.9242 39.0299 54.0278 39.0494 54.1429C39.0606 54.2594 39.0275 54.3758 38.9567 54.4689C38.8858 54.5621 38.7825 54.6252 38.6672 54.6457ZM38.4295 52.8534C38.4243 52.8121 38.411 52.7723 38.3904 52.7361C38.3698 52.7 38.3423 52.6682 38.3094 52.6427C38.2765 52.6172 38.2389 52.5984 38.1987 52.5875C38.1585 52.5765 38.1166 52.5735 38.0753 52.5787C37.9911 52.5903 37.9148 52.6343 37.8626 52.7012C37.8103 52.7682 37.7863 52.8528 37.7956 52.9372C37.8145 53.0141 37.8611 53.0813 37.9265 53.126C37.992 53.1706 38.0716 53.1896 38.1502 53.1792C38.2288 53.1688 38.3007 53.1298 38.3523 53.0697C38.4038 53.0096 38.4313 52.9325 38.4295 52.8534ZM39.5108 52.7137C39.4992 52.63 39.4551 52.5542 39.3879 52.5028C39.3207 52.4514 39.2359 52.4285 39.1519 52.4391C39.0754 52.4579 39.0085 52.5041 38.9638 52.5689C38.9192 52.6338 38.8999 52.7127 38.9097 52.7908C38.9194 52.8689 38.9576 52.9407 39.0168 52.9926C39.0761 53.0445 39.1524 53.0728 39.2312 53.0722C39.2731 53.067 39.3136 53.0536 39.3504 53.0328C39.3871 53.012 39.4194 52.9841 39.4454 52.9508C39.4714 52.9176 39.4905 52.8795 39.5017 52.8388C39.513 52.7981 39.5161 52.7556 39.5108 52.7137ZM37.763 51.8804C37.756 51.8268 37.7281 51.7781 37.6853 51.7449C37.6425 51.7118 37.5884 51.6969 37.5346 51.7035C37.4957 51.7092 37.4594 51.7262 37.4301 51.7524C37.4008 51.7785 37.3799 51.8127 37.3699 51.8507C37.3599 51.8887 37.3613 51.9287 37.3739 51.9659C37.3865 52.0031 37.4098 52.0357 37.4409 52.0598C37.4719 52.0838 37.5094 52.0982 37.5486 52.1012C37.5878 52.1041 37.627 52.0955 37.6613 52.0764C37.6956 52.0573 37.7236 52.0285 37.7416 51.9937C37.7597 51.9588 37.7672 51.9194 37.763 51.8804ZM38.7371 51.7501C38.7302 51.6977 38.7027 51.6501 38.6608 51.6179C38.6189 51.5856 38.5659 51.5712 38.5134 51.5778C38.4845 51.5785 38.4562 51.5856 38.4304 51.5985C38.4046 51.6114 38.382 51.6299 38.3641 51.6526C38.3463 51.6753 38.3337 51.7016 38.3273 51.7298C38.3209 51.7579 38.3208 51.7871 38.327 51.8152C38.3291 51.8425 38.3369 51.8689 38.3497 51.8931C38.3625 51.9172 38.3801 51.9384 38.4014 51.9555C38.4228 51.9726 38.4474 51.9851 38.4738 51.9923C38.5001 51.9996 38.5277 52.0013 38.5548 51.9975C38.5818 51.9937 38.6078 51.9844 38.6312 51.9701C38.6545 51.9559 38.6747 51.9371 38.6905 51.9148C38.7062 51.8925 38.7173 51.8672 38.7229 51.8404C38.7285 51.8137 38.7286 51.7861 38.7231 51.7594L38.7371 51.7501ZM37.8609 50.8842C37.8581 50.8575 37.8498 50.8317 37.8366 50.8083C37.8234 50.785 37.8056 50.7646 37.7841 50.7485C37.7627 50.7323 37.7382 50.7207 37.7121 50.7144C37.686 50.7082 37.6589 50.7073 37.6325 50.7119C37.5935 50.7177 37.557 50.7349 37.5277 50.7614C37.4984 50.7878 37.4776 50.8223 37.4679 50.8605C37.4582 50.8987 37.4599 50.939 37.473 50.9762C37.4861 51.0134 37.5098 51.0459 37.5413 51.0696C37.5728 51.0934 37.6107 51.1073 37.6501 51.1097C37.6895 51.1121 37.7287 51.1028 37.7628 51.083C37.797 51.0631 37.8245 51.0337 37.8419 50.9983C37.8594 50.963 37.866 50.9233 37.8609 50.8842Z" fill="#167CBF"/>
<path d="M44.9502 54.1438C44.9697 54.0287 45.0317 53.9251 45.1241 53.8535C45.2165 53.7819 45.3324 53.7476 45.4489 53.7574C45.5424 53.7653 45.6314 53.8012 45.7041 53.8604C45.7769 53.9196 45.8301 53.9993 45.8567 54.0892C45.8833 54.1791 45.8822 54.2749 45.8534 54.3641C45.8247 54.4533 45.7696 54.5317 45.6955 54.5892C45.6213 54.6466 45.5315 54.6804 45.4379 54.686C45.3442 54.6917 45.251 54.669 45.1705 54.6208C45.09 54.5727 45.0259 54.5015 44.9866 54.4163C44.9472 54.3312 44.9346 54.2363 44.9502 54.1438ZM45.8451 53.2128C45.9291 53.2234 46.0138 53.2005 46.081 53.1491C46.1482 53.0976 46.1924 53.0218 46.204 52.9381C46.2133 52.8537 46.1893 52.7691 46.137 52.7021C46.0848 52.6352 46.0085 52.5912 45.9243 52.5796C45.8455 52.579 45.7693 52.6074 45.71 52.6592C45.6507 52.7111 45.6126 52.7829 45.6028 52.861C45.593 52.9391 45.6123 53.0181 45.657 53.0829C45.7016 53.1478 45.7686 53.194 45.8451 53.2128ZM44.7684 53.0731C44.8098 53.079 44.852 53.0765 44.8924 53.0657C44.9328 53.055 44.9707 53.0363 45.0037 53.0107C45.0368 52.985 45.0643 52.9531 45.0848 52.9166C45.1052 52.8801 45.1181 52.84 45.1227 52.7984C45.1285 52.7568 45.1261 52.7144 45.1154 52.6738C45.1047 52.6331 45.086 52.595 45.0604 52.5616C45.0348 52.5282 45.0028 52.5003 44.9663 52.4794C44.9298 52.4585 44.8894 52.4451 44.8477 52.44C44.8036 52.4291 44.7577 52.4277 44.713 52.4359C44.6684 52.444 44.6259 52.4615 44.5885 52.4872C44.5511 52.5129 44.5196 52.5463 44.496 52.585C44.4724 52.6238 44.4573 52.6671 44.4517 52.712C44.4461 52.757 44.45 52.8027 44.4634 52.8461C44.4767 52.8894 44.499 52.9295 44.5289 52.9636C44.5588 52.9977 44.5957 53.0251 44.6369 53.044C44.6782 53.0628 44.723 53.0728 44.7684 53.0731ZM46.4137 52.1048C46.4669 52.1116 46.5206 52.097 46.5629 52.0642C46.6053 52.0315 46.633 51.9833 46.6398 51.9302C46.6466 51.8771 46.632 51.8235 46.5992 51.7812C46.5664 51.7388 46.5181 51.7112 46.465 51.7044C46.4113 51.6978 46.3571 51.7127 46.3143 51.7459C46.2715 51.779 46.2436 51.8277 46.2366 51.8813C46.2334 51.9076 46.2354 51.9343 46.2426 51.9599C46.2497 51.9854 46.2619 52.0092 46.2784 52.03C46.2949 52.0508 46.3153 52.0681 46.3385 52.081C46.3618 52.0938 46.3873 52.1019 46.4137 52.1048ZM45.4349 51.9791C45.4874 51.9857 45.5404 51.9713 45.5823 51.939C45.6243 51.9067 45.6517 51.8592 45.6587 51.8068C45.6633 51.7804 45.6624 51.7534 45.6561 51.7273C45.6498 51.7012 45.6382 51.6768 45.622 51.6554C45.6059 51.634 45.5855 51.6161 45.5621 51.6029C45.5387 51.5898 45.5129 51.5815 45.4862 51.5787C45.433 51.5719 45.3794 51.5865 45.337 51.6192C45.2946 51.652 45.2669 51.7002 45.2601 51.7533C45.2533 51.8064 45.2679 51.86 45.3007 51.9023C45.3335 51.9447 45.3818 51.9723 45.4349 51.9791ZM46.3345 51.1271C46.3613 51.1326 46.3889 51.1325 46.4157 51.1269C46.4424 51.1213 46.4677 51.1102 46.4901 51.0945C46.5124 51.0787 46.5313 51.0586 46.5455 51.0353C46.5598 51.012 46.5691 50.986 46.5729 50.959C46.5767 50.9319 46.575 50.9044 46.5677 50.8781C46.5605 50.8517 46.548 50.8271 46.5309 50.8058C46.5138 50.7845 46.4925 50.7669 46.4683 50.7541C46.4442 50.7413 46.4177 50.7336 46.3904 50.7314C46.364 50.7268 46.3369 50.7277 46.3108 50.734C46.2847 50.7403 46.2602 50.7519 46.2388 50.768C46.2173 50.7842 46.1995 50.8045 46.1863 50.8279C46.1731 50.8512 46.1648 50.877 46.162 50.9037C46.1554 50.9561 46.1698 51.0091 46.2021 51.0509C46.2345 51.0928 46.282 51.1202 46.3345 51.1271Z" fill="#167CBF"/>
<path d="M60.6436 28.074C62.2935 25.2435 64.5354 25.0759 65.1693 25.6672C65.8032 26.2584 63.9854 28.074 63.9854 28.074C63.9854 28.074 65.1693 27.6923 65.3837 28.2835C65.5981 28.8747 63.3795 29.7779 64.1719 31.4678C64.9642 33.1577 60.6436 28.074 60.6436 28.074Z" fill="#167CBF"/>
</g>
<defs>
<clipPath id="clip0_742_20122">
<rect width="60.48" height="52.08" fill="white" transform="translate(11.7598 20.1602)"/>
</clipPath>
</defs>
</svg>
