<svg width="86" height="100" viewBox="0 0 86 100" fill="none" xmlns="http://www.w3.org/2000/svg">
<g filter="url(#filter0_d_1325_9738)">
<path d="M84 93.4957C84 95.1014 83.029 96 81.4828 96H13.5173C11.971 96 11 95.1014 11 93.4957V3.33913C10.9951 1.73954 11.971 0 13.5173 0H63.8621C67.537 3.97413 82.455 18.8937 84 20.8696V93.4957Z" fill="#D9E7F0"/>
</g>
<g filter="url(#filter1_d_1325_9738)">
<path d="M58 13H0V37H58V13Z" fill="#167CBF"/>
</g>
<path d="M64 0V21H84C82.4941 19.0173 67.5932 3.9965 64 0Z" fill="#88C4EB"/>
<path d="M11.3571 32V17.4545H16.2718C17.4129 17.4545 18.3457 17.6605 19.0701 18.0724C19.7993 18.4796 20.3391 19.0312 20.6895 19.7273C21.0398 20.4233 21.215 21.1998 21.215 22.0568C21.215 22.9138 21.0398 23.6927 20.6895 24.3935C20.3438 25.0942 19.8088 25.6529 19.0843 26.0696C18.3599 26.4815 17.4319 26.6875 16.3002 26.6875H12.7775V25.125H16.2434C17.0247 25.125 17.652 24.9901 18.1255 24.7202C18.599 24.4503 18.9423 24.0857 19.1554 23.6264C19.3732 23.1624 19.4821 22.6392 19.4821 22.0568C19.4821 21.4744 19.3732 20.9536 19.1554 20.4943C18.9423 20.035 18.5967 19.6752 18.1184 19.4148C17.6402 19.1496 17.0057 19.017 16.215 19.017H13.1184V32H11.3571ZM28.541 32H24.0524V17.4545H28.7399C30.1509 17.4545 31.3583 17.7457 32.362 18.3281C33.3658 18.9058 34.1352 19.7367 34.6703 20.821C35.2053 21.9006 35.4728 23.1932 35.4728 24.6989C35.4728 26.214 35.2029 27.5185 34.6632 28.6122C34.1234 29.7012 33.3374 30.5393 32.3052 31.1264C31.273 31.7088 30.0183 32 28.541 32ZM25.8137 30.4375H28.4274C29.63 30.4375 30.6267 30.2055 31.4174 29.7415C32.2082 29.2775 32.7976 28.617 33.1859 27.7599C33.5742 26.9029 33.7683 25.8826 33.7683 24.6989C33.7683 23.5246 33.5765 22.5137 33.193 21.6662C32.8095 20.8139 32.2366 20.1605 31.4743 19.706C30.7119 19.2467 29.7626 19.017 28.6262 19.017H25.8137V30.4375ZM38.4274 32V17.4545H47.149V19.017H40.1887V23.9318H46.4956V25.4943H40.1887V32H38.4274Z" fill="#D9E7F0"/>
<path fill-rule="evenodd" clip-rule="evenodd" d="M49.147 51.7166C49.097 54.1193 48.5747 56.4511 47.9252 58.7601C47.6488 59.7391 47.3246 60.7055 47.0319 61.6762C46.9953 61.7874 47.0015 61.9075 47.0493 62.0147C48.8739 65.0797 51.0184 67.9125 53.6786 70.3715C53.7406 70.4357 53.8193 70.4829 53.9067 70.5084C53.9941 70.5338 54.0869 70.5365 54.1758 70.5162C56.9382 70.083 59.7148 69.8257 62.5175 69.9955C64.0647 70.0934 65.5955 70.2986 67.0001 70.9787C67.4177 71.1774 67.804 71.4312 68.148 71.7327C68.4696 72.0133 68.7128 72.3664 68.8555 72.76C68.9983 73.1535 69.036 73.5749 68.9653 73.9859C68.8946 74.397 68.7177 74.7846 68.4507 75.1135C68.1837 75.4424 67.835 75.7023 67.4364 75.8694C66.4659 76.2923 65.4301 76.3266 64.39 76.2568C61.1358 76.0413 58.2971 74.7988 55.699 72.9877C55.0462 72.5294 54.4336 72.0055 53.7917 71.5296C53.6827 71.4501 53.5463 71.4129 53.4098 71.4254C49.3959 72.1235 45.4439 73.1155 41.5886 74.3926C41.4517 74.445 41.3368 74.5395 41.2622 74.6613C39.937 76.9036 38.5117 79.0761 36.8275 81.082C35.6905 82.4359 34.4644 83.7044 32.9716 84.7105C32.024 85.3479 31.0132 85.8488 29.8393 85.9707C28.8731 86.0748 27.9592 85.9071 27.1443 85.377C26.0214 84.6449 25.6918 83.3868 26.3032 82.1672C26.7656 81.2466 27.5 80.5352 28.2975 79.8843C30.0101 78.4918 31.9467 77.4295 33.9606 76.5005C35.2434 75.909 36.5631 75.3924 37.8611 74.8342C38.0024 74.7727 38.1214 74.6723 38.2028 74.5457C40.1764 71.1901 41.7464 67.6605 43.1532 64.0612C43.6645 62.7541 44.1324 61.4335 44.6307 60.1213C44.6615 60.047 44.6756 59.9673 44.6721 59.8874C44.6685 59.8076 44.6474 59.7293 44.61 59.6578C43.6613 57.6363 42.928 55.5482 42.5254 53.3611C42.2491 51.8582 42.0967 50.3408 42.4014 48.8306C42.4916 48.3604 42.6448 47.9032 42.8572 47.4705C43.6112 45.9905 45.3869 45.5698 46.9917 46.4738C47.7228 46.8904 48.1787 47.5298 48.5051 48.262C49.0001 49.3628 49.1492 50.5251 49.147 51.7166ZM46.6566 62.8697C45.3227 66.4836 43.9257 70.0299 41.9868 73.4344C45.5947 72.3044 49.1753 71.3682 52.8908 70.7266C50.3982 68.377 48.4126 65.7234 46.6566 62.8697ZM37.4031 75.8882C37.316 75.9121 37.2845 75.9173 37.2551 75.9288C35.2782 76.7318 33.3437 77.6128 31.5039 78.6762C30.2668 79.3875 29.0766 80.1655 28.0669 81.1622C27.5718 81.6475 27.1279 82.1703 26.9071 82.8286C26.5208 83.9804 27.3684 85.0219 28.6229 84.924C28.8985 84.8989 29.1691 84.8372 29.4269 84.7407C30.1504 84.4762 30.7586 84.0325 31.3353 83.5503C32.5614 82.5213 33.5885 81.3236 34.5525 80.0718C35.578 78.7256 36.5295 77.3292 37.4031 75.8882ZM54.6752 71.2203C54.9428 71.4338 55.1604 71.6119 55.3835 71.7816C57.4061 73.3303 59.6158 74.5322 62.1476 75.1425C63.0311 75.3508 63.908 75.3924 64.774 75.0758C65.6825 74.7436 66.2048 74.0625 66.2374 73.1803C66.2701 72.2982 65.8251 71.6317 64.9166 71.2307C64.7785 71.1688 64.636 71.1166 64.4901 71.0745C63.438 70.7745 62.3511 70.7329 61.2652 70.7027C59.5677 70.6671 57.8699 70.7632 56.1886 70.9901C55.7022 71.0474 55.2213 71.1328 54.6752 71.2161V71.2203ZM45.1116 58.7799C45.1573 58.6518 45.1845 58.5851 45.2041 58.5174C45.5522 57.3301 45.932 56.1512 46.2409 54.9556C46.6761 53.2684 47.0189 51.5614 47.0482 49.8138C47.0613 49.0535 47.0069 48.2995 46.6065 47.6163C46.019 46.6113 44.672 46.4832 43.9278 47.383C43.6743 47.7063 43.4865 48.0723 43.3741 48.462C43.0107 49.643 43.0542 50.8574 43.1836 52.0634C43.3762 53.8495 43.856 55.5721 44.4947 57.2551C44.6818 57.7478 44.8907 58.2341 45.1116 58.7757V58.7799Z" fill="#88C4EB"/>
<defs>
<filter id="filter0_d_1325_9738" x="9" y="0" width="77" height="100" filterUnits="userSpaceOnUse" color-interpolation-filters="sRGB">
<feFlood flood-opacity="0" result="BackgroundImageFix"/>
<feColorMatrix in="SourceAlpha" type="matrix" values="0 0 0 0 0 0 0 0 0 0 0 0 0 0 0 0 0 0 127 0" result="hardAlpha"/>
<feOffset dy="2"/>
<feGaussianBlur stdDeviation="1"/>
<feComposite in2="hardAlpha" operator="out"/>
<feColorMatrix type="matrix" values="0 0 0 0 0.430625 0 0 0 0 0.565885 0 0 0 0 0.6625 0 0 0 0.29 0"/>
<feBlend mode="normal" in2="BackgroundImageFix" result="effect1_dropShadow_1325_9738"/>
<feBlend mode="normal" in="SourceGraphic" in2="effect1_dropShadow_1325_9738" result="shape"/>
</filter>
<filter id="filter1_d_1325_9738" x="-2" y="13" width="62" height="28" filterUnits="userSpaceOnUse" color-interpolation-filters="sRGB">
<feFlood flood-opacity="0" result="BackgroundImageFix"/>
<feColorMatrix in="SourceAlpha" type="matrix" values="0 0 0 0 0 0 0 0 0 0 0 0 0 0 0 0 0 0 127 0" result="hardAlpha"/>
<feOffset dy="2"/>
<feGaussianBlur stdDeviation="1"/>
<feComposite in2="hardAlpha" operator="out"/>
<feColorMatrix type="matrix" values="0 0 0 0 0.430625 0 0 0 0 0.565885 0 0 0 0 0.6625 0 0 0 0.29 0"/>
<feBlend mode="normal" in2="BackgroundImageFix" result="effect1_dropShadow_1325_9738"/>
<feBlend mode="normal" in="SourceGraphic" in2="effect1_dropShadow_1325_9738" result="shape"/>
</filter>
</defs>
</svg>
