<svg width="52" height="52" viewBox="0 0 52 52" fill="none" xmlns="http://www.w3.org/2000/svg">
<g clip-path="url(#clip0_701_19792)">
<path d="M10.5872 6.53585C9.2231 4.19885 7.36968 4.06048 6.84563 4.54863C6.32159 5.03679 7.82436 6.53585 7.82436 6.53585C7.82436 6.53585 6.84563 6.22066 6.66838 6.70882C6.49113 7.19697 8.32529 7.94266 7.67023 9.33794C7.01518 10.7332 10.5872 6.53585 10.5872 6.53585Z" fill="black"/>
<path d="M26 43.0039C26 43.0039 7.39257 35.0358 1 23.6122L9.44251 5.57349C8.67186 3.30953 5.07676 2.90209 4.59895 5.62731C4.30996 7.26474 6.56027 9.4403 7.90891 10.2898C7.90891 10.2898 6.94174 12.9804 6.50632 13.6684C5.67787 13.0726 3.33893 11.4275 1.91322 8.96752C1.82845 8.81377 1.75524 8.65618 1.68588 8.49474C1.11167 7.09708 1.07317 5.53749 1.57773 4.11333C2.08229 2.68917 3.09462 1.50004 4.4217 0.772653C7.39257 -0.822502 11.4038 0.12306 12.6176 3.03278H12.66C17.0026 0.253748 20.1546 -0.103721 24.8286 2.07184L26 2.61765" fill="black"/>
<path d="M26 43.0039C26 43.0039 44.6074 35.0358 51 23.6122L42.5575 5.57349C43.3281 3.30953 46.9232 2.90209 47.401 5.62731C47.69 7.26474 45.4397 9.4403 44.0911 10.2898C44.0911 10.2898 45.0583 12.9804 45.4937 13.6684C46.3221 13.088 48.6611 11.4275 50.0868 8.96752C50.1716 8.81377 50.2448 8.65618 50.3141 8.49474C50.8883 7.09708 50.9268 5.53749 50.4223 4.11333C49.9177 2.68917 48.9054 1.50004 47.5783 0.772653C44.6074 -0.826345 40.5885 0.119216 39.3824 3.02893H39.3439C34.9974 0.253747 31.8454 -0.103721 27.1714 2.07184L26 2.61765" fill="black"/>
<path d="M26.0002 13.0684C21.8078 13.0684 20.2665 18.1037 20.5209 21.4746C20.7323 23.3948 21.1364 25.289 21.7269 27.1288C21.8443 27.6944 22.0778 28.2297 22.4128 28.7009C22.5842 28.9373 22.8226 29.117 23.0973 29.2171C23.372 29.3171 23.6704 29.3327 23.9541 29.2621C24.2157 29.1481 24.4373 28.9588 24.5904 28.7184C24.7435 28.4781 24.8211 28.1976 24.8134 27.9129C24.8134 27.2403 24.4628 26.5176 24.2316 25.8911C23.8655 24.884 23.4108 23.9116 23.0756 22.8968C22.8174 22.1281 22.6902 21.1364 23.6304 20.8327C24.455 20.5675 24.6708 21.3247 26.0156 21.3247C27.3604 21.3247 27.58 20.556 28.4046 20.8327C29.3487 21.1364 29.2138 22.1396 28.9557 22.8968C28.6166 23.9116 28.1619 24.884 27.7997 25.8911C27.5492 26.5215 27.2024 27.2403 27.2024 27.9129C27.1957 28.1974 27.2738 28.4774 27.4268 28.7176C27.5797 28.9578 27.8007 29.1473 28.0617 29.2621C28.3454 29.3327 28.6439 29.3171 28.9186 29.2171C29.1933 29.117 29.4317 28.9373 29.603 28.7009C29.9349 28.2284 30.167 27.6936 30.285 27.1288C30.8719 25.2881 31.2759 23.3942 31.4911 21.4746C31.7454 18.1037 30.1771 13.0684 26.0002 13.0684Z" fill="#F5F5EB"/>
<path d="M32.9043 13.6922C32.9043 14.8454 33.8329 14.1612 34.9773 14.1612C36.1217 14.1612 37.0542 14.8338 37.0542 13.6922C37.0663 13.4129 37.0216 13.1341 36.9227 12.8724C36.8239 12.6108 36.673 12.3719 36.4791 12.17C36.2853 11.968 36.0524 11.8074 35.7947 11.6976C35.5369 11.5878 35.2595 11.5312 34.9793 11.5312C34.699 11.5312 34.4216 11.5878 34.1638 11.6976C33.9061 11.8074 33.6732 11.968 33.4794 12.17C33.2855 12.3719 33.1346 12.6108 33.0358 12.8724C32.9369 13.1341 32.8922 13.4129 32.9043 13.6922Z" fill="#F5F5EB"/>
<path d="M19.1109 13.6929C19.1109 14.846 18.1784 14.1618 17.0339 14.1618C15.8895 14.1618 14.957 14.8345 14.957 13.6929C14.957 13.1434 15.1758 12.6164 15.5653 12.2279C15.9548 11.8394 16.4831 11.6211 17.0339 11.6211C17.5848 11.6211 18.113 11.8394 18.5025 12.2279C18.892 12.6164 19.1109 13.1434 19.1109 13.6929Z" fill="#F5F5EB"/>
<path d="M23.244 28.475C23.1607 28.4631 23.0836 28.4243 23.0245 28.3646C22.9654 28.3049 22.9275 28.2276 22.9165 28.1444C22.9056 28.0612 22.9223 27.9767 22.964 27.9038C23.0058 27.8309 23.0703 27.7737 23.1477 27.7408C23.244 27.7327 23.3398 27.761 23.4162 27.8201C23.4926 27.8792 23.5439 27.9648 23.56 28.0599C23.5692 28.156 23.5418 28.2521 23.4833 28.329C23.4247 28.4059 23.3393 28.458 23.244 28.475ZM23.0475 26.9951C23.0432 26.9611 23.0322 26.9282 23.0152 26.8983C22.9981 26.8685 22.9754 26.8423 22.9482 26.8212C22.921 26.8001 22.8899 26.7846 22.8567 26.7756C22.8235 26.7665 22.7888 26.7641 22.7546 26.7684C22.6851 26.778 22.622 26.8142 22.5788 26.8695C22.5356 26.9248 22.5158 26.9947 22.5234 27.0643C22.539 27.1278 22.5776 27.1833 22.6317 27.2202C22.6858 27.2571 22.7516 27.2727 22.8166 27.2641C22.8815 27.2556 22.941 27.2234 22.9836 27.1737C23.0262 27.1241 23.049 27.0605 23.0475 26.9951ZM23.9414 26.8798C23.9319 26.8107 23.8953 26.7481 23.8398 26.7057C23.7842 26.6632 23.7142 26.6443 23.6447 26.653C23.5815 26.6686 23.5261 26.7067 23.4892 26.7603C23.4523 26.8138 23.4364 26.879 23.4444 26.9435C23.4525 27.008 23.4841 27.0672 23.5331 27.1101C23.582 27.1529 23.6451 27.1763 23.7102 27.1758C23.7449 27.1715 23.7784 27.1605 23.8088 27.1433C23.8392 27.1261 23.8659 27.1031 23.8873 27.0756C23.9088 27.0481 23.9246 27.0167 23.9339 26.9831C23.9432 26.9495 23.9458 26.9144 23.9414 26.8798ZM22.4965 26.1918C22.4907 26.1475 22.4676 26.1073 22.4322 26.08C22.3969 26.0526 22.3521 26.0403 22.3077 26.0457C22.2755 26.0504 22.2455 26.0645 22.2212 26.0861C22.197 26.1077 22.1797 26.1359 22.1715 26.1673C22.1632 26.1986 22.1644 26.2317 22.1748 26.2624C22.1852 26.2931 22.2045 26.32 22.2302 26.3399C22.2558 26.3597 22.2868 26.3716 22.3192 26.3741C22.3516 26.3765 22.384 26.3694 22.4124 26.3536C22.4408 26.3379 22.4639 26.3141 22.4788 26.2853C22.4938 26.2566 22.4999 26.224 22.4965 26.1918ZM23.3018 26.0842C23.296 26.0409 23.2734 26.0017 23.2387 25.975C23.2041 25.9484 23.1603 25.9365 23.1168 25.942C23.093 25.9425 23.0695 25.9484 23.0482 25.959C23.0269 25.9697 23.0082 25.985 22.9934 26.0037C22.9787 26.0225 22.9683 26.0442 22.963 26.0674C22.9577 26.0906 22.9576 26.1147 22.9627 26.138C22.9645 26.1605 22.9709 26.1823 22.9815 26.2022C22.9921 26.2222 23.0066 26.2397 23.0243 26.2538C23.0419 26.2679 23.0623 26.2783 23.0841 26.2842C23.1059 26.2902 23.1287 26.2916 23.151 26.2885C23.1734 26.2853 23.1949 26.2776 23.2142 26.2659C23.2335 26.2541 23.2502 26.2386 23.2632 26.2202C23.2763 26.2017 23.2854 26.1809 23.29 26.1588C23.2947 26.1367 23.2947 26.114 23.2902 26.0919L23.3018 26.0842ZM22.5774 25.3692C22.5751 25.3472 22.5683 25.3259 22.5573 25.3066C22.5464 25.2874 22.5317 25.2706 22.514 25.2572C22.4962 25.2439 22.476 25.2343 22.4544 25.2291C22.4328 25.2239 22.4104 25.2232 22.3886 25.227C22.3563 25.2318 22.3262 25.246 22.302 25.2679C22.2778 25.2897 22.2605 25.3182 22.2525 25.3497C22.2445 25.3813 22.2459 25.4145 22.2567 25.4452C22.2675 25.4759 22.2872 25.5028 22.3132 25.5224C22.3393 25.542 22.3705 25.5535 22.4031 25.5555C22.4357 25.5574 22.4681 25.5497 22.4963 25.5334C22.5245 25.517 22.5473 25.4927 22.5617 25.4635C22.5761 25.4343 22.5816 25.4015 22.5774 25.3692Z" fill="black"/>
<path d="M28.4396 28.0582C28.4556 27.9631 28.507 27.8775 28.5833 27.8184C28.6597 27.7593 28.7555 27.731 28.8519 27.7391C28.9292 27.7456 29.0027 27.7752 29.0628 27.8241C29.123 27.873 29.167 27.9388 29.189 28.013C29.211 28.0872 29.2101 28.1663 29.1863 28.24C29.1625 28.3136 29.117 28.3784 29.0557 28.4259C28.9944 28.4733 28.9202 28.5012 28.8427 28.5058C28.7653 28.5105 28.6883 28.4917 28.6217 28.452C28.5551 28.4123 28.5021 28.3534 28.4696 28.2831C28.4371 28.2129 28.4266 28.1345 28.4396 28.0582ZM29.1794 27.2894C29.2488 27.2982 29.3189 27.2793 29.3744 27.2368C29.43 27.1944 29.4665 27.1318 29.4761 27.0626C29.4838 26.993 29.4639 26.9231 29.4207 26.8678C29.3776 26.8125 29.3145 26.7762 29.2449 26.7667C29.1797 26.7662 29.1167 26.7896 29.0677 26.8324C29.0187 26.8752 28.9872 26.9345 28.9791 26.999C28.971 27.0635 28.9869 27.1287 29.0239 27.1822C29.0608 27.2357 29.1161 27.2739 29.1794 27.2894ZM28.2893 27.1741C28.3235 27.1789 28.3584 27.1769 28.3918 27.168C28.4252 27.1592 28.4565 27.1437 28.4838 27.1225C28.5111 27.1014 28.5339 27.075 28.5508 27.0449C28.5677 27.0148 28.5783 26.9816 28.5821 26.9473C28.587 26.9129 28.585 26.878 28.5761 26.8444C28.5673 26.8108 28.5518 26.7793 28.5307 26.7518C28.5095 26.7242 28.4831 26.7012 28.4529 26.6839C28.4227 26.6667 28.3893 26.6556 28.3548 26.6513C28.3183 26.6424 28.2804 26.6413 28.2435 26.648C28.2066 26.6547 28.1715 26.6692 28.1406 26.6904C28.1097 26.7116 28.0836 26.7391 28.0641 26.7711C28.0446 26.8031 28.0321 26.8388 28.0274 26.876C28.0228 26.9131 28.0261 26.9509 28.0371 26.9866C28.0481 27.0224 28.0666 27.0555 28.0913 27.0837C28.116 27.1118 28.1465 27.1344 28.1806 27.15C28.2147 27.1656 28.2517 27.1738 28.2893 27.1741ZM29.6495 26.3746C29.6934 26.3802 29.7378 26.3682 29.7729 26.3411C29.8079 26.3141 29.8307 26.2743 29.8364 26.2305C29.842 26.1866 29.8299 26.1424 29.8028 26.1074C29.7757 26.0724 29.7358 26.0496 29.6919 26.044C29.6474 26.0386 29.6027 26.0509 29.5673 26.0782C29.5319 26.1056 29.5088 26.1458 29.5031 26.1901C29.5004 26.2118 29.5021 26.2339 29.508 26.2549C29.5139 26.276 29.524 26.2957 29.5376 26.3129C29.5512 26.3301 29.5681 26.3443 29.5873 26.3549C29.6065 26.3655 29.6277 26.3722 29.6495 26.3746ZM28.8403 26.2708C28.8837 26.2763 28.9275 26.2644 28.9622 26.2377C28.9968 26.2111 29.0195 26.1719 29.0253 26.1286C29.0291 26.1068 29.0284 26.0844 29.0231 26.0629C29.0179 26.0414 29.0084 26.0212 28.995 26.0035C28.9816 25.9859 28.9647 25.9711 28.9454 25.9602C28.9261 25.9494 28.9048 25.9426 28.8827 25.9403C28.8387 25.9346 28.7944 25.9467 28.7593 25.9737C28.7243 26.0007 28.7014 26.0406 28.6958 26.0844C28.6902 26.1282 28.7022 26.1725 28.7293 26.2075C28.7564 26.2424 28.7964 26.2652 28.8403 26.2708ZM29.584 25.5674C29.6061 25.5719 29.629 25.5718 29.6511 25.5672C29.6732 25.5626 29.6941 25.5535 29.7126 25.5405C29.7311 25.5274 29.7467 25.5108 29.7584 25.4916C29.7702 25.4723 29.7779 25.4509 29.7811 25.4286C29.7842 25.4062 29.7828 25.3835 29.7768 25.3617C29.7708 25.34 29.7605 25.3197 29.7463 25.3021C29.7322 25.2845 29.7146 25.27 29.6946 25.2594C29.6747 25.2489 29.6527 25.2425 29.6302 25.2407C29.6084 25.2369 29.586 25.2376 29.5644 25.2428C29.5428 25.248 29.5225 25.2575 29.5048 25.2709C29.4871 25.2842 29.4724 25.301 29.4615 25.3203C29.4505 25.3396 29.4437 25.3609 29.4414 25.3829C29.4359 25.4262 29.4479 25.4699 29.4746 25.5045C29.5013 25.539 29.5406 25.5617 29.584 25.5674Z" fill="black"/>
<path d="M41.4121 6.53585C42.7762 4.19885 44.6296 4.06048 45.1536 4.54863C45.6777 5.03679 44.1749 6.53585 44.1749 6.53585C44.1749 6.53585 45.1536 6.22066 45.3309 6.70882C45.5081 7.19697 43.674 7.94266 44.329 9.33794C44.9841 10.7332 41.4121 6.53585 41.4121 6.53585Z" fill="black"/>
<g clip-path="url(#clip1_701_19792)">
<path fill-rule="evenodd" clip-rule="evenodd" d="M19 38.8949L24.6153 46.546L21.8634 52L30.1227 52L27.369 46.546L33 38.8949L25.9687 7L19 38.8949Z" fill="black"/>
</g>
</g>
<defs>
<clipPath id="clip0_701_19792">
<rect width="52" height="52" fill="white"/>
</clipPath>
<clipPath id="clip1_701_19792">
<rect width="14" height="40" fill="white" transform="translate(19 44)"/>
</clipPath>
</defs>
</svg>
